<svg width="277" height="268" viewBox="0 0 277 268" fill="none" xmlns="http://www.w3.org/2000/svg">
<path d="M0 23C78.1483 23 141.5 86.3517 141.5 164.5C141.5 204.573 124.842 240.755 98.0729 266.5" stroke="black" stroke-width="3"/>
<rect x="28" width="146" height="36" rx="18" fill="#070C28"/>
<path d="M54.953 23H52.947L48.153 11.1H50.244L53.95 20.756L57.656 11.1H59.747L54.953 23ZM62.5553 23H60.7363V14.84H62.5553V23ZM62.7593 12.188C62.7593 12.936 62.2493 13.276 61.6543 13.276C61.0593 13.276 60.5323 12.936 60.5323 12.188C60.5323 11.474 61.0593 11.117 61.6543 11.117C62.2493 11.117 62.7593 11.474 62.7593 12.188ZM64.1043 17.05C64.1043 15.265 65.7363 14.619 67.3513 14.619C68.4733 14.619 69.4933 14.908 70.2923 15.316V16.914C69.6123 16.455 68.4393 16.115 67.4703 16.115C66.7393 16.115 65.9573 16.336 65.9573 16.999C65.9573 18.58 70.8703 17.849 70.8703 20.824C70.8703 22.626 69.2043 23.221 67.3513 23.221C66.1613 23.221 64.9543 22.932 64.1553 22.439V20.824C65.0053 21.385 66.2463 21.691 67.2663 21.691C68.2863 21.691 69.0343 21.521 69.0343 20.858C69.0343 19.345 64.1043 19.974 64.1043 17.05ZM74.0277 23H72.2087V14.84H74.0277V23ZM74.2317 12.188C74.2317 12.936 73.7217 13.276 73.1267 13.276C72.5317 13.276 72.0047 12.936 72.0047 12.188C72.0047 11.474 72.5317 11.117 73.1267 11.117C73.7217 11.117 74.2317 11.474 74.2317 12.188ZM76.5967 12.375L78.3987 11.933V14.84H81.3567V16.438H78.3987V20.178C78.3987 21.249 78.8917 21.606 79.9457 21.606C80.5407 21.606 81.0847 21.487 81.5947 21.283V22.847C80.9827 23.068 80.2007 23.204 79.4017 23.204C77.8207 23.204 76.5967 22.422 76.5967 20.518V16.438H75.1347V14.84H76.5967V12.375ZM85.9865 17.05C85.9865 15.265 87.6185 14.619 89.2335 14.619C90.3555 14.619 91.3755 14.908 92.1745 15.316V16.914C91.4945 16.455 90.3215 16.115 89.3525 16.115C88.6215 16.115 87.8395 16.336 87.8395 16.999C87.8395 18.58 92.7525 17.849 92.7525 20.824C92.7525 22.626 91.0865 23.221 89.2335 23.221C88.0435 23.221 86.8365 22.932 86.0375 22.439V20.824C86.8875 21.385 88.1285 21.691 89.1485 21.691C90.1685 21.691 90.9165 21.521 90.9165 20.858C90.9165 19.345 85.9865 19.974 85.9865 17.05ZM94.6519 12.375L96.4539 11.933V14.84H99.4119V16.438H96.4539V20.178C96.4539 21.249 96.9469 21.606 98.0009 21.606C98.5959 21.606 99.1399 21.487 99.6499 21.283V22.847C99.0379 23.068 98.2559 23.204 97.4569 23.204C95.8759 23.204 94.6519 22.422 94.6519 20.518V16.438H93.1899V14.84H94.6519V12.375ZM107.742 21.113C107.742 21.572 108.014 21.708 108.337 21.708C108.524 21.708 108.711 21.657 108.881 21.606V22.915C108.541 23.051 108.133 23.119 107.725 23.119C106.977 23.119 106.382 22.83 106.093 22.167C105.294 22.813 104.291 23.221 103.016 23.221C101.537 23.221 100.16 22.405 100.16 20.722C100.16 18.631 102.098 17.985 103.798 17.985C104.495 17.985 105.277 18.087 105.923 18.223V17.934C105.923 16.914 105.175 16.2 103.781 16.2C102.574 16.2 101.571 16.506 100.84 16.829V15.163C101.486 14.942 102.659 14.619 103.968 14.619C106.28 14.619 107.742 15.724 107.742 18.189V21.113ZM104.155 19.26C103.118 19.26 102.03 19.583 102.03 20.603C102.03 21.402 102.744 21.81 103.56 21.81C104.427 21.81 105.277 21.487 105.923 20.841V19.464C105.43 19.362 104.733 19.26 104.155 19.26ZM110.308 12.375L112.11 11.933V14.84H115.068V16.438H112.11V20.178C112.11 21.249 112.603 21.606 113.657 21.606C114.252 21.606 114.796 21.487 115.306 21.283V22.847C114.694 23.068 113.912 23.204 113.113 23.204C111.532 23.204 110.308 22.422 110.308 20.518V16.438H108.846V14.84H110.308V12.375ZM118.298 23H116.479V14.84H118.298V23ZM118.502 12.188C118.502 12.936 117.992 13.276 117.397 13.276C116.802 13.276 116.275 12.936 116.275 12.188C116.275 11.474 116.802 11.117 117.397 11.117C117.992 11.117 118.502 11.474 118.502 12.188ZM119.847 17.05C119.847 15.265 121.479 14.619 123.094 14.619C124.216 14.619 125.236 14.908 126.035 15.316V16.914C125.355 16.455 124.182 16.115 123.213 16.115C122.482 16.115 121.7 16.336 121.7 16.999C121.7 18.58 126.613 17.849 126.613 20.824C126.613 22.626 124.947 23.221 123.094 23.221C121.904 23.221 120.697 22.932 119.898 22.439V20.824C120.748 21.385 121.989 21.691 123.009 21.691C124.029 21.691 124.777 21.521 124.777 20.858C124.777 19.345 119.847 19.974 119.847 17.05ZM128.512 12.375L130.314 11.933V14.84H133.272V16.438H130.314V20.178C130.314 21.249 130.807 21.606 131.861 21.606C132.456 21.606 133 21.487 133.51 21.283V22.847C132.898 23.068 132.116 23.204 131.317 23.204C129.736 23.204 128.512 22.422 128.512 20.518V16.438H127.05V14.84H128.512V12.375ZM136.503 23H134.684V14.84H136.503V23ZM136.707 12.188C136.707 12.936 136.197 13.276 135.602 13.276C135.007 13.276 134.48 12.936 134.48 12.188C134.48 11.474 135.007 11.117 135.602 11.117C136.197 11.117 136.707 11.474 136.707 12.188ZM137.967 18.988C137.967 15.945 140.296 14.619 142.472 14.619C143.39 14.619 144.274 14.823 144.988 15.248V16.914C144.393 16.489 143.56 16.234 142.727 16.234C141.282 16.234 139.82 16.999 139.82 18.92C139.82 20.773 141.231 21.606 142.693 21.606C143.56 21.606 144.427 21.351 145.073 20.977V22.66C144.291 23.034 143.407 23.221 142.37 23.221C140.194 23.221 137.967 21.895 137.967 18.988ZM146.079 17.05C146.079 15.265 147.711 14.619 149.326 14.619C150.448 14.619 151.468 14.908 152.267 15.316V16.914C151.587 16.455 150.414 16.115 149.445 16.115C148.714 16.115 147.932 16.336 147.932 16.999C147.932 18.58 152.845 17.849 152.845 20.824C152.845 22.626 151.179 23.221 149.326 23.221C148.136 23.221 146.929 22.932 146.13 22.439V20.824C146.98 21.385 148.221 21.691 149.241 21.691C150.261 21.691 151.009 21.521 151.009 20.858C151.009 19.345 146.079 19.974 146.079 17.05Z" fill="white"/>
<rect x="103" y="55" width="142" height="36" rx="18" fill="#172675"/>
<path d="M123.238 66.1H133.047V67.885H129.12V78H127.182V67.885H123.238V66.1ZM136.137 75.994L138.568 69.84H140.472L136.647 79.105C135.763 81.23 134.607 81.944 133.366 81.944C133.009 81.944 132.652 81.893 132.295 81.808V80.261C132.567 80.346 132.856 80.38 133.128 80.38C134.012 80.38 134.675 79.751 135.151 78.476L135.321 78.068L131.445 69.84H133.383L136.137 75.994ZM143.103 71.115C143.749 70.333 144.718 69.619 146.248 69.619C148.696 69.619 150.294 71.574 150.294 73.92C150.294 76.266 148.696 78.221 146.248 78.221C144.82 78.221 143.868 77.592 143.307 76.946V81.74H141.488V69.84H143.103V71.115ZM148.441 73.92C148.441 72.322 147.387 71.217 145.908 71.217C144.65 71.217 143.698 72.033 143.307 72.917V74.906C143.698 75.807 144.65 76.623 145.908 76.623C147.387 76.623 148.441 75.518 148.441 73.92ZM151.213 73.92C151.213 70.962 153.457 69.619 155.344 69.619C158.591 69.619 159.713 72.237 159.186 74.6H153.049C153.253 76.062 154.681 76.674 156.177 76.674C157.163 76.674 158.064 76.436 158.761 76.096V77.66C158.013 78.017 156.976 78.221 155.837 78.221C153.338 78.221 151.213 76.793 151.213 73.92ZM157.554 73.24C157.656 72.526 157.214 71.132 155.429 71.132C154.205 71.132 153.1 71.863 153.032 73.24H157.554ZM160.272 72.05C160.272 70.265 161.904 69.619 163.519 69.619C164.641 69.619 165.661 69.908 166.46 70.316V71.914C165.78 71.455 164.607 71.115 163.638 71.115C162.907 71.115 162.125 71.336 162.125 71.999C162.125 73.58 167.038 72.849 167.038 75.824C167.038 77.626 165.372 78.221 163.519 78.221C162.329 78.221 161.122 77.932 160.323 77.439V75.824C161.173 76.385 162.414 76.691 163.434 76.691C164.454 76.691 165.202 76.521 165.202 75.858C165.202 74.345 160.272 74.974 160.272 72.05ZM171.51 73.92C171.51 71.098 173.652 69.619 175.93 69.619C178.225 69.619 180.35 71.098 180.35 73.92C180.35 76.742 178.225 78.221 175.93 78.221C173.652 78.221 171.51 76.742 171.51 73.92ZM178.497 73.92C178.497 72.322 177.443 71.285 175.93 71.285C174.4 71.285 173.346 72.322 173.346 73.92C173.346 75.518 174.4 76.555 175.93 76.555C177.443 76.555 178.497 75.518 178.497 73.92ZM184.174 78H182.355V71.438H180.876V69.84H182.355V68.939C182.355 66.576 183.902 65.879 185.398 65.879C186.146 65.879 186.86 66.032 187.421 66.236V67.834C187.013 67.63 186.418 67.477 185.84 67.477C184.956 67.477 184.174 67.732 184.174 69.007V69.84H186.962V71.438H184.174V78ZM191.254 66.1H193.073V70.894C193.634 70.265 194.586 69.619 196.014 69.619C198.462 69.619 200.06 71.574 200.06 73.92C200.06 76.266 198.462 78.221 196.014 78.221C194.484 78.221 193.515 77.507 192.869 76.708V78H191.254V66.1ZM198.207 73.92C198.207 72.322 197.153 71.217 195.674 71.217C194.416 71.217 193.464 72.033 193.073 72.917V74.906C193.464 75.807 194.416 76.623 195.674 76.623C197.153 76.623 198.207 75.518 198.207 73.92ZM200.979 73.92C200.979 71.098 203.121 69.619 205.399 69.619C207.694 69.619 209.819 71.098 209.819 73.92C209.819 76.742 207.694 78.221 205.399 78.221C203.121 78.221 200.979 76.742 200.979 73.92ZM207.966 73.92C207.966 72.322 206.912 71.285 205.399 71.285C203.869 71.285 202.815 72.322 202.815 73.92C202.815 75.518 203.869 76.555 205.399 76.555C206.912 76.555 207.966 75.518 207.966 73.92ZM211.722 67.375L213.524 66.933V69.84H216.482V71.438H213.524V75.178C213.524 76.249 214.017 76.606 215.071 76.606C215.666 76.606 216.21 76.487 216.72 76.283V77.847C216.108 78.068 215.326 78.204 214.527 78.204C212.946 78.204 211.722 77.422 211.722 75.518V71.438H210.26V69.84H211.722V67.375ZM217.434 72.05C217.434 70.265 219.066 69.619 220.681 69.619C221.803 69.619 222.823 69.908 223.622 70.316V71.914C222.942 71.455 221.769 71.115 220.8 71.115C220.069 71.115 219.287 71.336 219.287 71.999C219.287 73.58 224.2 72.849 224.2 75.824C224.2 77.626 222.534 78.221 220.681 78.221C219.491 78.221 218.284 77.932 217.485 77.439V75.824C218.335 76.385 219.576 76.691 220.596 76.691C221.616 76.691 222.364 76.521 222.364 75.858C222.364 74.345 217.434 74.974 217.434 72.05Z" fill="white"/>
<rect x="115" y="220" width="100" height="36" rx="18" fill="#070C28"/>
<path d="M135.816 234.126C135.816 231.933 137.754 230.879 139.998 230.879C141.358 230.879 142.752 231.219 143.721 231.78V233.633C142.752 232.987 141.426 232.63 140.151 232.647C138.706 232.647 137.788 233.072 137.788 234.092C137.788 236.659 144.588 235.622 144.588 239.872C144.588 242.371 142.463 243.238 140.083 243.221C138.485 243.221 137.04 242.847 135.867 242.184V240.28C137.159 241.113 138.587 241.453 139.947 241.453C141.477 241.453 142.616 241.096 142.616 239.974C142.616 237.22 135.816 238.342 135.816 234.126ZM145.383 238.92C145.383 236.098 147.525 234.619 149.803 234.619C152.098 234.619 154.223 236.098 154.223 238.92C154.223 241.742 152.098 243.221 149.803 243.221C147.525 243.221 145.383 241.742 145.383 238.92ZM152.37 238.92C152.37 237.322 151.316 236.285 149.803 236.285C148.273 236.285 147.219 237.322 147.219 238.92C147.219 240.518 148.273 241.555 149.803 241.555C151.316 241.555 152.37 240.518 152.37 238.92ZM161.563 234.84H163.381V243H161.766V241.878C161.172 242.592 160.168 243.221 158.928 243.221C156.768 243.221 155.561 241.827 155.561 239.889V234.84H157.38V239.651C157.38 240.977 158.077 241.606 159.285 241.606C160.321 241.606 161.103 240.909 161.563 240.246V234.84ZM166.932 236.183C167.561 235.18 168.887 234.534 170.366 234.67V236.455C168.904 236.251 167.629 236.897 167.136 238.053V243H165.317V234.84H166.932V236.183ZM170.676 238.988C170.676 235.945 173.005 234.619 175.181 234.619C176.099 234.619 176.983 234.823 177.697 235.248V236.914C177.102 236.489 176.269 236.234 175.436 236.234C173.991 236.234 172.529 236.999 172.529 238.92C172.529 240.773 173.94 241.606 175.402 241.606C176.269 241.606 177.136 241.351 177.782 240.977V242.66C177 243.034 176.116 243.221 175.079 243.221C172.903 243.221 170.676 241.895 170.676 238.988ZM178.62 238.92C178.62 235.962 180.864 234.619 182.751 234.619C185.998 234.619 187.12 237.237 186.593 239.6H180.456C180.66 241.062 182.088 241.674 183.584 241.674C184.57 241.674 185.471 241.436 186.168 241.096V242.66C185.42 243.017 184.383 243.221 183.244 243.221C180.745 243.221 178.62 241.793 178.62 238.92ZM184.961 238.24C185.063 237.526 184.621 236.132 182.836 236.132C181.612 236.132 180.507 236.863 180.439 238.24H184.961ZM187.679 237.05C187.679 235.265 189.311 234.619 190.926 234.619C192.048 234.619 193.068 234.908 193.867 235.316V236.914C193.187 236.455 192.014 236.115 191.045 236.115C190.314 236.115 189.532 236.336 189.532 236.999C189.532 238.58 194.445 237.849 194.445 240.824C194.445 242.626 192.779 243.221 190.926 243.221C189.736 243.221 188.529 242.932 187.73 242.439V240.824C188.58 241.385 189.821 241.691 190.841 241.691C191.861 241.691 192.609 241.521 192.609 240.858C192.609 239.345 187.679 239.974 187.679 237.05Z" fill="white"/>
<rect x="131" y="110" width="146" height="36" rx="18" fill="#070C28"/>
<path d="M151.816 124.126C151.816 121.933 153.754 120.879 155.998 120.879C157.358 120.879 158.752 121.219 159.721 121.78V123.633C158.752 122.987 157.426 122.63 156.151 122.647C154.706 122.647 153.788 123.072 153.788 124.092C153.788 126.659 160.588 125.622 160.588 129.872C160.588 132.371 158.463 133.238 156.083 133.221C154.485 133.221 153.04 132.847 151.867 132.184V130.28C153.159 131.113 154.587 131.453 155.947 131.453C157.477 131.453 158.616 131.096 158.616 129.974C158.616 127.22 151.816 128.342 151.816 124.126ZM161.383 128.92C161.383 125.962 163.627 124.619 165.514 124.619C168.761 124.619 169.883 127.237 169.356 129.6H163.219C163.423 131.062 164.851 131.674 166.347 131.674C167.333 131.674 168.234 131.436 168.931 131.096V132.66C168.183 133.017 167.146 133.221 166.007 133.221C163.508 133.221 161.383 131.793 161.383 128.92ZM167.724 128.24C167.826 127.526 167.384 126.132 165.599 126.132C164.375 126.132 163.27 126.863 163.202 128.24H167.724ZM177.819 131.113C177.819 131.572 178.091 131.708 178.414 131.708C178.601 131.708 178.788 131.657 178.958 131.606V132.915C178.618 133.051 178.21 133.119 177.802 133.119C177.054 133.119 176.459 132.83 176.17 132.167C175.371 132.813 174.368 133.221 173.093 133.221C171.614 133.221 170.237 132.405 170.237 130.722C170.237 128.631 172.175 127.985 173.875 127.985C174.572 127.985 175.354 128.087 176 128.223V127.934C176 126.914 175.252 126.2 173.858 126.2C172.651 126.2 171.648 126.506 170.917 126.829V125.163C171.563 124.942 172.736 124.619 174.045 124.619C176.357 124.619 177.819 125.724 177.819 128.189V131.113ZM174.232 129.26C173.195 129.26 172.107 129.583 172.107 130.603C172.107 131.402 172.821 131.81 173.637 131.81C174.504 131.81 175.354 131.487 176 130.841V129.464C175.507 129.362 174.81 129.26 174.232 129.26ZM181.488 126.183C182.117 125.18 183.443 124.534 184.922 124.67V126.455C183.46 126.251 182.185 126.897 181.692 128.053V133H179.873V124.84H181.488V126.183ZM185.232 128.988C185.232 125.945 187.561 124.619 189.737 124.619C190.655 124.619 191.539 124.823 192.253 125.248V126.914C191.658 126.489 190.825 126.234 189.992 126.234C188.547 126.234 187.085 126.999 187.085 128.92C187.085 130.773 188.496 131.606 189.958 131.606C190.825 131.606 191.692 131.351 192.338 130.977V132.66C191.556 133.034 190.672 133.221 189.635 133.221C187.459 133.221 185.232 131.895 185.232 128.988ZM193.769 121.1H195.588V125.741C196.183 125.129 197.118 124.619 198.223 124.619C200.28 124.619 201.589 126.013 201.589 127.951V133H199.77V128.189C199.77 126.863 198.954 126.234 197.866 126.234C196.829 126.234 196.047 126.931 195.588 127.594V133H193.769V121.1ZM208.716 126.183C209.345 125.18 210.671 124.534 212.15 124.67V126.455C210.688 126.251 209.413 126.897 208.92 128.053V133H207.101V124.84H208.716V126.183ZM212.46 128.92C212.46 126.098 214.602 124.619 216.88 124.619C219.175 124.619 221.3 126.098 221.3 128.92C221.3 131.742 219.175 133.221 216.88 133.221C214.602 133.221 212.46 131.742 212.46 128.92ZM219.447 128.92C219.447 127.322 218.393 126.285 216.88 126.285C215.35 126.285 214.296 127.322 214.296 128.92C214.296 130.518 215.35 131.555 216.88 131.555C218.393 131.555 219.447 130.518 219.447 128.92ZM222.724 121.1H224.543V125.894C225.104 125.265 226.056 124.619 227.484 124.619C229.932 124.619 231.53 126.574 231.53 128.92C231.53 131.266 229.932 133.221 227.484 133.221C225.954 133.221 224.985 132.507 224.339 131.708V133H222.724V121.1ZM229.677 128.92C229.677 127.322 228.623 126.217 227.144 126.217C225.886 126.217 224.934 127.033 224.543 127.917V129.906C224.934 130.807 225.886 131.623 227.144 131.623C228.623 131.623 229.677 130.518 229.677 128.92ZM232.449 128.92C232.449 126.098 234.591 124.619 236.869 124.619C239.164 124.619 241.289 126.098 241.289 128.92C241.289 131.742 239.164 133.221 236.869 133.221C234.591 133.221 232.449 131.742 232.449 128.92ZM239.436 128.92C239.436 127.322 238.382 126.285 236.869 126.285C235.339 126.285 234.285 127.322 234.285 128.92C234.285 130.518 235.339 131.555 236.869 131.555C238.382 131.555 239.436 130.518 239.436 128.92ZM243.191 122.375L244.993 121.933V124.84H247.951V126.438H244.993V130.178C244.993 131.249 245.486 131.606 246.54 131.606C247.135 131.606 247.679 131.487 248.189 131.283V132.847C247.577 133.068 246.795 133.204 245.996 133.204C244.415 133.204 243.191 132.422 243.191 130.518V126.438H241.729V124.84H243.191V122.375ZM248.904 127.05C248.904 125.265 250.536 124.619 252.151 124.619C253.273 124.619 254.293 124.908 255.092 125.316V126.914C254.412 126.455 253.239 126.115 252.27 126.115C251.539 126.115 250.757 126.336 250.757 126.999C250.757 128.58 255.67 127.849 255.67 130.824C255.67 132.626 254.004 133.221 252.151 133.221C250.961 133.221 249.754 132.932 248.955 132.439V130.824C249.805 131.385 251.046 131.691 252.066 131.691C253.086 131.691 253.834 131.521 253.834 130.858C253.834 129.345 248.904 129.974 248.904 127.05Z" fill="white"/>
<rect x="134" y="165" width="125" height="36" rx="18" fill="#172675"/>
<path d="M154.714 182.05C154.714 177.851 157.91 175.879 161.106 175.879C162.381 175.879 163.639 176.151 164.71 176.661V178.548C163.809 177.97 162.602 177.664 161.378 177.664C159.049 177.664 156.703 178.939 156.703 182.05C156.703 185.45 159.168 186.453 161.327 186.453C161.99 186.453 162.636 186.334 163.112 186.113V181.608H164.999V187.422C163.86 187.932 162.517 188.221 161.208 188.221C157.91 188.221 154.714 186.487 154.714 182.05ZM166.259 183.92C166.259 180.962 168.503 179.619 170.39 179.619C173.637 179.619 174.759 182.237 174.232 184.6H168.095C168.299 186.062 169.727 186.674 171.223 186.674C172.209 186.674 173.11 186.436 173.807 186.096V187.66C173.059 188.017 172.022 188.221 170.883 188.221C168.384 188.221 166.259 186.793 166.259 183.92ZM172.6 183.24C172.702 182.526 172.26 181.132 170.475 181.132C169.251 181.132 168.146 181.863 168.078 183.24H172.6ZM175.232 183.92C175.232 181.098 177.374 179.619 179.652 179.619C181.947 179.619 184.072 181.098 184.072 183.92C184.072 186.742 181.947 188.221 179.652 188.221C177.374 188.221 175.232 186.742 175.232 183.92ZM182.219 183.92C182.219 182.322 181.165 181.285 179.652 181.285C178.122 181.285 177.068 182.322 177.068 183.92C177.068 185.518 178.122 186.555 179.652 186.555C181.165 186.555 182.219 185.518 182.219 183.92ZM184.986 183.92C184.986 181.574 186.567 179.619 189.032 179.619C190.562 179.619 191.531 180.333 192.16 181.115V179.84H193.792V187.898C193.792 190.839 191.548 191.961 189.219 191.961C187.978 191.961 186.822 191.689 185.853 191.196V189.53C186.788 190.074 187.876 190.363 188.981 190.363C190.596 190.363 191.973 189.785 191.973 187.949V186.912C191.412 187.575 190.46 188.221 189.032 188.221C186.567 188.221 184.986 186.266 184.986 183.92ZM191.956 182.917C191.565 182.033 190.63 181.217 189.355 181.217C187.893 181.217 186.822 182.322 186.822 183.92C186.822 185.518 187.893 186.623 189.355 186.623C190.63 186.623 191.565 185.858 191.956 185.025V182.917ZM197.346 181.183C197.975 180.18 199.301 179.534 200.78 179.67V181.455C199.318 181.251 198.043 181.897 197.55 183.053V188H195.731V179.84H197.346V181.183ZM208.686 186.113C208.686 186.572 208.958 186.708 209.281 186.708C209.468 186.708 209.655 186.657 209.825 186.606V187.915C209.485 188.051 209.077 188.119 208.669 188.119C207.921 188.119 207.326 187.83 207.037 187.167C206.238 187.813 205.235 188.221 203.96 188.221C202.481 188.221 201.104 187.405 201.104 185.722C201.104 183.631 203.042 182.985 204.742 182.985C205.439 182.985 206.221 183.087 206.867 183.223V182.934C206.867 181.914 206.119 181.2 204.725 181.2C203.518 181.2 202.515 181.506 201.784 181.829V180.163C202.43 179.942 203.603 179.619 204.912 179.619C207.224 179.619 208.686 180.724 208.686 183.189V186.113ZM205.099 184.26C204.062 184.26 202.974 184.583 202.974 185.603C202.974 186.402 203.688 186.81 204.504 186.81C205.371 186.81 206.221 186.487 206.867 185.841V184.464C206.374 184.362 205.677 184.26 205.099 184.26ZM212.355 181.115C213.001 180.333 213.97 179.619 215.5 179.619C217.948 179.619 219.546 181.574 219.546 183.92C219.546 186.266 217.948 188.221 215.5 188.221C214.072 188.221 213.12 187.592 212.559 186.946V191.74H210.74V179.84H212.355V181.115ZM217.693 183.92C217.693 182.322 216.639 181.217 215.16 181.217C213.902 181.217 212.95 182.033 212.559 182.917V184.906C212.95 185.807 213.902 186.623 215.16 186.623C216.639 186.623 217.693 185.518 217.693 183.92ZM220.975 176.1H222.794V180.741C223.389 180.129 224.324 179.619 225.429 179.619C227.486 179.619 228.795 181.013 228.795 182.951V188H226.976V183.189C226.976 181.863 226.16 181.234 225.072 181.234C224.035 181.234 223.253 181.931 222.794 182.594V188H220.975V176.1ZM234.035 185.994L236.466 179.84H238.37L234.545 189.105C233.661 191.23 232.505 191.944 231.264 191.944C230.907 191.944 230.55 191.893 230.193 191.808V190.261C230.465 190.346 230.754 190.38 231.026 190.38C231.91 190.38 232.573 189.751 233.049 188.476L233.219 188.068L229.343 179.84H231.281L234.035 185.994Z" fill="white"/>
</svg>
