<svg width="320" height="309" viewBox="0 0 320 309" fill="none" xmlns="http://www.w3.org/2000/svg">
<mask id="mask0_478_1309" style="mask-type:alpha" maskUnits="userSpaceOnUse" x="0" y="0" width="239" height="309">
<rect x="0.5" y="0.5" width="238" height="308" fill="#D9D9D9" stroke="#F2F3FF"/>
</mask>
<g mask="url(#mask0_478_1309)">
<path d="M207.028 168.053C209.136 150.715 207.808 133.131 203.121 116.306C198.433 99.4811 190.478 83.744 179.709 69.9934C168.939 56.2429 155.567 44.7481 140.356 36.1655C125.144 27.5829 108.391 22.0804 91.0529 19.9723L79.8159 112.392C85.0173 113.024 90.0432 114.675 94.6067 117.25C99.1702 119.824 103.182 123.273 106.413 127.398C109.643 131.523 112.03 136.244 113.436 141.292C114.842 146.339 115.241 151.614 114.608 156.816L207.028 168.053Z" fill="#0C1025"/>
<path d="M86.8788 19.5315C67.3124 17.777 47.6004 20.3786 29.1592 27.1496L61.2478 114.545C66.7801 112.514 72.6937 111.733 78.5636 112.259L86.8788 19.5315Z" fill="#3A4A9C"/>
<path d="M24.7091 28.8748C3.18157 37.6678 -15.6643 51.9513 -29.9488 70.3008C-44.2332 88.6503 -53.4571 110.424 -56.7002 133.451C-59.9433 156.478 -57.0924 179.953 -48.4318 201.534C-39.7713 223.115 -25.6037 242.048 -7.34233 256.445C10.9191 270.842 32.636 280.199 55.6424 283.584C78.6488 286.968 102.141 284.262 123.774 275.734C145.408 267.206 164.428 253.155 178.937 234.982C193.446 216.81 202.937 195.151 206.462 172.166L114.439 158.05C113.381 164.945 110.534 171.443 106.181 176.895C101.828 182.346 96.1225 186.562 89.6323 189.12C83.1422 191.678 76.0947 192.49 69.1927 191.475C62.2908 190.46 55.7757 187.653 50.2973 183.333C44.8189 179.014 40.5686 173.334 37.9704 166.86C35.3723 160.386 34.517 153.343 35.4899 146.435C36.4629 139.527 39.23 132.995 43.5154 127.49C47.8007 121.985 53.4545 117.7 59.9127 115.062L24.7091 28.8748Z" fill="#172675"/>
</g>
<path d="M69.2705 6.5H228C229.381 6.5 230.5 7.61929 230.5 9V50C230.5 51.3807 229.381 52.5 228 52.5H69.2705C67.8898 52.5 66.7705 51.3807 66.7705 50V37.0254C66.7705 35.8264 66.1563 34.7111 65.1436 34.0693L61.2666 31.6113C59.7176 30.6297 59.7176 28.3703 61.2666 27.3887L65.1436 24.9307C66.1563 24.2889 66.7705 23.1736 66.7705 21.9746V9C66.7705 7.61929 67.8898 6.5 69.2705 6.5Z" fill="#11183C" stroke="white"/>
<path d="M99.714 29.152C99.714 24.919 102.893 22.879 106.021 22.879C107.211 22.879 108.384 23.151 109.404 23.661V25.548C108.571 24.97 107.466 24.664 106.344 24.664C104.066 24.664 101.703 26.007 101.686 29.152C101.686 32.076 104.1 33.436 106.378 33.436C107.602 33.436 108.707 33.113 109.489 32.518V34.439C108.486 34.932 107.296 35.221 106.038 35.221C102.961 35.221 99.697 33.215 99.714 29.152ZM110.263 30.92C110.263 28.098 112.405 26.619 114.683 26.619C116.978 26.619 119.103 28.098 119.103 30.92C119.103 33.742 116.978 35.221 114.683 35.221C112.405 35.221 110.263 33.742 110.263 30.92ZM117.25 30.92C117.25 29.322 116.196 28.285 114.683 28.285C113.153 28.285 112.099 29.322 112.099 30.92C112.099 32.518 113.153 33.555 114.683 33.555C116.196 33.555 117.25 32.518 117.25 30.92ZM122.345 35H120.526V26.84H122.141V27.86C122.583 27.367 123.535 26.619 124.861 26.619C126.085 26.619 126.935 27.129 127.411 27.928C128.125 27.214 129.077 26.619 130.267 26.619C132.426 26.619 133.361 28.217 133.361 29.9V35H131.542V29.951C131.542 28.897 130.913 28.234 129.927 28.234C129.026 28.234 128.329 28.829 127.904 29.339C127.921 29.526 127.938 29.713 127.938 29.9V35H126.119V29.951C126.119 28.897 125.49 28.234 124.504 28.234C123.518 28.234 122.77 28.948 122.345 29.492V35ZM136.826 28.115C137.472 27.333 138.441 26.619 139.971 26.619C142.419 26.619 144.017 28.574 144.017 30.92C144.017 33.266 142.419 35.221 139.971 35.221C138.543 35.221 137.591 34.592 137.03 33.946V38.74H135.211V26.84H136.826V28.115ZM142.164 30.92C142.164 29.322 141.11 28.217 139.631 28.217C138.373 28.217 137.421 29.033 137.03 29.917V31.906C137.421 32.807 138.373 33.623 139.631 33.623C141.11 33.623 142.164 32.518 142.164 30.92ZM145.48 22.59H147.299V35H145.48V22.59ZM148.763 30.92C148.763 27.962 151.007 26.619 152.894 26.619C156.141 26.619 157.263 29.237 156.736 31.6H150.599C150.803 33.062 152.231 33.674 153.727 33.674C154.713 33.674 155.614 33.436 156.311 33.096V34.66C155.563 35.017 154.526 35.221 153.387 35.221C150.888 35.221 148.763 33.793 148.763 30.92ZM155.104 30.24C155.206 29.526 154.764 28.132 152.979 28.132C151.755 28.132 150.65 28.863 150.582 30.24H155.104ZM163.265 26.84H165.339L162.364 30.835L165.509 35H163.435L161.31 32.11L159.185 35H157.111L160.256 30.835L157.281 26.84H159.355L161.31 29.594L163.265 26.84ZM170.117 23.1H171.936V27.894C172.497 27.265 173.449 26.619 174.877 26.619C177.325 26.619 178.923 28.574 178.923 30.92C178.923 33.266 177.325 35.221 174.877 35.221C173.347 35.221 172.378 34.507 171.732 33.708V35H170.117V23.1ZM177.07 30.92C177.07 29.322 176.016 28.217 174.537 28.217C173.279 28.217 172.327 29.033 171.936 29.917V31.906C172.327 32.807 173.279 33.623 174.537 33.623C176.016 33.623 177.07 32.518 177.07 30.92ZM179.842 30.92C179.842 28.098 181.984 26.619 184.262 26.619C186.557 26.619 188.682 28.098 188.682 30.92C188.682 33.742 186.557 35.221 184.262 35.221C181.984 35.221 179.842 33.742 179.842 30.92ZM186.829 30.92C186.829 29.322 185.775 28.285 184.262 28.285C182.732 28.285 181.678 29.322 181.678 30.92C181.678 32.518 182.732 33.555 184.262 33.555C185.775 33.555 186.829 32.518 186.829 30.92ZM190.585 24.375L192.387 23.933V26.84H195.345V28.438H192.387V32.178C192.387 33.249 192.88 33.606 193.934 33.606C194.529 33.606 195.073 33.487 195.583 33.283V34.847C194.971 35.068 194.189 35.204 193.39 35.204C191.809 35.204 190.585 34.422 190.585 32.518V28.438H189.123V26.84H190.585V24.375ZM196.297 29.05C196.297 27.265 197.929 26.619 199.544 26.619C200.666 26.619 201.686 26.908 202.485 27.316V28.914C201.805 28.455 200.632 28.115 199.663 28.115C198.932 28.115 198.15 28.336 198.15 28.999C198.15 30.58 203.063 29.849 203.063 32.824C203.063 34.626 201.397 35.221 199.544 35.221C198.354 35.221 197.147 34.932 196.348 34.439V32.824C197.198 33.385 198.439 33.691 199.459 33.691C200.479 33.691 201.227 33.521 201.227 32.858C201.227 31.345 196.297 31.974 196.297 29.05Z" fill="white"/>
<path d="M158.271 104.5H317C318.381 104.5 319.5 105.619 319.5 107V148C319.5 149.381 318.381 150.5 317 150.5H158.271C156.89 150.5 155.771 149.381 155.771 148V135.025C155.77 133.826 155.156 132.711 154.144 132.069L150.267 129.611C148.718 128.63 148.718 126.37 150.267 125.389L154.144 122.931C155.156 122.289 155.77 121.174 155.771 119.975V107C155.771 105.619 156.89 104.5 158.271 104.5Z" fill="#11183C" stroke="white"/>
<path d="M185.159 133H183.102L188.134 121.1H190.259L195.274 133H193.234L192.18 130.433H186.213L185.159 133ZM188.967 123.65L186.876 128.733H191.5L189.409 123.65C189.341 123.463 189.273 123.276 189.188 122.987C189.103 123.276 189.035 123.463 188.967 123.65ZM202.428 121.1H204.247V133H202.615V131.708C201.986 132.507 201.017 133.221 199.487 133.221C197.022 133.221 195.441 131.266 195.441 128.92C195.441 126.574 197.022 124.619 199.487 124.619C200.915 124.619 201.867 125.248 202.428 125.894V121.1ZM202.411 127.917C202.02 127.033 201.085 126.217 199.81 126.217C198.348 126.217 197.277 127.322 197.277 128.92C197.277 130.518 198.348 131.623 199.81 131.623C201.085 131.623 202.02 130.807 202.411 129.906V127.917ZM212.171 124.84H214.16L210.658 133H208.737L205.252 124.84H207.224L209.706 131.028L212.171 124.84ZM221.831 131.113C221.831 131.572 222.103 131.708 222.426 131.708C222.613 131.708 222.8 131.657 222.97 131.606V132.915C222.63 133.051 222.222 133.119 221.814 133.119C221.066 133.119 220.471 132.83 220.182 132.167C219.383 132.813 218.38 133.221 217.105 133.221C215.626 133.221 214.249 132.405 214.249 130.722C214.249 128.631 216.187 127.985 217.887 127.985C218.584 127.985 219.366 128.087 220.012 128.223V127.934C220.012 126.914 219.264 126.2 217.87 126.2C216.663 126.2 215.66 126.506 214.929 126.829V125.163C215.575 124.942 216.748 124.619 218.057 124.619C220.369 124.619 221.831 125.724 221.831 128.189V131.113ZM218.244 129.26C217.207 129.26 216.119 129.583 216.119 130.603C216.119 131.402 216.833 131.81 217.649 131.81C218.516 131.81 219.366 131.487 220.012 130.841V129.464C219.519 129.362 218.822 129.26 218.244 129.26ZM225.499 125.962C226.094 125.248 227.097 124.619 228.338 124.619C230.395 124.619 231.704 126.013 231.704 127.951V133H229.885V128.189C229.885 126.863 229.069 126.234 227.981 126.234C226.944 126.234 226.162 126.931 225.703 127.594V133H223.884V124.84H225.499V125.962ZM233.029 128.988C233.029 125.945 235.358 124.619 237.534 124.619C238.452 124.619 239.336 124.823 240.05 125.248V126.914C239.455 126.489 238.622 126.234 237.789 126.234C236.344 126.234 234.882 126.999 234.882 128.92C234.882 130.773 236.293 131.606 237.755 131.606C238.622 131.606 239.489 131.351 240.135 130.977V132.66C239.353 133.034 238.469 133.221 237.432 133.221C235.256 133.221 233.029 131.895 233.029 128.988ZM240.973 128.92C240.973 125.962 243.217 124.619 245.104 124.619C248.351 124.619 249.473 127.237 248.946 129.6H242.809C243.013 131.062 244.441 131.674 245.937 131.674C246.923 131.674 247.824 131.436 248.521 131.096V132.66C247.773 133.017 246.736 133.221 245.597 133.221C243.098 133.221 240.973 131.793 240.973 128.92ZM247.314 128.24C247.416 127.526 246.974 126.132 245.189 126.132C243.965 126.132 242.86 126.863 242.792 128.24H247.314ZM256.933 121.1H258.752V133H257.12V131.708C256.491 132.507 255.522 133.221 253.992 133.221C251.527 133.221 249.946 131.266 249.946 128.92C249.946 126.574 251.527 124.619 253.992 124.619C255.42 124.619 256.372 125.248 256.933 125.894V121.1ZM256.916 127.917C256.525 127.033 255.59 126.217 254.315 126.217C252.853 126.217 251.782 127.322 251.782 128.92C251.782 130.518 252.853 131.623 254.315 131.623C255.59 131.623 256.525 130.807 256.916 129.906V127.917ZM264.369 121.1H266.188V125.894C266.749 125.265 267.701 124.619 269.129 124.619C271.577 124.619 273.175 126.574 273.175 128.92C273.175 131.266 271.577 133.221 269.129 133.221C267.599 133.221 266.63 132.507 265.984 131.708V133H264.369V121.1ZM271.322 128.92C271.322 127.322 270.268 126.217 268.789 126.217C267.531 126.217 266.579 127.033 266.188 127.917V129.906C266.579 130.807 267.531 131.623 268.789 131.623C270.268 131.623 271.322 130.518 271.322 128.92ZM274.094 128.92C274.094 126.098 276.236 124.619 278.514 124.619C280.809 124.619 282.934 126.098 282.934 128.92C282.934 131.742 280.809 133.221 278.514 133.221C276.236 133.221 274.094 131.742 274.094 128.92ZM281.081 128.92C281.081 127.322 280.027 126.285 278.514 126.285C276.984 126.285 275.93 127.322 275.93 128.92C275.93 130.518 276.984 131.555 278.514 131.555C280.027 131.555 281.081 130.518 281.081 128.92ZM284.837 122.375L286.639 121.933V124.84H289.597V126.438H286.639V130.178C286.639 131.249 287.132 131.606 288.186 131.606C288.781 131.606 289.325 131.487 289.835 131.283V132.847C289.223 133.068 288.441 133.204 287.642 133.204C286.061 133.204 284.837 132.422 284.837 130.518V126.438H283.375V124.84H284.837V122.375ZM290.549 127.05C290.549 125.265 292.181 124.619 293.796 124.619C294.918 124.619 295.938 124.908 296.737 125.316V126.914C296.057 126.455 294.884 126.115 293.915 126.115C293.184 126.115 292.402 126.336 292.402 126.999C292.402 128.58 297.315 127.849 297.315 130.824C297.315 132.626 295.649 133.221 293.796 133.221C292.606 133.221 291.399 132.932 290.6 132.439V130.824C291.45 131.385 292.691 131.691 293.711 131.691C294.731 131.691 295.479 131.521 295.479 130.858C295.479 129.345 290.549 129.974 290.549 127.05Z" fill="white"/>
<path d="M128.271 240.5H287C288.381 240.5 289.5 241.619 289.5 243V284C289.5 285.381 288.381 286.5 287 286.5H128.271C126.89 286.5 125.771 285.381 125.771 284V271.025C125.77 269.826 125.156 268.711 124.144 268.069L120.267 265.611C118.718 264.63 118.718 262.37 120.267 261.389L124.144 258.931C125.156 258.289 125.77 257.174 125.771 255.975V243C125.771 241.619 126.89 240.5 128.271 240.5Z" fill="#11183C" stroke="white"/>
<path d="M166.816 260.126C166.816 257.933 168.754 256.879 170.998 256.879C172.358 256.879 173.752 257.219 174.721 257.78V259.633C173.752 258.987 172.426 258.63 171.151 258.647C169.706 258.647 168.788 259.072 168.788 260.092C168.788 262.659 175.588 261.622 175.588 265.872C175.588 268.371 173.463 269.238 171.083 269.221C169.485 269.221 168.04 268.847 166.867 268.184V266.28C168.159 267.113 169.587 267.453 170.947 267.453C172.477 267.453 173.616 267.096 173.616 265.974C173.616 263.22 166.816 264.342 166.816 260.126ZM178.746 269H176.927V260.84H178.746V269ZM178.95 258.188C178.95 258.936 178.44 259.276 177.845 259.276C177.25 259.276 176.723 258.936 176.723 258.188C176.723 257.474 177.25 257.117 177.845 257.117C178.44 257.117 178.95 257.474 178.95 258.188ZM182.539 269H180.72V260.84H182.335V261.86C182.777 261.367 183.729 260.619 185.055 260.619C186.279 260.619 187.129 261.129 187.605 261.928C188.319 261.214 189.271 260.619 190.461 260.619C192.62 260.619 193.555 262.217 193.555 263.9V269H191.736V263.951C191.736 262.897 191.107 262.234 190.121 262.234C189.22 262.234 188.523 262.829 188.098 263.339C188.115 263.526 188.132 263.713 188.132 263.9V269H186.313V263.951C186.313 262.897 185.684 262.234 184.698 262.234C183.712 262.234 182.964 262.948 182.539 263.492V269ZM197.019 262.115C197.665 261.333 198.634 260.619 200.164 260.619C202.612 260.619 204.21 262.574 204.21 264.92C204.21 267.266 202.612 269.221 200.164 269.221C198.736 269.221 197.784 268.592 197.223 267.946V272.74H195.404V260.84H197.019V262.115ZM202.357 264.92C202.357 263.322 201.303 262.217 199.824 262.217C198.566 262.217 197.614 263.033 197.223 263.917V265.906C197.614 266.807 198.566 267.623 199.824 267.623C201.303 267.623 202.357 266.518 202.357 264.92ZM205.673 256.59H207.492V269H205.673V256.59ZM208.956 264.92C208.956 261.962 211.2 260.619 213.087 260.619C216.334 260.619 217.456 263.237 216.929 265.6H210.792C210.996 267.062 212.424 267.674 213.92 267.674C214.906 267.674 215.807 267.436 216.504 267.096V268.66C215.756 269.017 214.719 269.221 213.58 269.221C211.081 269.221 208.956 267.793 208.956 264.92ZM215.297 264.24C215.399 263.526 214.957 262.132 213.172 262.132C211.948 262.132 210.843 262.863 210.775 264.24H215.297ZM222.117 257.1H223.936V261.894C224.497 261.265 225.449 260.619 226.877 260.619C229.325 260.619 230.923 262.574 230.923 264.92C230.923 267.266 229.325 269.221 226.877 269.221C225.347 269.221 224.378 268.507 223.732 267.708V269H222.117V257.1ZM229.07 264.92C229.07 263.322 228.016 262.217 226.537 262.217C225.279 262.217 224.327 263.033 223.936 263.917V265.906C224.327 266.807 225.279 267.623 226.537 267.623C228.016 267.623 229.07 266.518 229.07 264.92ZM231.843 264.92C231.843 262.098 233.985 260.619 236.263 260.619C238.558 260.619 240.683 262.098 240.683 264.92C240.683 267.742 238.558 269.221 236.263 269.221C233.985 269.221 231.843 267.742 231.843 264.92ZM238.83 264.92C238.83 263.322 237.776 262.285 236.263 262.285C234.733 262.285 233.679 263.322 233.679 264.92C233.679 266.518 234.733 267.555 236.263 267.555C237.776 267.555 238.83 266.518 238.83 264.92ZM242.585 258.375L244.387 257.933V260.84H247.345V262.438H244.387V266.178C244.387 267.249 244.88 267.606 245.934 267.606C246.529 267.606 247.073 267.487 247.583 267.283V268.847C246.971 269.068 246.189 269.204 245.39 269.204C243.809 269.204 242.585 268.422 242.585 266.518V262.438H241.123V260.84H242.585V258.375ZM248.297 263.05C248.297 261.265 249.929 260.619 251.544 260.619C252.666 260.619 253.686 260.908 254.485 261.316V262.914C253.805 262.455 252.632 262.115 251.663 262.115C250.932 262.115 250.15 262.336 250.15 262.999C250.15 264.58 255.063 263.849 255.063 266.824C255.063 268.626 253.397 269.221 251.544 269.221C250.354 269.221 249.147 268.932 248.348 268.439V266.824C249.198 267.385 250.439 267.691 251.459 267.691C252.479 267.691 253.227 267.521 253.227 266.858C253.227 265.345 248.297 265.974 248.297 263.05Z" fill="white"/>
</svg>
