<svg width="296" height="300" viewBox="0 0 296 300" fill="none" xmlns="http://www.w3.org/2000/svg">
<path d="M168.5 99.5L202.275 41H267.5" stroke="#11183C" stroke-opacity="0.44" stroke-width="4" stroke-dasharray="9 9"/>
<path d="M101 82.5L67.2246 24H2" stroke="#11183C" stroke-opacity="0.44" stroke-width="4" stroke-dasharray="9 9"/>
<path d="M171 226L242 246.129L242 285" stroke="#11183C" stroke-opacity="0.44" stroke-width="4" stroke-dasharray="9 9"/>
<path d="M101 215L30 235.129L30 274" stroke="#11183C" stroke-opacity="0.44" stroke-width="4" stroke-dasharray="9 9"/>
<g clip-path="url(#clip0_478_1311)">
<path d="M136 52.25C161.11 74.4657 193.883 86.0326 227.375 84.5C232.251 101.087 233.743 118.486 231.762 135.661C229.782 152.837 224.368 169.439 215.845 184.481C207.321 199.523 195.86 212.698 182.144 223.223C168.428 233.748 152.735 241.409 136 245.75C119.264 241.409 103.572 233.748 89.856 223.223C76.1397 212.698 64.6792 199.523 56.1553 184.481C47.6315 169.439 42.2184 152.837 40.2376 135.661C38.2568 118.486 39.7488 101.087 44.6249 84.5C78.1169 86.0326 110.89 74.4657 136 52.25" fill="#172675"/>
<path d="M136 52.25C161.11 74.4657 193.883 86.0326 227.375 84.5C232.251 101.087 233.743 118.486 231.762 135.661C229.782 152.837 224.368 169.439 215.845 184.481C207.321 199.523 195.86 212.698 182.144 223.223C168.428 233.748 152.735 241.409 136 245.75C119.264 241.409 103.572 233.748 89.856 223.223C76.1397 212.698 64.6792 199.523 56.1553 184.481C47.6315 169.439 42.2184 152.837 40.2376 135.661C38.2568 118.486 39.7488 101.087 44.6249 84.5C78.1169 86.0326 110.89 74.4657 136 52.25" stroke="#11183C" stroke-width="4" stroke-linecap="round" stroke-linejoin="round"/>
</g>
<g filter="url(#filter0_d_478_1311)">
<path d="M75.25 136H84.43C88.9 136 91.69 137.71 91.69 141.31C91.69 143.77 90.37 145.27 88.51 145.9C90.58 146.5 92.53 148.03 92.53 151.12C92.53 155.89 87.94 157 84.28 157H75.25V136ZM88.03 150.64C88.03 148.42 86.26 147.94 84.46 147.94H79.72V153.34H84.22C86.23 153.34 88.03 152.92 88.03 150.64ZM87.22 142.09C87.22 140.44 86.02 139.69 84.04 139.69H79.75V144.49H84.28C85.99 144.49 87.22 143.71 87.22 142.09ZM94.6164 147.94H105.776V151.45H94.6164V147.94ZM109.089 136H118.269C122.739 136 125.529 137.71 125.529 141.31C125.529 143.77 124.209 145.27 122.349 145.9C124.419 146.5 126.369 148.03 126.369 151.12C126.369 155.89 121.779 157 118.119 157H109.089V136ZM121.869 150.64C121.869 148.42 120.099 147.94 118.299 147.94H113.559V153.34H118.059C120.069 153.34 121.869 152.92 121.869 150.64ZM121.059 142.09C121.059 140.44 119.859 139.69 117.879 139.69H113.589V144.49H118.119C119.829 144.49 121.059 143.71 121.059 142.09ZM127.765 149.8C127.765 144.76 131.545 142.18 135.715 142.18C139.915 142.18 143.665 144.76 143.665 149.8C143.665 154.84 139.915 157.42 135.715 157.42C131.545 157.42 127.765 154.84 127.765 149.8ZM139.435 149.8C139.435 147.58 138.115 145.9 135.715 145.9C133.345 145.9 132.025 147.58 132.025 149.8C132.025 152.02 133.345 153.7 135.715 153.7C138.115 153.7 139.435 152.02 139.435 149.8ZM146.663 138.4L150.803 137.41V142.6H155.363V146.11H150.803V151.75C150.803 153.25 151.553 153.91 153.113 153.91C154.073 153.91 154.883 153.76 155.723 153.43V156.79C154.613 157.18 153.293 157.42 151.853 157.42C149.063 157.42 146.663 156.13 146.663 152.56V146.11H144.233V142.6H146.663V138.4ZM157.402 147.94H168.562V151.45H157.402V147.94ZM173.867 157H169.217L177.797 136H182.657L191.207 157H186.557L185.027 153.07H175.427L173.867 157ZM179.747 141.82L176.837 149.35H183.617L180.677 141.82C180.527 141.4 180.377 140.98 180.227 140.17C180.077 140.98 179.927 141.4 179.747 141.82ZM192.954 136H197.454V157H192.954V136Z" fill="white"/>
</g>
<rect x="1.5" y="1.5" width="43" height="43" rx="21.5" fill="#3A4A9C"/>
<rect x="1.5" y="1.5" width="43" height="43" rx="21.5" stroke="#11183C" stroke-width="3"/>
<g clip-path="url(#clip1_478_1311)">
<path d="M21.325 15.317C21.751 13.561 24.249 13.561 24.675 15.317C24.7389 15.5808 24.8642 15.8258 25.0407 16.032C25.2172 16.2382 25.4399 16.3999 25.6907 16.5037C25.9414 16.6076 26.2132 16.6509 26.4838 16.6299C26.7544 16.6089 27.0162 16.5243 27.248 16.383C28.791 15.443 30.558 17.209 29.618 18.753C29.4769 18.9847 29.3924 19.2463 29.3715 19.5168C29.3506 19.7872 29.3938 20.0588 29.4975 20.3094C29.6013 20.56 29.7627 20.7826 29.9687 20.9591C30.1747 21.1355 30.4194 21.2609 30.683 21.325C32.439 21.751 32.439 24.249 30.683 24.675C30.4192 24.7389 30.1742 24.8642 29.968 25.0407C29.7618 25.2172 29.6001 25.4399 29.4963 25.6907C29.3924 25.9414 29.3491 26.2132 29.3701 26.4838C29.3911 26.7544 29.4757 27.0162 29.617 27.248C30.557 28.791 28.791 30.558 27.247 29.618C27.0153 29.4769 26.7537 29.3924 26.4832 29.3715C26.2128 29.3506 25.9412 29.3938 25.6906 29.4975C25.44 29.6013 25.2174 29.7627 25.0409 29.9687C24.8645 30.1747 24.7391 30.4194 24.675 30.683C24.249 32.439 21.751 32.439 21.325 30.683C21.2611 30.4192 21.1358 30.1742 20.9593 29.968C20.7828 29.7618 20.5601 29.6001 20.3093 29.4963C20.0586 29.3924 19.7868 29.3491 19.5162 29.3701C19.2456 29.3911 18.9838 29.4757 18.752 29.617C17.209 30.557 15.442 28.791 16.382 27.247C16.5231 27.0153 16.6076 26.7537 16.6285 26.4832C16.6494 26.2128 16.6062 25.9412 16.5025 25.6906C16.3987 25.44 16.2373 25.2174 16.0313 25.0409C15.8253 24.8645 15.5806 24.7391 15.317 24.675C13.561 24.249 13.561 21.751 15.317 21.325C15.5808 21.2611 15.8258 21.1358 16.032 20.9593C16.2382 20.7828 16.3999 20.5601 16.5037 20.3093C16.6076 20.0586 16.6509 19.7868 16.6299 19.5162C16.6089 19.2456 16.5243 18.9838 16.383 18.752C15.443 17.209 17.209 15.442 18.753 16.382C19.753 16.99 21.049 16.452 21.325 15.317Z" stroke="#F2F3FF" stroke-width="1.5" stroke-linecap="round" stroke-linejoin="round"/>
<path d="M23 26C24.6569 26 26 24.6569 26 23C26 21.3431 24.6569 20 23 20C21.3431 20 20 21.3431 20 23C20 24.6569 21.3431 26 23 26Z" stroke="#F2F3FF" stroke-width="1.5" stroke-linecap="round" stroke-linejoin="round"/>
</g>
<rect x="251.5" y="18.5" width="43" height="43" rx="21.5" fill="#3A4A9C"/>
<rect x="251.5" y="18.5" width="43" height="43" rx="21.5" stroke="#11183C" stroke-width="3"/>
<g clip-path="url(#clip2_478_1311)">
<path d="M279.829 46.811C279.672 47.165 279.416 47.4658 279.091 47.6768C278.766 47.8879 278.387 48.0002 278 48H268C267.47 48 266.961 47.7893 266.586 47.4142C266.211 47.0391 266 46.5304 266 46V43L265 42V39L266 38V37C266 36.4696 266.211 35.9609 266.586 35.5858C266.961 35.2107 267.47 35 268 35M272 35H278C278.53 35 279.039 35.2107 279.414 35.5858C279.789 35.9609 280 36.4696 280 37V38L281 39V42L280 43L272 35Z" stroke="#F2F3FF" stroke-width="1.5" stroke-linecap="round" stroke-linejoin="round"/>
<path d="M271 44H275" stroke="#F2F3FF" stroke-width="1.5" stroke-linecap="round" stroke-linejoin="round"/>
<path d="M269.5 40.5C270.052 40.5 270.5 40.0523 270.5 39.5C270.5 38.9477 270.052 38.5 269.5 38.5C268.948 38.5 268.5 38.9477 268.5 39.5C268.5 40.0523 268.948 40.5 269.5 40.5Z" stroke="#F2F3FF" stroke-width="1.5" stroke-linecap="round" stroke-linejoin="round"/>
<path d="M276.855 39.853C276.925 39.7834 276.974 39.6943 276.993 39.597C277.013 39.4997 277.003 39.3988 276.965 39.3071C276.927 39.2154 276.863 39.1372 276.78 39.0825C276.697 39.0278 276.6 38.9991 276.501 39C276.434 38.9999 276.369 39.0131 276.308 39.0386C276.246 39.0642 276.191 39.1018 276.145 39.149" stroke="#F2F3FF" stroke-width="1.5" stroke-linecap="round" stroke-linejoin="round"/>
<path d="M269.336 32.343L269 31" stroke="#F2F3FF" stroke-width="1.5" stroke-linecap="round" stroke-linejoin="round"/>
<path d="M276 35L277 31" stroke="#F2F3FF" stroke-width="1.5" stroke-linecap="round" stroke-linejoin="round"/>
<path d="M264 31L282 49" stroke="#F2F3FF" stroke-width="1.5" stroke-linecap="round" stroke-linejoin="round"/>
</g>
<rect x="8.5" y="253.5" width="43" height="43" rx="21.5" fill="#3A4A9C"/>
<rect x="8.5" y="253.5" width="43" height="43" rx="21.5" stroke="#11183C" stroke-width="3"/>
<g clip-path="url(#clip3_478_1311)">
<path d="M35 274H25C23.8954 274 23 274.895 23 276V282C23 283.105 23.8954 284 25 284H35C36.1046 284 37 283.105 37 282V276C37 274.895 36.1046 274 35 274Z" stroke="#F2F3FF" stroke-width="1.5" stroke-linecap="round" stroke-linejoin="round"/>
<path d="M30 280C30.5523 280 31 279.552 31 279C31 278.448 30.5523 278 30 278C29.4477 278 29 278.448 29 279C29 279.552 29.4477 280 30 280Z" stroke="#F2F3FF" stroke-width="1.5" stroke-linecap="round" stroke-linejoin="round"/>
<path d="M26 274V270C26 268.939 26.4214 267.922 27.1716 267.172C27.9217 266.421 28.9391 266 30 266C31.0609 266 32.0783 266.421 32.8284 267.172C33.5786 267.922 34 268.939 34 270V274" stroke="#F2F3FF" stroke-width="1.5" stroke-linecap="round" stroke-linejoin="round"/>
</g>
<rect x="220.5" y="255.5" width="43" height="43" rx="21.5" fill="#3A4A9C"/>
<rect x="220.5" y="255.5" width="43" height="43" rx="21.5" stroke="#11183C" stroke-width="3"/>
<g clip-path="url(#clip4_478_1311)">
<path d="M239 269H235C234.448 269 234 269.448 234 270V274C234 274.552 234.448 275 235 275H239C239.552 275 240 274.552 240 274V270C240 269.448 239.552 269 239 269Z" stroke="#F2F3FF" stroke-width="1.5" stroke-linecap="round" stroke-linejoin="round"/>
<path d="M249 269H245C244.448 269 244 269.448 244 270V274C244 274.552 244.448 275 245 275H249C249.552 275 250 274.552 250 274V270C250 269.448 249.552 269 249 269Z" stroke="#F2F3FF" stroke-width="1.5" stroke-linecap="round" stroke-linejoin="round"/>
<path d="M239 279H235C234.448 279 234 279.448 234 280V284C234 284.552 234.448 285 235 285H239C239.552 285 240 284.552 240 284V280C240 279.448 239.552 279 239 279Z" stroke="#F2F3FF" stroke-width="1.5" stroke-linecap="round" stroke-linejoin="round"/>
<path d="M247 279V285M244 282H250H244Z" stroke="#F2F3FF" stroke-width="1.5" stroke-linecap="round" stroke-linejoin="round"/>
</g>
<defs>
<filter id="filter0_d_478_1311" x="71.25" y="136" width="130.204" height="29.4199" filterUnits="userSpaceOnUse" color-interpolation-filters="sRGB">
<feFlood flood-opacity="0" result="BackgroundImageFix"/>
<feColorMatrix in="SourceAlpha" type="matrix" values="0 0 0 0 0 0 0 0 0 0 0 0 0 0 0 0 0 0 127 0" result="hardAlpha"/>
<feOffset dy="4"/>
<feGaussianBlur stdDeviation="2"/>
<feComposite in2="hardAlpha" operator="out"/>
<feColorMatrix type="matrix" values="0 0 0 0 0 0 0 0 0 0 0 0 0 0 0 0 0 0 0.15 0"/>
<feBlend mode="normal" in2="BackgroundImageFix" result="effect1_dropShadow_478_1311"/>
<feBlend mode="normal" in="SourceGraphic" in2="effect1_dropShadow_478_1311" result="shape"/>
</filter>
<clipPath id="clip0_478_1311">
<rect width="258" height="258" fill="white" transform="translate(7 20)"/>
</clipPath>
<clipPath id="clip1_478_1311">
<rect width="24" height="24" fill="white" transform="translate(11 11)"/>
</clipPath>
<clipPath id="clip2_478_1311">
<rect width="24" height="24" fill="white" transform="translate(261 28)"/>
</clipPath>
<clipPath id="clip3_478_1311">
<rect width="24" height="24" fill="white" transform="translate(18 263)"/>
</clipPath>
<clipPath id="clip4_478_1311">
<rect width="24" height="24" fill="white" transform="translate(230 265)"/>
</clipPath>
</defs>
</svg>
