<svg width="628" height="375" viewBox="0 0 628 375" fill="none" xmlns="http://www.w3.org/2000/svg">
<rect x="1" y="1" width="561" height="328" rx="14" stroke="#071147" stroke-opacity="0.28" stroke-width="2"/>
<path d="M2 28H563" stroke="#B0B4CB" stroke-width="2"/>
<rect x="23" y="34" width="558.761" height="318" rx="13.9168" fill="white"/>
<path d="M23 47.9168C23 40.2308 29.2308 34 36.9168 34H568.083C575.769 34 582 40.2308 582 47.9168V89H23V47.9168Z" fill="#071147"/>
<path d="M61.9668 300.855H556.711" stroke="#DDDDDD" stroke-linecap="round"/>
<path d="M61.9668 279.632H556.711" stroke="#DDDDDD" stroke-linecap="round"/>
<path d="M61.9668 259.453H556.711" stroke="#DDDDDD" stroke-linecap="round"/>
<path d="M61.9668 238.578H556.711" stroke="#DDDDDD" stroke-linecap="round"/>
<path d="M61.9668 217.702H556.711" stroke="#DDDDDD" stroke-linecap="round"/>
<path d="M61.9668 197.523H556.711" stroke="#DDDDDD" stroke-linecap="round"/>
<path d="M61.9668 175.952H556.711" stroke="#DDDDDD" stroke-linecap="round"/>
<path d="M61.9668 155.076H556.711" stroke="#DDDDDD" stroke-linecap="round"/>
<path d="M61.9668 133.505H556.711" stroke="#DDDDDD" stroke-linecap="round"/>
<path d="M61.9668 112.63H556.711" stroke="#DDDDDD" stroke-linecap="round"/>
<path d="M60.9238 112.282V323.818H555.668" stroke="#7F7F7F" stroke-linecap="round"/>
<path d="M72.317 71H68.6392L62.1433 54.2827H66.0121L70.4781 66.7968L74.9678 54.2827H78.8367L72.317 71ZM83.2533 71H79.9338V59.5367H83.2533V71ZM83.5399 55.7395C83.5399 57.053 82.6324 57.6262 81.5816 57.6262C80.5547 57.6262 79.6472 57.053 79.6472 55.7395C79.6472 54.4499 80.5547 53.8767 81.5816 53.8767C82.6324 53.8767 83.5399 54.4499 83.5399 55.7395ZM85.1344 62.7369C85.1344 60.086 87.4987 59.2024 89.9108 59.2024C91.5347 59.2024 92.9677 59.6084 94.1379 60.1815V62.9041C93.1587 62.2354 91.487 61.7338 90.1257 61.7338C89.3854 61.7338 88.5256 61.9488 88.5256 62.6414C88.5256 64.5519 94.9976 63.5966 94.9976 67.7998C94.9976 70.4985 92.5378 71.3343 89.7914 71.3343C88.048 71.3343 86.4001 70.9522 85.2299 70.2597V67.5133C86.4718 68.3252 88.2152 68.7312 89.6003 68.7312C90.8183 68.7312 91.6064 68.5163 91.6064 67.8715C91.6064 66.0326 85.1344 66.8446 85.1344 62.7369ZM99.8829 71H96.5634V59.5367H99.8829V71ZM100.17 55.7395C100.17 57.053 99.262 57.6262 98.2112 57.6262C97.1843 57.6262 96.2768 57.053 96.2768 55.7395C96.2768 54.4499 97.1843 53.8767 98.2112 53.8767C99.262 53.8767 100.17 54.4499 100.17 55.7395ZM103.125 56.1933L106.421 55.4052V59.5367H110.051V62.3309H106.421V66.8207C106.421 68.0148 107.018 68.5402 108.26 68.5402C109.024 68.5402 109.669 68.4208 110.338 68.1581V70.8328C109.454 71.1433 108.403 71.3343 107.257 71.3343C105.036 71.3343 103.125 70.3074 103.125 67.4655V62.3309H101.191V59.5367H103.125V56.1933ZM116.085 62.7369C116.085 60.086 118.449 59.2024 120.861 59.2024C122.485 59.2024 123.918 59.6084 125.088 60.1815V62.9041C124.109 62.2354 122.437 61.7338 121.076 61.7338C120.336 61.7338 119.476 61.9488 119.476 62.6414C119.476 64.5519 125.948 63.5966 125.948 67.7998C125.948 70.4985 123.488 71.3343 120.742 71.3343C118.998 71.3343 117.35 70.9522 116.18 70.2597V67.5133C117.422 68.3252 119.165 68.7312 120.551 68.7312C121.769 68.7312 122.557 68.5163 122.557 67.8715C122.557 66.0326 116.085 66.8446 116.085 62.7369ZM128.35 56.1933L131.645 55.4052V59.5367H135.275V62.3309H131.645V66.8207C131.645 68.0148 132.242 68.5402 133.484 68.5402C134.248 68.5402 134.893 68.4208 135.562 68.1581V70.8328C134.678 71.1433 133.627 71.3343 132.481 71.3343C130.26 71.3343 128.35 70.3074 128.35 67.4655V62.3309H126.415V59.5367H128.35V56.1933ZM147.239 68.0387C147.239 68.6357 147.621 68.8029 148.051 68.8029C148.242 68.8029 148.457 68.779 148.672 68.7073V70.8806C148.147 71.0716 147.478 71.2149 146.833 71.2149C145.663 71.2149 144.779 70.7851 144.302 69.9253C143.179 70.8089 141.866 71.3343 140.17 71.3343C138.021 71.3343 136.158 70.0925 136.158 67.8237C136.158 64.9101 138.905 64.0026 141.197 64.0026C142.105 64.0026 143.108 64.122 143.92 64.3131V63.9071C143.92 62.7608 143.012 61.9727 141.221 61.9727C139.645 61.9727 138.236 62.4025 137.161 62.8324V59.9666C138.093 59.6561 139.836 59.2024 141.603 59.2024C145.042 59.2024 147.239 60.6114 147.239 64.3847V68.0387ZM141.961 65.9848C140.743 65.9848 139.549 66.3908 139.549 67.561C139.549 68.4208 140.337 68.97 141.341 68.97C142.272 68.97 143.156 68.7073 143.92 68.0387V66.2475C143.418 66.1281 142.654 65.9848 141.961 65.9848ZM150.506 56.1933L153.802 55.4052V59.5367H157.432V62.3309H153.802V66.8207C153.802 68.0148 154.399 68.5402 155.641 68.5402C156.405 68.5402 157.05 68.4208 157.719 68.1581V70.8328C156.835 71.1433 155.784 71.3343 154.638 71.3343C152.417 71.3343 150.506 70.3074 150.506 67.4655V62.3309H148.572V59.5367H150.506V56.1933ZM162.494 71H159.175V59.5367H162.494V71ZM162.781 55.7395C162.781 57.053 161.873 57.6262 160.823 57.6262C159.796 57.6262 158.888 57.053 158.888 55.7395C158.888 54.4499 159.796 53.8767 160.823 53.8767C161.873 53.8767 162.781 54.4499 162.781 55.7395ZM164.375 62.7369C164.375 60.086 166.74 59.2024 169.152 59.2024C170.776 59.2024 172.209 59.6084 173.379 60.1815V62.9041C172.4 62.2354 170.728 61.7338 169.367 61.7338C168.626 61.7338 167.767 61.9488 167.767 62.6414C167.767 64.5519 174.239 63.5966 174.239 67.7998C174.239 70.4985 171.779 71.3343 169.032 71.3343C167.289 71.3343 165.641 70.9522 164.471 70.2597V67.5133C165.713 68.3252 167.456 68.7312 168.841 68.7312C170.059 68.7312 170.847 68.5163 170.847 67.8715C170.847 66.0326 164.375 66.8446 164.375 62.7369ZM176.64 56.1933L179.936 55.4052V59.5367H183.566V62.3309H179.936V66.8207C179.936 68.0148 180.533 68.5402 181.775 68.5402C182.539 68.5402 183.184 68.4208 183.853 68.1581V70.8328C182.969 71.1433 181.918 71.3343 180.772 71.3343C178.551 71.3343 176.64 70.3074 176.64 67.4655V62.3309H174.706V59.5367H176.64V56.1933ZM188.628 71H185.309V59.5367H188.628V71ZM188.915 55.7395C188.915 57.053 188.007 57.6262 186.956 57.6262C185.93 57.6262 185.022 57.053 185.022 55.7395C185.022 54.4499 185.93 53.8767 186.956 53.8767C188.007 53.8767 188.915 54.4499 188.915 55.7395ZM190.366 65.4355C190.366 61.0413 193.662 59.1785 196.838 59.1785C198.104 59.1785 199.346 59.4651 200.372 60.0144V62.9279C199.561 62.4025 198.414 62.0682 197.316 62.0682C195.501 62.0682 193.757 62.9518 193.757 65.2684C193.757 67.4655 195.477 68.4685 197.268 68.4685C198.486 68.4685 199.656 68.1342 200.492 67.6327V70.5701C199.369 71.0478 198.08 71.3343 196.623 71.3343C193.495 71.3343 190.366 69.5193 190.366 65.4355ZM201.739 62.7369C201.739 60.086 204.104 59.2024 206.516 59.2024C208.14 59.2024 209.573 59.6084 210.743 60.1815V62.9041C209.764 62.2354 208.092 61.7338 206.731 61.7338C205.99 61.7338 205.131 61.9488 205.131 62.6414C205.131 64.5519 211.603 63.5966 211.603 67.7998C211.603 70.4985 209.143 71.3343 206.396 71.3343C204.653 71.3343 203.005 70.9522 201.835 70.2597V67.5133C203.077 68.3252 204.82 68.7312 206.205 68.7312C207.423 68.7312 208.211 68.5163 208.211 67.8715C208.211 66.0326 201.739 66.8446 201.739 62.7369Z" fill="white"/>
<path d="M83.5391 135.201C83.5391 131.358 86.6545 128.243 90.4975 128.243H104.414C108.257 128.243 111.373 131.358 111.373 135.201V139.376H83.5391V135.201Z" fill="#FF8046"/>
<rect x="83.5391" y="139.376" width="27.8337" height="18.7877" fill="#374A88"/>
<rect x="83.5391" y="158.164" width="27.8337" height="122.468" fill="#4988EF"/>
<rect x="83.5391" y="280.632" width="27.8337" height="42.4464" fill="#29C5B8"/>
<path d="M85.653 331.454H86.4713V337.075H87.6501V338.079H84.0456V337.075H85.3705V332.594L84.0456 333.091V332.068L85.653 331.454ZM89.7868 331.454H90.6051V337.075H91.7839V338.079H88.1794V337.075H89.5043V332.594L88.1794 333.091V332.068L89.7868 331.454ZM93.5894 337.543C93.5894 337.981 93.2874 338.186 92.9367 338.186C92.586 338.186 92.2743 337.981 92.2743 337.543C92.2743 337.124 92.586 336.919 92.9367 336.919C93.2874 336.919 93.5894 337.124 93.5894 337.543ZM94.0868 334.767C94.0868 332.828 95.0025 331.328 97.058 331.328C99.1135 331.328 100.029 332.828 100.029 334.767C100.029 336.705 99.1135 338.205 97.058 338.205C95.0025 338.205 94.0868 336.705 94.0868 334.767ZM98.909 334.767C98.909 333.227 98.3244 332.341 97.058 332.341C95.7818 332.341 95.2071 333.227 95.2071 334.767C95.2071 336.306 95.7818 337.192 97.058 337.192C98.3244 337.192 98.909 336.306 98.909 334.767ZM100.644 333.549C100.644 332.088 101.774 331.328 103.098 331.328C105.115 331.328 105.982 332.614 105.982 334.708C105.982 337.134 104.608 338.205 102.913 338.205C102.319 338.205 101.725 338.069 101.199 337.816V336.803C101.686 337.075 102.261 337.221 102.806 337.221C103.819 337.221 104.725 336.705 104.862 335.117C104.229 335.497 103.644 335.653 102.933 335.653C101.793 335.653 100.644 334.952 100.644 333.549ZM103.176 332.282C102.407 332.282 101.764 332.623 101.764 333.5C101.764 334.406 102.475 334.689 103.254 334.689C103.8 334.689 104.375 334.513 104.852 334.133C104.725 332.799 104.112 332.282 103.176 332.282Z" fill="#717171"/>
<path d="M37.7199 109.439H38.3238V115.284H39.5611V116.063H36.1125V115.284H37.5055V110.306L36.1125 110.832V110.053L37.7199 109.439ZM40.0841 112.751C40.0841 110.793 40.9998 109.322 43.0066 109.322C45.0232 109.322 45.9389 110.793 45.9389 112.751C45.9389 114.709 45.0232 116.18 43.0066 116.18C40.9998 116.18 40.0841 114.709 40.0841 112.751ZM45.1108 112.751C45.1108 111.095 44.4581 110.101 43.0066 110.101C41.5648 110.101 40.9121 111.095 40.9121 112.751C40.9121 114.407 41.5648 115.401 43.0066 115.401C44.4581 115.401 45.1108 114.407 45.1108 112.751ZM46.7389 112.751C46.7389 110.793 47.6547 109.322 49.6615 109.322C51.678 109.322 52.5937 110.793 52.5937 112.751C52.5937 114.709 51.678 116.18 49.6615 116.18C47.6547 116.18 46.7389 114.709 46.7389 112.751ZM51.7657 112.751C51.7657 111.095 51.113 110.101 49.6615 110.101C48.2197 110.101 47.567 111.095 47.567 112.751C47.567 114.407 48.2197 115.401 49.6615 115.401C51.113 115.401 51.7657 114.407 51.7657 112.751Z" fill="#717171"/>
<path d="M40.7661 132.495C40.7661 131.082 41.8474 130.322 43.1431 130.322C45.0622 130.322 45.939 131.598 45.939 133.644C45.939 136.08 44.6336 137.18 42.9287 137.18C42.3637 137.18 41.7987 137.044 41.3213 136.8V136.021C41.8182 136.284 42.3832 136.401 42.9093 136.401C44.0198 136.401 45.0135 135.768 45.1109 133.936C44.4387 134.384 43.7958 134.57 43.0359 134.57C41.9351 134.57 40.7661 133.878 40.7661 132.495ZM43.2015 131.082C42.315 131.082 41.5941 131.452 41.5941 132.456C41.5941 133.498 42.3832 133.81 43.2405 133.81C43.8932 133.81 44.5654 133.595 45.1012 133.118C44.9745 131.725 44.2829 131.082 43.2015 131.082ZM46.7389 133.751C46.7389 131.793 47.6547 130.322 49.6615 130.322C51.678 130.322 52.5937 131.793 52.5937 133.751C52.5937 135.709 51.678 137.18 49.6615 137.18C47.6547 137.18 46.7389 135.709 46.7389 133.751ZM51.7657 133.751C51.7657 132.095 51.113 131.101 49.6615 131.101C48.2197 131.101 47.567 132.095 47.567 133.751C47.567 135.407 48.2197 136.401 49.6615 136.401C51.113 136.401 51.7657 135.407 51.7657 133.751Z" fill="#717171"/>
<path d="M40.8407 153.037C40.8407 152.199 41.5615 151.322 43.2566 151.322C44.7861 151.322 45.6921 152.189 45.7213 153.144C45.7408 153.748 45.4485 154.381 44.8153 154.819C45.4485 155.131 45.9551 155.599 45.9551 156.378C45.9551 157.294 45.1758 158.18 43.3151 158.18C41.5031 158.18 40.6069 157.255 40.6069 156.242C40.6069 155.638 40.9576 154.917 41.7369 154.459C41.2206 154.147 40.8407 153.699 40.8407 153.037ZM43.354 155.082C43.0618 155.005 42.7403 154.907 42.4286 154.79C41.7466 155.121 41.4252 155.667 41.4252 156.154C41.4252 156.933 42.0779 157.421 43.3346 157.421C44.3672 157.421 45.1368 157.021 45.1368 156.417C45.1368 155.56 44.2698 155.355 43.354 155.082ZM44.903 153.29C44.903 152.637 44.3282 152.082 43.2371 152.082C42.2435 152.082 41.659 152.501 41.659 153.027C41.659 153.884 42.5552 154.089 43.3151 154.323C43.5586 154.391 43.8411 154.459 44.1236 154.547C44.6497 154.206 44.903 153.738 44.903 153.29ZM46.7389 154.751C46.7389 152.793 47.6547 151.322 49.6615 151.322C51.678 151.322 52.5937 152.793 52.5937 154.751C52.5937 156.709 51.678 158.18 49.6615 158.18C47.6547 158.18 46.7389 156.709 46.7389 154.751ZM51.7657 154.751C51.7657 153.095 51.113 152.101 49.6615 152.101C48.2197 152.101 47.567 153.095 47.567 154.751C47.567 156.407 48.2197 157.401 49.6615 157.401C51.113 157.401 51.7657 156.407 51.7657 154.751Z" fill="#717171"/>
<path d="M41.458 172.439H46.2315V173.179L43.4648 179.063H42.5881L45.3353 173.218H41.458V172.439ZM46.7389 175.751C46.7389 173.793 47.6547 172.322 49.6615 172.322C51.678 172.322 52.5937 173.793 52.5937 175.751C52.5937 177.709 51.678 179.18 49.6615 179.18C47.6547 179.18 46.7389 177.709 46.7389 175.751ZM51.7657 175.751C51.7657 174.095 51.113 173.101 49.6615 173.101C48.2197 173.101 47.567 174.095 47.567 175.751C47.567 177.407 48.2197 178.401 49.6615 178.401C51.113 178.401 51.7657 177.407 51.7657 175.751Z" fill="#717171"/>
<path d="M41.721 196.566C42.3932 196.118 43.0361 195.933 43.796 195.933C44.8968 195.933 46.0658 196.625 46.0658 198.008C46.0658 199.421 44.9845 200.18 43.6888 200.18C41.7697 200.18 40.8929 198.904 40.8929 196.858C40.8929 194.423 42.1983 193.322 43.9032 193.322C44.4682 193.322 45.0332 193.459 45.5106 193.702V194.481C45.0137 194.218 44.4487 194.101 43.9226 194.101C42.8121 194.101 41.8184 194.735 41.721 196.566ZM41.7307 197.384C41.8574 198.778 42.549 199.421 43.6304 199.421C44.5169 199.421 45.2378 199.05 45.2378 198.047C45.2378 197.005 44.4487 196.693 43.5914 196.693C42.9387 196.693 42.2665 196.907 41.7307 197.384ZM46.7389 196.751C46.7389 194.793 47.6547 193.322 49.6615 193.322C51.678 193.322 52.5937 194.793 52.5937 196.751C52.5937 198.709 51.678 200.18 49.6615 200.18C47.6547 200.18 46.7389 198.709 46.7389 196.751ZM51.7657 196.751C51.7657 195.095 51.113 194.101 49.6615 194.101C48.2197 194.101 47.567 195.095 47.567 196.751C47.567 198.407 48.2197 199.401 49.6615 199.401C51.113 199.401 51.7657 198.407 51.7657 196.751Z" fill="#717171"/>
<path d="M41.7112 214.439H45.6858V215.218H42.4808L42.3639 217.089C42.7146 216.991 43.1042 216.943 43.4939 216.943C44.7409 216.943 46.0073 217.478 46.0073 219.066C46.0073 220.411 44.8773 221.18 43.4355 221.18C42.6659 221.18 41.8865 221.015 41.3118 220.732V219.953C41.8768 220.255 42.6269 220.421 43.3381 220.421C44.4194 220.421 45.1793 219.963 45.1793 219.066C45.1793 217.985 44.244 217.683 43.2114 217.683C42.6269 217.683 42.0034 217.81 41.4969 217.995L41.7112 214.439ZM46.7389 217.751C46.7389 215.793 47.6547 214.322 49.6615 214.322C51.678 214.322 52.5937 215.793 52.5937 217.751C52.5937 219.709 51.678 221.18 49.6615 221.18C47.6547 221.18 46.7389 219.709 46.7389 217.751ZM51.7657 217.751C51.7657 216.095 51.113 215.101 49.6615 215.101C48.2197 215.101 47.567 216.095 47.567 217.751C47.567 219.407 48.2197 220.401 49.6615 220.401C51.113 220.401 51.7657 219.407 51.7657 217.751Z" fill="#717171"/>
<path d="M44.0158 235.439H44.9023V239.833H46.1492V240.592H44.9023V242.063H44.0937V240.592H40.4016V239.862L44.0158 235.439ZM44.0937 239.833V236.54L41.405 239.833H44.0937ZM46.7389 238.751C46.7389 236.793 47.6547 235.322 49.6615 235.322C51.678 235.322 52.5937 236.793 52.5937 238.751C52.5937 240.709 51.678 242.18 49.6615 242.18C47.6547 242.18 46.7389 240.709 46.7389 238.751ZM51.7657 238.751C51.7657 237.095 51.113 236.101 49.6615 236.101C48.2197 236.101 47.567 237.095 47.567 238.751C47.567 240.407 48.2197 241.401 49.6615 241.401C51.113 241.401 51.7657 240.407 51.7657 238.751Z" fill="#717171"/>
<path d="M45.6877 258.124C45.6877 258.806 45.2882 259.391 44.7232 259.586C45.2882 259.761 45.9604 260.248 45.9604 261.261C45.9604 262.547 44.8596 263.18 43.5347 263.18C42.5898 263.18 41.8786 263.034 41.2259 262.742V261.933C41.8981 262.284 42.5898 262.421 43.4665 262.411C44.4407 262.411 45.1713 262.089 45.1713 261.222C45.1713 260.316 44.4504 260.034 43.5542 260.034H42.5411V259.254L43.4665 259.264C44.431 259.264 44.8986 258.806 44.8986 258.193C44.8986 257.511 44.3433 257.082 43.3301 257.082C42.6287 257.082 41.9858 257.248 41.3428 257.589V256.79C41.9371 256.488 42.6092 256.322 43.4373 256.322C44.7914 256.322 45.6877 257.053 45.6877 258.124ZM46.7389 259.751C46.7389 257.793 47.6547 256.322 49.6615 256.322C51.678 256.322 52.5937 257.793 52.5937 259.751C52.5937 261.709 51.678 263.18 49.6615 263.18C47.6547 263.18 46.7389 261.709 46.7389 259.751ZM51.7657 259.751C51.7657 258.095 51.113 257.101 49.6615 257.101C48.2197 257.101 47.567 258.095 47.567 259.751C47.567 261.407 48.2197 262.401 49.6615 262.401C51.113 262.401 51.7657 261.407 51.7657 259.751Z" fill="#717171"/>
<path d="M41.5055 277.965C42.1679 277.507 42.8985 277.322 43.6292 277.322C44.9833 277.322 45.8893 277.965 45.8893 279.095C45.8893 280.225 44.9443 280.878 44.0188 281.423C43.0934 281.969 42.1874 282.417 42.1679 283.294L45.938 283.284V284.063H41.2717V283.674C41.2717 282.057 42.4601 281.443 43.4928 280.839C44.3208 280.352 45.071 279.943 45.071 279.085C45.071 278.433 44.5157 278.082 43.561 278.082C42.8888 278.082 42.1874 278.306 41.5055 278.783V277.965ZM46.7389 280.751C46.7389 278.793 47.6547 277.322 49.6615 277.322C51.678 277.322 52.5937 278.793 52.5937 280.751C52.5937 282.709 51.678 284.18 49.6615 284.18C47.6547 284.18 46.7389 282.709 46.7389 280.751ZM51.7657 280.751C51.7657 279.095 51.113 278.101 49.6615 278.101C48.2197 278.101 47.567 279.095 47.567 280.751C47.567 282.407 48.2197 283.401 49.6615 283.401C51.113 283.401 51.7657 282.407 51.7657 280.751Z" fill="#717171"/>
<path d="M44.3747 298.439H44.9787V304.284H46.2159V305.063H42.7673V304.284H44.1604V299.306L42.7673 299.832V299.053L44.3747 298.439ZM46.7389 301.751C46.7389 299.793 47.6547 298.322 49.6615 298.322C51.678 298.322 52.5937 299.793 52.5937 301.751C52.5937 303.709 51.678 305.18 49.6615 305.18C47.6547 305.18 46.7389 303.709 46.7389 301.751ZM51.7657 301.751C51.7657 300.095 51.113 299.101 49.6615 299.101C48.2197 299.101 47.567 300.095 47.567 301.751C47.567 303.407 48.2197 304.401 49.6615 304.401C51.113 304.401 51.7657 303.407 51.7657 301.751Z" fill="#717171"/>
<path d="M46.7389 322.751C46.7389 320.793 47.6547 319.322 49.6615 319.322C51.678 319.322 52.5937 320.793 52.5937 322.751C52.5937 324.709 51.678 326.18 49.6615 326.18C47.6547 326.18 46.7389 324.709 46.7389 322.751ZM51.7657 322.751C51.7657 321.095 51.113 320.101 49.6615 320.101C48.2197 320.101 47.567 321.095 47.567 322.751C47.567 324.407 48.2197 325.401 49.6615 325.401C51.113 325.401 51.7657 324.407 51.7657 322.751Z" fill="#717171"/>
<path d="M155.373 197.827C155.373 193.984 158.488 190.869 162.331 190.869H176.248C180.091 190.869 183.207 193.984 183.207 197.827V205.481H155.373V197.827Z" fill="#FF8046"/>
<rect x="155.373" y="205.481" width="27.8337" height="13.221" fill="#374A88"/>
<rect x="155.373" y="218.702" width="27.8337" height="74.4551" fill="#4988EF"/>
<rect x="155.373" y="293.157" width="27.8337" height="29.9212" fill="#29C5B8"/>
<path d="M157.487 331.454H158.305V337.075H159.484V338.079H155.88V337.075H157.205V332.594L155.88 333.091V332.068L157.487 331.454ZM160.15 332C160.832 331.532 161.582 331.328 162.351 331.328C163.696 331.328 164.68 331.951 164.68 333.188C164.68 334.309 163.745 334.971 162.848 335.507C161.991 336.013 161.182 336.423 161.173 337.085L164.728 337.075V338.079H159.926V337.572C159.926 335.955 161.124 335.341 162.127 334.747C162.897 334.299 163.569 333.958 163.569 333.208C163.569 332.633 163.072 332.331 162.254 332.331C161.582 332.331 160.851 332.565 160.15 333.071V332ZM166.793 337.543C166.793 337.981 166.491 338.186 166.141 338.186C165.79 338.186 165.478 337.981 165.478 337.543C165.478 337.124 165.79 336.919 166.141 336.919C166.491 336.919 166.793 337.124 166.793 337.543ZM167.291 334.767C167.291 332.828 168.206 331.328 170.262 331.328C172.317 331.328 173.233 332.828 173.233 334.767C173.233 336.705 172.317 338.205 170.262 338.205C168.206 338.205 167.291 336.705 167.291 334.767ZM172.113 334.767C172.113 333.227 171.528 332.341 170.262 332.341C168.986 332.341 168.411 333.227 168.411 334.767C168.411 336.306 168.986 337.192 170.262 337.192C171.528 337.192 172.113 336.306 172.113 334.767ZM173.847 333.549C173.847 332.088 174.977 331.328 176.302 331.328C178.319 331.328 179.186 332.614 179.186 334.708C179.186 337.134 177.812 338.205 176.117 338.205C175.523 338.205 174.929 338.069 174.403 337.816V336.803C174.89 337.075 175.465 337.221 176.01 337.221C177.023 337.221 177.929 336.705 178.066 335.117C177.432 335.497 176.848 335.653 176.137 335.653C174.997 335.653 173.847 334.952 173.847 333.549ZM176.38 332.282C175.611 332.282 174.968 332.623 174.968 333.5C174.968 334.406 175.679 334.689 176.458 334.689C177.004 334.689 177.579 334.513 178.056 334.133C177.929 332.799 177.316 332.282 176.38 332.282Z" fill="#717171"/>
<path d="M227.207 275.065C227.207 271.222 230.322 268.107 234.165 268.107H248.082C251.925 268.107 255.041 271.222 255.041 275.065V276.457H227.207V275.065Z" fill="#FF8046"/>
<rect x="227.207" y="276.457" width="27.8337" height="33.4004" fill="#4988EF"/>
<rect x="227.207" y="309.858" width="27.8337" height="13.221" fill="#29C5B8"/>
<path d="M229.321 331.454H230.139V337.075H231.318V338.079H227.714V337.075H229.038V332.594L227.714 333.091V332.068L229.321 331.454ZM236.387 333.14C236.387 333.831 235.997 334.386 235.403 334.581C236.027 334.776 236.66 335.273 236.66 336.276C236.66 337.611 235.481 338.205 234.127 338.205C233.231 338.205 232.529 338.069 231.828 337.767V336.695C232.539 337.085 233.221 337.212 234.039 337.202C234.916 337.192 235.598 336.91 235.598 336.159C235.598 335.409 234.984 335.166 234.195 335.166H233.143V334.162L234.069 334.172C234.887 334.172 235.325 333.821 235.325 333.276C235.325 332.682 234.828 332.331 233.922 332.331C233.27 332.331 232.588 332.506 231.945 332.876V331.815C232.539 331.503 233.25 331.328 234.069 331.328C235.432 331.328 236.387 332.009 236.387 333.14ZM238.694 337.543C238.694 337.981 238.392 338.186 238.041 338.186C237.69 338.186 237.379 337.981 237.379 337.543C237.379 337.124 237.69 336.919 238.041 336.919C238.392 336.919 238.694 337.124 238.694 337.543ZM239.191 334.766C239.191 332.828 240.107 331.328 242.163 331.328C244.218 331.328 245.134 332.828 245.134 334.766C245.134 336.705 244.218 338.205 242.163 338.205C240.107 338.205 239.191 336.705 239.191 334.766ZM244.013 334.766C244.013 333.227 243.429 332.341 242.163 332.341C240.886 332.341 240.312 333.227 240.312 334.766C240.312 336.306 240.886 337.192 242.163 337.192C243.429 337.192 244.013 336.306 244.013 334.766ZM245.748 333.549C245.748 332.087 246.878 331.328 248.203 331.328C250.22 331.328 251.087 332.613 251.087 334.708C251.087 337.134 249.713 338.205 248.018 338.205C247.424 338.205 246.829 338.069 246.303 337.816V336.802C246.79 337.075 247.365 337.221 247.911 337.221C248.924 337.221 249.83 336.705 249.966 335.117C249.333 335.497 248.748 335.653 248.037 335.653C246.898 335.653 245.748 334.951 245.748 333.549ZM248.281 332.282C247.511 332.282 246.868 332.623 246.868 333.5C246.868 334.406 247.579 334.688 248.359 334.688C248.904 334.688 249.479 334.513 249.956 334.133C249.83 332.799 249.216 332.282 248.281 332.282Z" fill="#717171"/>
<path d="M299.041 265.324C299.041 261.481 302.156 258.365 305.999 258.365H319.916C323.759 258.365 326.875 261.481 326.875 265.324V266.716H299.041V265.324Z" fill="#FF8046"/>
<rect x="299.041" y="266.716" width="27.8337" height="4.17505" fill="#374A88"/>
<rect x="299.041" y="270.891" width="27.8337" height="41.7505" fill="#4988EF"/>
<rect x="299.041" y="312.641" width="27.8337" height="10.4376" fill="#29C5B8"/>
<path d="M301.155 331.454H301.973V337.075H303.152V338.079H299.548V337.075H300.872V332.594L299.548 333.091V332.068L301.155 331.454ZM306.935 331.454H308.075V335.76H309.215V336.725H308.075V338.079H307.003V336.725H303.409V335.78L306.935 331.454ZM307.003 335.76V332.867L304.646 335.76H307.003ZM311.089 337.543C311.089 337.981 310.787 338.186 310.436 338.186C310.086 338.186 309.774 337.981 309.774 337.543C309.774 337.124 310.086 336.919 310.436 336.919C310.787 336.919 311.089 337.124 311.089 337.543ZM311.587 334.767C311.587 332.828 312.502 331.328 314.558 331.328C316.613 331.328 317.529 332.828 317.529 334.767C317.529 336.705 316.613 338.205 314.558 338.205C312.502 338.205 311.587 336.705 311.587 334.767ZM316.409 334.767C316.409 333.227 315.824 332.341 314.558 332.341C313.282 332.341 312.707 333.227 312.707 334.767C312.707 336.306 313.282 337.192 314.558 337.192C315.824 337.192 316.409 336.306 316.409 334.767ZM318.143 333.549C318.143 332.088 319.273 331.328 320.598 331.328C322.615 331.328 323.482 332.614 323.482 334.708C323.482 337.134 322.108 338.205 320.413 338.205C319.819 338.205 319.225 338.069 318.699 337.816V336.803C319.186 337.075 319.76 337.221 320.306 337.221C321.319 337.221 322.225 336.705 322.362 335.117C321.728 335.497 321.144 335.653 320.433 335.653C319.293 335.653 318.143 334.952 318.143 333.549ZM320.676 332.282C319.907 332.282 319.264 332.623 319.264 333.5C319.264 334.406 319.975 334.689 320.754 334.689C321.3 334.689 321.874 334.513 322.352 334.133C322.225 332.799 321.611 332.282 320.676 332.282Z" fill="#717171"/>
<path d="M370.875 196.435C370.875 192.592 373.99 189.477 377.833 189.477H391.75C395.593 189.477 398.709 192.592 398.709 196.435V199.915H370.875V196.435Z" fill="#FF8046"/>
<rect x="370.875" y="199.915" width="27.8337" height="17.3961" fill="#374A88"/>
<rect x="370.875" y="217.311" width="27.8337" height="82.1094" fill="#4988EF"/>
<rect x="370.875" y="299.42" width="27.8337" height="23.6586" fill="#29C5B8"/>
<path d="M372.989 331.454H373.807V337.075H374.986V338.079H371.382V337.075H372.706V332.594L371.382 333.091V332.068L372.989 331.454ZM375.905 331.454H379.987V332.448H376.928L376.831 334.046C377.152 333.968 377.493 333.929 377.834 333.929C379.11 333.929 380.299 334.484 380.299 336.043C380.299 337.475 379.081 338.205 377.62 338.205C376.85 338.205 376.08 338.04 375.496 337.757V336.715C376.051 337.036 376.801 337.202 377.493 337.202C378.477 337.202 379.178 336.812 379.178 336.033C379.178 335.156 378.428 334.844 377.376 334.844C376.84 334.844 376.227 334.952 375.691 335.137L375.905 331.454ZM382.286 337.543C382.286 337.981 381.984 338.186 381.633 338.186C381.282 338.186 380.971 337.981 380.971 337.543C380.971 337.124 381.282 336.919 381.633 336.919C381.984 336.919 382.286 337.124 382.286 337.543ZM382.783 334.767C382.783 332.828 383.699 331.328 385.754 331.328C387.81 331.328 388.726 332.828 388.726 334.767C388.726 336.705 387.81 338.205 385.754 338.205C383.699 338.205 382.783 336.705 382.783 334.767ZM387.605 334.767C387.605 333.227 387.021 332.341 385.754 332.341C384.478 332.341 383.903 333.227 383.903 334.767C383.903 336.306 384.478 337.192 385.754 337.192C387.021 337.192 387.605 336.306 387.605 334.767ZM389.34 333.549C389.34 332.088 390.47 331.328 391.795 331.328C393.811 331.328 394.678 332.614 394.678 334.708C394.678 337.134 393.305 338.205 391.61 338.205C391.015 338.205 390.421 338.069 389.895 337.816V336.803C390.382 337.075 390.957 337.221 391.503 337.221C392.516 337.221 393.422 336.705 393.558 335.117C392.925 335.497 392.34 335.653 391.629 335.653C390.489 335.653 389.34 334.952 389.34 333.549ZM391.873 332.282C391.103 332.282 390.46 332.623 390.46 333.5C390.46 334.406 391.171 334.689 391.951 334.689C392.496 334.689 393.071 334.513 393.548 334.133C393.422 332.799 392.808 332.282 391.873 332.282Z" fill="#717171"/>
<path d="M442.709 210.352C442.709 206.509 445.824 203.394 449.667 203.394H464.264C468.107 203.394 471.222 206.509 471.222 210.352V218.702H442.709V210.352Z" fill="#FF8046"/>
<rect x="442.709" y="218.702" width="28.5134" height="17.3961" fill="#374A88"/>
<rect x="442.709" y="236.098" width="28.5134" height="48.709" fill="#4988EF"/>
<rect x="442.709" y="284.807" width="28.5134" height="38.2713" fill="#29C5B8"/>
<path d="M444.823 331.454H445.641V337.075H446.82V338.079H443.216V337.075H444.54V332.594L443.216 333.091V332.068L444.823 331.454ZM448.431 334.416C449.064 334.036 449.648 333.87 450.36 333.87C451.499 333.87 452.649 334.581 452.649 335.984C452.649 337.446 451.529 338.205 450.204 338.205C448.177 338.205 447.31 336.919 447.31 334.825C447.31 332.39 448.684 331.328 450.379 331.328C450.973 331.328 451.577 331.464 452.094 331.717V332.73C451.607 332.458 451.032 332.312 450.486 332.312C449.483 332.312 448.567 332.828 448.431 334.416ZM448.44 335.4C448.567 336.734 449.181 337.251 450.116 337.251C450.886 337.251 451.529 336.91 451.529 336.033C451.529 335.127 450.817 334.844 450.048 334.844C449.493 334.844 448.918 335.02 448.44 335.4ZM454.576 337.543C454.576 337.981 454.274 338.186 453.924 338.186C453.573 338.186 453.261 337.981 453.261 337.543C453.261 337.124 453.573 336.919 453.924 336.919C454.274 336.919 454.576 337.124 454.576 337.543ZM455.074 334.767C455.074 332.828 455.989 331.328 458.045 331.328C460.101 331.328 461.016 332.828 461.016 334.767C461.016 336.705 460.101 338.205 458.045 338.205C455.989 338.205 455.074 336.705 455.074 334.767ZM459.896 334.767C459.896 333.227 459.311 332.341 458.045 332.341C456.769 332.341 456.194 333.227 456.194 334.767C456.194 336.306 456.769 337.192 458.045 337.192C459.311 337.192 459.896 336.306 459.896 334.767ZM461.631 333.549C461.631 332.088 462.761 331.328 464.085 331.328C466.102 331.328 466.969 332.614 466.969 334.708C466.969 337.134 465.595 338.205 463.9 338.205C463.306 338.205 462.712 338.069 462.186 337.816V336.803C462.673 337.075 463.248 337.221 463.793 337.221C464.806 337.221 465.712 336.705 465.849 335.117C465.215 335.497 464.631 335.653 463.92 335.653C462.78 335.653 461.631 334.952 461.631 333.549ZM464.163 332.282C463.394 332.282 462.751 332.623 462.751 333.5C462.751 334.406 463.462 334.689 464.241 334.689C464.787 334.689 465.362 334.513 465.839 334.133C465.712 332.799 465.099 332.282 464.163 332.282Z" fill="#717171"/>
<path d="M515.223 234.707C515.223 230.864 518.338 227.748 522.181 227.748H536.637C540.48 227.748 543.595 230.864 543.595 234.707V235.403H515.223V234.707Z" fill="#FF8046"/>
<rect x="515.223" y="235.403" width="28.3728" height="11.1335" fill="#374A88"/>
<rect x="515.223" y="246.536" width="28.3728" height="41.7505" fill="#4988EF"/>
<rect x="515.223" y="288.287" width="28.3728" height="34.7921" fill="#29C5B8"/>
<path d="M517.337 331.454H518.155V337.075H519.334V338.079H515.729V337.075H517.054V332.594L515.729 333.091V332.068L517.337 331.454ZM519.61 331.454H524.529V332.331L521.782 338.079H520.584L523.273 332.448H519.61V331.454ZM525.596 337.543C525.596 337.981 525.294 338.186 524.944 338.186C524.593 338.186 524.281 337.981 524.281 337.543C524.281 337.124 524.593 336.919 524.944 336.919C525.294 336.919 525.596 337.124 525.596 337.543ZM526.094 334.767C526.094 332.828 527.01 331.328 529.065 331.328C531.121 331.328 532.036 332.828 532.036 334.767C532.036 336.705 531.121 338.205 529.065 338.205C527.01 338.205 526.094 336.705 526.094 334.767ZM530.916 334.767C530.916 333.227 530.331 332.341 529.065 332.341C527.789 332.341 527.214 333.227 527.214 334.767C527.214 336.306 527.789 337.192 529.065 337.192C530.331 337.192 530.916 336.306 530.916 334.767ZM532.651 333.549C532.651 332.088 533.781 331.328 535.106 331.328C537.122 331.328 537.989 332.614 537.989 334.708C537.989 337.134 536.615 338.205 534.92 338.205C534.326 338.205 533.732 338.069 533.206 337.816V336.803C533.693 337.075 534.268 337.221 534.813 337.221C535.826 337.221 536.732 336.705 536.869 335.117C536.236 335.497 535.651 335.653 534.94 335.653C533.8 335.653 532.651 334.952 532.651 333.549ZM535.183 332.282C534.414 332.282 533.771 332.623 533.771 333.5C533.771 334.406 534.482 334.689 535.261 334.689C535.807 334.689 536.382 334.513 536.859 334.133C536.732 332.799 536.119 332.282 535.183 332.282Z" fill="#717171"/>
<path d="M133.373 111.5V322.5" stroke="#DDDDDD" stroke-linecap="round"/>
<path d="M205.207 111.5V322.5" stroke="#DDDDDD" stroke-linecap="round"/>
<path d="M277.041 111.5V322.5" stroke="#DDDDDD" stroke-linecap="round"/>
<path d="M348.875 111.5V322.5" stroke="#DDDDDD" stroke-linecap="round"/>
<path d="M420.709 111.5V322.5" stroke="#DDDDDD" stroke-linecap="round"/>
<path d="M493.223 111.5V322.5" stroke="#DDDDDD" stroke-linecap="round"/>
<path d="M459 206L487 134H538.5" stroke="#414141" stroke-width="1.5" stroke-linecap="round"/>
<circle cx="459" cy="206" r="2" fill="#414141"/>
<path d="M171 299L199 191H250.5" stroke="#414141" stroke-width="1.5" stroke-linecap="round"/>
<circle cx="171" cy="299" r="2" fill="#414141"/>
<path d="M104 151L132 119H183.5" stroke="#414141" stroke-width="1.5" stroke-linecap="round"/>
<circle cx="104" cy="151" r="2" fill="#414141"/>
<rect x="544.5" y="125.5" width="83" height="29" rx="9.5" fill="#071147"/>
<rect x="544.5" y="125.5" width="83" height="29" rx="9.5" stroke="black"/>
<path d="M386 288L414 360H465.5" stroke="#414141" stroke-width="1.5" stroke-linecap="round"/>
<circle cx="2" cy="2" r="2" transform="matrix(1 0 0 -1 384 290)" fill="#414141"/>
<rect x="539" y="119" width="84" height="30" rx="10" fill="url(#paint0_linear_98_361)"/>
<path d="M567.19 128.2H571.334C573.378 128.2 574.694 129.012 574.694 130.678C574.694 131.868 573.98 132.568 573.154 132.834C574.036 133.086 575.086 133.758 575.086 135.284C575.086 137.51 572.916 138 571.362 138H567.19V128.2ZM573.462 135.116C573.462 133.814 572.314 133.618 571.432 133.618H568.786V136.6H571.208C572.3 136.6 573.462 136.474 573.462 135.116ZM573.07 130.93C573.07 129.95 572.342 129.586 571.166 129.586H568.786V132.26L571.39 132.274C572.314 132.274 573.07 131.882 573.07 130.93ZM575.904 134.64C575.904 132.316 577.668 131.098 579.544 131.098C581.434 131.098 583.184 132.316 583.184 134.64C583.184 136.964 581.434 138.182 579.544 138.182C577.668 138.182 575.904 136.964 575.904 134.64ZM581.658 134.64C581.658 133.324 580.79 132.47 579.544 132.47C578.284 132.47 577.416 133.324 577.416 134.64C577.416 135.956 578.284 136.81 579.544 136.81C580.79 136.81 581.658 135.956 581.658 134.64ZM584.751 129.25L586.235 128.886V131.28H588.671V132.596H586.235V135.676C586.235 136.558 586.641 136.852 587.509 136.852C587.999 136.852 588.447 136.754 588.867 136.586V137.874C588.363 138.056 587.719 138.168 587.061 138.168C585.759 138.168 584.751 137.524 584.751 135.956V132.596H583.547V131.28H584.751V129.25ZM589.455 133.1C589.455 131.63 590.799 131.098 592.129 131.098C593.053 131.098 593.893 131.336 594.551 131.672V132.988C593.991 132.61 593.025 132.33 592.227 132.33C591.625 132.33 590.981 132.512 590.981 133.058C590.981 134.36 595.027 133.758 595.027 136.208C595.027 137.692 593.655 138.182 592.129 138.182C591.149 138.182 590.155 137.944 589.497 137.538V136.208C590.197 136.67 591.219 136.922 592.059 136.922C592.899 136.922 593.515 136.782 593.515 136.236C593.515 134.99 589.455 135.508 589.455 133.1Z" fill="#1A1A1A"/>
<rect x="226.5" y="180.5" width="80" height="29" rx="9.5" fill="white"/>
<rect x="226.5" y="180.5" width="80" height="29" rx="9.5" stroke="#29C5B8"/>
<path d="M246.196 189.2H254.274V190.67H251.04V199H249.444V190.67H246.196V189.2ZM259.357 197.446C259.357 197.824 259.581 197.936 259.847 197.936C260.001 197.936 260.155 197.894 260.295 197.852V198.93C260.015 199.042 259.679 199.098 259.343 199.098C258.727 199.098 258.237 198.86 257.999 198.314C257.341 198.846 256.515 199.182 255.465 199.182C254.247 199.182 253.113 198.51 253.113 197.124C253.113 195.402 254.709 194.87 256.109 194.87C256.683 194.87 257.327 194.954 257.859 195.066V194.828C257.859 193.988 257.243 193.4 256.095 193.4C255.101 193.4 254.275 193.652 253.673 193.918V192.546C254.205 192.364 255.171 192.098 256.249 192.098C258.153 192.098 259.357 193.008 259.357 195.038V197.446ZM256.403 195.92C255.549 195.92 254.653 196.186 254.653 197.026C254.653 197.684 255.241 198.02 255.913 198.02C256.627 198.02 257.327 197.754 257.859 197.222V196.088C257.453 196.004 256.879 195.92 256.403 195.92ZM262.378 193.386C262.896 192.56 263.988 192.028 265.206 192.14V193.61C264.002 193.442 262.952 193.974 262.546 194.926V199H261.048V192.28H262.378V193.386ZM265.475 195.64C265.475 193.708 266.777 192.098 268.807 192.098C270.067 192.098 270.865 192.686 271.383 193.33V192.28H272.727V198.916C272.727 201.338 270.879 202.262 268.961 202.262C267.939 202.262 266.987 202.038 266.189 201.632V200.26C266.959 200.708 267.855 200.946 268.765 200.946C270.095 200.946 271.229 200.47 271.229 198.958V198.104C270.767 198.65 269.983 199.182 268.807 199.182C266.777 199.182 265.475 197.572 265.475 195.64ZM271.215 194.814C270.893 194.086 270.123 193.414 269.073 193.414C267.869 193.414 266.987 194.324 266.987 195.64C266.987 196.956 267.869 197.866 269.073 197.866C270.123 197.866 270.893 197.236 271.215 196.55V194.814ZM273.904 195.64C273.904 193.204 275.752 192.098 277.306 192.098C279.98 192.098 280.904 194.254 280.47 196.2H275.416C275.584 197.404 276.76 197.908 277.992 197.908C278.804 197.908 279.546 197.712 280.12 197.432V198.72C279.504 199.014 278.65 199.182 277.712 199.182C275.654 199.182 273.904 198.006 273.904 195.64ZM279.126 195.08C279.21 194.492 278.846 193.344 277.376 193.344C276.368 193.344 275.458 193.946 275.402 195.08H279.126ZM282.204 190.25L283.688 189.886V192.28H286.124V193.596H283.688V196.676C283.688 197.558 284.094 197.852 284.962 197.852C285.452 197.852 285.9 197.754 286.32 197.586V198.874C285.816 199.056 285.172 199.168 284.514 199.168C283.212 199.168 282.204 198.524 282.204 196.956V193.596H281V192.28H282.204V190.25Z" fill="#1A1A1A"/>
<rect x="170" y="104" width="107" height="30" rx="10" fill="url(#paint1_linear_98_361)"/>
<path d="M190.672 115.692C190.672 113.886 192.268 113.018 194.116 113.018C195.236 113.018 196.384 113.298 197.182 113.76V115.286C196.384 114.754 195.292 114.46 194.242 114.474C193.052 114.474 192.296 114.824 192.296 115.664C192.296 117.778 197.896 116.924 197.896 120.424C197.896 122.482 196.146 123.196 194.186 123.182C192.87 123.182 191.68 122.874 190.714 122.328V120.76C191.778 121.446 192.954 121.726 194.074 121.726C195.334 121.726 196.272 121.432 196.272 120.508C196.272 118.24 190.672 119.164 190.672 115.692ZM203.843 116.28H205.341V123H204.011V122.076C203.521 122.664 202.695 123.182 201.673 123.182C199.895 123.182 198.901 122.034 198.901 120.438V116.28H200.399V120.242C200.399 121.334 200.973 121.852 201.967 121.852C202.821 121.852 203.465 121.278 203.843 120.732V116.28ZM206.585 118.1C206.585 116.63 207.929 116.098 209.259 116.098C210.183 116.098 211.023 116.336 211.681 116.672V117.988C211.121 117.61 210.155 117.33 209.357 117.33C208.755 117.33 208.111 117.512 208.111 118.058C208.111 119.36 212.157 118.758 212.157 121.208C212.157 122.692 210.785 123.182 209.259 123.182C208.279 123.182 207.285 122.944 206.627 122.538V121.208C207.327 121.67 208.349 121.922 209.189 121.922C210.029 121.922 210.645 121.782 210.645 121.236C210.645 119.99 206.585 120.508 206.585 118.1ZM214.561 117.33C215.093 116.686 215.891 116.098 217.151 116.098C219.167 116.098 220.483 117.708 220.483 119.64C220.483 121.572 219.167 123.182 217.151 123.182C215.975 123.182 215.191 122.664 214.729 122.132V126.08H213.231V116.28H214.561V117.33ZM218.957 119.64C218.957 118.324 218.089 117.414 216.871 117.414C215.835 117.414 215.051 118.086 214.729 118.814V120.452C215.051 121.194 215.835 121.866 216.871 121.866C218.089 121.866 218.957 120.956 218.957 119.64ZM223.186 123H221.688V116.28H223.186V123ZM223.354 114.096C223.354 114.712 222.934 114.992 222.444 114.992C221.954 114.992 221.52 114.712 221.52 114.096C221.52 113.508 221.954 113.214 222.444 113.214C222.934 113.214 223.354 113.508 223.354 114.096ZM224.391 119.696C224.391 117.19 226.309 116.098 228.101 116.098C228.857 116.098 229.585 116.266 230.173 116.616V117.988C229.683 117.638 228.997 117.428 228.311 117.428C227.121 117.428 225.917 118.058 225.917 119.64C225.917 121.166 227.079 121.852 228.283 121.852C228.997 121.852 229.711 121.642 230.243 121.334V122.72C229.599 123.028 228.871 123.182 228.017 123.182C226.225 123.182 224.391 122.09 224.391 119.696ZM232.948 123H231.45V116.28H232.948V123ZM233.116 114.096C233.116 114.712 232.696 114.992 232.206 114.992C231.716 114.992 231.282 114.712 231.282 114.096C231.282 113.508 231.716 113.214 232.206 113.214C232.696 113.214 233.116 113.508 233.116 114.096ZM234.154 119.64C234.154 117.316 235.918 116.098 237.794 116.098C239.684 116.098 241.434 117.316 241.434 119.64C241.434 121.964 239.684 123.182 237.794 123.182C235.918 123.182 234.154 121.964 234.154 119.64ZM239.908 119.64C239.908 118.324 239.04 117.47 237.794 117.47C236.534 117.47 235.666 118.324 235.666 119.64C235.666 120.956 236.534 121.81 237.794 121.81C239.04 121.81 239.908 120.956 239.908 119.64ZM247.478 116.28H248.976V123H247.646V122.076C247.156 122.664 246.33 123.182 245.308 123.182C243.53 123.182 242.536 122.034 242.536 120.438V116.28H244.034V120.242C244.034 121.334 244.608 121.852 245.602 121.852C246.456 121.852 247.1 121.278 247.478 120.732V116.28ZM250.22 118.1C250.22 116.63 251.564 116.098 252.894 116.098C253.818 116.098 254.658 116.336 255.316 116.672V117.988C254.756 117.61 253.79 117.33 252.992 117.33C252.39 117.33 251.746 117.512 251.746 118.058C251.746 119.36 255.792 118.758 255.792 121.208C255.792 122.692 254.42 123.182 252.894 123.182C251.914 123.182 250.92 122.944 250.262 122.538V121.208C250.962 121.67 251.984 121.922 252.824 121.922C253.664 121.922 254.28 121.782 254.28 121.236C254.28 119.99 250.22 120.508 250.22 118.1Z" fill="white"/>
<rect x="230" y="175" width="81" height="30" rx="10" fill="url(#paint2_linear_98_361)"/>
<path d="M250.196 184.2H258.274V185.67H255.04V194H253.444V185.67H250.196V184.2ZM263.357 192.446C263.357 192.824 263.581 192.936 263.847 192.936C264.001 192.936 264.155 192.894 264.295 192.852V193.93C264.015 194.042 263.679 194.098 263.343 194.098C262.727 194.098 262.237 193.86 261.999 193.314C261.341 193.846 260.515 194.182 259.465 194.182C258.247 194.182 257.113 193.51 257.113 192.124C257.113 190.402 258.709 189.87 260.109 189.87C260.683 189.87 261.327 189.954 261.859 190.066V189.828C261.859 188.988 261.243 188.4 260.095 188.4C259.101 188.4 258.275 188.652 257.673 188.918V187.546C258.205 187.364 259.171 187.098 260.249 187.098C262.153 187.098 263.357 188.008 263.357 190.038V192.446ZM260.403 190.92C259.549 190.92 258.653 191.186 258.653 192.026C258.653 192.684 259.241 193.02 259.913 193.02C260.627 193.02 261.327 192.754 261.859 192.222V191.088C261.453 191.004 260.879 190.92 260.403 190.92ZM266.378 188.386C266.896 187.56 267.988 187.028 269.206 187.14V188.61C268.002 188.442 266.952 188.974 266.546 189.926V194H265.048V187.28H266.378V188.386ZM269.475 190.64C269.475 188.708 270.777 187.098 272.807 187.098C274.067 187.098 274.865 187.686 275.383 188.33V187.28H276.727V193.916C276.727 196.338 274.879 197.262 272.961 197.262C271.939 197.262 270.987 197.038 270.189 196.632V195.26C270.959 195.708 271.855 195.946 272.765 195.946C274.095 195.946 275.229 195.47 275.229 193.958V193.104C274.767 193.65 273.983 194.182 272.807 194.182C270.777 194.182 269.475 192.572 269.475 190.64ZM275.215 189.814C274.893 189.086 274.123 188.414 273.073 188.414C271.869 188.414 270.987 189.324 270.987 190.64C270.987 191.956 271.869 192.866 273.073 192.866C274.123 192.866 274.893 192.236 275.215 191.55V189.814ZM277.904 190.64C277.904 188.204 279.752 187.098 281.306 187.098C283.98 187.098 284.904 189.254 284.47 191.2H279.416C279.584 192.404 280.76 192.908 281.992 192.908C282.804 192.908 283.546 192.712 284.12 192.432V193.72C283.504 194.014 282.65 194.182 281.712 194.182C279.654 194.182 277.904 193.006 277.904 190.64ZM283.126 190.08C283.21 189.492 282.846 188.344 281.376 188.344C280.368 188.344 279.458 188.946 279.402 190.08H283.126ZM286.204 185.25L287.688 184.886V187.28H290.124V188.596H287.688V191.676C287.688 192.558 288.094 192.852 288.962 192.852C289.452 192.852 289.9 192.754 290.32 192.586V193.874C289.816 194.056 289.172 194.168 288.514 194.168C287.212 194.168 286.204 193.524 286.204 191.956V188.596H285V187.28H286.204V185.25Z" fill="#1A1A1A"/>
<rect x="460" y="345" width="128" height="30" rx="10" fill="url(#paint3_linear_98_361)"/>
<path d="M482.786 364H481.19V354.2H482.688L487.966 361.368C487.952 361.032 487.952 360.654 487.952 360.29V354.2H489.548V364H488.05L482.772 356.832C482.786 357.168 482.786 357.546 482.786 357.896V364ZM490.806 360.64C490.806 358.316 492.57 357.098 494.446 357.098C496.336 357.098 498.086 358.316 498.086 360.64C498.086 362.964 496.336 364.182 494.446 364.182C492.57 364.182 490.806 362.964 490.806 360.64ZM496.56 360.64C496.56 359.324 495.692 358.47 494.446 358.47C493.186 358.47 492.318 359.324 492.318 360.64C492.318 361.956 493.186 362.81 494.446 362.81C495.692 362.81 496.56 361.956 496.56 360.64ZM500.589 358.204C501.079 357.616 501.905 357.098 502.927 357.098C504.621 357.098 505.699 358.246 505.699 359.842V364H504.201V360.038C504.201 358.946 503.529 358.428 502.633 358.428C501.779 358.428 501.135 359.002 500.757 359.548V364H499.259V357.28H500.589V358.204ZM507.097 359.884H512.193V361.228H507.097V359.884ZM513.954 355.25L515.438 354.886V357.28H517.874V358.596H515.438V361.676C515.438 362.558 515.844 362.852 516.712 362.852C517.202 362.852 517.65 362.754 518.07 362.586V363.874C517.566 364.056 516.922 364.168 516.264 364.168C514.962 364.168 513.954 363.524 513.954 361.956V358.596H512.75V357.28H513.954V355.25ZM524.735 362.446C524.735 362.824 524.959 362.936 525.225 362.936C525.379 362.936 525.533 362.894 525.673 362.852V363.93C525.393 364.042 525.057 364.098 524.721 364.098C524.105 364.098 523.615 363.86 523.377 363.314C522.719 363.846 521.893 364.182 520.843 364.182C519.625 364.182 518.491 363.51 518.491 362.124C518.491 360.402 520.087 359.87 521.487 359.87C522.061 359.87 522.705 359.954 523.237 360.066V359.828C523.237 358.988 522.621 358.4 521.473 358.4C520.479 358.4 519.653 358.652 519.051 358.918V357.546C519.583 357.364 520.549 357.098 521.627 357.098C523.531 357.098 524.735 358.008 524.735 360.038V362.446ZM521.781 360.92C520.927 360.92 520.031 361.186 520.031 362.026C520.031 362.684 520.619 363.02 521.291 363.02C522.005 363.02 522.705 362.754 523.237 362.222V361.088C522.831 361.004 522.257 360.92 521.781 360.92ZM527.756 358.386C528.274 357.56 529.366 357.028 530.584 357.14V358.61C529.38 358.442 528.33 358.974 527.924 359.926V364H526.426V357.28H527.756V358.386ZM530.853 360.64C530.853 358.708 532.155 357.098 534.185 357.098C535.445 357.098 536.243 357.686 536.761 358.33V357.28H538.105V363.916C538.105 366.338 536.257 367.262 534.339 367.262C533.317 367.262 532.365 367.038 531.567 366.632V365.26C532.337 365.708 533.233 365.946 534.143 365.946C535.473 365.946 536.607 365.47 536.607 363.958V363.104C536.145 363.65 535.361 364.182 534.185 364.182C532.155 364.182 530.853 362.572 530.853 360.64ZM536.593 359.814C536.271 359.086 535.501 358.414 534.451 358.414C533.247 358.414 532.365 359.324 532.365 360.64C532.365 361.956 533.247 362.866 534.451 362.866C535.501 362.866 536.271 362.236 536.593 361.55V359.814ZM539.282 360.64C539.282 358.204 541.13 357.098 542.684 357.098C545.358 357.098 546.282 359.254 545.848 361.2H540.794C540.962 362.404 542.138 362.908 543.37 362.908C544.182 362.908 544.924 362.712 545.498 362.432V363.72C544.882 364.014 544.028 364.182 543.09 364.182C541.032 364.182 539.282 363.006 539.282 360.64ZM544.504 360.08C544.588 359.492 544.224 358.344 542.754 358.344C541.746 358.344 540.836 358.946 540.78 360.08H544.504ZM547.582 355.25L549.066 354.886V357.28H551.502V358.596H549.066V361.676C549.066 362.558 549.472 362.852 550.34 362.852C550.83 362.852 551.278 362.754 551.698 362.586V363.874C551.194 364.056 550.55 364.168 549.892 364.168C548.59 364.168 547.582 363.524 547.582 361.956V358.596H546.378V357.28H547.582V355.25ZM552.216 360.64C552.216 358.204 554.064 357.098 555.618 357.098C558.292 357.098 559.216 359.254 558.782 361.2H553.728C553.896 362.404 555.072 362.908 556.304 362.908C557.116 362.908 557.858 362.712 558.432 362.432V363.72C557.816 364.014 556.962 364.182 556.024 364.182C553.966 364.182 552.216 363.006 552.216 360.64ZM557.438 360.08C557.522 359.492 557.158 358.344 555.688 358.344C554.68 358.344 553.77 358.946 553.714 360.08H557.438ZM565.36 354.2H566.858V364H565.514V362.936C564.996 363.594 564.198 364.182 562.938 364.182C560.908 364.182 559.606 362.572 559.606 360.64C559.606 358.708 560.908 357.098 562.938 357.098C564.114 357.098 564.898 357.616 565.36 358.148V354.2ZM565.346 359.814C565.024 359.086 564.254 358.414 563.204 358.414C562 358.414 561.118 359.324 561.118 360.64C561.118 361.956 562 362.866 563.204 362.866C564.254 362.866 565.024 362.194 565.346 361.452V359.814Z" fill="white"/>
<circle cx="25" cy="14" r="5" fill="#B0B4CB"/>
<circle cx="41" cy="14" r="5" fill="#B0B4CB"/>
<circle cx="57" cy="14" r="5" fill="#B0B4CB"/>
<defs>
<linearGradient id="paint0_linear_98_361" x1="623" y1="134" x2="539" y2="134" gradientUnits="userSpaceOnUse">
<stop stop-color="#FF7433"/>
<stop offset="1" stop-color="#FFA631"/>
</linearGradient>
<linearGradient id="paint1_linear_98_361" x1="170" y1="119" x2="277" y2="119" gradientUnits="userSpaceOnUse">
<stop stop-color="#374A88"/>
<stop offset="1" stop-color="#16275E"/>
</linearGradient>
<linearGradient id="paint2_linear_98_361" x1="230" y1="190" x2="311" y2="190" gradientUnits="userSpaceOnUse">
<stop stop-color="#29C5B8"/>
<stop offset="1" stop-color="#29A6C5"/>
</linearGradient>
<linearGradient id="paint3_linear_98_361" x1="460" y1="360" x2="588" y2="360" gradientUnits="userSpaceOnUse">
<stop stop-color="#4988EF"/>
<stop offset="1" stop-color="#2A4E89"/>
</linearGradient>
</defs>
</svg>
