<svg width="326" height="219" viewBox="0 0 326 219" fill="none" xmlns="http://www.w3.org/2000/svg">
<rect x="0.5" y="0.5" width="280" height="192" rx="7" stroke="#071147" stroke-opacity="0.28"/>
<path d="M1 14H281.5" stroke="#B0B4CB"/>
<rect x="11" y="17" width="280" height="202" rx="6.95842" fill="white"/>
<path d="M11.5 23.9584C11.5 20.1154 14.6154 17 18.4584 17H284.042C287.885 17 291 20.1154 291 23.9584V44.5H11.5V23.9584Z" fill="#071147"/>
<path d="M30.9834 185.275H278.355" stroke="#DDDDDD" stroke-width="0.5" stroke-linecap="round"/>
<path d="M30.9834 170.742H278.355" stroke="#DDDDDD" stroke-width="0.5" stroke-linecap="round"/>
<path d="M30.9834 156.923H278.355" stroke="#DDDDDD" stroke-width="0.5" stroke-linecap="round"/>
<path d="M30.9834 142.628H278.355" stroke="#DDDDDD" stroke-width="0.5" stroke-linecap="round"/>
<path d="M30.9834 128.332H278.355" stroke="#DDDDDD" stroke-width="0.5" stroke-linecap="round"/>
<path d="M30.9834 114.514H278.355" stroke="#DDDDDD" stroke-width="0.5" stroke-linecap="round"/>
<path d="M30.9834 99.7419H278.355" stroke="#DDDDDD" stroke-width="0.5" stroke-linecap="round"/>
<path d="M30.9834 85.4462H278.355" stroke="#DDDDDD" stroke-width="0.5" stroke-linecap="round"/>
<path d="M30.9834 70.6746H278.355" stroke="#DDDDDD" stroke-width="0.5" stroke-linecap="round"/>
<path d="M30.9834 56.3792H278.355" stroke="#DDDDDD" stroke-width="0.5" stroke-linecap="round"/>
<path d="M30.4619 56.1411V201H277.834" stroke="#7F7F7F" stroke-width="0.5" stroke-linecap="round"/>
<path d="M36.184 35.5H34.336L31.072 27.1H33.016L35.26 33.388L37.516 27.1H39.46L36.184 35.5ZM41.6793 35.5H40.0113V29.74H41.6793V35.5ZM41.8233 27.832C41.8233 28.492 41.3673 28.78 40.8393 28.78C40.3233 28.78 39.8673 28.492 39.8673 27.832C39.8673 27.184 40.3233 26.896 40.8393 26.896C41.3673 26.896 41.8233 27.184 41.8233 27.832ZM42.6244 31.348C42.6244 30.016 43.8124 29.572 45.0244 29.572C45.8404 29.572 46.5604 29.776 47.1484 30.064V31.432C46.6564 31.096 45.8164 30.844 45.1324 30.844C44.7604 30.844 44.3284 30.952 44.3284 31.3C44.3284 32.26 47.5804 31.78 47.5804 33.892C47.5804 35.248 46.3444 35.668 44.9644 35.668C44.0884 35.668 43.2604 35.476 42.6724 35.128V33.748C43.2964 34.156 44.1724 34.36 44.8684 34.36C45.4804 34.36 45.8764 34.252 45.8764 33.928C45.8764 33.004 42.6244 33.412 42.6244 31.348ZM50.0352 35.5H48.3672V29.74H50.0352V35.5ZM50.1792 27.832C50.1792 28.492 49.7232 28.78 49.1952 28.78C48.6792 28.78 48.2232 28.492 48.2232 27.832C48.2232 27.184 48.6792 26.896 49.1952 26.896C49.7232 26.896 50.1792 27.184 50.1792 27.832ZM51.6644 28.06L53.3204 27.664V29.74H55.1444V31.144H53.3204V33.4C53.3204 34 53.6204 34.264 54.2444 34.264C54.6284 34.264 54.9524 34.204 55.2884 34.072V35.416C54.8444 35.572 54.3164 35.668 53.7404 35.668C52.6244 35.668 51.6644 35.152 51.6644 33.724V31.144H50.6924V29.74H51.6644V28.06ZM58.1762 31.348C58.1762 30.016 59.3642 29.572 60.5762 29.572C61.3922 29.572 62.1122 29.776 62.7002 30.064V31.432C62.2082 31.096 61.3682 30.844 60.6842 30.844C60.3122 30.844 59.8802 30.952 59.8802 31.3C59.8802 32.26 63.1322 31.78 63.1322 33.892C63.1322 35.248 61.8962 35.668 60.5162 35.668C59.6402 35.668 58.8122 35.476 58.2242 35.128V33.748C58.8482 34.156 59.7242 34.36 60.4202 34.36C61.0322 34.36 61.4282 34.252 61.4282 33.928C61.4282 33.004 58.1762 33.412 58.1762 31.348ZM64.3389 28.06L65.9949 27.664V29.74H67.8189V31.144H65.9949V33.4C65.9949 34 66.2949 34.264 66.9189 34.264C67.3029 34.264 67.6269 34.204 67.9629 34.072V35.416C67.5189 35.572 66.9909 35.668 66.4149 35.668C65.2989 35.668 64.3389 35.152 64.3389 33.724V31.144H63.3669V29.74H64.3389V28.06ZM73.8305 34.012C73.8305 34.312 74.0225 34.396 74.2385 34.396C74.3345 34.396 74.4425 34.384 74.5505 34.348V35.44C74.2865 35.536 73.9505 35.608 73.6265 35.608C73.0385 35.608 72.5945 35.392 72.3545 34.96C71.7905 35.404 71.1305 35.668 70.2785 35.668C69.1985 35.668 68.2625 35.044 68.2625 33.904C68.2625 32.44 69.6425 31.984 70.7945 31.984C71.2505 31.984 71.7545 32.044 72.1625 32.14V31.936C72.1625 31.36 71.7065 30.964 70.8065 30.964C70.0145 30.964 69.3065 31.18 68.7665 31.396V29.956C69.2345 29.8 70.1105 29.572 70.9985 29.572C72.7265 29.572 73.8305 30.28 73.8305 32.176V34.012ZM71.1785 32.98C70.5665 32.98 69.9665 33.184 69.9665 33.772C69.9665 34.204 70.3625 34.48 70.8665 34.48C71.3345 34.48 71.7785 34.348 72.1625 34.012V33.112C71.9105 33.052 71.5265 32.98 71.1785 32.98ZM75.4722 28.06L77.1282 27.664V29.74H78.9522V31.144H77.1282V33.4C77.1282 34 77.4282 34.264 78.0522 34.264C78.4362 34.264 78.7602 34.204 79.0962 34.072V35.416C78.6522 35.572 78.1242 35.668 77.5482 35.668C76.4322 35.668 75.4722 35.152 75.4722 33.724V31.144H74.5002V29.74H75.4722V28.06ZM81.4958 35.5H79.8278V29.74H81.4958V35.5ZM81.6398 27.832C81.6398 28.492 81.1838 28.78 80.6558 28.78C80.1398 28.78 79.6838 28.492 79.6838 27.832C79.6838 27.184 80.1398 26.896 80.6558 26.896C81.1838 26.896 81.6398 27.184 81.6398 27.832ZM82.441 31.348C82.441 30.016 83.629 29.572 84.841 29.572C85.657 29.572 86.377 29.776 86.965 30.064V31.432C86.473 31.096 85.633 30.844 84.949 30.844C84.577 30.844 84.145 30.952 84.145 31.3C84.145 32.26 87.397 31.78 87.397 33.892C87.397 35.248 86.161 35.668 84.781 35.668C83.905 35.668 83.077 35.476 82.489 35.128V33.748C83.113 34.156 83.989 34.36 84.685 34.36C85.297 34.36 85.693 34.252 85.693 33.928C85.693 33.004 82.441 33.412 82.441 31.348ZM88.6037 28.06L90.2597 27.664V29.74H92.0837V31.144H90.2597V33.4C90.2597 34 90.5597 34.264 91.1837 34.264C91.5677 34.264 91.8917 34.204 92.2277 34.072V35.416C91.7837 35.572 91.2557 35.668 90.6797 35.668C89.5637 35.668 88.6037 35.152 88.6037 33.724V31.144H87.6317V29.74H88.6037V28.06ZM94.6274 35.5H92.9594V29.74H94.6274V35.5ZM94.7714 27.832C94.7714 28.492 94.3154 28.78 93.7874 28.78C93.2714 28.78 92.8154 28.492 92.8154 27.832C92.8154 27.184 93.2714 26.896 93.7874 26.896C94.3154 26.896 94.7714 27.184 94.7714 27.832ZM95.5006 32.704C95.5006 30.496 97.1566 29.56 98.7526 29.56C99.3886 29.56 100.013 29.704 100.529 29.98V31.444C100.121 31.18 99.5446 31.012 98.9926 31.012C98.0806 31.012 97.2046 31.456 97.2046 32.62C97.2046 33.724 98.0686 34.228 98.9686 34.228C99.5806 34.228 100.169 34.06 100.589 33.808V35.284C100.025 35.524 99.3766 35.668 98.6446 35.668C97.0726 35.668 95.5006 34.756 95.5006 32.704ZM101.215 31.348C101.215 30.016 102.403 29.572 103.615 29.572C104.431 29.572 105.151 29.776 105.739 30.064V31.432C105.247 31.096 104.407 30.844 103.723 30.844C103.351 30.844 102.919 30.952 102.919 31.3C102.919 32.26 106.171 31.78 106.171 33.892C106.171 35.248 104.935 35.668 103.555 35.668C102.679 35.668 101.851 35.476 101.263 35.128V33.748C101.887 34.156 102.763 34.36 103.459 34.36C104.071 34.36 104.467 34.252 104.467 33.928C104.467 33.004 101.215 33.412 101.215 31.348Z" fill="white"/>
<path d="M13.9224 55.0917H14.4184V59.8917H15.4344V60.5317H12.6024V59.8917H13.7464V55.8037L12.6024 56.2357V55.5957L13.9224 55.0917ZM15.8639 57.8117C15.8639 56.2037 16.6159 54.9957 18.2639 54.9957C19.9199 54.9957 20.6719 56.2037 20.6719 57.8117C20.6719 59.4197 19.9199 60.6277 18.2639 60.6277C16.6159 60.6277 15.8639 59.4197 15.8639 57.8117ZM19.9919 57.8117C19.9919 56.4517 19.4559 55.6357 18.2639 55.6357C17.0799 55.6357 16.5439 56.4517 16.5439 57.8117C16.5439 59.1717 17.0799 59.9877 18.2639 59.9877C19.4559 59.9877 19.9919 59.1717 19.9919 57.8117ZM21.3289 57.8117C21.3289 56.2037 22.0809 54.9957 23.7289 54.9957C25.3849 54.9957 26.1369 56.2037 26.1369 57.8117C26.1369 59.4197 25.3849 60.6277 23.7289 60.6277C22.0809 60.6277 21.3289 59.4197 21.3289 57.8117ZM25.4569 57.8117C25.4569 56.4517 24.9209 55.6357 23.7289 55.6357C22.5449 55.6357 22.0089 56.4517 22.0089 57.8117C22.0089 59.1717 22.5449 59.9877 23.7289 59.9877C24.9209 59.9877 25.4569 59.1717 25.4569 57.8117Z" fill="#717171"/>
<path d="M16.424 70.7797C16.424 69.6197 17.312 68.9957 18.376 68.9957C19.952 68.9957 20.672 70.0437 20.672 71.7237C20.672 73.7237 19.6 74.6277 18.2 74.6277C17.736 74.6277 17.272 74.5157 16.88 74.3157V73.6757C17.288 73.8917 17.752 73.9877 18.184 73.9877C19.096 73.9877 19.912 73.4677 19.992 71.9637C19.44 72.3317 18.912 72.4837 18.288 72.4837C17.384 72.4837 16.424 71.9157 16.424 70.7797ZM18.424 69.6197C17.696 69.6197 17.104 69.9237 17.104 70.7477C17.104 71.6037 17.752 71.8597 18.456 71.8597C18.992 71.8597 19.544 71.6837 19.984 71.2917C19.88 70.1477 19.312 69.6197 18.424 69.6197ZM21.3289 71.8117C21.3289 70.2037 22.0809 68.9957 23.7289 68.9957C25.3849 68.9957 26.1369 70.2037 26.1369 71.8117C26.1369 73.4197 25.3849 74.6277 23.7289 74.6277C22.0809 74.6277 21.3289 73.4197 21.3289 71.8117ZM25.4569 71.8117C25.4569 70.4517 24.9209 69.6357 23.7289 69.6357C22.5449 69.6357 22.0089 70.4517 22.0089 71.8117C22.0089 73.1717 22.5449 73.9877 23.7289 73.9877C24.9209 73.9877 25.4569 73.1717 25.4569 71.8117Z" fill="#717171"/>
<path d="M16.4852 84.4037C16.4852 83.7157 17.0772 82.9957 18.4692 82.9957C19.7252 82.9957 20.4692 83.7077 20.4932 84.4917C20.5092 84.9877 20.2692 85.5077 19.7492 85.8677C20.2692 86.1237 20.6852 86.5077 20.6852 87.1477C20.6852 87.8997 20.0452 88.6277 18.5172 88.6277C17.0292 88.6277 16.2932 87.8677 16.2932 87.0357C16.2932 86.5397 16.5812 85.9477 17.2212 85.5717C16.7972 85.3157 16.4852 84.9477 16.4852 84.4037ZM18.5492 86.0837C18.3092 86.0197 18.0452 85.9397 17.7892 85.8437C17.2292 86.1157 16.9652 86.5637 16.9652 86.9637C16.9652 87.6037 17.5012 88.0037 18.5332 88.0037C19.3812 88.0037 20.0132 87.6757 20.0132 87.1797C20.0132 86.4757 19.3012 86.3077 18.5492 86.0837ZM19.8212 84.6117C19.8212 84.0757 19.3492 83.6197 18.4532 83.6197C17.6372 83.6197 17.1572 83.9637 17.1572 84.3957C17.1572 85.0997 17.8932 85.2677 18.5172 85.4597C18.7172 85.5157 18.9492 85.5717 19.1812 85.6437C19.6132 85.3637 19.8212 84.9797 19.8212 84.6117ZM21.3289 85.8117C21.3289 84.2037 22.0809 82.9957 23.7289 82.9957C25.3849 82.9957 26.1369 84.2037 26.1369 85.8117C26.1369 87.4197 25.3849 88.6277 23.7289 88.6277C22.0809 88.6277 21.3289 87.4197 21.3289 85.8117ZM25.4569 85.8117C25.4569 84.4517 24.9209 83.6357 23.7289 83.6357C22.5449 83.6357 22.0089 84.4517 22.0089 85.8117C22.0089 87.1717 22.5449 87.9877 23.7289 87.9877C24.9209 87.9877 25.4569 87.1717 25.4569 85.8117Z" fill="#717171"/>
<path d="M16.9922 97.0917H20.9122V97.6997L18.6402 102.532H17.9202L20.1762 97.7317H16.9922V97.0917ZM21.3289 99.8117C21.3289 98.2037 22.0809 96.9957 23.7289 96.9957C25.3849 96.9957 26.1369 98.2037 26.1369 99.8117C26.1369 101.42 25.3849 102.628 23.7289 102.628C22.0809 102.628 21.3289 101.42 21.3289 99.8117ZM25.4569 99.8117C25.4569 98.4517 24.9209 97.6357 23.7289 97.6357C22.5449 97.6357 22.0089 98.4517 22.0089 99.8117C22.0089 101.172 22.5449 101.988 23.7289 101.988C24.9209 101.988 25.4569 101.172 25.4569 99.8117Z" fill="#717171"/>
<path d="M17.2081 113.66C17.7601 113.292 18.2881 113.14 18.9121 113.14C19.8161 113.14 20.7761 113.708 20.7761 114.844C20.7761 116.004 19.8881 116.628 18.8241 116.628C17.2481 116.628 16.5281 115.58 16.5281 113.9C16.5281 111.9 17.6001 110.996 19.0001 110.996C19.4641 110.996 19.9281 111.108 20.3201 111.308V111.948C19.9121 111.732 19.4481 111.636 19.0161 111.636C18.1041 111.636 17.2881 112.156 17.2081 113.66ZM17.2161 114.332C17.3201 115.476 17.8881 116.004 18.7761 116.004C19.5041 116.004 20.0961 115.7 20.0961 114.876C20.0961 114.02 19.4481 113.764 18.7441 113.764C18.2081 113.764 17.6561 113.94 17.2161 114.332ZM21.3289 113.812C21.3289 112.204 22.0809 110.996 23.7289 110.996C25.3849 110.996 26.1369 112.204 26.1369 113.812C26.1369 115.42 25.3849 116.628 23.7289 116.628C22.0809 116.628 21.3289 115.42 21.3289 113.812ZM25.4569 113.812C25.4569 112.452 24.9209 111.636 23.7289 111.636C22.5449 111.636 22.0089 112.452 22.0089 113.812C22.0089 115.172 22.5449 115.988 23.7289 115.988C24.9209 115.988 25.4569 115.172 25.4569 113.812Z" fill="#717171"/>
<path d="M17.2001 125.092H20.4641V125.732H17.8321L17.7361 127.268C18.0241 127.188 18.3441 127.148 18.6641 127.148C19.6881 127.148 20.7281 127.588 20.7281 128.892C20.7281 129.996 19.8001 130.628 18.6161 130.628C17.9841 130.628 17.3441 130.492 16.8721 130.26V129.62C17.3361 129.868 17.9521 130.004 18.5361 130.004C19.4241 130.004 20.0481 129.628 20.0481 128.892C20.0481 128.004 19.2801 127.756 18.4321 127.756C17.9521 127.756 17.4401 127.86 17.0241 128.012L17.2001 125.092ZM21.3289 127.812C21.3289 126.204 22.0809 124.996 23.7289 124.996C25.3849 124.996 26.1369 126.204 26.1369 127.812C26.1369 129.42 25.3849 130.628 23.7289 130.628C22.0809 130.628 21.3289 129.42 21.3289 127.812ZM25.4569 127.812C25.4569 126.452 24.9209 125.636 23.7289 125.636C22.5449 125.636 22.0089 126.452 22.0089 127.812C22.0089 129.172 22.5449 129.988 23.7289 129.988C24.9209 129.988 25.4569 129.172 25.4569 127.812Z" fill="#717171"/>
<path d="M19.0926 139.092H19.8206V142.7H20.8446V143.324H19.8206V144.532H19.1566V143.324H16.1246V142.724L19.0926 139.092ZM19.1566 142.7V139.996L16.9486 142.7H19.1566ZM21.3289 141.812C21.3289 140.204 22.0809 138.996 23.7289 138.996C25.3849 138.996 26.1369 140.204 26.1369 141.812C26.1369 143.42 25.3849 144.628 23.7289 144.628C22.0809 144.628 21.3289 143.42 21.3289 141.812ZM25.4569 141.812C25.4569 140.452 24.9209 139.636 23.7289 139.636C22.5449 139.636 22.0089 140.452 22.0089 141.812C22.0089 143.172 22.5449 143.988 23.7289 143.988C24.9209 143.988 25.4569 143.172 25.4569 141.812Z" fill="#717171"/>
<path d="M20.4656 154.476C20.4656 155.036 20.1376 155.516 19.6736 155.676C20.1376 155.82 20.6896 156.22 20.6896 157.052C20.6896 158.108 19.7856 158.628 18.6976 158.628C17.9216 158.628 17.3376 158.508 16.8016 158.268V157.604C17.3536 157.892 17.9216 158.004 18.6416 157.996C19.4416 157.996 20.0416 157.732 20.0416 157.02C20.0416 156.276 19.4496 156.044 18.7136 156.044H17.8816V155.404L18.6416 155.412C19.4336 155.412 19.8176 155.036 19.8176 154.532C19.8176 153.972 19.3616 153.62 18.5296 153.62C17.9536 153.62 17.4256 153.756 16.8976 154.036V153.38C17.3856 153.132 17.9376 152.996 18.6176 152.996C19.7296 152.996 20.4656 153.596 20.4656 154.476ZM21.3289 155.812C21.3289 154.204 22.0809 152.996 23.7289 152.996C25.3849 152.996 26.1369 154.204 26.1369 155.812C26.1369 157.42 25.3849 158.628 23.7289 158.628C22.0809 158.628 21.3289 157.42 21.3289 155.812ZM25.4569 155.812C25.4569 154.452 24.9209 153.636 23.7289 153.636C22.5449 153.636 22.0089 154.452 22.0089 155.812C22.0089 157.172 22.5449 157.988 23.7289 157.988C24.9209 157.988 25.4569 157.172 25.4569 155.812Z" fill="#717171"/>
<path d="M17.0311 167.524C17.5751 167.148 18.1751 166.996 18.7751 166.996C19.8871 166.996 20.6311 167.524 20.6311 168.452C20.6311 169.38 19.8551 169.916 19.0951 170.364C18.3351 170.812 17.5911 171.18 17.5751 171.9L20.6711 171.892V172.532H16.8391V172.212C16.8391 170.884 17.8151 170.38 18.6631 169.884C19.3431 169.484 19.9591 169.148 19.9591 168.444C19.9591 167.908 19.5031 167.62 18.7191 167.62C18.1671 167.62 17.5911 167.804 17.0311 168.196V167.524ZM21.3289 169.812C21.3289 168.204 22.0809 166.996 23.7289 166.996C25.3849 166.996 26.1369 168.204 26.1369 169.812C26.1369 171.42 25.3849 172.628 23.7289 172.628C22.0809 172.628 21.3289 171.42 21.3289 169.812ZM25.4569 169.812C25.4569 168.452 24.9209 167.636 23.7289 167.636C22.5449 167.636 22.0089 168.452 22.0089 169.812C22.0089 171.172 22.5449 171.988 23.7289 171.988C24.9209 171.988 25.4569 171.172 25.4569 169.812Z" fill="#717171"/>
<path d="M19.3874 181.092H19.8834V185.892H20.8994V186.532H18.0674V185.892H19.2114V181.804L18.0674 182.236V181.596L19.3874 181.092ZM21.3289 183.812C21.3289 182.204 22.0809 180.996 23.7289 180.996C25.3849 180.996 26.1369 182.204 26.1369 183.812C26.1369 185.42 25.3849 186.628 23.7289 186.628C22.0809 186.628 21.3289 185.42 21.3289 183.812ZM25.4569 183.812C25.4569 182.452 24.9209 181.636 23.7289 181.636C22.5449 181.636 22.0089 182.452 22.0089 183.812C22.0089 185.172 22.5449 185.988 23.7289 185.988C24.9209 185.988 25.4569 185.172 25.4569 183.812Z" fill="#717171"/>
<path d="M21.3289 197.812C21.3289 196.204 22.0809 194.996 23.7289 194.996C25.3849 194.996 26.1369 196.204 26.1369 197.812C26.1369 199.42 25.3849 200.628 23.7289 200.628C22.0809 200.628 21.3289 199.42 21.3289 197.812ZM25.4569 197.812C25.4569 196.452 24.9209 195.636 23.7289 195.636C22.5449 195.636 22.0089 196.452 22.0089 197.812C22.0089 199.172 22.5449 199.988 23.7289 199.988C24.9209 199.988 25.4569 199.172 25.4569 197.812Z" fill="#717171"/>
<path d="M42.2266 78.8972C42.2266 76.9757 43.7843 75.418 45.7058 75.418H54.7474C56.6689 75.418 58.2266 76.9757 58.2266 78.8972V82.5941H42.2266V78.8972Z" fill="#FF8046"/>
<rect x="42.2266" y="82.5942" width="16" height="12.1097" fill="#374A88"/>
<rect x="42.2266" y="94.7036" width="16" height="78.9373" fill="#4988EF"/>
<rect x="42.2266" y="173.641" width="16" height="27.3589" fill="#29C5B8"/>
<path d="M41.9639 205.56H42.6359V210.176H43.6039V211H40.6439V210.176H41.7319V206.496L40.6439 206.904V206.064L41.9639 205.56ZM45.3586 205.56H46.0306V210.176H46.9986V211H44.0386V210.176H45.1266V206.496L44.0386 206.904V206.064L45.3586 205.56ZM48.4813 210.56C48.4813 210.92 48.2333 211.088 47.9453 211.088C47.6573 211.088 47.4013 210.92 47.4013 210.56C47.4013 210.216 47.6573 210.048 47.9453 210.048C48.2333 210.048 48.4813 210.216 48.4813 210.56ZM48.8897 208.28C48.8897 206.688 49.6417 205.456 51.3297 205.456C53.0177 205.456 53.7697 206.688 53.7697 208.28C53.7697 209.872 53.0177 211.104 51.3297 211.104C49.6417 211.104 48.8897 209.872 48.8897 208.28ZM52.8497 208.28C52.8497 207.016 52.3697 206.288 51.3297 206.288C50.2817 206.288 49.8097 207.016 49.8097 208.28C49.8097 209.544 50.2817 210.272 51.3297 210.272C52.3697 210.272 52.8497 209.544 52.8497 208.28ZM54.2742 207.28C54.2742 206.08 55.2022 205.456 56.2902 205.456C57.9462 205.456 58.6582 206.512 58.6582 208.232C58.6582 210.224 57.5302 211.104 56.1382 211.104C55.6502 211.104 55.1622 210.992 54.7302 210.784V209.952C55.1302 210.176 55.6022 210.296 56.0502 210.296C56.8822 210.296 57.6262 209.872 57.7382 208.568C57.2182 208.88 56.7382 209.008 56.1542 209.008C55.2182 209.008 54.2742 208.432 54.2742 207.28ZM56.3542 206.24C55.7222 206.24 55.1942 206.52 55.1942 207.24C55.1942 207.984 55.7782 208.216 56.4182 208.216C56.8662 208.216 57.3382 208.072 57.7302 207.76C57.6262 206.664 57.1222 206.24 56.3542 206.24Z" fill="#717171"/>
<path d="M77.7253 121.479C77.7253 119.558 79.283 118 81.2046 118H90.2461C92.1676 118 93.7253 119.558 93.7253 121.479V127H77.7253V121.479Z" fill="#FF8046"/>
<rect x="77.7253" y="127" width="16" height="8" fill="#374A88"/>
<rect x="77.7253" y="135" width="16" height="47" fill="#4988EF"/>
<rect x="77.7253" y="182" width="16" height="19" fill="#29C5B8"/>
<path d="M76.9613 205.56H77.6333V210.176H78.6013V211H75.6413V210.176H76.7293V206.496L75.6413 206.904V206.064L76.9613 205.56ZM79.148 206.008C79.708 205.624 80.324 205.456 80.956 205.456C82.06 205.456 82.868 205.968 82.868 206.984C82.868 207.904 82.1 208.448 81.364 208.888C80.66 209.304 79.996 209.64 79.988 210.184L82.908 210.176V211H78.964V210.584C78.964 209.256 79.948 208.752 80.772 208.264C81.404 207.896 81.956 207.616 81.956 207C81.956 206.528 81.548 206.28 80.876 206.28C80.324 206.28 79.724 206.472 79.148 206.888V206.008ZM84.6037 210.56C84.6037 210.92 84.3557 211.088 84.0677 211.088C83.7797 211.088 83.5237 210.92 83.5237 210.56C83.5237 210.216 83.7797 210.048 84.0677 210.048C84.3557 210.048 84.6037 210.216 84.6037 210.56ZM85.0122 208.28C85.0122 206.688 85.7642 205.456 87.4522 205.456C89.1402 205.456 89.8922 206.688 89.8922 208.28C89.8922 209.872 89.1402 211.104 87.4522 211.104C85.7642 211.104 85.0122 209.872 85.0122 208.28ZM88.9722 208.28C88.9722 207.016 88.4922 206.288 87.4522 206.288C86.4042 206.288 85.9322 207.016 85.9322 208.28C85.9322 209.544 86.4042 210.272 87.4522 210.272C88.4922 210.272 88.9722 209.544 88.9722 208.28ZM90.3966 207.28C90.3966 206.08 91.3246 205.456 92.4126 205.456C94.0686 205.456 94.7806 206.512 94.7806 208.232C94.7806 210.224 93.6526 211.104 92.2606 211.104C91.7726 211.104 91.2846 210.992 90.8526 210.784V209.952C91.2526 210.176 91.7246 210.296 92.1726 210.296C93.0046 210.296 93.7486 209.872 93.8606 208.568C93.3406 208.88 92.8606 209.008 92.2766 209.008C91.3406 209.008 90.3966 208.432 90.3966 207.28ZM92.4766 206.24C91.8446 206.24 91.3166 206.52 91.3166 207.24C91.3166 207.984 91.9006 208.216 92.5406 208.216C92.9886 208.216 93.4606 208.072 93.8526 207.76C93.7486 206.664 93.2446 206.24 92.4766 206.24Z" fill="#717171"/>
<path d="M113.725 166.479C113.725 164.558 115.283 163 117.205 163H126.246C128.168 163 129.725 164.558 129.725 166.479V169H113.725V166.479Z" fill="#FF8046"/>
<rect x="113.725" y="169" width="16" height="23" fill="#4988EF"/>
<rect x="113.725" y="192" width="16" height="9" fill="#29C5B8"/>
<path d="M112.961 205.56H113.633V210.176H114.601V211H111.641V210.176H112.729V206.496L111.641 206.904V206.064L112.961 205.56ZM118.764 206.944C118.764 207.512 118.444 207.968 117.956 208.128C118.468 208.288 118.988 208.696 118.988 209.52C118.988 210.616 118.02 211.104 116.908 211.104C116.172 211.104 115.596 210.992 115.02 210.744V209.864C115.604 210.184 116.164 210.288 116.836 210.28C117.556 210.272 118.116 210.04 118.116 209.424C118.116 208.808 117.612 208.608 116.964 208.608H116.1V207.784L116.86 207.792C117.532 207.792 117.892 207.504 117.892 207.056C117.892 206.568 117.484 206.28 116.74 206.28C116.204 206.28 115.644 206.424 115.116 206.728V205.856C115.604 205.6 116.188 205.456 116.86 205.456C117.98 205.456 118.764 206.016 118.764 206.944ZM120.658 210.56C120.658 210.92 120.41 211.088 120.122 211.088C119.834 211.088 119.578 210.92 119.578 210.56C119.578 210.216 119.834 210.048 120.122 210.048C120.41 210.048 120.658 210.216 120.658 210.56ZM121.067 208.28C121.067 206.688 121.819 205.456 123.507 205.456C125.195 205.456 125.947 206.688 125.947 208.28C125.947 209.872 125.195 211.104 123.507 211.104C121.819 211.104 121.067 209.872 121.067 208.28ZM125.027 208.28C125.027 207.016 124.547 206.288 123.507 206.288C122.459 206.288 121.987 207.016 121.987 208.28C121.987 209.544 122.459 210.272 123.507 210.272C124.547 210.272 125.027 209.544 125.027 208.28ZM126.451 207.28C126.451 206.08 127.379 205.456 128.467 205.456C130.123 205.456 130.835 206.512 130.835 208.232C130.835 210.224 129.707 211.104 128.315 211.104C127.827 211.104 127.339 210.992 126.907 210.784V209.952C127.307 210.176 127.779 210.296 128.227 210.296C129.059 210.296 129.803 209.872 129.915 208.568C129.395 208.88 128.915 209.008 128.331 209.008C127.395 209.008 126.451 208.432 126.451 207.28ZM128.531 206.24C127.899 206.24 127.371 206.52 127.371 207.24C127.371 207.984 127.955 208.216 128.595 208.216C129.043 208.216 129.515 208.072 129.907 207.76C129.803 206.664 129.299 206.24 128.531 206.24Z" fill="#717171"/>
<path d="M149.725 155.479C149.725 153.558 151.283 152 153.205 152H162.246C164.168 152 165.725 153.558 165.725 155.479V158H149.725V155.479Z" fill="#FF8046"/>
<rect x="149.725" y="158" width="16" height="4" fill="#374A88"/>
<rect x="149.725" y="162" width="16" height="31" fill="#4988EF"/>
<rect x="149.725" y="193" width="16" height="8" fill="#29C5B8"/>
<path d="M148.961 205.56H149.633V210.176H150.601V211H147.641V210.176H148.729V206.496L147.641 206.904V206.064L148.961 205.56ZM153.708 205.56H154.644V209.096H155.58V209.888H154.644V211H153.764V209.888H150.812V209.112L153.708 205.56ZM153.764 209.096V206.72L151.828 209.096H153.764ZM157.119 210.56C157.119 210.92 156.871 211.088 156.583 211.088C156.295 211.088 156.039 210.92 156.039 210.56C156.039 210.216 156.295 210.048 156.583 210.048C156.871 210.048 157.119 210.216 157.119 210.56ZM157.528 208.28C157.528 206.688 158.28 205.456 159.968 205.456C161.656 205.456 162.408 206.688 162.408 208.28C162.408 209.872 161.656 211.104 159.968 211.104C158.28 211.104 157.528 209.872 157.528 208.28ZM161.488 208.28C161.488 207.016 161.008 206.288 159.968 206.288C158.92 206.288 158.448 207.016 158.448 208.28C158.448 209.544 158.92 210.272 159.968 210.272C161.008 210.272 161.488 209.544 161.488 208.28ZM162.912 207.28C162.912 206.08 163.84 205.456 164.928 205.456C166.584 205.456 167.296 206.512 167.296 208.232C167.296 210.224 166.168 211.104 164.776 211.104C164.288 211.104 163.8 210.992 163.368 210.784V209.952C163.768 210.176 164.24 210.296 164.688 210.296C165.52 210.296 166.264 209.872 166.376 208.568C165.856 208.88 165.376 209.008 164.792 209.008C163.856 209.008 162.912 208.432 162.912 207.28ZM164.992 206.24C164.36 206.24 163.832 206.52 163.832 207.24C163.832 207.984 164.416 208.216 165.056 208.216C165.504 208.216 165.976 208.072 166.368 207.76C166.264 206.664 165.76 206.24 164.992 206.24Z" fill="#717171"/>
<path d="M185.225 98.4792C185.225 96.5577 186.783 95 188.705 95H197.746C199.668 95 201.225 96.5577 201.225 98.4792V103H185.225V98.4792Z" fill="#FF8046"/>
<rect x="185.225" y="103" width="16" height="14" fill="#374A88"/>
<rect x="185.225" y="117" width="16" height="66" fill="#4988EF"/>
<rect x="185.225" y="183" width="16" height="18" fill="#29C5B8"/>
<path d="M184.961 205.56H185.633V210.176H186.601V211H183.641V210.176H184.729V206.496L183.641 206.904V206.064L184.961 205.56ZM187.356 205.56H190.708V206.376H188.196L188.116 207.688C188.38 207.624 188.66 207.592 188.94 207.592C189.988 207.592 190.964 208.048 190.964 209.328C190.964 210.504 189.964 211.104 188.764 211.104C188.132 211.104 187.5 210.968 187.02 210.736V209.88C187.476 210.144 188.092 210.28 188.66 210.28C189.468 210.28 190.044 209.96 190.044 209.32C190.044 208.6 189.428 208.344 188.564 208.344C188.124 208.344 187.62 208.432 187.18 208.584L187.356 205.56ZM192.596 210.56C192.596 210.92 192.348 211.088 192.06 211.088C191.772 211.088 191.516 210.92 191.516 210.56C191.516 210.216 191.772 210.048 192.06 210.048C192.348 210.048 192.596 210.216 192.596 210.56ZM193.004 208.28C193.004 206.688 193.756 205.456 195.444 205.456C197.132 205.456 197.884 206.688 197.884 208.28C197.884 209.872 197.132 211.104 195.444 211.104C193.756 211.104 193.004 209.872 193.004 208.28ZM196.964 208.28C196.964 207.016 196.484 206.288 195.444 206.288C194.396 206.288 193.924 207.016 193.924 208.28C193.924 209.544 194.396 210.272 195.444 210.272C196.484 210.272 196.964 209.544 196.964 208.28ZM198.389 207.28C198.389 206.08 199.317 205.456 200.405 205.456C202.061 205.456 202.773 206.512 202.773 208.232C202.773 210.224 201.645 211.104 200.253 211.104C199.765 211.104 199.277 210.992 198.845 210.784V209.952C199.245 210.176 199.717 210.296 200.165 210.296C200.997 210.296 201.741 209.872 201.853 208.568C201.333 208.88 200.853 209.008 200.269 209.008C199.333 209.008 198.389 208.432 198.389 207.28ZM200.469 206.24C199.837 206.24 199.309 206.52 199.309 207.24C199.309 207.984 199.893 208.216 200.533 208.216C200.981 208.216 201.453 208.072 201.845 207.76C201.741 206.664 201.237 206.24 200.469 206.24Z" fill="#717171"/>
<path d="M220.725 123.479C220.725 121.558 222.283 120 224.205 120H233.246C235.168 120 236.725 121.558 236.725 123.479V130H220.725V123.479Z" fill="#FF8046"/>
<rect x="220.725" y="130" width="16" height="12" fill="#374A88"/>
<rect x="220.725" y="142" width="16" height="33" fill="#4988EF"/>
<rect x="220.725" y="175" width="16" height="26" fill="#29C5B8"/>
<path d="M219.961 205.56H220.633V210.176H221.601V211H218.641V210.176H219.729V206.496L218.641 206.904V206.064L219.961 205.56ZM222.924 207.992C223.444 207.68 223.924 207.544 224.508 207.544C225.444 207.544 226.388 208.128 226.388 209.28C226.388 210.48 225.468 211.104 224.38 211.104C222.716 211.104 222.004 210.048 222.004 208.328C222.004 206.328 223.132 205.456 224.524 205.456C225.012 205.456 225.508 205.568 225.932 205.776V206.608C225.532 206.384 225.06 206.264 224.612 206.264C223.788 206.264 223.036 206.688 222.924 207.992ZM222.932 208.8C223.036 209.896 223.54 210.32 224.308 210.32C224.94 210.32 225.468 210.04 225.468 209.32C225.468 208.576 224.884 208.344 224.252 208.344C223.796 208.344 223.324 208.488 222.932 208.8ZM227.971 210.56C227.971 210.92 227.723 211.088 227.435 211.088C227.147 211.088 226.891 210.92 226.891 210.56C226.891 210.216 227.147 210.048 227.435 210.048C227.723 210.048 227.971 210.216 227.971 210.56ZM228.379 208.28C228.379 206.688 229.131 205.456 230.819 205.456C232.507 205.456 233.259 206.688 233.259 208.28C233.259 209.872 232.507 211.104 230.819 211.104C229.131 211.104 228.379 209.872 228.379 208.28ZM232.339 208.28C232.339 207.016 231.859 206.288 230.819 206.288C229.771 206.288 229.299 207.016 229.299 208.28C229.299 209.544 229.771 210.272 230.819 210.272C231.859 210.272 232.339 209.544 232.339 208.28ZM233.764 207.28C233.764 206.08 234.692 205.456 235.78 205.456C237.436 205.456 238.148 206.512 238.148 208.232C238.148 210.224 237.02 211.104 235.628 211.104C235.14 211.104 234.652 210.992 234.22 210.784V209.952C234.62 210.176 235.092 210.296 235.54 210.296C236.372 210.296 237.116 209.872 237.228 208.568C236.708 208.88 236.228 209.008 235.644 209.008C234.708 209.008 233.764 208.432 233.764 207.28ZM235.844 206.24C235.212 206.24 234.684 206.52 234.684 207.24C234.684 207.984 235.268 208.216 235.908 208.216C236.356 208.216 236.828 208.072 237.22 207.76C237.116 206.664 236.612 206.24 235.844 206.24Z" fill="#717171"/>
<path d="M256.225 138.479C256.225 136.558 257.783 135 259.705 135H268.746C270.668 135 272.225 136.558 272.225 138.479V140H256.225V138.479Z" fill="#FF8046"/>
<rect x="256.225" y="140" width="16" height="8" fill="#374A88"/>
<rect x="256.225" y="148" width="16" height="29" fill="#4988EF"/>
<rect x="256.225" y="177" width="16" height="24" fill="#29C5B8"/>
<path d="M255.961 205.56H256.633V210.176H257.601V211H254.641V210.176H255.729V206.496L254.641 206.904V206.064L255.961 205.56ZM257.828 205.56H261.868V206.28L259.612 211H258.628L260.836 206.376H257.828V205.56ZM262.744 210.56C262.744 210.92 262.496 211.088 262.208 211.088C261.92 211.088 261.664 210.92 261.664 210.56C261.664 210.216 261.92 210.048 262.208 210.048C262.496 210.048 262.744 210.216 262.744 210.56ZM263.153 208.28C263.153 206.688 263.905 205.456 265.593 205.456C267.281 205.456 268.033 206.688 268.033 208.28C268.033 209.872 267.281 211.104 265.593 211.104C263.905 211.104 263.153 209.872 263.153 208.28ZM267.113 208.28C267.113 207.016 266.633 206.288 265.593 206.288C264.545 206.288 264.073 207.016 264.073 208.28C264.073 209.544 264.545 210.272 265.593 210.272C266.633 210.272 267.113 209.544 267.113 208.28ZM268.537 207.28C268.537 206.08 269.465 205.456 270.553 205.456C272.209 205.456 272.921 206.512 272.921 208.232C272.921 210.224 271.793 211.104 270.401 211.104C269.913 211.104 269.425 210.992 268.993 210.784V209.952C269.393 210.176 269.865 210.296 270.313 210.296C271.145 210.296 271.889 209.872 272.001 208.568C271.481 208.88 271.001 209.008 270.417 209.008C269.481 209.008 268.537 208.432 268.537 207.28ZM270.617 206.24C269.985 206.24 269.457 206.52 269.457 207.24C269.457 207.984 270.041 208.216 270.681 208.216C271.129 208.216 271.601 208.072 271.993 207.76C271.889 206.664 271.385 206.24 270.617 206.24Z" fill="#717171"/>
<path d="M66.6489 55.75V200.75" stroke="#DDDDDD" stroke-width="0.5" stroke-linecap="round"/>
<path d="M102.649 55.75V200.75" stroke="#DDDDDD" stroke-width="0.5" stroke-linecap="round"/>
<path d="M138.649 55.75V200.75" stroke="#DDDDDD" stroke-width="0.5" stroke-linecap="round"/>
<path d="M173.649 55.75V200.75" stroke="#DDDDDD" stroke-width="0.5" stroke-linecap="round"/>
<path d="M209.649 55.75V200.75" stroke="#DDDDDD" stroke-width="0.5" stroke-linecap="round"/>
<path d="M246.649 55.75V200.75" stroke="#DDDDDD" stroke-width="0.5" stroke-linecap="round"/>
<path d="M229.5 122L243.5 86H269.25" stroke="#414141" stroke-width="0.75" stroke-linecap="round"/>
<circle cx="229.5" cy="122" r="1" fill="#414141"/>
<path d="M88 188L101.031 120H125" stroke="#414141" stroke-width="0.75" stroke-linecap="round"/>
<circle cx="88" cy="188" r="1" fill="#414141"/>
<path d="M52 85.5L66 69.5H91.75" stroke="#414141" stroke-width="0.75" stroke-linecap="round"/>
<circle cx="52" cy="85.5" r="1" fill="#414141"/>
<rect x="271.75" y="73.25" width="53.5" height="24.5" rx="4.75" fill="#071147"/>
<rect x="271.75" y="73.25" width="53.5" height="24.5" rx="4.75" stroke="black" stroke-width="0.5"/>
<path d="M193 144L207 180H232.75" stroke="#414141" stroke-width="0.75" stroke-linecap="round"/>
<circle cx="1" cy="1" r="1" transform="matrix(1 0 0 -1 192 145)" fill="#414141"/>
<rect x="269" y="77" width="53" height="22" rx="5" fill="url(#paint0_linear_103_1239)"/>
<path d="M283.52 82.6H287.072C288.824 82.6 289.952 83.296 289.952 84.724C289.952 85.744 289.34 86.344 288.632 86.572C289.388 86.788 290.288 87.364 290.288 88.672C290.288 90.58 288.428 91 287.096 91H283.52V82.6ZM288.896 88.528C288.896 87.412 287.912 87.244 287.156 87.244H284.888V89.8H286.964C287.9 89.8 288.896 89.692 288.896 88.528ZM288.56 84.94C288.56 84.1 287.936 83.788 286.928 83.788H284.888V86.08L287.12 86.092C287.912 86.092 288.56 85.756 288.56 84.94ZM290.989 88.12C290.989 86.128 292.501 85.084 294.109 85.084C295.729 85.084 297.229 86.128 297.229 88.12C297.229 90.112 295.729 91.156 294.109 91.156C292.501 91.156 290.989 90.112 290.989 88.12ZM295.921 88.12C295.921 86.992 295.177 86.26 294.109 86.26C293.029 86.26 292.285 86.992 292.285 88.12C292.285 89.248 293.029 89.98 294.109 89.98C295.177 89.98 295.921 89.248 295.921 88.12ZM298.572 83.5L299.844 83.188V85.24H301.932V86.368H299.844V89.008C299.844 89.764 300.192 90.016 300.936 90.016C301.356 90.016 301.74 89.932 302.1 89.788V90.892C301.668 91.048 301.116 91.144 300.552 91.144C299.436 91.144 298.572 90.592 298.572 89.248V86.368H297.54V85.24H298.572V83.5ZM302.604 86.8C302.604 85.54 303.756 85.084 304.896 85.084C305.688 85.084 306.408 85.288 306.972 85.576V86.704C306.492 86.38 305.664 86.14 304.98 86.14C304.464 86.14 303.912 86.296 303.912 86.764C303.912 87.88 307.38 87.364 307.38 89.464C307.38 90.736 306.204 91.156 304.896 91.156C304.056 91.156 303.204 90.952 302.64 90.604V89.464C303.24 89.86 304.116 90.076 304.836 90.076C305.556 90.076 306.084 89.956 306.084 89.488C306.084 88.42 302.604 88.864 302.604 86.8Z" fill="#1A1A1A"/>
<rect x="110.5" y="113.5" width="57" height="24" rx="4.5" fill="white"/>
<rect x="110.5" y="113.5" width="57" height="24" rx="4.5" stroke="#29C5B8"/>
<path d="M128.598 122.1H132.637V122.835H131.02V127H130.222V122.835H128.598V122.1ZM135.178 126.223C135.178 126.412 135.29 126.468 135.423 126.468C135.5 126.468 135.577 126.447 135.647 126.426V126.965C135.507 127.021 135.339 127.049 135.171 127.049C134.863 127.049 134.618 126.93 134.499 126.657C134.17 126.923 133.757 127.091 133.232 127.091C132.623 127.091 132.056 126.755 132.056 126.062C132.056 125.201 132.854 124.935 133.554 124.935C133.841 124.935 134.163 124.977 134.429 125.033V124.914C134.429 124.494 134.121 124.2 133.547 124.2C133.05 124.2 132.637 124.326 132.336 124.459V123.773C132.602 123.682 133.085 123.549 133.624 123.549C134.576 123.549 135.178 124.004 135.178 125.019V126.223ZM133.701 125.46C133.274 125.46 132.826 125.593 132.826 126.013C132.826 126.342 133.12 126.51 133.456 126.51C133.813 126.51 134.163 126.377 134.429 126.111V125.544C134.226 125.502 133.939 125.46 133.701 125.46ZM136.689 124.193C136.948 123.78 137.494 123.514 138.103 123.57V124.305C137.501 124.221 136.976 124.487 136.773 124.963V127H136.024V123.64H136.689V124.193ZM138.237 125.32C138.237 124.354 138.888 123.549 139.903 123.549C140.533 123.549 140.932 123.843 141.191 124.165V123.64H141.863V126.958C141.863 128.169 140.939 128.631 139.98 128.631C139.469 128.631 138.993 128.519 138.594 128.316V127.63C138.979 127.854 139.427 127.973 139.882 127.973C140.547 127.973 141.114 127.735 141.114 126.979V126.552C140.883 126.825 140.491 127.091 139.903 127.091C138.888 127.091 138.237 126.286 138.237 125.32ZM141.107 124.907C140.946 124.543 140.561 124.207 140.036 124.207C139.434 124.207 138.993 124.662 138.993 125.32C138.993 125.978 139.434 126.433 140.036 126.433C140.561 126.433 140.946 126.118 141.107 125.775V124.907ZM142.452 125.32C142.452 124.102 143.376 123.549 144.153 123.549C145.49 123.549 145.952 124.627 145.735 125.6H143.208C143.292 126.202 143.88 126.454 144.496 126.454C144.902 126.454 145.273 126.356 145.56 126.216V126.86C145.252 127.007 144.825 127.091 144.356 127.091C143.327 127.091 142.452 126.503 142.452 125.32ZM145.063 125.04C145.105 124.746 144.923 124.172 144.188 124.172C143.684 124.172 143.229 124.473 143.201 125.04H145.063ZM146.602 122.625L147.344 122.443V123.64H148.562V124.298H147.344V125.838C147.344 126.279 147.547 126.426 147.981 126.426C148.226 126.426 148.45 126.377 148.66 126.293V126.937C148.408 127.028 148.086 127.084 147.757 127.084C147.106 127.084 146.602 126.762 146.602 125.978V124.298H146V123.64H146.602V122.625Z" fill="#1A1A1A"/>
<rect x="85" y="62" width="77" height="22" rx="5" fill="url(#paint1_linear_103_1239)"/>
<path d="M95.576 69.736C95.576 68.188 96.944 67.444 98.528 67.444C99.488 67.444 100.472 67.684 101.156 68.08V69.388C100.472 68.932 99.536 68.68 98.636 68.692C97.616 68.692 96.968 68.992 96.968 69.712C96.968 71.524 101.768 70.792 101.768 73.792C101.768 75.556 100.268 76.168 98.588 76.156C97.46 76.156 96.44 75.892 95.612 75.424V74.08C96.524 74.668 97.532 74.908 98.492 74.908C99.572 74.908 100.376 74.656 100.376 73.864C100.376 71.92 95.576 72.712 95.576 69.736ZM106.865 70.24H108.149V76H107.009V75.208C106.589 75.712 105.881 76.156 105.005 76.156C103.481 76.156 102.629 75.172 102.629 73.804V70.24H103.913V73.636C103.913 74.572 104.405 75.016 105.257 75.016C105.989 75.016 106.541 74.524 106.865 74.056V70.24ZM109.215 71.8C109.215 70.54 110.367 70.084 111.507 70.084C112.299 70.084 113.019 70.288 113.583 70.576V71.704C113.103 71.38 112.275 71.14 111.591 71.14C111.075 71.14 110.523 71.296 110.523 71.764C110.523 72.88 113.991 72.364 113.991 74.464C113.991 75.736 112.815 76.156 111.507 76.156C110.667 76.156 109.815 75.952 109.251 75.604V74.464C109.851 74.86 110.727 75.076 111.447 75.076C112.167 75.076 112.695 74.956 112.695 74.488C112.695 73.42 109.215 73.864 109.215 71.8ZM116.052 71.14C116.508 70.588 117.192 70.084 118.272 70.084C120 70.084 121.128 71.464 121.128 73.12C121.128 74.776 120 76.156 118.272 76.156C117.264 76.156 116.592 75.712 116.196 75.256V78.64H114.912V70.24H116.052V71.14ZM119.82 73.12C119.82 71.992 119.076 71.212 118.032 71.212C117.144 71.212 116.472 71.788 116.196 72.412V73.816C116.472 74.452 117.144 75.028 118.032 75.028C119.076 75.028 119.82 74.248 119.82 73.12ZM123.445 76H122.161V70.24H123.445V76ZM123.589 68.368C123.589 68.896 123.229 69.136 122.809 69.136C122.389 69.136 122.017 68.896 122.017 68.368C122.017 67.864 122.389 67.612 122.809 67.612C123.229 67.612 123.589 67.864 123.589 68.368ZM124.478 73.168C124.478 71.02 126.122 70.084 127.658 70.084C128.306 70.084 128.93 70.228 129.434 70.528V71.704C129.014 71.404 128.426 71.224 127.838 71.224C126.818 71.224 125.786 71.764 125.786 73.12C125.786 74.428 126.782 75.016 127.814 75.016C128.426 75.016 129.038 74.836 129.494 74.572V75.76C128.942 76.024 128.318 76.156 127.586 76.156C126.05 76.156 124.478 75.22 124.478 73.168ZM131.813 76H130.529V70.24H131.813V76ZM131.957 68.368C131.957 68.896 131.597 69.136 131.177 69.136C130.757 69.136 130.385 68.896 130.385 68.368C130.385 67.864 130.757 67.612 131.177 67.612C131.597 67.612 131.957 67.864 131.957 68.368ZM132.846 73.12C132.846 71.128 134.358 70.084 135.966 70.084C137.586 70.084 139.086 71.128 139.086 73.12C139.086 75.112 137.586 76.156 135.966 76.156C134.358 76.156 132.846 75.112 132.846 73.12ZM137.778 73.12C137.778 71.992 137.034 71.26 135.966 71.26C134.886 71.26 134.142 71.992 134.142 73.12C134.142 74.248 134.886 74.98 135.966 74.98C137.034 74.98 137.778 74.248 137.778 73.12ZM144.267 70.24H145.551V76H144.411V75.208C143.991 75.712 143.283 76.156 142.407 76.156C140.883 76.156 140.031 75.172 140.031 73.804V70.24H141.315V73.636C141.315 74.572 141.807 75.016 142.659 75.016C143.391 75.016 143.943 74.524 144.267 74.056V70.24ZM146.617 71.8C146.617 70.54 147.769 70.084 148.909 70.084C149.701 70.084 150.421 70.288 150.985 70.576V71.704C150.505 71.38 149.677 71.14 148.993 71.14C148.477 71.14 147.925 71.296 147.925 71.764C147.925 72.88 151.393 72.364 151.393 74.464C151.393 75.736 150.217 76.156 148.909 76.156C148.069 76.156 147.217 75.952 146.653 75.604V74.464C147.253 74.86 148.129 75.076 148.849 75.076C149.569 75.076 150.097 74.956 150.097 74.488C150.097 73.42 146.617 73.864 146.617 71.8Z" fill="white"/>
<rect x="115" y="111.5" width="55" height="22" rx="5" fill="url(#paint2_linear_103_1239)"/>
<path d="M125.168 117.1H132.092V118.36H129.32V125.5H127.952V118.36H125.168V117.1ZM136.449 124.168C136.449 124.492 136.641 124.588 136.869 124.588C137.001 124.588 137.133 124.552 137.253 124.516V125.44C137.013 125.536 136.725 125.584 136.437 125.584C135.909 125.584 135.489 125.38 135.285 124.912C134.721 125.368 134.013 125.656 133.113 125.656C132.069 125.656 131.097 125.08 131.097 123.892C131.097 122.416 132.465 121.96 133.665 121.96C134.157 121.96 134.709 122.032 135.165 122.128V121.924C135.165 121.204 134.637 120.7 133.653 120.7C132.801 120.7 132.093 120.916 131.577 121.144V119.968C132.033 119.812 132.861 119.584 133.785 119.584C135.417 119.584 136.449 120.364 136.449 122.104V124.168ZM133.917 122.86C133.185 122.86 132.417 123.088 132.417 123.808C132.417 124.372 132.921 124.66 133.497 124.66C134.109 124.66 134.709 124.432 135.165 123.976V123.004C134.817 122.932 134.325 122.86 133.917 122.86ZM139.038 120.688C139.482 119.98 140.418 119.524 141.462 119.62V120.88C140.43 120.736 139.53 121.192 139.182 122.008V125.5H137.898V119.74H139.038V120.688ZM141.693 122.62C141.693 120.964 142.809 119.584 144.549 119.584C145.629 119.584 146.313 120.088 146.757 120.64V119.74H147.909V125.428C147.909 127.504 146.325 128.296 144.681 128.296C143.805 128.296 142.989 128.104 142.305 127.756V126.58C142.965 126.964 143.733 127.168 144.513 127.168C145.653 127.168 146.625 126.76 146.625 125.464V124.732C146.229 125.2 145.557 125.656 144.549 125.656C142.809 125.656 141.693 124.276 141.693 122.62ZM146.613 121.912C146.337 121.288 145.677 120.712 144.777 120.712C143.745 120.712 142.989 121.492 142.989 122.62C142.989 123.748 143.745 124.528 144.777 124.528C145.677 124.528 146.337 123.988 146.613 123.4V121.912ZM148.918 122.62C148.918 120.532 150.502 119.584 151.834 119.584C154.126 119.584 154.918 121.432 154.546 123.1H150.214C150.358 124.132 151.366 124.564 152.422 124.564C153.118 124.564 153.754 124.396 154.246 124.156V125.26C153.718 125.512 152.986 125.656 152.182 125.656C150.418 125.656 148.918 124.648 148.918 122.62ZM153.394 122.14C153.466 121.636 153.154 120.652 151.894 120.652C151.03 120.652 150.25 121.168 150.202 122.14H153.394ZM156.032 118L157.304 117.688V119.74H159.392V120.868H157.304V123.508C157.304 124.264 157.652 124.516 158.396 124.516C158.816 124.516 159.2 124.432 159.56 124.288V125.392C159.128 125.548 158.576 125.644 158.012 125.644C156.896 125.644 156.032 125.092 156.032 123.748V120.868H155V119.74H156.032V118Z" fill="#1A1A1A"/>
<rect x="230" y="172.5" width="96" height="22" rx="5" fill="url(#paint3_linear_103_1239)"/>
<path d="M242.388 186.5H241.02V178.1H242.304L246.828 184.244C246.816 183.956 246.816 183.632 246.816 183.32V178.1H248.184V186.5H246.9L242.376 180.356C242.388 180.644 242.388 180.968 242.388 181.268V186.5ZM249.263 183.62C249.263 181.628 250.775 180.584 252.383 180.584C254.003 180.584 255.503 181.628 255.503 183.62C255.503 185.612 254.003 186.656 252.383 186.656C250.775 186.656 249.263 185.612 249.263 183.62ZM254.195 183.62C254.195 182.492 253.451 181.76 252.383 181.76C251.303 181.76 250.559 182.492 250.559 183.62C250.559 184.748 251.303 185.48 252.383 185.48C253.451 185.48 254.195 184.748 254.195 183.62ZM257.648 181.532C258.068 181.028 258.776 180.584 259.652 180.584C261.104 180.584 262.028 181.568 262.028 182.936V186.5H260.744V183.104C260.744 182.168 260.168 181.724 259.4 181.724C258.668 181.724 258.116 182.216 257.792 182.684V186.5H256.508V180.74H257.648V181.532ZM263.226 182.972H267.594V184.124H263.226V182.972ZM269.104 179L270.376 178.688V180.74H272.464V181.868H270.376V184.508C270.376 185.264 270.724 185.516 271.468 185.516C271.888 185.516 272.272 185.432 272.632 185.288V186.392C272.2 186.548 271.648 186.644 271.084 186.644C269.968 186.644 269.104 186.092 269.104 184.748V181.868H268.072V180.74H269.104V179ZM278.344 185.168C278.344 185.492 278.536 185.588 278.764 185.588C278.896 185.588 279.028 185.552 279.148 185.516V186.44C278.908 186.536 278.62 186.584 278.332 186.584C277.804 186.584 277.384 186.38 277.18 185.912C276.616 186.368 275.908 186.656 275.008 186.656C273.964 186.656 272.992 186.08 272.992 184.892C272.992 183.416 274.36 182.96 275.56 182.96C276.052 182.96 276.604 183.032 277.06 183.128V182.924C277.06 182.204 276.532 181.7 275.548 181.7C274.696 181.7 273.988 181.916 273.472 182.144V180.968C273.928 180.812 274.756 180.584 275.68 180.584C277.312 180.584 278.344 181.364 278.344 183.104V185.168ZM275.812 183.86C275.08 183.86 274.312 184.088 274.312 184.808C274.312 185.372 274.816 185.66 275.392 185.66C276.004 185.66 276.604 185.432 277.06 184.976V184.004C276.712 183.932 276.22 183.86 275.812 183.86ZM280.934 181.688C281.378 180.98 282.314 180.524 283.358 180.62V181.88C282.326 181.736 281.426 182.192 281.078 183.008V186.5H279.794V180.74H280.934V181.688ZM283.588 183.62C283.588 181.964 284.704 180.584 286.444 180.584C287.524 180.584 288.208 181.088 288.652 181.64V180.74H289.804V186.428C289.804 188.504 288.22 189.296 286.576 189.296C285.7 189.296 284.884 189.104 284.2 188.756V187.58C284.86 187.964 285.628 188.168 286.408 188.168C287.548 188.168 288.52 187.76 288.52 186.464V185.732C288.124 186.2 287.452 186.656 286.444 186.656C284.704 186.656 283.588 185.276 283.588 183.62ZM288.508 182.912C288.232 182.288 287.572 181.712 286.672 181.712C285.64 181.712 284.884 182.492 284.884 183.62C284.884 184.748 285.64 185.528 286.672 185.528C287.572 185.528 288.232 184.988 288.508 184.4V182.912ZM290.813 183.62C290.813 181.532 292.397 180.584 293.729 180.584C296.021 180.584 296.813 182.432 296.441 184.1H292.109C292.253 185.132 293.261 185.564 294.317 185.564C295.013 185.564 295.649 185.396 296.141 185.156V186.26C295.613 186.512 294.881 186.656 294.077 186.656C292.313 186.656 290.813 185.648 290.813 183.62ZM295.289 183.14C295.361 182.636 295.049 181.652 293.789 181.652C292.925 181.652 292.145 182.168 292.097 183.14H295.289ZM297.927 179L299.199 178.688V180.74H301.287V181.868H299.199V184.508C299.199 185.264 299.547 185.516 300.291 185.516C300.711 185.516 301.095 185.432 301.455 185.288V186.392C301.023 186.548 300.471 186.644 299.907 186.644C298.791 186.644 297.927 186.092 297.927 184.748V181.868H296.895V180.74H297.927V179ZM301.899 183.62C301.899 181.532 303.483 180.584 304.815 180.584C307.107 180.584 307.899 182.432 307.527 184.1H303.195C303.339 185.132 304.347 185.564 305.403 185.564C306.099 185.564 306.735 185.396 307.227 185.156V186.26C306.699 186.512 305.967 186.656 305.163 186.656C303.399 186.656 301.899 185.648 301.899 183.62ZM306.375 183.14C306.447 182.636 306.135 181.652 304.875 181.652C304.011 181.652 303.231 182.168 303.183 183.14H306.375ZM313.166 178.1H314.45V186.5H313.298V185.588C312.854 186.152 312.17 186.656 311.09 186.656C309.35 186.656 308.234 185.276 308.234 183.62C308.234 181.964 309.35 180.584 311.09 180.584C312.098 180.584 312.77 181.028 313.166 181.484V178.1ZM313.154 182.912C312.878 182.288 312.218 181.712 311.318 181.712C310.286 181.712 309.53 182.492 309.53 183.62C309.53 184.748 310.286 185.528 311.318 185.528C312.218 185.528 312.878 184.952 313.154 184.316V182.912Z" fill="white"/>
<circle cx="12.5" cy="7" r="2.5" fill="#B0B4CB"/>
<circle cx="20.5" cy="7" r="2.5" fill="#B0B4CB"/>
<circle cx="28.5" cy="7" r="2.5" fill="#B0B4CB"/>
<defs>
<linearGradient id="paint0_linear_103_1239" x1="322" y1="88" x2="269" y2="88" gradientUnits="userSpaceOnUse">
<stop stop-color="#FF7433"/>
<stop offset="1" stop-color="#FFA631"/>
</linearGradient>
<linearGradient id="paint1_linear_103_1239" x1="85" y1="73" x2="162" y2="73" gradientUnits="userSpaceOnUse">
<stop stop-color="#374A88"/>
<stop offset="1" stop-color="#16275E"/>
</linearGradient>
<linearGradient id="paint2_linear_103_1239" x1="115" y1="122.5" x2="170" y2="122.5" gradientUnits="userSpaceOnUse">
<stop stop-color="#29C5B8"/>
<stop offset="1" stop-color="#29A6C5"/>
</linearGradient>
<linearGradient id="paint3_linear_103_1239" x1="230" y1="183.5" x2="326" y2="183.5" gradientUnits="userSpaceOnUse">
<stop stop-color="#4988EF"/>
<stop offset="1" stop-color="#2A4E89"/>
</linearGradient>
</defs>
</svg>
