<svg width="29" height="29" viewBox="0 0 29 29" fill="none" xmlns="http://www.w3.org/2000/svg">
<path d="M15.725 19.4583H13.5317C11.98 19.4583 10.7083 18.1516 10.7083 16.5416C10.7083 16.0633 11.105 15.6666 11.5833 15.6666C12.0617 15.6666 12.4583 16.0633 12.4583 16.5416C12.4583 17.1833 12.9367 17.7083 13.5317 17.7083H15.725C16.18 17.7083 16.5417 17.3 16.5417 16.7983C16.5417 16.1683 16.3667 16.075 15.97 15.935L12.4583 14.71C11.7117 14.4533 10.7083 13.905 10.7083 12.19C10.7083 10.7316 11.8634 9.52997 13.275 9.52997H15.4683C17.02 9.52997 18.2917 10.8366 18.2917 12.4466C18.2917 12.925 17.895 13.3216 17.4167 13.3216C16.9383 13.3216 16.5417 12.925 16.5417 12.4466C16.5417 11.805 16.0633 11.28 15.4683 11.28H13.275C12.82 11.28 12.4583 11.6883 12.4583 12.19C12.4583 12.82 12.6333 12.9133 13.03 13.0533L16.5417 14.2783C17.2883 14.535 18.2917 15.0833 18.2917 16.7983C18.2917 18.2683 17.1367 19.4583 15.725 19.4583Z" fill="white"/>
<path d="M14.5 20.625C14.0217 20.625 13.625 20.2283 13.625 19.75V9.25C13.625 8.77167 14.0217 8.375 14.5 8.375C14.9783 8.375 15.375 8.77167 15.375 9.25V19.75C15.375 20.2283 14.9783 20.625 14.5 20.625Z" fill="white"/>
<path d="M14.5 27.0416C7.58168 27.0416 1.95834 21.4183 1.95834 14.5C1.95834 7.58165 7.58168 1.95831 14.5 1.95831C14.9783 1.95831 15.375 2.35498 15.375 2.83331C15.375 3.31165 14.9783 3.70831 14.5 3.70831C8.55001 3.70831 3.70834 8.54998 3.70834 14.5C3.70834 20.45 8.55001 25.2916 14.5 25.2916C20.45 25.2916 25.2917 20.45 25.2917 14.5C25.2917 14.0216 25.6883 13.625 26.1667 13.625C26.645 13.625 27.0417 14.0216 27.0417 14.5C27.0417 21.4183 21.4183 27.0416 14.5 27.0416Z" fill="white"/>
<path d="M25 9.54167H20.3333C19.855 9.54167 19.4583 9.145 19.4583 8.66667V4C19.4583 3.52167 19.855 3.125 20.3333 3.125C20.8117 3.125 21.2083 3.52167 21.2083 4V7.79167H25C25.4783 7.79167 25.875 8.18833 25.875 8.66667C25.875 9.145 25.4783 9.54167 25 9.54167Z" fill="white"/>
<path d="M20.3333 9.54166C20.1116 9.54166 19.8899 9.45999 19.7149 9.28499C19.3766 8.94666 19.3766 8.38666 19.7149 8.04833L25.5483 2.21499C25.8866 1.87666 26.4466 1.87666 26.7849 2.21499C27.1233 2.55333 27.1233 3.11332 26.7849 3.45166L20.9516 9.28499C20.7766 9.45999 20.5549 9.54166 20.3333 9.54166Z" fill="white"/>
</svg>
