<svg width="1024" height="562" viewBox="0 0 1024 562" fill="none" xmlns="http://www.w3.org/2000/svg">
<path d="M257.162 387.829H627.322C630.527 387.829 633.124 390.427 633.124 393.631V548.369C633.124 551.573 630.527 554.171 627.322 554.171H257.162C253.958 554.171 251.359 551.573 251.359 548.369V494.8C251.359 492.786 250.546 490.857 249.103 489.453L234.414 475.158C232.074 472.88 232.074 469.12 234.414 466.842L249.103 452.547C250.546 451.143 251.359 449.214 251.359 447.2V393.631C251.359 390.427 253.958 387.829 257.162 387.829Z" fill="#11183C" stroke="white" stroke-width="1.65769"/>
<rect x="272.953" y="409.705" width="47" height="47" rx="5" fill="#1A2D5D"/>
<path d="M308.614 434.15H304.891V431.326C304.891 431.157 304.885 430.992 304.875 430.83C306.607 429.196 306.764 427.043 306.766 424.795C306.766 424.29 306.376 423.857 305.872 423.833C305.745 423.827 305.619 423.847 305.5 423.891C305.382 423.935 305.273 424.003 305.182 424.091C305.09 424.178 305.017 424.283 304.967 424.399C304.917 424.516 304.891 424.641 304.891 424.768C304.891 426.408 304.782 427.589 304.31 428.508C303.184 426.097 300.456 424.763 296.453 424.763C294.121 424.763 292.106 425.298 290.627 426.31C289.754 426.907 289.092 427.652 288.652 428.52C288.133 427.618 288.016 426.467 288.016 424.795C288.016 424.29 287.629 423.857 287.125 423.831C286.998 423.825 286.871 423.844 286.752 423.889C286.633 423.933 286.524 424.001 286.432 424.088C286.34 424.176 286.267 424.281 286.216 424.398C286.166 424.515 286.141 424.641 286.141 424.768C286.141 426.972 286.293 429.088 288.041 430.722C288.025 430.92 288.016 431.121 288.016 431.326V434.15H284.292C283.787 434.15 283.354 434.538 283.329 435.043C283.323 435.169 283.343 435.296 283.387 435.415C283.432 435.534 283.5 435.643 283.587 435.735C283.675 435.827 283.78 435.9 283.897 435.95C284.014 436 284.14 436.025 284.267 436.025H288.017V436.955C288.016 438.033 288.223 439.101 288.626 440.101C287.121 441.446 286.151 442.932 286.141 445.354C286.141 445.866 286.528 446.309 287.041 446.329C287.167 446.335 287.293 446.314 287.411 446.269C287.529 446.224 287.637 446.156 287.728 446.069C287.819 445.981 287.891 445.876 287.941 445.76C287.99 445.644 288.016 445.519 288.016 445.393C288.016 443.772 288.549 442.773 289.549 441.8C290.702 443.441 292.402 444.62 294.344 445.124C294.482 445.16 294.627 445.164 294.767 445.135C294.907 445.106 295.039 445.045 295.152 444.958C295.265 444.87 295.357 444.758 295.42 444.629C295.483 444.501 295.516 444.36 295.516 444.217V429.481C295.516 428.977 295.903 428.544 296.408 428.519C296.535 428.513 296.661 428.532 296.78 428.577C296.899 428.621 297.008 428.689 297.1 428.776C297.192 428.864 297.265 428.969 297.315 429.086C297.365 429.203 297.391 429.328 297.391 429.455V444.217C297.391 444.36 297.423 444.501 297.486 444.629C297.549 444.758 297.641 444.87 297.754 444.958C297.867 445.045 297.999 445.106 298.139 445.135C298.279 445.164 298.424 445.16 298.562 445.124C300.504 444.619 302.203 443.441 303.357 441.8C304.353 442.769 304.885 443.764 304.89 445.371C304.888 445.613 304.978 445.847 305.143 446.026C305.307 446.204 305.533 446.313 305.775 446.33C305.902 446.337 306.03 446.318 306.15 446.275C306.27 446.231 306.38 446.163 306.472 446.075C306.565 445.987 306.639 445.881 306.689 445.764C306.74 445.647 306.766 445.52 306.766 445.393C306.766 442.95 305.793 441.453 304.282 440.101C304.685 439.101 304.891 438.033 304.891 436.955V436.025H308.641C308.768 436.025 308.893 436 309.01 435.95C309.127 435.9 309.232 435.827 309.32 435.735C309.408 435.643 309.476 435.534 309.52 435.415C309.564 435.296 309.584 435.169 309.578 435.043C309.553 434.538 309.119 434.15 308.614 434.15Z" fill="#4395FF"/>
<path d="M300.285 424.299L300.303 424.304C301.098 424.527 301.772 423.686 301.37 422.965C300.883 422.091 300.172 421.363 299.31 420.856C298.448 420.348 297.466 420.081 296.465 420.08H296.441C295.43 420.081 294.439 420.354 293.571 420.871C292.702 421.388 291.99 422.129 291.508 423.017C291.107 423.754 291.809 424.599 292.612 424.357C293.767 424.005 295.06 423.826 296.453 423.826C297.865 423.826 299.154 423.985 300.285 424.299Z" fill="#4395FF"/>
<path d="M335.993 408.405H347.585V410.925H338.729V415.845H346.889V418.389H338.729V425.205H335.993V408.405ZM348.786 419.445C348.786 415.461 351.81 413.373 355.026 413.373C358.266 413.373 361.266 415.461 361.266 419.445C361.266 423.429 358.266 425.517 355.026 425.517C351.81 425.517 348.786 423.429 348.786 419.445ZM358.65 419.445C358.65 417.189 357.162 415.725 355.026 415.725C352.866 415.725 351.378 417.189 351.378 419.445C351.378 421.701 352.866 423.165 355.026 423.165C357.162 423.165 358.65 421.701 358.65 419.445ZM363.036 419.541C363.036 415.245 366.324 413.373 369.396 413.373C370.692 413.373 371.94 413.661 372.948 414.261V416.613C372.108 416.013 370.932 415.653 369.756 415.653C367.716 415.653 365.652 416.733 365.652 419.445C365.652 422.061 367.644 423.237 369.708 423.237C370.932 423.237 372.156 422.877 373.068 422.349V424.725C371.964 425.253 370.716 425.517 369.252 425.517C366.18 425.517 363.036 423.645 363.036 419.541ZM383.921 413.685H386.489V425.205H384.209V423.621C383.369 424.629 381.953 425.517 380.201 425.517C377.153 425.517 375.449 423.549 375.449 420.813V413.685H378.017V420.477C378.017 422.349 379.001 423.237 380.705 423.237C382.169 423.237 383.273 422.253 383.921 421.317V413.685ZM389.102 416.805C389.102 414.285 391.406 413.373 393.686 413.373C395.27 413.373 396.71 413.781 397.838 414.357V416.613C396.878 415.965 395.222 415.485 393.854 415.485C392.822 415.485 391.718 415.797 391.718 416.733C391.718 418.965 398.654 417.933 398.654 422.133C398.654 424.677 396.302 425.517 393.686 425.517C392.006 425.517 390.302 425.109 389.174 424.413V422.133C390.374 422.925 392.126 423.357 393.566 423.357C395.006 423.357 396.062 423.117 396.062 422.181C396.062 420.045 389.102 420.933 389.102 416.805ZM400.255 419.445C400.255 415.269 403.423 413.373 406.087 413.373C410.671 413.373 412.255 417.069 411.511 420.405H402.847C403.135 422.469 405.151 423.333 407.263 423.333C408.655 423.333 409.927 422.997 410.911 422.517V424.725C409.855 425.229 408.391 425.517 406.783 425.517C403.255 425.517 400.255 423.501 400.255 419.445ZM409.207 418.485C409.351 417.477 408.727 415.509 406.207 415.509C404.479 415.509 402.919 416.541 402.823 418.485H409.207ZM423.268 408.405H425.836V425.205H423.532V423.381C422.644 424.509 421.276 425.517 419.116 425.517C415.636 425.517 413.404 422.757 413.404 419.445C413.404 416.133 415.636 413.373 419.116 413.373C421.132 413.373 422.476 414.261 423.268 415.173V408.405ZM423.244 418.029C422.692 416.781 421.372 415.629 419.572 415.629C417.508 415.629 415.996 417.189 415.996 419.445C415.996 421.701 417.508 423.261 419.572 423.261C421.372 423.261 422.692 422.109 423.244 420.837V418.029ZM434.005 419.445C434.005 415.461 437.029 413.373 440.245 413.373C443.485 413.373 446.485 415.461 446.485 419.445C446.485 423.429 443.485 425.517 440.245 425.517C437.029 425.517 434.005 423.429 434.005 419.445ZM443.869 419.445C443.869 417.189 442.381 415.725 440.245 415.725C438.085 415.725 436.597 417.189 436.597 419.445C436.597 421.701 438.085 423.165 440.245 423.165C442.381 423.165 443.869 421.701 443.869 419.445ZM451.255 415.269C452.095 414.261 453.511 413.373 455.263 413.373C458.167 413.373 460.015 415.341 460.015 418.077V425.205H457.447V418.413C457.447 416.541 456.295 415.653 454.759 415.653C453.295 415.653 452.191 416.637 451.543 417.573V425.205H448.975V413.685H451.255V415.269ZM468.756 408.405H471.324V415.173C472.116 414.285 473.46 413.373 475.476 413.373C478.932 413.373 481.188 416.133 481.188 419.445C481.188 422.757 478.932 425.517 475.476 425.517C473.316 425.517 471.948 424.509 471.036 423.381V425.205H468.756V408.405ZM478.572 419.445C478.572 417.189 477.084 415.629 474.996 415.629C473.22 415.629 471.876 416.781 471.324 418.029V420.837C471.876 422.109 473.22 423.261 474.996 423.261C477.084 423.261 478.572 421.701 478.572 419.445ZM482.966 419.445C482.966 415.461 485.99 413.373 489.206 413.373C492.446 413.373 495.446 415.461 495.446 419.445C495.446 423.429 492.446 425.517 489.206 425.517C485.99 425.517 482.966 423.429 482.966 419.445ZM492.83 419.445C492.83 417.189 491.342 415.725 489.206 415.725C487.046 415.725 485.558 417.189 485.558 419.445C485.558 421.701 487.046 423.165 489.206 423.165C491.342 423.165 492.83 421.701 492.83 419.445ZM498.612 410.205L501.156 409.581V413.685H505.332V415.941H501.156V421.221C501.156 422.733 501.852 423.237 503.34 423.237C504.18 423.237 504.948 423.069 505.668 422.781V424.989C504.804 425.301 503.7 425.493 502.572 425.493C500.34 425.493 498.612 424.389 498.612 421.701V415.941H496.548V413.685H498.612V410.205ZM507.156 416.805C507.156 414.285 509.46 413.373 511.74 413.373C513.324 413.373 514.764 413.781 515.892 414.357V416.613C514.932 415.965 513.276 415.485 511.908 415.485C510.876 415.485 509.772 415.797 509.772 416.733C509.772 418.965 516.708 417.933 516.708 422.133C516.708 424.677 514.356 425.517 511.74 425.517C510.06 425.517 508.356 425.109 507.228 424.413V422.133C508.428 422.925 510.18 423.357 511.62 423.357C513.06 423.357 514.116 423.117 514.116 422.181C514.116 420.045 507.156 420.933 507.156 416.805ZM519.774 428.757H517.686L519.102 422.805H521.814L519.774 428.757ZM532.677 415.269C533.517 414.261 534.933 413.373 536.685 413.373C539.589 413.373 541.437 415.341 541.437 418.077V425.205H538.869V418.413C538.869 416.541 537.717 415.653 536.181 415.653C534.717 415.653 533.613 416.637 532.965 417.573V425.205H530.397V413.685H532.677V415.269ZM543.786 419.445C543.786 415.461 546.81 413.373 550.026 413.373C553.266 413.373 556.266 415.461 556.266 419.445C556.266 423.429 553.266 425.517 550.026 425.517C546.81 425.517 543.786 423.429 543.786 419.445ZM553.65 419.445C553.65 417.189 552.162 415.725 550.026 415.725C547.866 415.725 546.378 417.189 546.378 419.445C546.378 421.701 547.866 423.165 550.026 423.165C552.162 423.165 553.65 421.701 553.65 419.445ZM559.432 410.205L561.976 409.581V413.685H566.152V415.941H561.976V421.221C561.976 422.733 562.672 423.237 564.16 423.237C565 423.237 565.768 423.069 566.488 422.781V424.989C565.624 425.301 564.52 425.493 563.392 425.493C561.16 425.493 559.432 424.389 559.432 421.701V415.941H557.368V413.685H559.432V410.205ZM345.377 451.541C345.377 452.189 345.761 452.381 346.217 452.381C346.481 452.381 346.745 452.309 346.985 452.237V454.085C346.505 454.277 345.929 454.373 345.353 454.373C344.297 454.373 343.457 453.965 343.049 453.029C341.921 453.941 340.505 454.517 338.705 454.517C336.617 454.517 334.673 453.365 334.673 450.989C334.673 448.037 337.409 447.125 339.809 447.125C340.793 447.125 341.897 447.269 342.809 447.461V447.053C342.809 445.613 341.753 444.605 339.785 444.605C338.081 444.605 336.665 445.037 335.633 445.493V443.141C336.545 442.829 338.201 442.373 340.049 442.373C343.313 442.373 345.377 443.933 345.377 447.413V451.541ZM340.313 448.925C338.849 448.925 337.313 449.381 337.313 450.821C337.313 451.949 338.321 452.525 339.473 452.525C340.697 452.525 341.897 452.069 342.809 451.157V449.213C342.113 449.069 341.129 448.925 340.313 448.925ZM348.156 445.805C348.156 443.285 350.46 442.373 352.74 442.373C354.324 442.373 355.764 442.781 356.892 443.357V445.613C355.932 444.965 354.276 444.485 352.908 444.485C351.876 444.485 350.772 444.797 350.772 445.733C350.772 447.965 357.708 446.933 357.708 451.133C357.708 453.677 355.356 454.517 352.74 454.517C351.06 454.517 349.356 454.109 348.228 453.413V451.133C349.428 451.925 351.18 452.357 352.62 452.357C354.06 452.357 355.116 452.117 355.116 451.181C355.116 449.045 348.156 449.933 348.156 445.805ZM359.43 445.805C359.43 443.285 361.734 442.373 364.014 442.373C365.598 442.373 367.038 442.781 368.166 443.357V445.613C367.206 444.965 365.55 444.485 364.182 444.485C363.15 444.485 362.046 444.797 362.046 445.733C362.046 447.965 368.982 446.933 368.982 451.133C368.982 453.677 366.63 454.517 364.014 454.517C362.334 454.517 360.63 454.109 359.502 453.413V451.133C360.702 451.925 362.454 452.357 363.894 452.357C365.334 452.357 366.39 452.117 366.39 451.181C366.39 449.045 359.43 449.933 359.43 445.805ZM379.655 442.685H382.223V454.205H379.943V452.621C379.103 453.629 377.687 454.517 375.935 454.517C372.887 454.517 371.183 452.549 371.183 449.813V442.685H373.751V449.477C373.751 451.349 374.735 452.237 376.439 452.237C377.903 452.237 379.007 451.253 379.655 450.317V442.685ZM388.004 454.205H385.436V442.685H387.716V444.125C388.34 443.429 389.684 442.373 391.556 442.373C393.284 442.373 394.484 443.093 395.156 444.221C396.164 443.213 397.508 442.373 399.188 442.373C402.236 442.373 403.556 444.629 403.556 447.005V454.205H400.988V447.077C400.988 445.589 400.1 444.653 398.708 444.653C397.436 444.653 396.452 445.493 395.852 446.213C395.876 446.477 395.9 446.741 395.9 447.005V454.205H393.332V447.077C393.332 445.589 392.444 444.653 391.052 444.653C389.66 444.653 388.604 445.661 388.004 446.429V454.205ZM408.927 444.485C409.839 443.381 411.207 442.373 413.367 442.373C416.823 442.373 419.079 445.133 419.079 448.445C419.079 451.757 416.823 454.517 413.367 454.517C411.351 454.517 410.007 453.629 409.215 452.717V459.485H406.647V442.685H408.927V444.485ZM416.463 448.445C416.463 446.189 414.975 444.629 412.887 444.629C411.111 444.629 409.767 445.781 409.215 447.029V449.837C409.767 451.109 411.111 452.261 412.887 452.261C414.975 452.261 416.463 450.701 416.463 448.445ZM422.253 439.205L424.797 438.581V442.685H428.973V444.941H424.797V450.221C424.797 451.733 425.493 452.237 426.981 452.237C427.821 452.237 428.589 452.069 429.309 451.781V453.989C428.445 454.301 427.341 454.493 426.213 454.493C423.981 454.493 422.253 453.389 422.253 450.701V444.941H420.189V442.685H422.253V439.205ZM434.013 454.205H431.445V442.685H434.013V454.205ZM434.301 438.941C434.301 439.997 433.581 440.477 432.741 440.477C431.901 440.477 431.157 439.997 431.157 438.941C431.157 437.933 431.901 437.429 432.741 437.429C433.581 437.429 434.301 437.933 434.301 438.941ZM436.56 448.445C436.56 444.461 439.584 442.373 442.8 442.373C446.04 442.373 449.04 444.461 449.04 448.445C449.04 452.429 446.04 454.517 442.8 454.517C439.584 454.517 436.56 452.429 436.56 448.445ZM446.424 448.445C446.424 446.189 444.936 444.725 442.8 444.725C440.64 444.725 439.152 446.189 439.152 448.445C439.152 450.701 440.64 452.165 442.8 452.165C444.936 452.165 446.424 450.701 446.424 448.445ZM453.81 444.269C454.65 443.261 456.066 442.373 457.818 442.373C460.722 442.373 462.57 444.341 462.57 447.077V454.205H460.002V447.413C460.002 445.541 458.85 444.653 457.314 444.653C455.85 444.653 454.746 445.637 454.098 446.573V454.205H451.53V442.685H453.81V444.269ZM465.039 445.805C465.039 443.285 467.343 442.373 469.623 442.373C471.207 442.373 472.647 442.781 473.775 443.357V445.613C472.815 444.965 471.159 444.485 469.791 444.485C468.759 444.485 467.655 444.797 467.655 445.733C467.655 447.965 474.591 446.933 474.591 451.133C474.591 453.677 472.239 454.517 469.623 454.517C467.943 454.517 466.239 454.109 465.111 453.413V451.133C466.311 451.925 468.063 452.357 469.503 452.357C470.943 452.357 471.999 452.117 471.999 451.181C471.999 449.045 465.039 449.933 465.039 445.805Z" fill="white"/>
<path d="M289.117 472.605H290.773L286.813 485.205H285.121L281.935 475.125L278.749 485.205H277.075L273.115 472.605H274.771L277.921 483.369L281.269 472.605H282.619L285.967 483.369L289.117 472.605ZM290.988 480.885C290.988 477.861 293.238 476.349 295.29 476.349C298.62 476.349 299.844 479.067 299.304 481.515H292.428C292.608 483.333 294.246 484.089 295.992 484.089C297.054 484.089 298.098 483.801 298.836 483.387V484.791C298.044 485.205 296.91 485.421 295.776 485.421C293.22 485.421 290.988 483.963 290.988 480.885ZM298.026 480.255C298.152 479.337 297.576 477.681 295.38 477.681C293.904 477.681 292.536 478.563 292.428 480.255H298.026ZM312.946 483.405C312.946 483.927 313.234 484.071 313.612 484.071C313.828 484.071 314.062 484.017 314.278 483.945V485.115C313.936 485.241 313.558 485.313 313.198 485.313C312.496 485.313 311.866 485.025 311.614 484.269C310.75 484.989 309.652 485.421 308.248 485.421C306.718 485.421 305.206 484.611 305.206 482.793C305.206 480.561 307.258 479.877 309.112 479.877C309.868 479.877 310.786 479.985 311.506 480.147V479.841C311.506 478.545 310.624 477.681 309.04 477.681C307.708 477.681 306.646 478.005 305.89 478.329V476.925C306.574 476.691 307.762 476.349 309.184 476.349C311.488 476.349 312.946 477.609 312.946 480.021V483.405ZM306.682 482.721C306.682 483.729 307.6 484.179 308.554 484.179C309.652 484.179 310.75 483.729 311.506 482.919V481.335C310.894 481.209 310.012 481.083 309.31 481.083C308.05 481.083 306.682 481.461 306.682 482.721ZM317.013 477.843C317.589 477.087 318.741 476.349 320.127 476.349C322.197 476.349 323.727 477.771 323.727 479.877V485.205H322.287V480.057C322.287 478.437 321.297 477.681 319.965 477.681C318.687 477.681 317.733 478.545 317.157 479.409V485.205H315.717V476.565H317.013V477.843ZM333.301 483.405C333.301 483.927 333.589 484.071 333.967 484.071C334.183 484.071 334.417 484.017 334.633 483.945V485.115C334.291 485.241 333.913 485.313 333.553 485.313C332.851 485.313 332.221 485.025 331.969 484.269C331.105 484.989 330.007 485.421 328.603 485.421C327.073 485.421 325.561 484.611 325.561 482.793C325.561 480.561 327.613 479.877 329.467 479.877C330.223 479.877 331.141 479.985 331.861 480.147V479.841C331.861 478.545 330.979 477.681 329.395 477.681C328.063 477.681 327.001 478.005 326.245 478.329V476.925C326.929 476.691 328.117 476.349 329.539 476.349C331.843 476.349 333.301 477.609 333.301 480.021V483.405ZM327.037 482.721C327.037 483.729 327.955 484.179 328.909 484.179C330.007 484.179 331.105 483.729 331.861 482.919V481.335C331.249 481.209 330.367 481.083 329.665 481.083C328.405 481.083 327.037 481.461 327.037 482.721ZM336.108 472.065H337.548V485.205H336.108V472.065ZM343.892 483.567L346.808 476.565H348.338L344.09 486.501C343.19 488.589 342.092 489.381 340.832 489.381C340.526 489.381 340.22 489.345 339.896 489.255V488.013C340.148 488.085 340.4 488.121 340.652 488.121C341.624 488.121 342.326 487.419 342.884 486.015L343.208 485.223L339.104 476.565H340.634L343.892 483.567ZM349.473 476.565H356.025V477.843L350.949 483.945H356.367V485.205H349.257V483.927L354.333 477.825H349.473V476.565ZM357.556 480.885C357.556 477.861 359.806 476.349 361.858 476.349C365.188 476.349 366.412 479.067 365.872 481.515H358.996C359.176 483.333 360.814 484.089 362.56 484.089C363.622 484.089 364.666 483.801 365.404 483.387V484.791C364.612 485.205 363.478 485.421 362.344 485.421C359.788 485.421 357.556 483.963 357.556 480.885ZM364.594 480.255C364.72 479.337 364.144 477.681 361.948 477.681C360.472 477.681 359.104 478.563 358.996 480.255H364.594ZM371.9 480.885C371.9 477.933 374.168 476.349 376.508 476.349C378.866 476.349 381.116 477.933 381.116 480.885C381.116 483.837 378.866 485.421 376.508 485.421C374.168 485.421 371.9 483.837 371.9 480.885ZM379.676 480.885C379.676 478.887 378.272 477.717 376.508 477.717C374.744 477.717 373.34 478.887 373.34 480.885C373.34 482.883 374.744 484.053 376.508 484.053C378.272 484.053 379.676 482.883 379.676 480.885ZM389.327 476.565H390.929L387.113 485.205H385.601L381.785 476.565H383.387L386.357 483.585L389.327 476.565ZM391.605 480.885C391.605 477.861 393.855 476.349 395.907 476.349C399.237 476.349 400.461 479.067 399.921 481.515H393.045C393.225 483.333 394.863 484.089 396.609 484.089C397.671 484.089 398.715 483.801 399.453 483.387V484.791C398.661 485.205 397.527 485.421 396.393 485.421C393.837 485.421 391.605 483.963 391.605 480.885ZM398.643 480.255C398.769 479.337 398.193 477.681 395.997 477.681C394.521 477.681 393.153 478.563 393.045 480.255H398.643ZM403.357 478.095C404.041 476.961 405.571 476.259 407.083 476.385V477.825C405.391 477.627 404.023 478.437 403.501 479.823V485.205H402.061V476.565H403.357V478.095ZM415.322 472.965H416.438V483.765H418.724V485.205H412.352V483.765H414.926V474.567L412.352 475.539V474.099L415.322 472.965ZM420.051 479.085C420.051 475.467 421.743 472.749 425.451 472.749C429.177 472.749 430.869 475.467 430.869 479.085C430.869 482.703 429.177 485.421 425.451 485.421C421.743 485.421 420.051 482.703 420.051 479.085ZM429.339 479.085C429.339 476.025 428.133 474.189 425.451 474.189C422.787 474.189 421.581 476.025 421.581 479.085C421.581 482.145 422.787 483.981 425.451 483.981C428.133 483.981 429.339 482.145 429.339 479.085ZM432.707 479.085C432.707 475.467 434.399 472.749 438.107 472.749C441.833 472.749 443.525 475.467 443.525 479.085C443.525 482.703 441.833 485.421 438.107 485.421C434.399 485.421 432.707 482.703 432.707 479.085ZM441.995 479.085C441.995 476.025 440.789 474.189 438.107 474.189C435.443 474.189 434.237 476.025 434.237 479.085C434.237 482.145 435.443 483.981 438.107 483.981C440.789 483.981 441.995 482.145 441.995 479.085ZM450.484 473.883L451.906 473.523V476.565H455.362V477.897H451.906V482.361C451.906 483.675 452.5 484.071 453.76 484.071C454.444 484.071 455.092 483.909 455.668 483.675V485.007C455.02 485.241 454.174 485.403 453.346 485.403C451.672 485.403 450.484 484.503 450.484 482.613V477.897H448.864V476.565H450.484V473.883ZM456.697 480.885C456.697 477.861 458.947 476.349 460.999 476.349C464.329 476.349 465.553 479.067 465.013 481.515H458.137C458.317 483.333 459.955 484.089 461.701 484.089C462.763 484.089 463.807 483.801 464.545 483.387V484.791C463.753 485.205 462.619 485.421 461.485 485.421C458.929 485.421 456.697 483.963 456.697 480.885ZM463.735 480.255C463.861 479.337 463.285 477.681 461.089 477.681C459.613 477.681 458.245 478.563 458.137 480.255H463.735ZM466.558 480.921C466.558 477.771 468.988 476.349 471.238 476.349C472.21 476.349 473.164 476.565 473.902 477.051V478.455C473.254 477.951 472.336 477.681 471.418 477.681C469.744 477.681 467.998 478.617 467.998 480.885C467.998 483.099 469.69 484.089 471.382 484.089C472.318 484.089 473.272 483.819 473.992 483.387V484.827C473.182 485.223 472.264 485.421 471.184 485.421C468.916 485.421 466.558 483.999 466.558 480.921ZM476.029 472.605H477.469V477.663C478.081 476.979 479.161 476.349 480.439 476.349C482.509 476.349 484.039 477.771 484.039 479.877V485.205H482.599V480.057C482.599 478.437 481.609 477.681 480.277 477.681C478.999 477.681 478.045 478.545 477.469 479.409V485.205H476.029V472.605ZM487.89 477.843C488.466 477.087 489.618 476.349 491.004 476.349C493.074 476.349 494.604 477.771 494.604 479.877V485.205H493.164V480.057C493.164 478.437 492.174 477.681 490.842 477.681C489.564 477.681 488.61 478.545 488.034 479.409V485.205H486.594V476.565H487.89V477.843ZM498.634 485.205H497.194V476.565H498.634V485.205ZM498.85 473.811C498.85 474.423 498.418 474.729 497.914 474.729C497.41 474.729 496.978 474.423 496.978 473.811C496.978 473.217 497.41 472.893 497.914 472.893C498.418 472.893 498.85 473.217 498.85 473.811ZM500.748 480.921C500.748 477.771 503.178 476.349 505.428 476.349C506.4 476.349 507.354 476.565 508.092 477.051V478.455C507.444 477.951 506.526 477.681 505.608 477.681C503.934 477.681 502.188 478.617 502.188 480.885C502.188 483.099 503.88 484.089 505.572 484.089C506.508 484.089 507.462 483.819 508.182 483.387V484.827C507.372 485.223 506.454 485.421 505.374 485.421C503.106 485.421 500.748 483.999 500.748 480.921ZM517.239 483.405C517.239 483.927 517.527 484.071 517.905 484.071C518.121 484.071 518.355 484.017 518.571 483.945V485.115C518.229 485.241 517.851 485.313 517.491 485.313C516.789 485.313 516.159 485.025 515.907 484.269C515.043 484.989 513.945 485.421 512.541 485.421C511.011 485.421 509.499 484.611 509.499 482.793C509.499 480.561 511.551 479.877 513.405 479.877C514.161 479.877 515.079 479.985 515.799 480.147V479.841C515.799 478.545 514.917 477.681 513.333 477.681C512.001 477.681 510.939 478.005 510.183 478.329V476.925C510.867 476.691 512.055 476.349 513.477 476.349C515.781 476.349 517.239 477.609 517.239 480.021V483.405ZM510.975 482.721C510.975 483.729 511.893 484.179 512.847 484.179C513.945 484.179 515.043 483.729 515.799 482.919V481.335C515.187 481.209 514.305 481.083 513.603 481.083C512.343 481.083 510.975 481.461 510.975 482.721ZM520.046 472.065H521.486V485.205H520.046V472.065ZM535.696 483.405C535.696 483.927 535.984 484.071 536.362 484.071C536.578 484.071 536.812 484.017 537.028 483.945V485.115C536.686 485.241 536.308 485.313 535.948 485.313C535.246 485.313 534.616 485.025 534.364 484.269C533.5 484.989 532.402 485.421 530.998 485.421C529.468 485.421 527.956 484.611 527.956 482.793C527.956 480.561 530.008 479.877 531.862 479.877C532.618 479.877 533.536 479.985 534.256 480.147V479.841C534.256 478.545 533.374 477.681 531.79 477.681C530.458 477.681 529.396 478.005 528.64 478.329V476.925C529.324 476.691 530.512 476.349 531.934 476.349C534.238 476.349 535.696 477.609 535.696 480.021V483.405ZM529.432 482.721C529.432 483.729 530.35 484.179 531.304 484.179C532.402 484.179 533.5 483.729 534.256 482.919V481.335C533.644 481.209 532.762 481.083 532.06 481.083C530.8 481.083 529.432 481.461 529.432 482.721ZM539.763 477.843C540.339 477.087 541.491 476.349 542.877 476.349C544.947 476.349 546.477 477.771 546.477 479.877V485.205H545.037V480.057C545.037 478.437 544.047 477.681 542.715 477.681C541.437 477.681 540.483 478.545 539.907 479.409V485.205H538.467V476.565H539.763V477.843ZM556.105 472.605H557.545V485.205H556.249V483.765C555.475 484.647 554.413 485.421 552.757 485.421C550.291 485.421 548.437 483.477 548.437 480.885C548.437 478.293 550.291 476.349 552.757 476.349C554.413 476.349 555.475 477.123 556.105 477.861V472.605ZM556.105 479.805C555.619 478.689 554.467 477.681 552.919 477.681C551.245 477.681 549.877 478.905 549.877 480.885C549.877 482.865 551.245 484.089 552.919 484.089C554.467 484.089 555.619 483.081 556.105 481.965V479.805ZM274.285 495.605H275.725V500.861C276.355 500.123 277.417 499.349 279.073 499.349C281.539 499.349 283.393 501.293 283.393 503.885C283.393 506.477 281.539 508.421 279.073 508.421C277.417 508.421 276.355 507.647 275.581 506.765V508.205H274.285V495.605ZM281.953 503.885C281.953 501.905 280.585 500.681 278.911 500.681C277.363 500.681 276.211 501.689 275.725 502.805V504.965C276.211 506.081 277.363 507.089 278.911 507.089C280.585 507.089 281.953 505.865 281.953 503.885ZM284.871 503.885C284.871 500.861 287.121 499.349 289.173 499.349C292.503 499.349 293.727 502.067 293.187 504.515H286.311C286.491 506.333 288.129 507.089 289.875 507.089C290.937 507.089 291.981 506.801 292.719 506.387V507.791C291.927 508.205 290.793 508.421 289.659 508.421C287.103 508.421 284.871 506.963 284.871 503.885ZM291.909 503.255C292.035 502.337 291.459 500.681 289.263 500.681C287.787 500.681 286.419 501.563 286.311 503.255H291.909ZM295.326 495.605H296.766V500.663C297.378 499.979 298.458 499.349 299.736 499.349C301.806 499.349 303.336 500.771 303.336 502.877V508.205H301.896V503.057C301.896 501.437 300.906 500.681 299.574 500.681C298.296 500.681 297.342 501.545 296.766 502.409V508.205H295.326V495.605ZM312.911 506.405C312.911 506.927 313.199 507.071 313.577 507.071C313.793 507.071 314.027 507.017 314.243 506.945V508.115C313.901 508.241 313.523 508.313 313.163 508.313C312.461 508.313 311.831 508.025 311.579 507.269C310.715 507.989 309.617 508.421 308.213 508.421C306.683 508.421 305.171 507.611 305.171 505.793C305.171 503.561 307.223 502.877 309.077 502.877C309.833 502.877 310.751 502.985 311.471 503.147V502.841C311.471 501.545 310.589 500.681 309.005 500.681C307.673 500.681 306.611 501.005 305.855 501.329V499.925C306.539 499.691 307.727 499.349 309.149 499.349C311.453 499.349 312.911 500.609 312.911 503.021V506.405ZM306.647 505.721C306.647 506.729 307.565 507.179 308.519 507.179C309.617 507.179 310.715 506.729 311.471 505.919V504.335C310.859 504.209 309.977 504.083 309.275 504.083C308.015 504.083 306.647 504.461 306.647 505.721ZM321.739 499.565H323.341L319.525 508.205H318.013L314.197 499.565H315.799L318.769 506.585L321.739 499.565ZM326.404 508.205H324.964V499.565H326.404V508.205ZM326.62 496.811C326.62 497.423 326.188 497.729 325.684 497.729C325.18 497.729 324.748 497.423 324.748 496.811C324.748 496.217 325.18 495.893 325.684 495.893C326.188 495.893 326.62 496.217 326.62 496.811ZM328.517 503.885C328.517 500.933 330.785 499.349 333.125 499.349C335.483 499.349 337.733 500.933 337.733 503.885C337.733 506.837 335.483 508.421 333.125 508.421C330.785 508.421 328.517 506.837 328.517 503.885ZM336.293 503.885C336.293 501.887 334.889 500.717 333.125 500.717C331.361 500.717 329.957 501.887 329.957 503.885C329.957 505.883 331.361 507.053 333.125 507.053C334.889 507.053 336.293 505.883 336.293 503.885ZM341.095 501.095C341.779 499.961 343.309 499.259 344.821 499.385V500.825C343.129 500.627 341.761 501.437 341.239 502.823V508.205H339.799V499.565H341.095V501.095ZM353.305 506.405C353.305 506.927 353.593 507.071 353.971 507.071C354.187 507.071 354.421 507.017 354.637 506.945V508.115C354.295 508.241 353.917 508.313 353.557 508.313C352.855 508.313 352.225 508.025 351.973 507.269C351.109 507.989 350.011 508.421 348.607 508.421C347.077 508.421 345.565 507.611 345.565 505.793C345.565 503.561 347.617 502.877 349.471 502.877C350.227 502.877 351.145 502.985 351.865 503.147V502.841C351.865 501.545 350.983 500.681 349.399 500.681C348.067 500.681 347.005 501.005 346.249 501.329V499.925C346.933 499.691 348.121 499.349 349.543 499.349C351.847 499.349 353.305 500.609 353.305 503.021V506.405ZM347.041 505.721C347.041 506.729 347.959 507.179 348.913 507.179C350.011 507.179 351.109 506.729 351.865 505.919V504.335C351.253 504.209 350.371 504.083 349.669 504.083C348.409 504.083 347.041 504.461 347.041 505.721ZM356.112 495.065H357.552V508.205H356.112V495.065ZM366.038 501.005C366.812 500.123 367.874 499.349 369.53 499.349C371.996 499.349 373.85 501.293 373.85 503.885C373.85 506.477 371.996 508.421 369.53 508.421C367.874 508.421 366.812 507.647 366.182 506.909V512.165H364.742V499.565H366.038V501.005ZM372.41 503.885C372.41 501.905 371.042 500.681 369.368 500.681C367.82 500.681 366.668 501.689 366.182 502.805V504.965C366.668 506.081 367.82 507.089 369.368 507.089C371.042 507.089 372.41 505.865 372.41 503.885ZM382.942 506.405C382.942 506.927 383.23 507.071 383.608 507.071C383.824 507.071 384.058 507.017 384.274 506.945V508.115C383.932 508.241 383.554 508.313 383.194 508.313C382.492 508.313 381.862 508.025 381.61 507.269C380.746 507.989 379.648 508.421 378.244 508.421C376.714 508.421 375.202 507.611 375.202 505.793C375.202 503.561 377.254 502.877 379.108 502.877C379.864 502.877 380.782 502.985 381.502 503.147V502.841C381.502 501.545 380.62 500.681 379.036 500.681C377.704 500.681 376.642 501.005 375.886 501.329V499.925C376.57 499.691 377.758 499.349 379.18 499.349C381.484 499.349 382.942 500.609 382.942 503.021V506.405ZM376.678 505.721C376.678 506.729 377.596 507.179 378.55 507.179C379.648 507.179 380.746 506.729 381.502 505.919V504.335C380.89 504.209 380.008 504.083 379.306 504.083C378.046 504.083 376.678 504.461 376.678 505.721ZM387.009 501.095C387.693 499.961 389.223 499.259 390.735 499.385V500.825C389.043 500.627 387.675 501.437 387.153 502.823V508.205H385.713V499.565H387.009V501.095ZM399.219 506.405C399.219 506.927 399.507 507.071 399.885 507.071C400.101 507.071 400.335 507.017 400.551 506.945V508.115C400.209 508.241 399.831 508.313 399.471 508.313C398.769 508.313 398.139 508.025 397.887 507.269C397.023 507.989 395.925 508.421 394.521 508.421C392.991 508.421 391.479 507.611 391.479 505.793C391.479 503.561 393.531 502.877 395.385 502.877C396.141 502.877 397.059 502.985 397.779 503.147V502.841C397.779 501.545 396.897 500.681 395.313 500.681C393.981 500.681 392.919 501.005 392.163 501.329V499.925C392.847 499.691 394.035 499.349 395.457 499.349C397.761 499.349 399.219 500.609 399.219 503.021V506.405ZM392.955 505.721C392.955 506.729 393.873 507.179 394.827 507.179C395.925 507.179 397.023 506.729 397.779 505.919V504.335C397.167 504.209 396.285 504.083 395.583 504.083C394.323 504.083 392.955 504.461 392.955 505.721ZM403.43 508.205H401.99V499.565H403.286V500.717C403.754 500.213 404.78 499.349 406.238 499.349C407.534 499.349 408.488 499.907 409.01 500.807C409.784 500.015 410.846 499.349 412.16 499.349C414.302 499.349 415.454 500.861 415.454 502.877V508.205H414.014V502.841C414.014 501.527 413.258 500.681 411.998 500.681C410.828 500.681 409.964 501.491 409.478 502.103C409.514 502.355 409.532 502.607 409.532 502.877V508.205H408.092V502.841C408.092 501.527 407.336 500.681 406.076 500.681C404.798 500.681 403.898 501.635 403.43 502.247V508.205ZM417.41 503.885C417.41 500.861 419.66 499.349 421.712 499.349C425.042 499.349 426.266 502.067 425.726 504.515H418.85C419.03 506.333 420.668 507.089 422.414 507.089C423.476 507.089 424.52 506.801 425.258 506.387V507.791C424.466 508.205 423.332 508.421 422.198 508.421C419.642 508.421 417.41 506.963 417.41 503.885ZM424.448 503.255C424.574 502.337 423.998 500.681 421.802 500.681C420.326 500.681 418.958 501.563 418.85 503.255H424.448ZM428.353 496.883L429.775 496.523V499.565H433.231V500.897H429.775V505.361C429.775 506.675 430.369 507.071 431.629 507.071C432.313 507.071 432.961 506.909 433.537 506.675V508.007C432.889 508.241 432.043 508.403 431.215 508.403C429.541 508.403 428.353 507.503 428.353 505.613V500.897H426.733V499.565H428.353V496.883ZM434.566 503.885C434.566 500.861 436.816 499.349 438.868 499.349C442.198 499.349 443.422 502.067 442.882 504.515H436.006C436.186 506.333 437.824 507.089 439.57 507.089C440.632 507.089 441.676 506.801 442.414 506.387V507.791C441.622 508.205 440.488 508.421 439.354 508.421C436.798 508.421 434.566 506.963 434.566 503.885ZM441.604 503.255C441.73 502.337 441.154 500.681 438.958 500.681C437.482 500.681 436.114 501.563 436.006 503.255H441.604ZM446.317 501.095C447.001 499.961 448.531 499.259 450.043 499.385V500.825C448.351 500.627 446.983 501.437 446.461 502.823V508.205H445.021V499.565H446.317V501.095ZM451.109 501.833C451.109 500.051 452.783 499.349 454.403 499.349C455.555 499.349 456.653 499.655 457.463 500.087V501.455C456.743 500.987 455.537 500.645 454.493 500.645C453.557 500.645 452.567 500.951 452.567 501.797C452.567 503.669 458.057 502.877 458.057 505.991C458.057 507.791 456.365 508.421 454.493 508.421C453.269 508.421 451.955 508.097 451.145 507.575V506.171C452.027 506.765 453.341 507.089 454.421 507.089C455.645 507.089 456.617 506.891 456.617 506.027C456.617 504.209 451.109 504.929 451.109 501.833ZM466.586 508.205H465.146V500.897H463.526V499.565H465.146V498.521C465.146 496.109 466.694 495.389 468.206 495.389C468.998 495.389 469.772 495.551 470.366 495.785V497.117C469.88 496.883 469.196 496.721 468.548 496.721C467.504 496.721 466.586 496.991 466.586 498.575V499.565H469.826V500.897H466.586V508.205ZM470.496 503.885C470.496 500.933 472.764 499.349 475.104 499.349C477.462 499.349 479.712 500.933 479.712 503.885C479.712 506.837 477.462 508.421 475.104 508.421C472.764 508.421 470.496 506.837 470.496 503.885ZM478.272 503.885C478.272 501.887 476.868 500.717 475.104 500.717C473.34 500.717 471.936 501.887 471.936 503.885C471.936 505.883 473.34 507.053 475.104 507.053C476.868 507.053 478.272 505.883 478.272 503.885ZM483.073 501.095C483.757 499.961 485.287 499.259 486.799 499.385V500.825C485.107 500.627 483.739 501.437 483.217 502.823V508.205H481.777V499.565H483.073V501.095ZM491.853 503.885C491.853 500.861 494.103 499.349 496.155 499.349C499.485 499.349 500.709 502.067 500.169 504.515H493.293C493.473 506.333 495.111 507.089 496.857 507.089C497.919 507.089 498.963 506.801 499.701 506.387V507.791C498.909 508.205 497.775 508.421 496.641 508.421C494.085 508.421 491.853 506.963 491.853 503.885ZM498.891 503.255C499.017 502.337 498.441 500.681 496.245 500.681C494.769 500.681 493.401 501.563 493.293 503.255H498.891ZM509.329 506.405C509.329 506.927 509.617 507.071 509.995 507.071C510.211 507.071 510.445 507.017 510.661 506.945V508.115C510.319 508.241 509.941 508.313 509.581 508.313C508.879 508.313 508.249 508.025 507.997 507.269C507.133 507.989 506.035 508.421 504.631 508.421C503.101 508.421 501.589 507.611 501.589 505.793C501.589 503.561 503.641 502.877 505.495 502.877C506.251 502.877 507.169 502.985 507.889 503.147V502.841C507.889 501.545 507.007 500.681 505.423 500.681C504.091 500.681 503.029 501.005 502.273 501.329V499.925C502.957 499.691 504.145 499.349 505.567 499.349C507.871 499.349 509.329 500.609 509.329 503.021V506.405ZM503.065 505.721C503.065 506.729 503.983 507.179 504.937 507.179C506.035 507.179 507.133 506.729 507.889 505.919V504.335C507.277 504.209 506.395 504.083 505.693 504.083C504.433 504.083 503.065 504.461 503.065 505.721ZM511.506 503.921C511.506 500.771 513.936 499.349 516.186 499.349C517.158 499.349 518.112 499.565 518.85 500.051V501.455C518.202 500.951 517.284 500.681 516.366 500.681C514.692 500.681 512.946 501.617 512.946 503.885C512.946 506.099 514.638 507.089 516.33 507.089C517.266 507.089 518.22 506.819 518.94 506.387V507.827C518.13 508.223 517.212 508.421 516.132 508.421C513.864 508.421 511.506 506.999 511.506 503.921ZM520.977 495.605H522.417V500.663C523.029 499.979 524.109 499.349 525.387 499.349C527.457 499.349 528.987 500.771 528.987 502.877V508.205H527.547V503.057C527.547 501.437 526.557 500.681 525.225 500.681C523.947 500.681 522.993 501.545 522.417 502.409V508.205H520.977V495.605ZM541.993 499.565H543.595L539.779 508.205H538.267L534.451 499.565H536.053L539.023 506.585L541.993 499.565ZM546.658 508.205H545.218V499.565H546.658V508.205ZM546.874 496.811C546.874 497.423 546.442 497.729 545.938 497.729C545.434 497.729 545.002 497.423 545.002 496.811C545.002 496.217 545.434 495.893 545.938 495.893C546.442 495.893 546.874 496.217 546.874 496.811ZM548.861 501.833C548.861 500.051 550.535 499.349 552.155 499.349C553.307 499.349 554.405 499.655 555.215 500.087V501.455C554.495 500.987 553.289 500.645 552.245 500.645C551.309 500.645 550.319 500.951 550.319 501.797C550.319 503.669 555.809 502.877 555.809 505.991C555.809 507.791 554.117 508.421 552.245 508.421C551.021 508.421 549.707 508.097 548.897 507.575V506.171C549.779 506.765 551.093 507.089 552.173 507.089C553.397 507.089 554.369 506.891 554.369 506.027C554.369 504.209 548.861 504.929 548.861 501.833ZM559.226 508.205H557.786V499.565H559.226V508.205ZM559.442 496.811C559.442 497.423 559.01 497.729 558.506 497.729C558.002 497.729 557.57 497.423 557.57 496.811C557.57 496.217 558.002 495.893 558.506 495.893C559.01 495.893 559.442 496.217 559.442 496.811ZM562.51 496.883L563.932 496.523V499.565H567.388V500.897H563.932V505.361C563.932 506.675 564.526 507.071 565.786 507.071C566.47 507.071 567.118 506.909 567.694 506.675V508.007C567.046 508.241 566.2 508.403 565.372 508.403C563.698 508.403 562.51 507.503 562.51 505.613V500.897H560.89V499.565H562.51V496.883ZM585.031 504.425H573.619V503.057H585.031V504.425ZM275.581 523.843C276.157 523.087 277.309 522.349 278.695 522.349C280.765 522.349 282.295 523.771 282.295 525.877V531.205H280.855V526.057C280.855 524.437 279.865 523.681 278.533 523.681C277.255 523.681 276.301 524.545 275.725 525.409V531.205H274.285V522.565H275.581V523.843ZM284.256 526.885C284.256 523.933 286.524 522.349 288.864 522.349C291.222 522.349 293.472 523.933 293.472 526.885C293.472 529.837 291.222 531.421 288.864 531.421C286.524 531.421 284.256 529.837 284.256 526.885ZM292.032 526.885C292.032 524.887 290.628 523.717 288.864 523.717C287.1 523.717 285.696 524.887 285.696 526.885C285.696 528.883 287.1 530.053 288.864 530.053C290.628 530.053 292.032 528.883 292.032 526.885ZM299.426 526.885C299.426 524.293 301.28 522.349 303.746 522.349C305.402 522.349 306.464 523.123 307.238 524.005V522.565H308.534V531.205C308.534 534.175 306.212 535.381 303.818 535.381C302.54 535.381 301.333 535.093 300.308 534.571V533.167C301.333 533.743 302.45 534.049 303.638 534.049C305.474 534.049 307.112 533.347 307.094 531.205V529.873C306.464 530.647 305.402 531.421 303.746 531.421C301.28 531.421 299.426 529.477 299.426 526.885ZM307.094 525.805C306.608 524.689 305.456 523.681 303.908 523.681C302.234 523.681 300.866 524.905 300.866 526.885C300.866 528.865 302.234 530.089 303.908 530.089C305.456 530.089 306.608 529.153 307.094 528.145V525.805ZM317.661 522.565H319.101V531.205H317.805V529.927C317.229 530.683 316.077 531.421 314.691 531.421C312.441 531.421 311.091 529.999 311.091 527.893V522.565H312.531V527.713C312.531 529.333 313.341 530.089 314.853 530.089C316.131 530.089 317.085 529.225 317.661 528.361V522.565ZM321.17 526.885C321.17 523.861 323.42 522.349 325.472 522.349C328.802 522.349 330.026 525.067 329.486 527.515H322.61C322.79 529.333 324.428 530.089 326.174 530.089C327.236 530.089 328.28 529.801 329.018 529.387V530.791C328.226 531.205 327.092 531.421 325.958 531.421C323.402 531.421 321.17 529.963 321.17 526.885ZM328.208 526.255C328.334 525.337 327.758 523.681 325.562 523.681C324.086 523.681 322.718 524.563 322.61 526.255H328.208ZM331.121 524.833C331.121 523.051 332.795 522.349 334.415 522.349C335.567 522.349 336.665 522.655 337.475 523.087V524.455C336.755 523.987 335.549 523.645 334.505 523.645C333.569 523.645 332.579 523.951 332.579 524.797C332.579 526.669 338.069 525.877 338.069 528.991C338.069 530.791 336.377 531.421 334.505 531.421C333.281 531.421 331.967 531.097 331.157 530.575V529.171C332.039 529.765 333.353 530.089 334.433 530.089C335.657 530.089 336.629 529.891 336.629 529.027C336.629 527.209 331.121 527.929 331.121 524.833ZM339.506 524.833C339.506 523.051 341.18 522.349 342.8 522.349C343.952 522.349 345.05 522.655 345.86 523.087V524.455C345.14 523.987 343.934 523.645 342.89 523.645C341.954 523.645 340.964 523.951 340.964 524.797C340.964 526.669 346.454 525.877 346.454 528.991C346.454 530.791 344.762 531.421 342.89 531.421C341.666 531.421 340.352 531.097 339.542 530.575V529.171C340.424 529.765 341.738 530.089 342.818 530.089C344.042 530.089 345.014 529.891 345.014 529.027C345.014 527.209 339.506 527.929 339.506 524.833ZM359.45 522.565H360.962L358.01 531.205H356.444L354.104 524.527L351.764 531.205H350.198L347.246 522.565H348.758L350.99 529.621L353.456 522.565H354.752L357.218 529.621L359.45 522.565ZM361.845 526.885C361.845 523.933 364.113 522.349 366.453 522.349C368.811 522.349 371.061 523.933 371.061 526.885C371.061 529.837 368.811 531.421 366.453 531.421C364.113 531.421 361.845 529.837 361.845 526.885ZM369.621 526.885C369.621 524.887 368.217 523.717 366.453 523.717C364.689 523.717 363.285 524.887 363.285 526.885C363.285 528.883 364.689 530.053 366.453 530.053C368.217 530.053 369.621 528.883 369.621 526.885ZM374.423 524.095C375.107 522.961 376.637 522.259 378.149 522.385V523.825C376.457 523.627 375.089 524.437 374.567 525.823V531.205H373.127V522.565H374.423V524.095ZM387.711 531.205H386.019L382.851 527.497H381.159V531.205H379.719V518.605H381.159V526.165H382.905L385.641 522.565H387.315L384.039 526.867L387.711 531.205ZM389.321 533.905H388.151L389.141 529.765H390.671L389.321 533.905ZM399.089 532.807C399.089 534.841 397.775 535.381 396.605 535.381C396.083 535.381 395.633 535.291 395.273 535.147V533.815C395.561 533.959 395.885 534.013 396.209 534.013C396.965 534.013 397.649 533.725 397.649 532.591V522.565H399.089V532.807ZM399.305 519.811C399.305 520.423 398.873 520.729 398.369 520.729C397.865 520.729 397.415 520.423 397.415 519.811C397.415 519.217 397.865 518.893 398.369 518.893C398.873 518.893 399.305 519.217 399.305 519.811ZM408.259 522.565H409.699V531.205H408.403V529.927C407.827 530.683 406.675 531.421 405.289 531.421C403.039 531.421 401.689 529.999 401.689 527.893V522.565H403.129V527.713C403.129 529.333 403.939 530.089 405.451 530.089C406.729 530.089 407.683 529.225 408.259 528.361V522.565ZM411.857 524.833C411.857 523.051 413.531 522.349 415.151 522.349C416.303 522.349 417.401 522.655 418.211 523.087V524.455C417.491 523.987 416.285 523.645 415.241 523.645C414.305 523.645 413.315 523.951 413.315 524.797C413.315 526.669 418.805 525.877 418.805 528.991C418.805 530.791 417.113 531.421 415.241 531.421C414.017 531.421 412.703 531.097 411.893 530.575V529.171C412.775 529.765 414.089 530.089 415.169 530.089C416.393 530.089 417.365 529.891 417.365 529.027C417.365 527.209 411.857 527.929 411.857 524.833ZM421.322 519.883L422.744 519.523V522.565H426.2V523.897H422.744V528.361C422.744 529.675 423.338 530.071 424.598 530.071C425.282 530.071 425.93 529.909 426.506 529.675V531.007C425.858 531.241 425.012 531.403 424.184 531.403C422.51 531.403 421.322 530.503 421.322 528.613V523.897H419.702V522.565H421.322V519.883ZM439.685 518.605H441.125V531.205H439.829V529.765C439.055 530.647 437.993 531.421 436.337 531.421C433.871 531.421 432.017 529.477 432.017 526.885C432.017 524.293 433.871 522.349 436.337 522.349C437.993 522.349 439.055 523.123 439.685 523.861V518.605ZM439.685 525.805C439.199 524.689 438.047 523.681 436.499 523.681C434.825 523.681 433.457 524.905 433.457 526.885C433.457 528.865 434.825 530.089 436.499 530.089C438.047 530.089 439.199 529.081 439.685 527.965V525.805ZM450.811 529.405C450.811 529.927 451.099 530.071 451.477 530.071C451.693 530.071 451.927 530.017 452.143 529.945V531.115C451.801 531.241 451.423 531.313 451.063 531.313C450.361 531.313 449.731 531.025 449.479 530.269C448.615 530.989 447.517 531.421 446.113 531.421C444.583 531.421 443.071 530.611 443.071 528.793C443.071 526.561 445.123 525.877 446.977 525.877C447.733 525.877 448.651 525.985 449.371 526.147V525.841C449.371 524.545 448.489 523.681 446.905 523.681C445.573 523.681 444.511 524.005 443.755 524.329V522.925C444.439 522.691 445.627 522.349 447.049 522.349C449.353 522.349 450.811 523.609 450.811 526.021V529.405ZM444.547 528.721C444.547 529.729 445.465 530.179 446.419 530.179C447.517 530.179 448.615 529.729 449.371 528.919V527.335C448.759 527.209 447.877 527.083 447.175 527.083C445.915 527.083 444.547 527.461 444.547 528.721ZM454.088 519.883L455.51 519.523V522.565H458.966V523.897H455.51V528.361C455.51 529.675 456.104 530.071 457.364 530.071C458.048 530.071 458.696 529.909 459.272 529.675V531.007C458.624 531.241 457.778 531.403 456.95 531.403C455.276 531.403 454.088 530.503 454.088 528.613V523.897H452.468V522.565H454.088V519.883ZM467.915 529.405C467.915 529.927 468.203 530.071 468.581 530.071C468.797 530.071 469.031 530.017 469.247 529.945V531.115C468.905 531.241 468.527 531.313 468.167 531.313C467.465 531.313 466.835 531.025 466.583 530.269C465.719 530.989 464.621 531.421 463.217 531.421C461.687 531.421 460.175 530.611 460.175 528.793C460.175 526.561 462.227 525.877 464.081 525.877C464.837 525.877 465.755 525.985 466.475 526.147V525.841C466.475 524.545 465.593 523.681 464.009 523.681C462.677 523.681 461.615 524.005 460.859 524.329V522.925C461.543 522.691 462.731 522.349 464.153 522.349C466.457 522.349 467.915 523.609 467.915 526.021V529.405ZM461.651 528.721C461.651 529.729 462.569 530.179 463.523 530.179C464.621 530.179 465.719 529.729 466.475 528.919V527.335C465.863 527.209 464.981 527.083 464.279 527.083C463.019 527.083 461.651 527.461 461.651 528.721ZM481.766 529.405C481.766 529.927 482.054 530.071 482.432 530.071C482.648 530.071 482.882 530.017 483.098 529.945V531.115C482.756 531.241 482.378 531.313 482.018 531.313C481.316 531.313 480.686 531.025 480.434 530.269C479.57 530.989 478.472 531.421 477.068 531.421C475.538 531.421 474.026 530.611 474.026 528.793C474.026 526.561 476.078 525.877 477.932 525.877C478.688 525.877 479.606 525.985 480.326 526.147V525.841C480.326 524.545 479.444 523.681 477.86 523.681C476.528 523.681 475.466 524.005 474.71 524.329V522.925C475.394 522.691 476.582 522.349 478.004 522.349C480.308 522.349 481.766 523.609 481.766 526.021V529.405ZM475.502 528.721C475.502 529.729 476.42 530.179 477.374 530.179C478.472 530.179 479.57 529.729 480.326 528.919V527.335C479.714 527.209 478.832 527.083 478.13 527.083C476.87 527.083 475.502 527.461 475.502 528.721ZM485.833 523.843C486.409 523.087 487.561 522.349 488.947 522.349C491.017 522.349 492.547 523.771 492.547 525.877V531.205H491.107V526.057C491.107 524.437 490.117 523.681 488.785 523.681C487.507 523.681 486.553 524.545 485.977 525.409V531.205H484.537V522.565H485.833V523.843ZM502.176 518.605H503.616V531.205H502.32V529.765C501.546 530.647 500.484 531.421 498.828 531.421C496.362 531.421 494.508 529.477 494.508 526.885C494.508 524.293 496.362 522.349 498.828 522.349C500.484 522.349 501.546 523.123 502.176 523.861V518.605ZM502.176 525.805C501.69 524.689 500.538 523.681 498.99 523.681C497.316 523.681 495.948 524.905 495.948 526.885C495.948 528.865 497.316 530.089 498.99 530.089C500.538 530.089 501.69 529.081 502.176 527.965V525.805ZM512.87 531.205H511.43V523.897H509.81V522.565H511.43V521.521C511.43 519.109 512.978 518.389 514.49 518.389C515.282 518.389 516.056 518.551 516.65 518.785V520.117C516.164 519.883 515.48 519.721 514.832 519.721C513.788 519.721 512.87 519.991 512.87 521.575V522.565H516.11V523.897H512.87V531.205ZM524.551 529.405C524.551 529.927 524.839 530.071 525.217 530.071C525.433 530.071 525.667 530.017 525.883 529.945V531.115C525.541 531.241 525.163 531.313 524.803 531.313C524.101 531.313 523.471 531.025 523.219 530.269C522.355 530.989 521.257 531.421 519.853 531.421C518.323 531.421 516.811 530.611 516.811 528.793C516.811 526.561 518.863 525.877 520.717 525.877C521.473 525.877 522.391 525.985 523.111 526.147V525.841C523.111 524.545 522.229 523.681 520.645 523.681C519.313 523.681 518.251 524.005 517.495 524.329V522.925C518.179 522.691 519.367 522.349 520.789 522.349C523.093 522.349 524.551 523.609 524.551 526.021V529.405ZM518.287 528.721C518.287 529.729 519.205 530.179 520.159 530.179C521.257 530.179 522.355 529.729 523.111 528.919V527.335C522.499 527.209 521.617 527.083 520.915 527.083C519.655 527.083 518.287 527.461 518.287 528.721ZM526.728 526.921C526.728 523.771 529.158 522.349 531.408 522.349C532.38 522.349 533.334 522.565 534.072 523.051V524.455C533.424 523.951 532.506 523.681 531.588 523.681C529.914 523.681 528.168 524.617 528.168 526.885C528.168 529.099 529.86 530.089 531.552 530.089C532.488 530.089 533.442 529.819 534.162 529.387V530.827C533.352 531.223 532.434 531.421 531.354 531.421C529.086 531.421 526.728 529.999 526.728 526.921ZM536.775 519.883L538.197 519.523V522.565H541.653V523.897H538.197V528.361C538.197 529.675 538.791 530.071 540.051 530.071C540.735 530.071 541.383 529.909 541.959 529.675V531.007C541.311 531.241 540.465 531.403 539.637 531.403C537.963 531.403 536.775 530.503 536.775 528.613V523.897H535.155V522.565H536.775V519.883ZM543.078 524.833C543.078 523.051 544.752 522.349 546.372 522.349C547.524 522.349 548.622 522.655 549.432 523.087V524.455C548.712 523.987 547.506 523.645 546.462 523.645C545.526 523.645 544.536 523.951 544.536 524.797C544.536 526.669 550.026 525.877 550.026 528.991C550.026 530.791 548.334 531.421 546.462 531.421C545.238 531.421 543.924 531.097 543.114 530.575V529.171C543.996 529.765 545.31 530.089 546.39 530.089C547.614 530.089 548.586 529.891 548.586 529.027C548.586 527.209 543.078 527.929 543.078 524.833ZM553.515 530.449C553.515 531.061 553.083 531.367 552.579 531.367C552.075 531.367 551.625 531.061 551.625 530.449C551.625 529.855 552.075 529.549 552.579 529.549C553.083 529.549 553.515 529.855 553.515 530.449Z" fill="#98C2FA"/>
</svg>
