<svg width="695" height="583" viewBox="0 0 695 583" fill="none" xmlns="http://www.w3.org/2000/svg">
<circle cx="279.262" cy="168" r="5" fill="#5AD274"/>
<g filter="url(#filter0_d_516_446)">
<circle cx="279.262" cy="168" r="9.375" stroke="#5AD274" stroke-width="1.25" shape-rendering="crispEdges"/>
</g>
<path d="M210.541 136.637L198.003 136.714L185.459 136.637L73.6309 136.637C70.2451 136.637 67.5002 133.893 67.5 130.507L67.5 6.63086C67.5 3.24492 70.2449 0.5 73.6309 0.5L322.369 0.499989C325.755 0.499989 328.5 3.24491 328.5 6.63085L328.5 130.507C328.5 133.893 325.755 136.637 322.369 136.637L296.559 136.637C294.481 136.637 292.506 137.544 291.151 139.119L284.523 146.827C282.077 149.672 277.673 149.672 275.227 146.827L268.599 139.119C267.244 137.544 265.269 136.637 263.191 136.637L210.541 136.637Z" fill="#11183C" stroke="white"/>
<rect x="82" y="18" width="42" height="42" rx="4.46809" fill="#1A3043"/>
<path d="M111.377 29.7848C111.377 29.1184 111.112 28.4796 110.64 28.0084C110.169 27.5372 109.53 27.2722 108.864 27.2715H97.1354C96.469 27.2722 95.8301 27.5372 95.359 28.0084C94.8878 28.4796 94.6228 29.1184 94.6221 29.7848V48.2156C94.6228 48.882 94.8878 49.5209 95.359 49.992C95.8301 50.4632 96.469 50.7282 97.1354 50.7289H108.864C109.53 50.7282 110.169 50.4632 110.64 49.992C111.112 49.5209 111.377 48.882 111.377 48.2156V29.7848ZM98.392 48.2156C98.1435 48.2156 97.9005 48.1419 97.6939 48.0039C97.4872 47.8658 97.3261 47.6695 97.231 47.4399C97.1359 47.2103 97.111 46.9576 97.1595 46.7138C97.208 46.4701 97.3277 46.2461 97.5034 46.0704C97.6792 45.8947 97.9031 45.775 98.1469 45.7265C98.3906 45.678 98.6433 45.7029 98.8729 45.798C99.1025 45.8931 99.2988 46.0542 99.4369 46.2608C99.575 46.4675 99.6487 46.7104 99.6487 46.959C99.6487 47.2923 99.5163 47.6119 99.2806 47.8476C99.0449 48.0832 98.7253 48.2156 98.392 48.2156ZM98.392 44.0268C98.1435 44.0268 97.9005 43.9531 97.6939 43.815C97.4872 43.6769 97.3261 43.4807 97.231 43.2511C97.1359 43.0214 97.111 42.7688 97.1595 42.525C97.208 42.2812 97.3277 42.0573 97.5034 41.8816C97.6792 41.7058 97.9031 41.5861 98.1469 41.5377C98.3906 41.4892 98.6433 41.5141 98.8729 41.6092C99.1025 41.7043 99.2988 41.8653 99.4369 42.072C99.575 42.2787 99.6487 42.5216 99.6487 42.7702C99.6487 43.1034 99.5163 43.4231 99.2806 43.6587C99.0449 43.8944 98.7253 44.0268 98.392 44.0268ZM98.392 39.838C98.1435 39.838 97.9005 39.7643 97.6939 39.6262C97.4872 39.4881 97.3261 39.2918 97.231 39.0622C97.1359 38.8326 97.111 38.5799 97.1595 38.3362C97.208 38.0924 97.3277 37.8685 97.5034 37.6927C97.6792 37.517 97.9031 37.3973 98.1469 37.3488C98.3906 37.3003 98.6433 37.3252 98.8729 37.4203C99.1025 37.5154 99.2988 37.6765 99.4369 37.8832C99.575 38.0898 99.6487 38.3328 99.6487 38.5813C99.6487 38.9146 99.5163 39.2342 99.2806 39.4699C99.0449 39.7056 98.7253 39.838 98.392 39.838ZM103 48.2156C102.751 48.2156 102.508 48.1419 102.302 48.0039C102.095 47.8658 101.934 47.6695 101.839 47.4399C101.744 47.2103 101.719 46.9576 101.767 46.7138C101.816 46.4701 101.935 46.2461 102.111 46.0704C102.287 45.8947 102.511 45.775 102.755 45.7265C102.998 45.678 103.251 45.7029 103.481 45.798C103.71 45.8931 103.907 46.0542 104.045 46.2608C104.183 46.4675 104.256 46.7104 104.256 46.959C104.256 47.2923 104.124 47.6119 103.888 47.8476C103.653 48.0832 103.333 48.2156 103 48.2156ZM103 44.0268C102.751 44.0268 102.508 43.9531 102.302 43.815C102.095 43.6769 101.934 43.4807 101.839 43.2511C101.744 43.0214 101.719 42.7688 101.767 42.525C101.816 42.2812 101.935 42.0573 102.111 41.8816C102.287 41.7058 102.511 41.5861 102.755 41.5377C102.998 41.4892 103.251 41.5141 103.481 41.6092C103.71 41.7043 103.907 41.8653 104.045 42.072C104.183 42.2787 104.256 42.5216 104.256 42.7702C104.256 43.1034 104.124 43.4231 103.888 43.6587C103.653 43.8944 103.333 44.0268 103 44.0268ZM103 39.838C102.751 39.838 102.508 39.7643 102.302 39.6262C102.095 39.4881 101.934 39.2918 101.839 39.0622C101.744 38.8326 101.719 38.5799 101.767 38.3362C101.816 38.0924 101.935 37.8685 102.111 37.6927C102.287 37.517 102.511 37.3973 102.755 37.3488C102.998 37.3003 103.251 37.3252 103.481 37.4203C103.71 37.5154 103.907 37.6765 104.045 37.8832C104.183 38.0898 104.256 38.3328 104.256 38.5813C104.256 38.9146 104.124 39.2342 103.888 39.4699C103.653 39.7056 103.333 39.838 103 39.838ZM108.864 46.959C108.864 47.2923 108.732 47.6119 108.496 47.8476C108.26 48.0832 107.941 48.2156 107.607 48.2156C107.274 48.2156 106.955 48.0832 106.719 47.8476C106.483 47.6119 106.351 47.2923 106.351 46.959V42.7702C106.351 42.4369 106.483 42.1172 106.719 41.8816C106.955 41.6459 107.274 41.5135 107.607 41.5135C107.941 41.5135 108.26 41.6459 108.496 41.8816C108.732 42.1172 108.864 42.4369 108.864 42.7702V46.959ZM107.607 39.838C107.359 39.838 107.116 39.7643 106.909 39.6262C106.703 39.4881 106.542 39.2918 106.446 39.0622C106.351 38.8326 106.326 38.5799 106.375 38.3362C106.423 38.0924 106.543 37.8685 106.719 37.6927C106.895 37.517 107.119 37.3973 107.362 37.3488C107.606 37.3003 107.859 37.3252 108.088 37.4203C108.318 37.5154 108.514 37.6765 108.652 37.8832C108.79 38.0898 108.864 38.3328 108.864 38.5813C108.864 38.9146 108.732 39.2342 108.496 39.4699C108.26 39.7056 107.941 39.838 107.607 39.838ZM108.619 34.5658C108.461 34.7229 108.248 34.8113 108.026 34.8114H97.9731C97.7509 34.8114 97.5379 34.7231 97.3807 34.566C97.2236 34.4089 97.1354 34.1958 97.1354 33.9736V30.6225C97.1354 30.4004 97.2236 30.1873 97.3807 30.0302C97.5379 29.873 97.7509 29.7848 97.9731 29.7848H108.026C108.249 29.7848 108.462 29.873 108.619 30.0302C108.776 30.1873 108.864 30.4004 108.864 30.6225V33.9736C108.864 34.1958 108.776 34.4088 108.619 34.5658Z" fill="#5AD274"/>
<path d="M135.7 19H145.36V21.1H137.98V25.2H144.78V27.32H137.98V33H135.7V19ZM154.79 30.78C154.79 31.32 155.11 31.48 155.49 31.48C155.71 31.48 155.93 31.42 156.13 31.36V32.9C155.73 33.06 155.25 33.14 154.77 33.14C153.89 33.14 153.19 32.8 152.85 32.02C151.91 32.78 150.73 33.26 149.23 33.26C147.49 33.26 145.87 32.3 145.87 30.32C145.87 27.86 148.15 27.1 150.15 27.1C150.97 27.1 151.89 27.22 152.65 27.38V27.04C152.65 25.84 151.77 25 150.13 25C148.71 25 147.53 25.36 146.67 25.74V23.78C147.43 23.52 148.81 23.14 150.35 23.14C153.07 23.14 154.79 24.44 154.79 27.34V30.78ZM150.57 28.6C149.35 28.6 148.07 28.98 148.07 30.18C148.07 31.12 148.91 31.6 149.87 31.6C150.89 31.6 151.89 31.22 152.65 30.46V28.84C152.07 28.72 151.25 28.6 150.57 28.6ZM157.106 26C157.106 23.9 159.026 23.14 160.926 23.14C162.246 23.14 163.446 23.48 164.386 23.96V25.84C163.586 25.3 162.206 24.9 161.066 24.9C160.206 24.9 159.286 25.16 159.286 25.94C159.286 27.8 165.066 26.94 165.066 30.44C165.066 32.56 163.106 33.26 160.926 33.26C159.526 33.26 158.106 32.92 157.166 32.34V30.44C158.166 31.1 159.626 31.46 160.826 31.46C162.026 31.46 162.906 31.26 162.906 30.48C162.906 28.7 157.106 29.44 157.106 26ZM167.7 20.5L169.82 19.98V23.4H173.3V25.28H169.82V29.68C169.82 30.94 170.4 31.36 171.64 31.36C172.34 31.36 172.98 31.22 173.58 30.98V32.82C172.86 33.08 171.94 33.24 171 33.24C169.14 33.24 167.7 32.32 167.7 30.08V25.28H165.98V23.4H167.7V20.5ZM179.547 26C179.547 23.9 181.467 23.14 183.367 23.14C184.687 23.14 185.887 23.48 186.827 23.96V25.84C186.027 25.3 184.647 24.9 183.507 24.9C182.647 24.9 181.727 25.16 181.727 25.94C181.727 27.8 187.507 26.94 187.507 30.44C187.507 32.56 185.547 33.26 183.367 33.26C181.967 33.26 180.547 32.92 179.607 32.34V30.44C180.607 31.1 182.067 31.46 183.267 31.46C184.467 31.46 185.347 31.26 185.347 30.48C185.347 28.7 179.547 29.44 179.547 26ZM188.842 28.2C188.842 24.72 191.482 23.14 193.702 23.14C197.522 23.14 198.842 26.22 198.222 29H191.002C191.242 30.72 192.922 31.44 194.682 31.44C195.842 31.44 196.902 31.16 197.722 30.76V32.6C196.842 33.02 195.622 33.26 194.282 33.26C191.342 33.26 188.842 31.58 188.842 28.2ZM196.302 27.4C196.422 26.56 195.902 24.92 193.802 24.92C192.362 24.92 191.062 25.78 190.982 27.4H196.302ZM201.099 20.5L203.219 19.98V23.4H206.699V25.28H203.219V29.68C203.219 30.94 203.799 31.36 205.039 31.36C205.739 31.36 206.379 31.22 206.979 30.98V32.82C206.259 33.08 205.339 33.24 204.399 33.24C202.539 33.24 201.099 32.32 201.099 30.08V25.28H199.379V23.4H201.099V20.5ZM215.679 23.4H217.819V33H215.919V31.68C215.219 32.52 214.039 33.26 212.579 33.26C210.039 33.26 208.619 31.62 208.619 29.34V23.4H210.759V29.06C210.759 30.62 211.579 31.36 212.999 31.36C214.219 31.36 215.139 30.54 215.679 29.76V23.4ZM222.396 24.9C223.156 23.98 224.296 23.14 226.096 23.14C228.976 23.14 230.856 25.44 230.856 28.2C230.856 30.96 228.976 33.26 226.096 33.26C224.416 33.26 223.296 32.52 222.636 31.76V37.4H220.496V23.4H222.396V24.9ZM228.676 28.2C228.676 26.32 227.436 25.02 225.696 25.02C224.216 25.02 223.096 25.98 222.636 27.02V29.36C223.096 30.42 224.216 31.38 225.696 31.38C227.436 31.38 228.676 30.08 228.676 28.2ZM233.343 35.96H231.603L232.783 31H235.043L233.343 35.96ZM241.595 28.28C241.595 24.7 244.335 23.14 246.895 23.14C247.975 23.14 249.015 23.38 249.855 23.88V25.84C249.155 25.34 248.175 25.04 247.195 25.04C245.495 25.04 243.775 25.94 243.775 28.2C243.775 30.38 245.435 31.36 247.155 31.36C248.175 31.36 249.195 31.06 249.955 30.62V32.6C249.035 33.04 247.995 33.26 246.775 33.26C244.215 33.26 241.595 31.7 241.595 28.28ZM252.079 18.4H254.219V33H252.079V18.4ZM256.342 28.2C256.342 24.72 258.982 23.14 261.202 23.14C265.022 23.14 266.342 26.22 265.722 29H258.502C258.742 30.72 260.422 31.44 262.182 31.44C263.342 31.44 264.402 31.16 265.222 30.76V32.6C264.342 33.02 263.122 33.26 261.782 33.26C258.842 33.26 256.342 31.58 256.342 28.2ZM263.802 27.4C263.922 26.56 263.402 24.92 261.302 24.92C259.862 24.92 258.562 25.78 258.482 27.4H263.802ZM276.079 30.78C276.079 31.32 276.399 31.48 276.779 31.48C276.999 31.48 277.219 31.42 277.419 31.36V32.9C277.019 33.06 276.539 33.14 276.059 33.14C275.179 33.14 274.479 32.8 274.139 32.02C273.199 32.78 272.019 33.26 270.519 33.26C268.779 33.26 267.159 32.3 267.159 30.32C267.159 27.86 269.439 27.1 271.439 27.1C272.259 27.1 273.179 27.22 273.939 27.38V27.04C273.939 25.84 273.059 25 271.419 25C269.999 25 268.819 25.36 267.959 25.74V23.78C268.719 23.52 270.099 23.14 271.639 23.14C274.359 23.14 276.079 24.44 276.079 27.34V30.78ZM271.859 28.6C270.639 28.6 269.359 28.98 269.359 30.18C269.359 31.12 270.199 31.6 271.159 31.6C272.179 31.6 273.179 31.22 273.939 30.46V28.84C273.359 28.72 272.539 28.6 271.859 28.6ZM280.795 24.98C281.535 23.8 283.095 23.04 284.835 23.2V25.3C283.115 25.06 281.615 25.82 281.035 27.18V33H278.895V23.4H280.795V24.98ZM137.24 48.98C137.98 47.8 139.54 47.04 141.28 47.2V49.3C139.56 49.06 138.06 49.82 137.48 51.18V57H135.34V47.4H137.24V48.98ZM142.045 52.2C142.045 48.72 144.685 47.14 146.905 47.14C150.725 47.14 152.045 50.22 151.425 53H144.205C144.445 54.72 146.125 55.44 147.885 55.44C149.045 55.44 150.105 55.16 150.925 54.76V56.6C150.045 57.02 148.825 57.26 147.485 57.26C144.545 57.26 142.045 55.58 142.045 52.2ZM149.505 51.4C149.625 50.56 149.105 48.92 147.005 48.92C145.565 48.92 144.265 49.78 144.185 51.4H149.505ZM155.502 48.9C156.262 47.98 157.402 47.14 159.202 47.14C162.082 47.14 163.962 49.44 163.962 52.2C163.962 54.96 162.082 57.26 159.202 57.26C157.522 57.26 156.402 56.52 155.742 55.76V61.4H153.602V47.4H155.502V48.9ZM161.782 52.2C161.782 50.32 160.542 49.02 158.802 49.02C157.322 49.02 156.202 49.98 155.742 51.02V53.36C156.202 54.42 157.322 55.38 158.802 55.38C160.542 55.38 161.782 54.08 161.782 52.2ZM165.443 52.2C165.443 48.88 167.963 47.14 170.643 47.14C173.343 47.14 175.843 48.88 175.843 52.2C175.843 55.52 173.343 57.26 170.643 57.26C167.963 57.26 165.443 55.52 165.443 52.2ZM173.663 52.2C173.663 50.32 172.423 49.1 170.643 49.1C168.843 49.1 167.603 50.32 167.603 52.2C167.603 54.08 168.843 55.3 170.643 55.3C172.423 55.3 173.663 54.08 173.663 52.2ZM179.818 48.98C180.558 47.8 182.118 47.04 183.858 47.2V49.3C182.138 49.06 180.638 49.82 180.058 51.18V57H177.918V47.4H179.818V48.98ZM186.177 44.5L188.297 43.98V47.4H191.777V49.28H188.297V53.68C188.297 54.94 188.877 55.36 190.117 55.36C190.817 55.36 191.457 55.22 192.057 54.98V56.82C191.337 57.08 190.417 57.24 189.477 57.24C187.617 57.24 186.177 56.32 186.177 54.08V49.28H184.457V47.4H186.177V44.5ZM195.977 57H193.837V47.4H195.977V57ZM196.217 44.28C196.217 45.16 195.617 45.56 194.917 45.56C194.217 45.56 193.597 45.16 193.597 44.28C193.597 43.44 194.217 43.02 194.917 43.02C195.617 43.02 196.217 43.44 196.217 44.28ZM200.599 48.72C201.299 47.88 202.479 47.14 203.939 47.14C206.359 47.14 207.899 48.78 207.899 51.06V57H205.759V51.34C205.759 49.78 204.799 49.04 203.519 49.04C202.299 49.04 201.379 49.86 200.839 50.64V57H198.699V47.4H200.599V48.72ZM209.857 52.2C209.857 49.44 211.717 47.14 214.617 47.14C216.417 47.14 217.557 47.98 218.297 48.9V47.4H220.217V56.88C220.217 60.34 217.577 61.66 214.837 61.66C213.377 61.66 212.017 61.34 210.877 60.76V58.8C211.977 59.44 213.257 59.78 214.557 59.78C216.457 59.78 218.077 59.1 218.077 56.94V55.72C217.417 56.5 216.297 57.26 214.617 57.26C211.717 57.26 209.857 54.96 209.857 52.2ZM218.057 51.02C217.597 49.98 216.497 49.02 214.997 49.02C213.277 49.02 212.017 50.32 212.017 52.2C212.017 54.08 213.277 55.38 214.997 55.38C216.497 55.38 217.597 54.48 218.057 53.5V51.02Z" fill="white"/>
<path d="M82.7 74.622C82.7 72.872 84.282 72.032 86.06 72.032C87.138 72.032 88.244 72.298 89.028 72.746V73.922C88.244 73.418 87.152 73.138 86.144 73.152C84.856 73.152 83.89 73.53 83.89 74.58C83.89 77.058 89.728 75.994 89.728 79.508C89.728 81.454 87.978 82.182 86.102 82.168C84.828 82.168 83.694 81.86 82.742 81.328V80.152C83.778 80.782 84.898 81.048 86.018 81.048C87.376 81.048 88.538 80.698 88.538 79.592C88.538 76.96 82.7 78.066 82.7 74.622ZM92.3735 82H91.2535V75.28H92.3735V82ZM92.5415 73.138C92.5415 73.614 92.2055 73.852 91.8135 73.852C91.4215 73.852 91.0855 73.614 91.0855 73.138C91.0855 72.676 91.4215 72.424 91.8135 72.424C92.2055 72.424 92.5415 72.676 92.5415 73.138ZM95.5994 82H94.4794V75.28H95.4874V76.176C95.8514 75.784 96.6494 75.112 97.7834 75.112C98.7914 75.112 99.5334 75.546 99.9394 76.246C100.541 75.63 101.367 75.112 102.389 75.112C104.055 75.112 104.951 76.288 104.951 77.856V82H103.831V77.828C103.831 76.806 103.243 76.148 102.263 76.148C101.353 76.148 100.681 76.778 100.303 77.254C100.331 77.45 100.345 77.646 100.345 77.856V82H99.2254V77.828C99.2254 76.806 98.6374 76.148 97.6574 76.148C96.6634 76.148 95.9634 76.89 95.5994 77.366V82ZM107.942 76.4C108.544 75.714 109.37 75.112 110.658 75.112C112.576 75.112 114.018 76.624 114.018 78.64C114.018 80.656 112.576 82.168 110.658 82.168C109.37 82.168 108.544 81.566 108.054 80.992V85.08H106.934V75.28H107.942V76.4ZM112.898 78.64C112.898 77.1 111.834 76.148 110.532 76.148C109.328 76.148 108.432 76.932 108.054 77.8V79.48C108.432 80.348 109.328 81.132 110.532 81.132C111.834 81.132 112.898 80.18 112.898 78.64ZM115.658 71.78H116.778V82H115.658V71.78ZM118.422 78.64C118.422 76.288 120.172 75.112 121.768 75.112C124.358 75.112 125.31 77.226 124.89 79.13H119.542C119.682 80.544 120.956 81.132 122.314 81.132C123.14 81.132 123.952 80.908 124.526 80.586V81.678C123.91 82 123.028 82.168 122.146 82.168C120.158 82.168 118.422 81.034 118.422 78.64ZM123.896 78.15C123.994 77.436 123.546 76.148 121.838 76.148C120.69 76.148 119.626 76.834 119.542 78.15H123.896ZM129.956 73.236C130.908 72.578 131.958 72.312 133.008 72.312C134.954 72.312 136.256 73.236 136.256 74.86C136.256 76.484 134.898 77.422 133.568 78.206C132.238 78.99 130.936 79.634 130.908 80.894L136.326 80.88V82H129.62V81.44C129.62 79.116 131.328 78.234 132.812 77.366C134.002 76.666 135.08 76.078 135.08 74.846C135.08 73.908 134.282 73.404 132.91 73.404C131.944 73.404 130.936 73.726 129.956 74.412V73.236ZM137.433 77.996H142.431V79.06H137.433V77.996ZM145.488 82H144.368V75.28H145.376V76.176C145.74 75.784 146.538 75.112 147.672 75.112C148.68 75.112 149.422 75.546 149.828 76.246C150.43 75.63 151.256 75.112 152.278 75.112C153.944 75.112 154.84 76.288 154.84 77.856V82H153.72V77.828C153.72 76.806 153.132 76.148 152.152 76.148C151.242 76.148 150.57 76.778 150.192 77.254C150.22 77.45 150.234 77.646 150.234 77.856V82H149.114V77.828C149.114 76.806 148.526 76.148 147.546 76.148C146.552 76.148 145.852 76.89 145.488 77.366V82ZM157.971 82H156.851V75.28H157.971V82ZM158.139 73.138C158.139 73.614 157.803 73.852 157.411 73.852C157.019 73.852 156.683 73.614 156.683 73.138C156.683 72.676 157.019 72.424 157.411 72.424C157.803 72.424 158.139 72.676 158.139 73.138ZM161.085 76.274C161.533 75.686 162.429 75.112 163.507 75.112C165.117 75.112 166.307 76.218 166.307 77.856V82H165.187V77.996C165.187 76.736 164.417 76.148 163.381 76.148C162.387 76.148 161.645 76.82 161.197 77.492V82H160.077V75.28H161.085V76.274ZM173.32 75.28H174.44V82H173.432V81.006C172.984 81.594 172.088 82.168 171.01 82.168C169.26 82.168 168.21 81.062 168.21 79.424V75.28H169.33V79.284C169.33 80.544 169.96 81.132 171.136 81.132C172.13 81.132 172.872 80.46 173.32 79.788V75.28ZM176.959 73.194L178.065 72.914V75.28H180.753V76.316H178.065V79.788C178.065 80.81 178.527 81.118 179.507 81.118C180.039 81.118 180.543 80.992 180.991 80.81V81.846C180.487 82.028 179.829 82.154 179.185 82.154C177.883 82.154 176.959 81.454 176.959 79.984V76.316H175.699V75.28H176.959V73.194ZM181.791 78.64C181.791 76.288 183.541 75.112 185.137 75.112C187.727 75.112 188.679 77.226 188.259 79.13H182.911C183.051 80.544 184.325 81.132 185.683 81.132C186.509 81.132 187.321 80.908 187.895 80.586V81.678C187.279 82 186.397 82.168 185.515 82.168C183.527 82.168 181.791 81.034 181.791 78.64ZM187.265 78.15C187.363 77.436 186.915 76.148 185.207 76.148C184.059 76.148 182.995 76.834 182.911 78.15H187.265ZM200.647 72.2H201.823V82H200.647V77.646H194.837V82H193.661V72.2H194.837V76.526H200.647V72.2ZM203.301 72.2H211.365V73.32H207.921V82H206.745V73.32H203.301V72.2ZM221.943 72.2H222.951V82H221.775V74.426L218.261 79.69H217.533L214.019 74.426V82H212.843V72.2H213.851L217.897 78.248L221.943 72.2ZM225.53 72.2H226.706V80.88H232.138V82H225.53V72.2ZM237.637 82H236.517V75.28H237.637V82ZM237.805 73.138C237.805 73.614 237.469 73.852 237.077 73.852C236.685 73.852 236.349 73.614 236.349 73.138C236.349 72.676 236.685 72.424 237.077 72.424C237.469 72.424 237.805 72.676 237.805 73.138ZM240.751 76.274C241.199 75.686 242.095 75.112 243.173 75.112C244.783 75.112 245.973 76.218 245.973 77.856V82H244.853V77.996C244.853 76.736 244.083 76.148 243.047 76.148C242.053 76.148 241.311 76.82 240.863 77.492V82H239.743V75.28H240.751V76.274ZM248.326 73.194L249.432 72.914V75.28H252.12V76.316H249.432V79.788C249.432 80.81 249.894 81.118 250.874 81.118C251.406 81.118 251.91 80.992 252.358 80.81V81.846C251.854 82.028 251.196 82.154 250.552 82.154C249.25 82.154 248.326 81.454 248.326 79.984V76.316H247.066V75.28H248.326V73.194ZM253.158 78.64C253.158 76.288 254.908 75.112 256.504 75.112C259.094 75.112 260.046 77.226 259.626 79.13H254.278C254.418 80.544 255.692 81.132 257.05 81.132C257.876 81.132 258.688 80.908 259.262 80.586V81.678C258.646 82 257.764 82.168 256.882 82.168C254.894 82.168 253.158 81.034 253.158 78.64ZM258.632 78.15C258.73 77.436 258.282 76.148 256.574 76.148C255.426 76.148 254.362 76.834 254.278 78.15H258.632ZM260.828 78.64C260.828 76.624 262.27 75.112 264.188 75.112C265.476 75.112 266.302 75.714 266.904 76.4V75.28H267.912V82C267.912 84.31 266.106 85.248 264.244 85.248C263.25 85.248 262.312 85.024 261.514 84.618V83.526C262.312 83.974 263.18 84.212 264.104 84.212C265.532 84.212 266.806 83.666 266.792 82V80.964C266.302 81.566 265.476 82.168 264.188 82.168C262.27 82.168 260.828 80.656 260.828 78.64ZM266.792 77.8C266.414 76.932 265.518 76.148 264.314 76.148C263.012 76.148 261.948 77.1 261.948 78.64C261.948 80.18 263.012 81.132 264.314 81.132C265.518 81.132 266.414 80.404 266.792 79.62V77.8ZM270.993 76.47C271.525 75.588 272.715 75.042 273.891 75.14V76.26C272.575 76.106 271.511 76.736 271.105 77.814V82H269.985V75.28H270.993V76.47ZM280.49 80.6C280.49 81.006 280.714 81.118 281.008 81.118C281.176 81.118 281.358 81.076 281.526 81.02V81.93C281.26 82.028 280.966 82.084 280.686 82.084C280.14 82.084 279.65 81.86 279.454 81.272C278.782 81.832 277.928 82.168 276.836 82.168C275.646 82.168 274.47 81.538 274.47 80.124C274.47 78.388 276.066 77.856 277.508 77.856C278.096 77.856 278.81 77.94 279.37 78.066V77.828C279.37 76.82 278.684 76.148 277.452 76.148C276.416 76.148 275.59 76.4 275.002 76.652V75.56C275.534 75.378 276.458 75.112 277.564 75.112C279.356 75.112 280.49 76.092 280.49 77.968V80.6ZM275.618 80.068C275.618 80.852 276.332 81.202 277.074 81.202C277.928 81.202 278.782 80.852 279.37 80.222V78.99C278.894 78.892 278.208 78.794 277.662 78.794C276.682 78.794 275.618 79.088 275.618 80.068ZM283.039 73.194L284.145 72.914V75.28H286.833V76.316H284.145V79.788C284.145 80.81 284.607 81.118 285.587 81.118C286.119 81.118 286.623 80.992 287.071 80.81V81.846C286.567 82.028 285.909 82.154 285.265 82.154C283.963 82.154 283.039 81.454 283.039 79.984V76.316H281.779V75.28H283.039V73.194ZM289.481 82H288.361V75.28H289.481V82ZM289.649 73.138C289.649 73.614 289.313 73.852 288.921 73.852C288.529 73.852 288.193 73.614 288.193 73.138C288.193 72.676 288.529 72.424 288.921 72.424C289.313 72.424 289.649 72.676 289.649 73.138ZM291.125 78.64C291.125 76.344 292.889 75.112 294.709 75.112C296.543 75.112 298.293 76.344 298.293 78.64C298.293 80.936 296.543 82.168 294.709 82.168C292.889 82.168 291.125 80.936 291.125 78.64ZM297.173 78.64C297.173 77.086 296.081 76.176 294.709 76.176C293.337 76.176 292.245 77.086 292.245 78.64C292.245 80.194 293.337 81.104 294.709 81.104C296.081 81.104 297.173 80.194 297.173 78.64ZM300.907 76.274C301.355 75.686 302.251 75.112 303.329 75.112C304.939 75.112 306.129 76.218 306.129 77.856V82H305.009V77.996C305.009 76.736 304.239 76.148 303.203 76.148C302.209 76.148 301.467 76.82 301.019 77.492V82H299.899V75.28H300.907V76.274ZM308.284 84.1H307.374L308.144 80.88H309.334L308.284 84.1ZM88.496 98.6C88.496 99.006 88.72 99.118 89.014 99.118C89.182 99.118 89.364 99.076 89.532 99.02V99.93C89.266 100.028 88.972 100.084 88.692 100.084C88.146 100.084 87.656 99.86 87.46 99.272C86.788 99.832 85.934 100.168 84.842 100.168C83.652 100.168 82.476 99.538 82.476 98.124C82.476 96.388 84.072 95.856 85.514 95.856C86.102 95.856 86.816 95.94 87.376 96.066V95.828C87.376 94.82 86.69 94.148 85.458 94.148C84.422 94.148 83.596 94.4 83.008 94.652V93.56C83.54 93.378 84.464 93.112 85.57 93.112C87.362 93.112 88.496 94.092 88.496 95.968V98.6ZM83.624 98.068C83.624 98.852 84.338 99.202 85.08 99.202C85.934 99.202 86.788 98.852 87.376 98.222V96.99C86.9 96.892 86.214 96.794 85.668 96.794C84.688 96.794 83.624 97.088 83.624 98.068ZM91.6592 94.274C92.1072 93.686 93.0032 93.112 94.0812 93.112C95.6912 93.112 96.8812 94.218 96.8812 95.856V100H95.7612V95.996C95.7612 94.736 94.9912 94.148 93.9552 94.148C92.9612 94.148 92.2192 94.82 91.7712 95.492V100H90.6512V93.28H91.6592V94.274ZM104.37 90.2H105.49V100H104.482V98.88C103.88 99.566 103.054 100.168 101.766 100.168C99.848 100.168 98.406 98.656 98.406 96.64C98.406 94.624 99.848 93.112 101.766 93.112C103.054 93.112 103.88 93.714 104.37 94.288V90.2ZM104.37 95.8C103.992 94.932 103.096 94.148 101.892 94.148C100.59 94.148 99.526 95.1 99.526 96.64C99.526 98.18 100.59 99.132 101.892 99.132C103.096 99.132 103.992 98.348 104.37 97.48V95.8ZM116.51 98.6C116.51 99.006 116.734 99.118 117.028 99.118C117.196 99.118 117.378 99.076 117.546 99.02V99.93C117.28 100.028 116.986 100.084 116.706 100.084C116.16 100.084 115.67 99.86 115.474 99.272C114.802 99.832 113.948 100.168 112.856 100.168C111.666 100.168 110.49 99.538 110.49 98.124C110.49 96.388 112.086 95.856 113.528 95.856C114.116 95.856 114.83 95.94 115.39 96.066V95.828C115.39 94.82 114.704 94.148 113.472 94.148C112.436 94.148 111.61 94.4 111.022 94.652V93.56C111.554 93.378 112.478 93.112 113.584 93.112C115.376 93.112 116.51 94.092 116.51 95.968V98.6ZM111.638 98.068C111.638 98.852 112.352 99.202 113.094 99.202C113.948 99.202 114.802 98.852 115.39 98.222V96.99C114.914 96.892 114.228 96.794 113.682 96.794C112.702 96.794 111.638 97.088 111.638 98.068ZM123.461 100H122.341V94.316H121.081V93.28H122.341V92.468C122.341 90.592 123.545 90.032 124.721 90.032C125.337 90.032 125.939 90.158 126.401 90.34V91.376C126.023 91.194 125.491 91.068 124.987 91.068C124.175 91.068 123.461 91.278 123.461 92.51V93.28H125.981V94.316H123.461V100ZM128.303 100H127.183V93.28H128.303V100ZM128.471 91.138C128.471 91.614 128.135 91.852 127.743 91.852C127.351 91.852 127.015 91.614 127.015 91.138C127.015 90.676 127.351 90.424 127.743 90.424C128.135 90.424 128.471 90.676 128.471 91.138ZM131.417 94.274C131.865 93.686 132.761 93.112 133.839 93.112C135.449 93.112 136.639 94.218 136.639 95.856V100H135.519V95.996C135.519 94.736 134.749 94.148 133.713 94.148C132.719 94.148 131.977 94.82 131.529 95.492V100H130.409V93.28H131.417V94.274ZM144.086 98.6C144.086 99.006 144.31 99.118 144.604 99.118C144.772 99.118 144.954 99.076 145.122 99.02V99.93C144.856 100.028 144.562 100.084 144.282 100.084C143.736 100.084 143.246 99.86 143.05 99.272C142.378 99.832 141.524 100.168 140.432 100.168C139.242 100.168 138.066 99.538 138.066 98.124C138.066 96.388 139.662 95.856 141.104 95.856C141.692 95.856 142.406 95.94 142.966 96.066V95.828C142.966 94.82 142.28 94.148 141.048 94.148C140.012 94.148 139.186 94.4 138.598 94.652V93.56C139.13 93.378 140.054 93.112 141.16 93.112C142.952 93.112 144.086 94.092 144.086 95.968V98.6ZM139.214 98.068C139.214 98.852 139.928 99.202 140.67 99.202C141.524 99.202 142.378 98.852 142.966 98.222V96.99C142.49 96.892 141.804 96.794 141.258 96.794C140.278 96.794 139.214 97.088 139.214 98.068ZM146.269 89.78H147.389V100H146.269V89.78ZM153.233 90.2H156.579C158.847 90.2 160.737 90.914 160.737 93.364C160.737 95.814 158.847 96.528 156.579 96.528H154.409V100H153.233V90.2ZM159.547 93.364C159.547 91.698 158.245 91.32 156.635 91.32H154.409V95.408H156.635C158.231 95.408 159.547 95.016 159.547 93.364ZM162.489 90.2H165.709C169.167 90.2 170.889 92.272 170.889 95.1C170.889 97.928 169.167 100 165.709 100H162.489V90.2ZM169.699 95.1C169.699 92.748 168.355 91.32 165.709 91.32H163.665V98.88H165.709C168.355 98.88 169.699 97.452 169.699 95.1ZM172.825 90.2H179.461V91.32H174.001V94.694H179.055V95.814H174.001V100H172.825V90.2ZM185.243 94.47C185.775 93.588 186.965 93.042 188.141 93.14V94.26C186.825 94.106 185.761 94.736 185.355 95.814V100H184.235V93.28H185.243V94.47ZM188.654 96.64C188.654 94.288 190.404 93.112 192 93.112C194.59 93.112 195.542 95.226 195.122 97.13H189.774C189.914 98.544 191.188 99.132 192.546 99.132C193.372 99.132 194.184 98.908 194.758 98.586V99.678C194.142 100 193.26 100.168 192.378 100.168C190.39 100.168 188.654 99.034 188.654 96.64ZM194.128 96.15C194.226 95.436 193.778 94.148 192.07 94.148C190.922 94.148 189.858 94.834 189.774 96.15H194.128ZM197.794 94.4C198.396 93.714 199.222 93.112 200.51 93.112C202.428 93.112 203.87 94.624 203.87 96.64C203.87 98.656 202.428 100.168 200.51 100.168C199.222 100.168 198.396 99.566 197.906 98.992V103.08H196.786V93.28H197.794V94.4ZM202.75 96.64C202.75 95.1 201.686 94.148 200.384 94.148C199.18 94.148 198.284 94.932 197.906 95.8V97.48C198.284 98.348 199.18 99.132 200.384 99.132C201.686 99.132 202.75 98.18 202.75 96.64ZM205.019 96.64C205.019 94.344 206.783 93.112 208.603 93.112C210.437 93.112 212.187 94.344 212.187 96.64C212.187 98.936 210.437 100.168 208.603 100.168C206.783 100.168 205.019 98.936 205.019 96.64ZM211.067 96.64C211.067 95.086 209.975 94.176 208.603 94.176C207.231 94.176 206.139 95.086 206.139 96.64C206.139 98.194 207.231 99.104 208.603 99.104C209.975 99.104 211.067 98.194 211.067 96.64ZM214.802 94.47C215.334 93.588 216.524 93.042 217.7 93.14V94.26C216.384 94.106 215.32 94.736 214.914 95.814V100H213.794V93.28H214.802V94.47ZM219.369 91.194L220.475 90.914V93.28H223.163V94.316H220.475V97.788C220.475 98.81 220.937 99.118 221.917 99.118C222.449 99.118 222.953 98.992 223.401 98.81V99.846C222.897 100.028 222.239 100.154 221.595 100.154C220.293 100.154 219.369 99.454 219.369 97.984V94.316H218.109V93.28H219.369V91.194ZM236.543 93.28H237.719L235.423 100H234.205L232.385 94.806L230.565 100H229.347L227.051 93.28H228.227L229.963 98.768L231.881 93.28H232.889L234.807 98.768L236.543 93.28ZM240.153 100H239.033V93.28H240.153V100ZM240.321 91.138C240.321 91.614 239.985 91.852 239.593 91.852C239.201 91.852 238.865 91.614 238.865 91.138C238.865 90.676 239.201 90.424 239.593 90.424C239.985 90.424 240.321 90.676 240.321 91.138ZM242.707 91.194L243.813 90.914V93.28H246.501V94.316H243.813V97.788C243.813 98.81 244.275 99.118 245.255 99.118C245.787 99.118 246.291 98.992 246.739 98.81V99.846C246.235 100.028 245.577 100.154 244.933 100.154C243.631 100.154 242.707 99.454 242.707 97.984V94.316H241.447V93.28H242.707V91.194ZM248.001 90.2H249.121V94.134C249.597 93.602 250.437 93.112 251.431 93.112C253.041 93.112 254.231 94.218 254.231 95.856V100H253.111V95.996C253.111 94.736 252.341 94.148 251.305 94.148C250.311 94.148 249.569 94.82 249.121 95.492V100H248.001V90.2ZM265.206 90.2H266.326V100H265.318V98.88C264.716 99.566 263.89 100.168 262.602 100.168C260.684 100.168 259.242 98.656 259.242 96.64C259.242 94.624 260.684 93.112 262.602 93.112C263.89 93.112 264.716 93.714 265.206 94.288V90.2ZM265.206 95.8C264.828 94.932 263.932 94.148 262.728 94.148C261.426 94.148 260.362 95.1 260.362 96.64C260.362 98.18 261.426 99.132 262.728 99.132C263.932 99.132 264.828 98.348 265.206 97.48V95.8ZM267.937 96.64C267.937 94.288 269.687 93.112 271.283 93.112C273.873 93.112 274.825 95.226 274.405 97.13H269.057C269.197 98.544 270.471 99.132 271.829 99.132C272.655 99.132 273.467 98.908 274.041 98.586V99.678C273.425 100 272.543 100.168 271.661 100.168C269.673 100.168 267.937 99.034 267.937 96.64ZM273.411 96.15C273.509 95.436 273.061 94.148 271.353 94.148C270.205 94.148 269.141 94.834 269.057 96.15H273.411ZM276.449 91.194L277.555 90.914V93.28H280.243V94.316H277.555V97.788C277.555 98.81 278.017 99.118 278.997 99.118C279.529 99.118 280.033 98.992 280.481 98.81V99.846C279.977 100.028 279.319 100.154 278.675 100.154C277.373 100.154 276.449 99.454 276.449 97.984V94.316H275.189V93.28H276.449V91.194ZM287.203 98.6C287.203 99.006 287.427 99.118 287.721 99.118C287.889 99.118 288.071 99.076 288.239 99.02V99.93C287.973 100.028 287.679 100.084 287.399 100.084C286.853 100.084 286.363 99.86 286.167 99.272C285.495 99.832 284.641 100.168 283.549 100.168C282.359 100.168 281.183 99.538 281.183 98.124C281.183 96.388 282.779 95.856 284.221 95.856C284.809 95.856 285.523 95.94 286.083 96.066V95.828C286.083 94.82 285.397 94.148 284.165 94.148C283.129 94.148 282.303 94.4 281.715 94.652V93.56C282.247 93.378 283.171 93.112 284.277 93.112C286.069 93.112 287.203 94.092 287.203 95.968V98.6ZM282.331 98.068C282.331 98.852 283.045 99.202 283.787 99.202C284.641 99.202 285.495 98.852 286.083 98.222V96.99C285.607 96.892 284.921 96.794 284.375 96.794C283.395 96.794 282.331 97.088 282.331 98.068ZM290.506 100H289.386V93.28H290.506V100ZM290.674 91.138C290.674 91.614 290.338 91.852 289.946 91.852C289.554 91.852 289.218 91.614 289.218 91.138C289.218 90.676 289.554 90.424 289.946 90.424C290.338 90.424 290.674 90.676 290.674 91.138ZM292.64 89.78H293.76V100H292.64V89.78ZM295.404 96.64C295.404 94.288 297.154 93.112 298.75 93.112C301.34 93.112 302.292 95.226 301.872 97.13H296.524C296.664 98.544 297.938 99.132 299.296 99.132C300.122 99.132 300.934 98.908 301.508 98.586V99.678C300.892 100 300.01 100.168 299.128 100.168C297.14 100.168 295.404 99.034 295.404 96.64ZM300.878 96.15C300.976 95.436 300.528 94.148 298.82 94.148C297.672 94.148 296.608 94.834 296.524 96.15H300.878ZM309.038 90.2H310.158V100H309.15V98.88C308.548 99.566 307.722 100.168 306.434 100.168C304.516 100.168 303.074 98.656 303.074 96.64C303.074 94.624 304.516 93.112 306.434 93.112C307.722 93.112 308.548 93.714 309.038 94.288V90.2ZM309.038 95.8C308.66 94.932 307.764 94.148 306.56 94.148C305.258 94.148 304.194 95.1 304.194 96.64C304.194 98.18 305.258 99.132 306.56 99.132C307.764 99.132 308.66 98.348 309.038 97.48V95.8ZM82.574 114.64C82.574 112.288 84.324 111.112 85.92 111.112C88.51 111.112 89.462 113.226 89.042 115.13H83.694C83.834 116.544 85.108 117.132 86.466 117.132C87.292 117.132 88.104 116.908 88.678 116.586V117.678C88.062 118 87.18 118.168 86.298 118.168C84.31 118.168 82.574 117.034 82.574 114.64ZM88.048 114.15C88.146 113.436 87.698 112.148 85.99 112.148C84.842 112.148 83.778 112.834 83.694 114.15H88.048ZM94.7969 111.28H96.0849L93.6209 114.542L96.2249 118H94.9369L92.9769 115.34L91.0029 118H89.7149L92.3329 114.542L89.8549 111.28H91.1429L92.9769 113.758L94.7969 111.28ZM98.4405 112.4C99.0425 111.714 99.8685 111.112 101.156 111.112C103.074 111.112 104.516 112.624 104.516 114.64C104.516 116.656 103.074 118.168 101.156 118.168C99.8685 118.168 99.0425 117.566 98.5525 116.992V121.08H97.4325V111.28H98.4405V112.4ZM103.396 114.64C103.396 113.1 102.332 112.148 101.03 112.148C99.8265 112.148 98.9305 112.932 98.5525 113.8V115.48C98.9305 116.348 99.8265 117.132 101.03 117.132C102.332 117.132 103.396 116.18 103.396 114.64ZM106.156 107.78H107.276V118H106.156V107.78ZM114.842 116.6C114.842 117.006 115.066 117.118 115.36 117.118C115.528 117.118 115.71 117.076 115.878 117.02V117.93C115.612 118.028 115.318 118.084 115.038 118.084C114.492 118.084 114.002 117.86 113.806 117.272C113.134 117.832 112.28 118.168 111.188 118.168C109.998 118.168 108.822 117.538 108.822 116.124C108.822 114.388 110.418 113.856 111.86 113.856C112.448 113.856 113.162 113.94 113.722 114.066V113.828C113.722 112.82 113.036 112.148 111.804 112.148C110.768 112.148 109.942 112.4 109.354 112.652V111.56C109.886 111.378 110.81 111.112 111.916 111.112C113.708 111.112 114.842 112.092 114.842 113.968V116.6ZM109.97 116.068C109.97 116.852 110.684 117.202 111.426 117.202C112.28 117.202 113.134 116.852 113.722 116.222V114.99C113.246 114.892 112.56 114.794 112.014 114.794C111.034 114.794 109.97 115.088 109.97 116.068ZM118.005 112.274C118.453 111.686 119.349 111.112 120.427 111.112C122.037 111.112 123.227 112.218 123.227 113.856V118H122.107V113.996C122.107 112.736 121.337 112.148 120.301 112.148C119.307 112.148 118.565 112.82 118.117 113.492V118H116.997V111.28H118.005V112.274ZM130.674 116.6C130.674 117.006 130.898 117.118 131.192 117.118C131.36 117.118 131.542 117.076 131.71 117.02V117.93C131.444 118.028 131.15 118.084 130.87 118.084C130.324 118.084 129.834 117.86 129.638 117.272C128.966 117.832 128.112 118.168 127.02 118.168C125.83 118.168 124.654 117.538 124.654 116.124C124.654 114.388 126.25 113.856 127.692 113.856C128.28 113.856 128.994 113.94 129.554 114.066V113.828C129.554 112.82 128.868 112.148 127.636 112.148C126.6 112.148 125.774 112.4 125.186 112.652V111.56C125.718 111.378 126.642 111.112 127.748 111.112C129.54 111.112 130.674 112.092 130.674 113.968V116.6ZM125.802 116.068C125.802 116.852 126.516 117.202 127.258 117.202C128.112 117.202 128.966 116.852 129.554 116.222V114.99C129.078 114.892 128.392 114.794 127.846 114.794C126.866 114.794 125.802 115.088 125.802 116.068ZM133.222 109.194L134.328 108.914V111.28H137.016V112.316H134.328V115.788C134.328 116.81 134.79 117.118 135.77 117.118C136.302 117.118 136.806 116.992 137.254 116.81V117.846C136.75 118.028 136.092 118.154 135.448 118.154C134.146 118.154 133.222 117.454 133.222 115.984V112.316H131.962V111.28H133.222V109.194ZM139.664 118H138.544V111.28H139.664V118ZM139.832 109.138C139.832 109.614 139.496 109.852 139.104 109.852C138.712 109.852 138.376 109.614 138.376 109.138C138.376 108.676 138.712 108.424 139.104 108.424C139.496 108.424 139.832 108.676 139.832 109.138ZM141.308 114.64C141.308 112.344 143.072 111.112 144.892 111.112C146.726 111.112 148.476 112.344 148.476 114.64C148.476 116.936 146.726 118.168 144.892 118.168C143.072 118.168 141.308 116.936 141.308 114.64ZM147.356 114.64C147.356 113.086 146.264 112.176 144.892 112.176C143.52 112.176 142.428 113.086 142.428 114.64C142.428 116.194 143.52 117.104 144.892 117.104C146.264 117.104 147.356 116.194 147.356 114.64ZM151.091 112.274C151.539 111.686 152.435 111.112 153.513 111.112C155.123 111.112 156.313 112.218 156.313 113.856V118H155.193V113.996C155.193 112.736 154.423 112.148 153.387 112.148C152.393 112.148 151.651 112.82 151.203 113.492V118H150.083V111.28H151.091V112.274ZM157.908 113.044C157.908 111.658 159.21 111.112 160.47 111.112C161.366 111.112 162.22 111.35 162.85 111.686V112.75C162.29 112.386 161.352 112.12 160.54 112.12C159.812 112.12 159.042 112.358 159.042 113.016C159.042 114.472 163.312 113.856 163.312 116.278C163.312 117.678 161.996 118.168 160.54 118.168C159.588 118.168 158.566 117.916 157.936 117.51V116.418C158.622 116.88 159.644 117.132 160.484 117.132C161.436 117.132 162.192 116.978 162.192 116.306C162.192 114.892 157.908 115.452 157.908 113.044ZM167.845 114.64C167.845 112.344 169.609 111.112 171.429 111.112C173.263 111.112 175.013 112.344 175.013 114.64C175.013 116.936 173.263 118.168 171.429 118.168C169.609 118.168 167.845 116.936 167.845 114.64ZM173.893 114.64C173.893 113.086 172.801 112.176 171.429 112.176C170.057 112.176 168.965 113.086 168.965 114.64C168.965 116.194 170.057 117.104 171.429 117.104C172.801 117.104 173.893 116.194 173.893 114.64ZM178.135 118H177.015V112.316H175.755V111.28H177.015V110.468C177.015 108.592 178.219 108.032 179.395 108.032C180.011 108.032 180.613 108.158 181.075 108.34V109.376C180.697 109.194 180.165 109.068 179.661 109.068C178.849 109.068 178.135 109.278 178.135 110.51V111.28H180.655V112.316H178.135V118ZM184.525 114.64C184.525 112.288 186.275 111.112 187.871 111.112C190.461 111.112 191.413 113.226 190.993 115.13H185.645C185.785 116.544 187.059 117.132 188.417 117.132C189.243 117.132 190.055 116.908 190.629 116.586V117.678C190.013 118 189.131 118.168 188.249 118.168C186.261 118.168 184.525 117.034 184.525 114.64ZM189.999 114.15C190.097 113.436 189.649 112.148 187.941 112.148C186.793 112.148 185.729 112.834 185.645 114.15H189.999ZM198.117 116.6C198.117 117.006 198.341 117.118 198.635 117.118C198.803 117.118 198.985 117.076 199.153 117.02V117.93C198.887 118.028 198.593 118.084 198.313 118.084C197.767 118.084 197.277 117.86 197.081 117.272C196.409 117.832 195.555 118.168 194.463 118.168C193.273 118.168 192.097 117.538 192.097 116.124C192.097 114.388 193.693 113.856 195.135 113.856C195.723 113.856 196.437 113.94 196.997 114.066V113.828C196.997 112.82 196.311 112.148 195.079 112.148C194.043 112.148 193.217 112.4 192.629 112.652V111.56C193.161 111.378 194.085 111.112 195.191 111.112C196.983 111.112 198.117 112.092 198.117 113.968V116.6ZM193.245 116.068C193.245 116.852 193.959 117.202 194.701 117.202C195.555 117.202 196.409 116.852 196.997 116.222V114.99C196.521 114.892 195.835 114.794 195.289 114.794C194.309 114.794 193.245 115.088 193.245 116.068ZM199.81 114.668C199.81 112.218 201.7 111.112 203.45 111.112C204.206 111.112 204.948 111.28 205.522 111.658V112.75C205.018 112.358 204.304 112.148 203.59 112.148C202.288 112.148 200.93 112.876 200.93 114.64C200.93 116.362 202.246 117.132 203.562 117.132C204.29 117.132 205.032 116.922 205.592 116.586V117.706C204.962 118.014 204.248 118.168 203.408 118.168C201.644 118.168 199.81 117.062 199.81 114.668ZM207.177 108.2H208.297V112.134C208.773 111.602 209.613 111.112 210.607 111.112C212.217 111.112 213.407 112.218 213.407 113.856V118H212.287V113.996C212.287 112.736 211.517 112.148 210.481 112.148C209.487 112.148 208.745 112.82 208.297 113.492V118H207.177V108.2ZM220 118H218.88V111.28H219.888V112.176C220.252 111.784 221.05 111.112 222.184 111.112C223.192 111.112 223.934 111.546 224.34 112.246C224.942 111.63 225.768 111.112 226.79 111.112C228.456 111.112 229.352 112.288 229.352 113.856V118H228.232V113.828C228.232 112.806 227.644 112.148 226.664 112.148C225.754 112.148 225.082 112.778 224.704 113.254C224.732 113.45 224.746 113.646 224.746 113.856V118H223.626V113.828C223.626 112.806 223.038 112.148 222.058 112.148C221.064 112.148 220.364 112.89 220 113.366V118ZM230.873 114.64C230.873 112.288 232.623 111.112 234.219 111.112C236.809 111.112 237.761 113.226 237.341 115.13H231.993C232.133 116.544 233.407 117.132 234.765 117.132C235.591 117.132 236.403 116.908 236.977 116.586V117.678C236.361 118 235.479 118.168 234.597 118.168C232.609 118.168 230.873 117.034 230.873 114.64ZM236.347 114.15C236.445 113.436 235.997 112.148 234.289 112.148C233.141 112.148 232.077 112.834 231.993 114.15H236.347ZM239.384 109.194L240.49 108.914V111.28H243.178V112.316H240.49V115.788C240.49 116.81 240.952 117.118 241.932 117.118C242.464 117.118 242.968 116.992 243.416 116.81V117.846C242.912 118.028 242.254 118.154 241.61 118.154C240.308 118.154 239.384 117.454 239.384 115.984V112.316H238.124V111.28H239.384V109.194ZM245.687 112.47C246.219 111.588 247.409 111.042 248.585 111.14V112.26C247.269 112.106 246.205 112.736 245.799 113.814V118H244.679V111.28H245.687V112.47ZM250.954 118H249.834V111.28H250.954V118ZM251.122 109.138C251.122 109.614 250.786 109.852 250.394 109.852C250.002 109.852 249.666 109.614 249.666 109.138C249.666 108.676 250.002 108.424 250.394 108.424C250.786 108.424 251.122 108.676 251.122 109.138ZM252.597 114.668C252.597 112.218 254.487 111.112 256.237 111.112C256.993 111.112 257.735 111.28 258.309 111.658V112.75C257.805 112.358 257.091 112.148 256.377 112.148C255.075 112.148 253.717 112.876 253.717 114.64C253.717 116.362 255.033 117.132 256.349 117.132C257.077 117.132 257.819 116.922 258.379 116.586V117.706C257.749 118.014 257.035 118.168 256.195 118.168C254.431 118.168 252.597 117.062 252.597 114.668ZM261.168 117.412C261.168 117.888 260.832 118.126 260.44 118.126C260.048 118.126 259.698 117.888 259.698 117.412C259.698 116.95 260.048 116.712 260.44 116.712C260.832 116.712 261.168 116.95 261.168 117.412Z" fill="#98C2FA"/>
<defs>
<filter id="filter0_d_516_446" x="246.64" y="135.378" width="65.2436" height="65.2436" filterUnits="userSpaceOnUse" color-interpolation-filters="sRGB">
<feFlood flood-opacity="0" result="BackgroundImageFix"/>
<feColorMatrix in="SourceAlpha" type="matrix" values="0 0 0 0 0 0 0 0 0 0 0 0 0 0 0 0 0 0 127 0" result="hardAlpha"/>
<feOffset/>
<feGaussianBlur stdDeviation="11.3109"/>
<feComposite in2="hardAlpha" operator="out"/>
<feColorMatrix type="matrix" values="0 0 0 0 0.352941 0 0 0 0 0.823529 0 0 0 0 0.454902 0 0 0 1 0"/>
<feBlend mode="normal" in2="BackgroundImageFix" result="effect1_dropShadow_516_446"/>
<feBlend mode="normal" in="SourceGraphic" in2="effect1_dropShadow_516_446" result="shape"/>
</filter>
</defs>
</svg>
