<svg width="1024" height="562" viewBox="0 0 1024 562" fill="none" xmlns="http://www.w3.org/2000/svg">
<path d="M213.121 245.095L194.504 245.187L175.879 245.095L6.63086 245.095C3.42655 245.095 0.829101 242.496 0.8291 239.292L0.829094 87.6309C0.829094 84.4266 3.42654 81.8291 6.63085 81.8291L382.369 81.8291C385.573 81.8291 388.171 84.4265 388.171 87.6308L388.171 239.292C388.171 242.496 385.573 245.095 382.369 245.095L342.666 245.095C340.996 245.095 339.375 245.655 338.062 246.686L319.645 261.136C317.542 262.786 314.583 262.786 312.48 261.136L294.063 246.686C292.75 245.655 291.129 245.095 289.459 245.095L213.121 245.095Z" fill="#11183C" stroke="white" stroke-width="1.65769"/>
<rect x="22.9531" y="103.5" width="47" height="47" rx="5" fill="#1A3043"/>
<path d="M55.8281 116.688C55.8273 115.942 55.5308 115.227 55.0035 114.7C54.4762 114.172 53.7613 113.876 53.0156 113.875H39.8906C39.1449 113.876 38.43 114.172 37.9027 114.7C37.3755 115.227 37.0789 115.942 37.0781 116.688V137.312C37.0789 138.058 37.3755 138.773 37.9027 139.3C38.43 139.828 39.1449 140.124 39.8906 140.125H53.0156C53.7613 140.124 54.4762 139.828 55.0035 139.3C55.5308 138.773 55.8273 138.058 55.8281 137.312V116.688ZM41.2969 137.312C41.0187 137.312 40.7469 137.23 40.5156 137.076C40.2843 136.921 40.1041 136.701 39.9977 136.444C39.8912 136.187 39.8634 135.905 39.9176 135.632C39.9719 135.359 40.1058 135.109 40.3025 134.912C40.4992 134.715 40.7497 134.581 41.0225 134.527C41.2953 134.473 41.5781 134.501 41.835 134.607C42.092 134.713 42.3116 134.894 42.4661 135.125C42.6207 135.356 42.7031 135.628 42.7031 135.906C42.7031 136.279 42.555 136.637 42.2912 136.901C42.0275 137.164 41.6698 137.312 41.2969 137.312ZM41.2969 132.625C41.0187 132.625 40.7469 132.543 40.5156 132.388C40.2843 132.233 40.1041 132.014 39.9977 131.757C39.8912 131.5 39.8634 131.217 39.9176 130.944C39.9719 130.672 40.1058 130.421 40.3025 130.224C40.4992 130.028 40.7497 129.894 41.0225 129.84C41.2953 129.785 41.5781 129.813 41.835 129.92C42.092 130.026 42.3116 130.206 42.4661 130.437C42.6207 130.669 42.7031 130.941 42.7031 131.219C42.7031 131.592 42.555 131.949 42.2912 132.213C42.0275 132.477 41.6698 132.625 41.2969 132.625ZM41.2969 127.938C41.0187 127.938 40.7469 127.855 40.5156 127.701C40.2843 127.546 40.1041 127.326 39.9977 127.069C39.8912 126.812 39.8634 126.53 39.9176 126.257C39.9719 125.984 40.1058 125.734 40.3025 125.537C40.4992 125.34 40.7497 125.206 41.0225 125.152C41.2953 125.098 41.5781 125.126 41.835 125.232C42.092 125.338 42.3116 125.519 42.4661 125.75C42.6207 125.981 42.7031 126.253 42.7031 126.531C42.7031 126.904 42.555 127.262 42.2912 127.526C42.0275 127.789 41.6698 127.938 41.2969 127.938ZM46.4531 137.312C46.175 137.312 45.9031 137.23 45.6719 137.076C45.4406 136.921 45.2604 136.701 45.1539 136.444C45.0475 136.187 45.0196 135.905 45.0739 135.632C45.1282 135.359 45.2621 135.109 45.4588 134.912C45.6554 134.715 45.906 134.581 46.1788 134.527C46.4516 134.473 46.7343 134.501 46.9913 134.607C47.2482 134.713 47.4679 134.894 47.6224 135.125C47.7769 135.356 47.8594 135.628 47.8594 135.906C47.8594 136.279 47.7112 136.637 47.4475 136.901C47.1838 137.164 46.8261 137.312 46.4531 137.312ZM46.4531 132.625C46.175 132.625 45.9031 132.543 45.6719 132.388C45.4406 132.233 45.2604 132.014 45.1539 131.757C45.0475 131.5 45.0196 131.217 45.0739 130.944C45.1282 130.672 45.2621 130.421 45.4588 130.224C45.6554 130.028 45.906 129.894 46.1788 129.84C46.4516 129.785 46.7343 129.813 46.9913 129.92C47.2482 130.026 47.4679 130.206 47.6224 130.437C47.7769 130.669 47.8594 130.941 47.8594 131.219C47.8594 131.592 47.7112 131.949 47.4475 132.213C47.1838 132.477 46.8261 132.625 46.4531 132.625ZM46.4531 127.938C46.175 127.938 45.9031 127.855 45.6719 127.701C45.4406 127.546 45.2604 127.326 45.1539 127.069C45.0475 126.812 45.0196 126.53 45.0739 126.257C45.1282 125.984 45.2621 125.734 45.4588 125.537C45.6554 125.34 45.906 125.206 46.1788 125.152C46.4516 125.098 46.7343 125.126 46.9913 125.232C47.2482 125.338 47.4679 125.519 47.6224 125.75C47.7769 125.981 47.8594 126.253 47.8594 126.531C47.8594 126.904 47.7112 127.262 47.4475 127.526C47.1838 127.789 46.8261 127.938 46.4531 127.938ZM53.0156 135.906C53.0156 136.279 52.8675 136.637 52.6037 136.901C52.34 137.164 51.9823 137.312 51.6094 137.312C51.2364 137.312 50.8787 137.164 50.615 136.901C50.3513 136.637 50.2031 136.279 50.2031 135.906V131.219C50.2031 130.846 50.3513 130.488 50.615 130.224C50.8787 129.961 51.2364 129.812 51.6094 129.812C51.9823 129.812 52.34 129.961 52.6037 130.224C52.8675 130.488 53.0156 130.846 53.0156 131.219V135.906ZM51.6094 127.938C51.3312 127.938 51.0594 127.855 50.8281 127.701C50.5968 127.546 50.4166 127.326 50.3102 127.069C50.2037 126.812 50.1759 126.53 50.2301 126.257C50.2844 125.984 50.4183 125.734 50.615 125.537C50.8117 125.34 51.0622 125.206 51.335 125.152C51.6078 125.098 51.8906 125.126 52.1475 125.232C52.4045 125.338 52.6241 125.519 52.7786 125.75C52.9331 125.981 53.0156 126.253 53.0156 126.531C53.0156 126.904 52.8675 127.262 52.6037 127.526C52.34 127.789 51.9823 127.938 51.6094 127.938ZM52.7408 122.038C52.5651 122.214 52.3267 122.312 52.0781 122.312H40.8281C40.5795 122.312 40.341 122.214 40.1652 122.038C39.9894 121.862 39.8906 121.624 39.8906 121.375V117.625C39.8906 117.376 39.9894 117.138 40.1652 116.962C40.341 116.786 40.5795 116.688 40.8281 116.688H52.0781C52.3268 116.688 52.5652 116.786 52.741 116.962C52.9169 117.138 53.0156 117.376 53.0156 117.625V121.375C53.0155 121.624 52.9167 121.862 52.7408 122.038Z" fill="#5AD274"/>
<path d="M85.9931 102.2H97.5851V104.72H88.7291V109.64H96.8891V112.184H88.7291V119H85.9931V102.2ZM108.901 116.336C108.901 116.984 109.285 117.176 109.741 117.176C110.005 117.176 110.269 117.104 110.509 117.032V118.88C110.029 119.072 109.453 119.168 108.877 119.168C107.821 119.168 106.981 118.76 106.573 117.824C105.445 118.736 104.029 119.312 102.229 119.312C100.141 119.312 98.1966 118.16 98.1966 115.784C98.1966 112.832 100.933 111.92 103.333 111.92C104.317 111.92 105.421 112.064 106.333 112.256V111.848C106.333 110.408 105.277 109.4 103.309 109.4C101.605 109.4 100.189 109.832 99.1566 110.288V107.936C100.069 107.624 101.725 107.168 103.573 107.168C106.837 107.168 108.901 108.728 108.901 112.208V116.336ZM103.837 113.72C102.373 113.72 100.837 114.176 100.837 115.616C100.837 116.744 101.845 117.32 102.997 117.32C104.221 117.32 105.421 116.864 106.333 115.952V114.008C105.637 113.864 104.653 113.72 103.837 113.72ZM111.68 110.6C111.68 108.08 113.984 107.168 116.264 107.168C117.848 107.168 119.288 107.576 120.416 108.152V110.408C119.456 109.76 117.8 109.28 116.432 109.28C115.4 109.28 114.296 109.592 114.296 110.528C114.296 112.76 121.232 111.728 121.232 115.928C121.232 118.472 118.88 119.312 116.264 119.312C114.584 119.312 112.88 118.904 111.752 118.208V115.928C112.952 116.72 114.704 117.152 116.144 117.152C117.584 117.152 118.64 116.912 118.64 115.976C118.64 113.84 111.68 114.728 111.68 110.6ZM124.393 104L126.937 103.376V107.48H131.113V109.736H126.937V115.016C126.937 116.528 127.633 117.032 129.121 117.032C129.961 117.032 130.729 116.864 131.449 116.576V118.784C130.585 119.096 129.481 119.288 128.353 119.288C126.121 119.288 124.393 118.184 124.393 115.496V109.736H122.329V107.48H124.393V104ZM138.61 110.6C138.61 108.08 140.914 107.168 143.194 107.168C144.778 107.168 146.218 107.576 147.346 108.152V110.408C146.386 109.76 144.73 109.28 143.362 109.28C142.33 109.28 141.226 109.592 141.226 110.528C141.226 112.76 148.162 111.728 148.162 115.928C148.162 118.472 145.81 119.312 143.194 119.312C141.514 119.312 139.81 118.904 138.682 118.208V115.928C139.882 116.72 141.634 117.152 143.074 117.152C144.514 117.152 145.57 116.912 145.57 115.976C145.57 113.84 138.61 114.728 138.61 110.6ZM149.763 113.24C149.763 109.064 152.931 107.168 155.595 107.168C160.179 107.168 161.763 110.864 161.019 114.2H152.355C152.643 116.264 154.659 117.128 156.771 117.128C158.163 117.128 159.435 116.792 160.419 116.312V118.52C159.363 119.024 157.899 119.312 156.291 119.312C152.763 119.312 149.763 117.296 149.763 113.24ZM158.715 112.28C158.859 111.272 158.235 109.304 155.715 109.304C153.987 109.304 152.427 110.336 152.331 112.28H158.715ZM164.471 104L167.015 103.376V107.48H171.191V109.736H167.015V115.016C167.015 116.528 167.711 117.032 169.199 117.032C170.039 117.032 170.807 116.864 171.527 116.576V118.784C170.663 119.096 169.559 119.288 168.431 119.288C166.199 119.288 164.471 118.184 164.471 115.496V109.736H162.407V107.48H164.471V104ZM181.968 107.48H184.536V119H182.256V117.416C181.416 118.424 180 119.312 178.248 119.312C175.2 119.312 173.496 117.344 173.496 114.608V107.48H176.064V114.272C176.064 116.144 177.048 117.032 178.752 117.032C180.216 117.032 181.32 116.048 181.968 115.112V107.48ZM190.029 109.28C190.941 108.176 192.309 107.168 194.469 107.168C197.925 107.168 200.181 109.928 200.181 113.24C200.181 116.552 197.925 119.312 194.469 119.312C192.453 119.312 191.109 118.424 190.317 117.512V124.28H187.749V107.48H190.029V109.28ZM197.565 113.24C197.565 110.984 196.077 109.424 193.989 109.424C192.213 109.424 190.869 110.576 190.317 111.824V114.632C190.869 115.904 192.213 117.056 193.989 117.056C196.077 117.056 197.565 115.496 197.565 113.24ZM203.165 122.552H201.077L202.493 116.6H205.205L203.165 122.552ZM213.068 113.336C213.068 109.04 216.356 107.168 219.428 107.168C220.724 107.168 221.972 107.456 222.98 108.056V110.408C222.14 109.808 220.964 109.448 219.788 109.448C217.748 109.448 215.684 110.528 215.684 113.24C215.684 115.856 217.676 117.032 219.74 117.032C220.964 117.032 222.188 116.672 223.1 116.144V118.52C221.996 119.048 220.748 119.312 219.284 119.312C216.212 119.312 213.068 117.44 213.068 113.336ZM225.648 101.48H228.216V119H225.648V101.48ZM230.763 113.24C230.763 109.064 233.931 107.168 236.595 107.168C241.179 107.168 242.763 110.864 242.019 114.2H233.355C233.643 116.264 235.659 117.128 237.771 117.128C239.163 117.128 240.435 116.792 241.419 116.312V118.52C240.363 119.024 238.899 119.312 237.291 119.312C233.763 119.312 230.763 117.296 230.763 113.24ZM239.715 112.28C239.859 111.272 239.235 109.304 236.715 109.304C234.987 109.304 233.427 110.336 233.331 112.28H239.715ZM254.447 116.336C254.447 116.984 254.831 117.176 255.287 117.176C255.551 117.176 255.815 117.104 256.055 117.032V118.88C255.575 119.072 254.999 119.168 254.423 119.168C253.367 119.168 252.527 118.76 252.119 117.824C250.991 118.736 249.575 119.312 247.775 119.312C245.687 119.312 243.743 118.16 243.743 115.784C243.743 112.832 246.479 111.92 248.879 111.92C249.863 111.92 250.967 112.064 251.879 112.256V111.848C251.879 110.408 250.823 109.4 248.855 109.4C247.151 109.4 245.735 109.832 244.703 110.288V107.936C245.615 107.624 247.271 107.168 249.119 107.168C252.383 107.168 254.447 108.728 254.447 112.208V116.336ZM249.383 113.72C247.919 113.72 246.383 114.176 246.383 115.616C246.383 116.744 247.391 117.32 248.543 117.32C249.767 117.32 250.967 116.864 251.879 115.952V114.008C251.183 113.864 250.199 113.72 249.383 113.72ZM260.107 109.376C260.995 107.96 262.867 107.048 264.955 107.24V109.76C262.891 109.472 261.091 110.384 260.395 112.016V119H257.827V107.48H260.107V109.376ZM87.8411 138.376C88.7291 136.96 90.6011 136.048 92.6891 136.24V138.76C90.6251 138.472 88.8251 139.384 88.1291 141.016V148H85.5611V136.48H87.8411V138.376ZM93.6068 142.24C93.6068 138.064 96.7748 136.168 99.4388 136.168C104.023 136.168 105.607 139.864 104.863 143.2H96.1988C96.4868 145.264 98.5028 146.128 100.615 146.128C102.007 146.128 103.279 145.792 104.263 145.312V147.52C103.207 148.024 101.743 148.312 100.135 148.312C96.6068 148.312 93.6068 146.296 93.6068 142.24ZM102.559 141.28C102.703 140.272 102.079 138.304 99.5588 138.304C97.8308 138.304 96.2708 139.336 96.1748 141.28H102.559ZM109.755 138.28C110.667 137.176 112.035 136.168 114.195 136.168C117.651 136.168 119.907 138.928 119.907 142.24C119.907 145.552 117.651 148.312 114.195 148.312C112.179 148.312 110.835 147.424 110.043 146.512V153.28H107.475V136.48H109.755V138.28ZM117.291 142.24C117.291 139.984 115.803 138.424 113.715 138.424C111.939 138.424 110.595 139.576 110.043 140.824V143.632C110.595 144.904 111.939 146.056 113.715 146.056C115.803 146.056 117.291 144.496 117.291 142.24ZM121.685 142.24C121.685 138.256 124.709 136.168 127.925 136.168C131.165 136.168 134.165 138.256 134.165 142.24C134.165 146.224 131.165 148.312 127.925 148.312C124.709 148.312 121.685 146.224 121.685 142.24ZM131.549 142.24C131.549 139.984 130.061 138.52 127.925 138.52C125.765 138.52 124.277 139.984 124.277 142.24C124.277 144.496 125.765 145.96 127.925 145.96C130.061 145.96 131.549 144.496 131.549 142.24ZM138.935 138.376C139.823 136.96 141.695 136.048 143.783 136.24V138.76C141.719 138.472 139.919 139.384 139.223 141.016V148H136.655V136.48H138.935V138.376ZM146.565 133L149.109 132.376V136.48H153.285V138.736H149.109V144.016C149.109 145.528 149.805 146.032 151.293 146.032C152.133 146.032 152.901 145.864 153.621 145.576V147.784C152.757 148.096 151.653 148.288 150.525 148.288C148.293 148.288 146.565 147.184 146.565 144.496V138.736H144.501V136.48H146.565V133ZM158.326 148H155.758V136.48H158.326V148ZM158.614 132.736C158.614 133.792 157.894 134.272 157.054 134.272C156.214 134.272 155.47 133.792 155.47 132.736C155.47 131.728 156.214 131.224 157.054 131.224C157.894 131.224 158.614 131.728 158.614 132.736ZM163.872 138.064C164.712 137.056 166.128 136.168 167.88 136.168C170.784 136.168 172.632 138.136 172.632 140.872V148H170.064V141.208C170.064 139.336 168.912 138.448 167.376 138.448C165.912 138.448 164.808 139.432 164.16 140.368V148H161.592V136.48H163.872V138.064ZM174.982 142.24C174.982 138.928 177.214 136.168 180.694 136.168C182.854 136.168 184.222 137.176 185.11 138.28V136.48H187.414V147.856C187.414 152.008 184.246 153.592 180.958 153.592C179.206 153.592 177.574 153.208 176.206 152.512V150.16C177.526 150.928 179.062 151.336 180.622 151.336C182.902 151.336 184.846 150.52 184.846 147.928V146.464C184.054 147.4 182.71 148.312 180.694 148.312C177.214 148.312 174.982 145.552 174.982 142.24ZM184.822 140.824C184.27 139.576 182.95 138.424 181.15 138.424C179.086 138.424 177.574 139.984 177.574 142.24C177.574 144.496 179.086 146.056 181.15 146.056C182.95 146.056 184.27 144.976 184.822 143.8V140.824Z" fill="white"/>
<path d="M23.8531 169.514C23.8531 167.264 25.8871 166.184 28.1731 166.184C29.5591 166.184 30.9811 166.526 31.9891 167.102V168.614C30.9811 167.966 29.5771 167.606 28.2811 167.624C26.6251 167.624 25.3831 168.11 25.3831 169.46C25.3831 172.646 32.8891 171.278 32.8891 175.796C32.8891 178.298 30.6391 179.234 28.2271 179.216C26.5891 179.216 25.1311 178.82 23.9071 178.136V176.624C25.2391 177.434 26.6791 177.776 28.1191 177.776C29.8651 177.776 31.3591 177.326 31.3591 175.904C31.3591 172.52 23.8531 173.942 23.8531 169.514ZM36.2904 179H34.8504V170.36H36.2904V179ZM36.5064 167.606C36.5064 168.218 36.0744 168.524 35.5704 168.524C35.0664 168.524 34.6344 168.218 34.6344 167.606C34.6344 167.012 35.0664 166.688 35.5704 166.688C36.0744 166.688 36.5064 167.012 36.5064 167.606ZM40.438 179H38.998V170.36H40.294V171.512C40.762 171.008 41.788 170.144 43.246 170.144C44.542 170.144 45.496 170.702 46.018 171.602C46.792 170.81 47.854 170.144 49.168 170.144C51.31 170.144 52.462 171.656 52.462 173.672V179H51.022V173.636C51.022 172.322 50.266 171.476 49.006 171.476C47.836 171.476 46.972 172.286 46.486 172.898C46.522 173.15 46.54 173.402 46.54 173.672V179H45.1V173.636C45.1 172.322 44.344 171.476 43.084 171.476C41.806 171.476 40.906 172.43 40.438 173.042V179ZM56.3077 171.8C57.0817 170.918 58.1437 170.144 59.7997 170.144C62.2657 170.144 64.1197 172.088 64.1197 174.68C64.1197 177.272 62.2657 179.216 59.7997 179.216C58.1437 179.216 57.0817 178.442 56.4517 177.704V182.96H55.0117V170.36H56.3077V171.8ZM62.6797 174.68C62.6797 172.7 61.3117 171.476 59.6377 171.476C58.0897 171.476 56.9377 172.484 56.4517 173.6V175.76C56.9377 176.876 58.0897 177.884 59.6377 177.884C61.3117 177.884 62.6797 176.66 62.6797 174.68ZM66.2274 165.86H67.6674V179H66.2274V165.86ZM69.781 174.68C69.781 171.656 72.031 170.144 74.083 170.144C77.413 170.144 78.637 172.862 78.097 175.31H71.221C71.401 177.128 73.039 177.884 74.785 177.884C75.847 177.884 76.891 177.596 77.629 177.182V178.586C76.837 179 75.703 179.216 74.569 179.216C72.013 179.216 69.781 177.758 69.781 174.68ZM76.819 174.05C76.945 173.132 76.369 171.476 74.173 171.476C72.697 171.476 71.329 172.358 71.221 174.05H76.819ZM84.6107 167.732C85.8347 166.886 87.1847 166.544 88.5347 166.544C91.0367 166.544 92.7107 167.732 92.7107 169.82C92.7107 171.908 90.9647 173.114 89.2547 174.122C87.5447 175.13 85.8707 175.958 85.8347 177.578L92.8007 177.56V179H84.1787V178.28C84.1787 175.292 86.3747 174.158 88.2827 173.042C89.8127 172.142 91.1987 171.386 91.1987 169.802C91.1987 168.596 90.1727 167.948 88.4087 167.948C87.1667 167.948 85.8707 168.362 84.6107 169.244V167.732ZM94.2243 173.852H100.65V175.22H94.2243V173.852ZM104.581 179H103.141V170.36H104.437V171.512C104.905 171.008 105.931 170.144 107.389 170.144C108.685 170.144 109.639 170.702 110.161 171.602C110.935 170.81 111.997 170.144 113.311 170.144C115.453 170.144 116.605 171.656 116.605 173.672V179H115.165V173.636C115.165 172.322 114.409 171.476 113.149 171.476C111.979 171.476 111.115 172.286 110.629 172.898C110.665 173.15 110.683 173.402 110.683 173.672V179H109.243V173.636C109.243 172.322 108.487 171.476 107.227 171.476C105.949 171.476 105.049 172.43 104.581 173.042V179ZM120.63 179H119.19V170.36H120.63V179ZM120.846 167.606C120.846 168.218 120.414 168.524 119.91 168.524C119.406 168.524 118.974 168.218 118.974 167.606C118.974 167.012 119.406 166.688 119.91 166.688C120.414 166.688 120.846 167.012 120.846 167.606ZM124.634 171.638C125.21 170.882 126.362 170.144 127.748 170.144C129.818 170.144 131.348 171.566 131.348 173.672V179H129.908V173.852C129.908 172.232 128.918 171.476 127.586 171.476C126.308 171.476 125.354 172.34 124.778 173.204V179H123.338V170.36H124.634V171.638ZM140.364 170.36H141.804V179H140.508V177.722C139.932 178.478 138.78 179.216 137.394 179.216C135.144 179.216 133.794 177.794 133.794 175.688V170.36H135.234V175.508C135.234 177.128 136.044 177.884 137.556 177.884C138.834 177.884 139.788 177.02 140.364 176.156V170.36ZM145.043 167.678L146.465 167.318V170.36H149.921V171.692H146.465V176.156C146.465 177.47 147.059 177.866 148.319 177.866C149.003 177.866 149.651 177.704 150.227 177.47V178.802C149.579 179.036 148.733 179.198 147.905 179.198C146.231 179.198 145.043 178.298 145.043 176.408V171.692H143.423V170.36H145.043V167.678ZM151.256 174.68C151.256 171.656 153.506 170.144 155.558 170.144C158.888 170.144 160.112 172.862 159.572 175.31H152.696C152.876 177.128 154.514 177.884 156.26 177.884C157.322 177.884 158.366 177.596 159.104 177.182V178.586C158.312 179 157.178 179.216 156.044 179.216C153.488 179.216 151.256 177.758 151.256 174.68ZM158.294 174.05C158.42 173.132 157.844 171.476 155.648 171.476C154.172 171.476 152.804 172.358 152.696 174.05H158.294ZM175.499 166.4H177.011V179H175.499V173.402H168.029V179H166.517V166.4H168.029V171.962H175.499V166.4ZM178.912 166.4H189.28V167.84H184.852V179H183.34V167.84H178.912V166.4ZM202.879 166.4H204.175V179H202.663V169.262L198.145 176.03H197.209L192.691 169.262V179H191.179V166.4H192.475L197.677 174.176L202.879 166.4ZM207.492 166.4H209.004V177.56H215.988V179H207.492V166.4ZM223.058 179H221.618V170.36H223.058V179ZM223.274 167.606C223.274 168.218 222.842 168.524 222.338 168.524C221.834 168.524 221.402 168.218 221.402 167.606C221.402 167.012 221.834 166.688 222.338 166.688C222.842 166.688 223.274 167.012 223.274 167.606ZM227.062 171.638C227.638 170.882 228.79 170.144 230.176 170.144C232.246 170.144 233.776 171.566 233.776 173.672V179H232.336V173.852C232.336 172.232 231.346 171.476 230.014 171.476C228.736 171.476 227.782 172.34 227.206 173.204V179H225.766V170.36H227.062V171.638ZM236.801 167.678L238.223 167.318V170.36H241.679V171.692H238.223V176.156C238.223 177.47 238.817 177.866 240.077 177.866C240.761 177.866 241.409 177.704 241.985 177.47V178.802C241.337 179.036 240.491 179.198 239.663 179.198C237.989 179.198 236.801 178.298 236.801 176.408V171.692H235.181V170.36H236.801V167.678ZM243.013 174.68C243.013 171.656 245.263 170.144 247.315 170.144C250.645 170.144 251.869 172.862 251.329 175.31H244.453C244.633 177.128 246.271 177.884 248.017 177.884C249.079 177.884 250.123 177.596 250.861 177.182V178.586C250.069 179 248.935 179.216 247.801 179.216C245.245 179.216 243.013 177.758 243.013 174.68ZM250.051 174.05C250.177 173.132 249.601 171.476 247.405 171.476C245.929 171.476 244.561 172.358 244.453 174.05H250.051ZM252.875 174.68C252.875 172.088 254.729 170.144 257.195 170.144C258.851 170.144 259.913 170.918 260.687 171.8V170.36H261.983V179C261.983 181.97 259.661 183.176 257.267 183.176C255.989 183.176 254.783 182.888 253.757 182.366V180.962C254.783 181.538 255.899 181.844 257.087 181.844C258.923 181.844 260.561 181.142 260.543 179V177.668C259.913 178.442 258.851 179.216 257.195 179.216C254.729 179.216 252.875 177.272 252.875 174.68ZM260.543 173.6C260.057 172.484 258.905 171.476 257.357 171.476C255.683 171.476 254.315 172.7 254.315 174.68C254.315 176.66 255.683 177.884 257.357 177.884C258.905 177.884 260.057 176.948 260.543 175.94V173.6ZM265.944 171.89C266.628 170.756 268.158 170.054 269.67 170.18V171.62C267.978 171.422 266.61 172.232 266.088 173.618V179H264.648V170.36H265.944V171.89ZM278.155 177.2C278.155 177.722 278.443 177.866 278.821 177.866C279.037 177.866 279.271 177.812 279.487 177.74V178.91C279.145 179.036 278.767 179.108 278.407 179.108C277.705 179.108 277.075 178.82 276.823 178.064C275.959 178.784 274.861 179.216 273.457 179.216C271.927 179.216 270.415 178.406 270.415 176.588C270.415 174.356 272.467 173.672 274.321 173.672C275.077 173.672 275.995 173.78 276.715 173.942V173.636C276.715 172.34 275.833 171.476 274.249 171.476C272.917 171.476 271.855 171.8 271.099 172.124V170.72C271.783 170.486 272.971 170.144 274.393 170.144C276.697 170.144 278.155 171.404 278.155 173.816V177.2ZM271.891 176.516C271.891 177.524 272.809 177.974 273.763 177.974C274.861 177.974 275.959 177.524 276.715 176.714V175.13C276.103 175.004 275.221 174.878 274.519 174.878C273.259 174.878 271.891 175.256 271.891 176.516ZM281.431 167.678L282.853 167.318V170.36H286.309V171.692H282.853V176.156C282.853 177.47 283.447 177.866 284.707 177.866C285.391 177.866 286.039 177.704 286.615 177.47V178.802C285.967 179.036 285.121 179.198 284.293 179.198C282.619 179.198 281.431 178.298 281.431 176.408V171.692H279.811V170.36H281.431V167.678ZM289.714 179H288.274V170.36H289.714V179ZM289.93 167.606C289.93 168.218 289.498 168.524 288.994 168.524C288.49 168.524 288.058 168.218 288.058 167.606C288.058 167.012 288.49 166.688 288.994 166.688C289.498 166.688 289.93 167.012 289.93 167.606ZM291.828 174.68C291.828 171.728 294.096 170.144 296.436 170.144C298.794 170.144 301.044 171.728 301.044 174.68C301.044 177.632 298.794 179.216 296.436 179.216C294.096 179.216 291.828 177.632 291.828 174.68ZM299.604 174.68C299.604 172.682 298.2 171.512 296.436 171.512C294.672 171.512 293.268 172.682 293.268 174.68C293.268 176.678 294.672 177.848 296.436 177.848C298.2 177.848 299.604 176.678 299.604 174.68ZM304.405 171.638C304.981 170.882 306.133 170.144 307.519 170.144C309.589 170.144 311.119 171.566 311.119 173.672V179H309.679V173.852C309.679 172.232 308.689 171.476 307.357 171.476C306.079 171.476 305.125 172.34 304.549 173.204V179H303.109V170.36H304.405V171.638ZM313.89 181.7H312.72L313.71 177.56H315.24L313.89 181.7ZM31.3051 200.2C31.3051 200.722 31.5931 200.866 31.9711 200.866C32.1871 200.866 32.4211 200.812 32.6371 200.74V201.91C32.2951 202.036 31.9171 202.108 31.5571 202.108C30.8551 202.108 30.2251 201.82 29.9731 201.064C29.1091 201.784 28.0111 202.216 26.6071 202.216C25.0771 202.216 23.5651 201.406 23.5651 199.588C23.5651 197.356 25.6171 196.672 27.4711 196.672C28.2271 196.672 29.1451 196.78 29.8651 196.942V196.636C29.8651 195.34 28.9831 194.476 27.3991 194.476C26.0671 194.476 25.0051 194.8 24.2491 195.124V193.72C24.9331 193.486 26.1211 193.144 27.5431 193.144C29.8471 193.144 31.3051 194.404 31.3051 196.816V200.2ZM25.0411 199.516C25.0411 200.524 25.9591 200.974 26.9131 200.974C28.0111 200.974 29.1091 200.524 29.8651 199.714V198.13C29.2531 198.004 28.3711 197.878 27.6691 197.878C26.4091 197.878 25.0411 198.256 25.0411 199.516ZM35.3721 194.638C35.9481 193.882 37.1001 193.144 38.4861 193.144C40.5561 193.144 42.0861 194.566 42.0861 196.672V202H40.6461V196.852C40.6461 195.232 39.6561 194.476 38.3241 194.476C37.0461 194.476 36.0921 195.34 35.5161 196.204V202H34.0761V193.36H35.3721V194.638ZM51.7146 189.4H53.1546V202H51.8586V200.56C51.0846 201.442 50.0226 202.216 48.3666 202.216C45.9006 202.216 44.0466 200.272 44.0466 197.68C44.0466 195.088 45.9006 193.144 48.3666 193.144C50.0226 193.144 51.0846 193.918 51.7146 194.656V189.4ZM51.7146 196.6C51.2286 195.484 50.0766 194.476 48.5286 194.476C46.8546 194.476 45.4866 195.7 45.4866 197.68C45.4866 199.66 46.8546 200.884 48.5286 200.884C50.0766 200.884 51.2286 199.876 51.7146 198.76V196.6ZM67.3227 200.2C67.3227 200.722 67.6107 200.866 67.9887 200.866C68.2047 200.866 68.4387 200.812 68.6547 200.74V201.91C68.3127 202.036 67.9347 202.108 67.5747 202.108C66.8727 202.108 66.2427 201.82 65.9907 201.064C65.1267 201.784 64.0287 202.216 62.6247 202.216C61.0947 202.216 59.5827 201.406 59.5827 199.588C59.5827 197.356 61.6347 196.672 63.4887 196.672C64.2447 196.672 65.1627 196.78 65.8827 196.942V196.636C65.8827 195.34 65.0007 194.476 63.4167 194.476C62.0847 194.476 61.0227 194.8 60.2667 195.124V193.72C60.9507 193.486 62.1387 193.144 63.5607 193.144C65.8647 193.144 67.3227 194.404 67.3227 196.816V200.2ZM61.0587 199.516C61.0587 200.524 61.9767 200.974 62.9307 200.974C64.0287 200.974 65.1267 200.524 65.8827 199.714V198.13C65.2707 198.004 64.3887 197.878 63.6867 197.878C62.4267 197.878 61.0587 198.256 61.0587 199.516ZM76.2603 202H74.8203V194.692H73.2003V193.36H74.8203V192.316C74.8203 189.904 76.3683 189.184 77.8803 189.184C78.6723 189.184 79.4463 189.346 80.0403 189.58V190.912C79.5543 190.678 78.8703 190.516 78.2223 190.516C77.1783 190.516 76.2603 190.786 76.2603 192.37V193.36H79.5003V194.692H76.2603V202ZM82.4857 202H81.0457V193.36H82.4857V202ZM82.7017 190.606C82.7017 191.218 82.2697 191.524 81.7657 191.524C81.2617 191.524 80.8297 191.218 80.8297 190.606C80.8297 190.012 81.2617 189.688 81.7657 189.688C82.2697 189.688 82.7017 190.012 82.7017 190.606ZM86.4893 194.638C87.0653 193.882 88.2173 193.144 89.6033 193.144C91.6733 193.144 93.2033 194.566 93.2033 196.672V202H91.7633V196.852C91.7633 195.232 90.7733 194.476 89.4413 194.476C88.1633 194.476 87.2093 195.34 86.6333 196.204V202H85.1933V193.36H86.4893V194.638ZM102.778 200.2C102.778 200.722 103.066 200.866 103.444 200.866C103.66 200.866 103.894 200.812 104.11 200.74V201.91C103.768 202.036 103.39 202.108 103.03 202.108C102.328 202.108 101.698 201.82 101.446 201.064C100.582 201.784 99.4838 202.216 98.0798 202.216C96.5498 202.216 95.0378 201.406 95.0378 199.588C95.0378 197.356 97.0898 196.672 98.9438 196.672C99.6998 196.672 100.618 196.78 101.338 196.942V196.636C101.338 195.34 100.456 194.476 98.8718 194.476C97.5398 194.476 96.4778 194.8 95.7218 195.124V193.72C96.4058 193.486 97.5938 193.144 99.0158 193.144C101.32 193.144 102.778 194.404 102.778 196.816V200.2ZM96.5138 199.516C96.5138 200.524 97.4318 200.974 98.3858 200.974C99.4838 200.974 100.582 200.524 101.338 199.714V198.13C100.726 198.004 99.8438 197.878 99.1418 197.878C97.8818 197.878 96.5138 198.256 96.5138 199.516ZM105.585 188.86H107.025V202H105.585V188.86ZM114.539 189.4H118.841C121.757 189.4 124.187 190.318 124.187 193.468C124.187 196.618 121.757 197.536 118.841 197.536H116.051V202H114.539V189.4ZM122.657 193.468C122.657 191.326 120.983 190.84 118.913 190.84H116.051V196.096H118.913C120.965 196.096 122.657 195.592 122.657 193.468ZM126.439 189.4H130.579C135.025 189.4 137.239 192.064 137.239 195.7C137.239 199.336 135.025 202 130.579 202H126.439V189.4ZM135.709 195.7C135.709 192.676 133.981 190.84 130.579 190.84H127.951V200.56H130.579C133.981 200.56 135.709 198.724 135.709 195.7ZM139.728 189.4H148.26V190.84H141.24V195.178H147.738V196.618H141.24V202H139.728V189.4ZM155.694 194.89C156.378 193.756 157.908 193.054 159.42 193.18V194.62C157.728 194.422 156.36 195.232 155.838 196.618V202H154.398V193.36H155.694V194.89ZM160.08 197.68C160.08 194.656 162.33 193.144 164.382 193.144C167.712 193.144 168.936 195.862 168.396 198.31H161.52C161.7 200.128 163.338 200.884 165.084 200.884C166.146 200.884 167.19 200.596 167.928 200.182V201.586C167.136 202 166.002 202.216 164.868 202.216C162.312 202.216 160.08 200.758 160.08 197.68ZM167.118 197.05C167.244 196.132 166.668 194.476 164.472 194.476C162.996 194.476 161.628 195.358 161.52 197.05H167.118ZM171.831 194.8C172.605 193.918 173.667 193.144 175.323 193.144C177.789 193.144 179.643 195.088 179.643 197.68C179.643 200.272 177.789 202.216 175.323 202.216C173.667 202.216 172.605 201.442 171.975 200.704V205.96H170.535V193.36H171.831V194.8ZM178.203 197.68C178.203 195.7 176.835 194.476 175.161 194.476C173.613 194.476 172.461 195.484 171.975 196.6V198.76C172.461 199.876 173.613 200.884 175.161 200.884C176.835 200.884 178.203 199.66 178.203 197.68ZM181.121 197.68C181.121 194.728 183.389 193.144 185.729 193.144C188.087 193.144 190.337 194.728 190.337 197.68C190.337 200.632 188.087 202.216 185.729 202.216C183.389 202.216 181.121 200.632 181.121 197.68ZM188.897 197.68C188.897 195.682 187.493 194.512 185.729 194.512C183.965 194.512 182.561 195.682 182.561 197.68C182.561 199.678 183.965 200.848 185.729 200.848C187.493 200.848 188.897 199.678 188.897 197.68ZM193.698 194.89C194.382 193.756 195.912 193.054 197.424 193.18V194.62C195.732 194.422 194.364 195.232 193.842 196.618V202H192.402V193.36H193.698V194.89ZM199.57 190.678L200.992 190.318V193.36H204.448V194.692H200.992V199.156C200.992 200.47 201.586 200.866 202.846 200.866C203.53 200.866 204.178 200.704 204.754 200.47V201.802C204.106 202.036 203.26 202.198 202.432 202.198C200.758 202.198 199.57 201.298 199.57 199.408V194.692H197.95V193.36H199.57V190.678ZM221.651 193.36H223.163L220.211 202H218.645L216.305 195.322L213.965 202H212.399L209.447 193.36H210.959L213.191 200.416L215.657 193.36H216.953L219.419 200.416L221.651 193.36ZM226.292 202H224.852V193.36H226.292V202ZM226.508 190.606C226.508 191.218 226.076 191.524 225.572 191.524C225.068 191.524 224.636 191.218 224.636 190.606C224.636 190.012 225.068 189.688 225.572 189.688C226.076 189.688 226.508 190.012 226.508 190.606ZM229.576 190.678L230.998 190.318V193.36H234.454V194.692H230.998V199.156C230.998 200.47 231.592 200.866 232.852 200.866C233.536 200.866 234.184 200.704 234.76 200.47V201.802C234.112 202.036 233.266 202.198 232.438 202.198C230.764 202.198 229.576 201.298 229.576 199.408V194.692H227.956V193.36H229.576V190.678ZM236.383 189.4H237.823V194.458C238.435 193.774 239.515 193.144 240.793 193.144C242.863 193.144 244.393 194.566 244.393 196.672V202H242.953V196.852C242.953 195.232 241.963 194.476 240.631 194.476C239.353 194.476 238.399 195.34 237.823 196.204V202H236.383V189.4ZM258.504 189.4H259.944V202H258.648V200.56C257.874 201.442 256.812 202.216 255.156 202.216C252.69 202.216 250.836 200.272 250.836 197.68C250.836 195.088 252.69 193.144 255.156 193.144C256.812 193.144 257.874 193.918 258.504 194.656V189.4ZM258.504 196.6C258.018 195.484 256.866 194.476 255.318 194.476C253.644 194.476 252.276 195.7 252.276 197.68C252.276 199.66 253.644 200.884 255.318 200.884C256.866 200.884 258.018 199.876 258.504 198.76V196.6ZM262.015 197.68C262.015 194.656 264.265 193.144 266.317 193.144C269.647 193.144 270.871 195.862 270.331 198.31H263.455C263.635 200.128 265.273 200.884 267.019 200.884C268.081 200.884 269.125 200.596 269.863 200.182V201.586C269.071 202 267.937 202.216 266.803 202.216C264.247 202.216 262.015 200.758 262.015 197.68ZM269.053 197.05C269.179 196.132 268.603 194.476 266.407 194.476C264.931 194.476 263.563 195.358 263.455 197.05H269.053ZM272.959 190.678L274.381 190.318V193.36H277.837V194.692H274.381V199.156C274.381 200.47 274.975 200.866 276.235 200.866C276.919 200.866 277.567 200.704 278.143 200.47V201.802C277.495 202.036 276.649 202.198 275.821 202.198C274.147 202.198 272.959 201.298 272.959 199.408V194.692H271.339V193.36H272.959V190.678ZM286.786 200.2C286.786 200.722 287.074 200.866 287.452 200.866C287.668 200.866 287.902 200.812 288.118 200.74V201.91C287.776 202.036 287.398 202.108 287.038 202.108C286.336 202.108 285.706 201.82 285.454 201.064C284.59 201.784 283.492 202.216 282.088 202.216C280.558 202.216 279.046 201.406 279.046 199.588C279.046 197.356 281.098 196.672 282.952 196.672C283.708 196.672 284.626 196.78 285.346 196.942V196.636C285.346 195.34 284.464 194.476 282.88 194.476C281.548 194.476 280.486 194.8 279.73 195.124V193.72C280.414 193.486 281.602 193.144 283.024 193.144C285.328 193.144 286.786 194.404 286.786 196.816V200.2ZM280.522 199.516C280.522 200.524 281.44 200.974 282.394 200.974C283.492 200.974 284.59 200.524 285.346 199.714V198.13C284.734 198.004 283.852 197.878 283.15 197.878C281.89 197.878 280.522 198.256 280.522 199.516ZM291.033 202H289.593V193.36H291.033V202ZM291.249 190.606C291.249 191.218 290.817 191.524 290.313 191.524C289.809 191.524 289.377 191.218 289.377 190.606C289.377 190.012 289.809 189.688 290.313 189.688C290.817 189.688 291.249 190.012 291.249 190.606ZM293.776 188.86H295.216V202H293.776V188.86ZM297.33 197.68C297.33 194.656 299.58 193.144 301.632 193.144C304.962 193.144 306.186 195.862 305.646 198.31H298.77C298.95 200.128 300.588 200.884 302.334 200.884C303.396 200.884 304.44 200.596 305.178 200.182V201.586C304.386 202 303.252 202.216 302.118 202.216C299.562 202.216 297.33 200.758 297.33 197.68ZM304.368 197.05C304.494 196.132 303.918 194.476 301.722 194.476C300.246 194.476 298.878 195.358 298.77 197.05H304.368ZM314.859 189.4H316.299V202H315.003V200.56C314.229 201.442 313.167 202.216 311.511 202.216C309.045 202.216 307.191 200.272 307.191 197.68C307.191 195.088 309.045 193.144 311.511 193.144C313.167 193.144 314.229 193.918 314.859 194.656V189.4ZM314.859 196.6C314.373 195.484 313.221 194.476 311.673 194.476C309.999 194.476 308.631 195.7 308.631 197.68C308.631 199.66 309.999 200.884 311.673 200.884C313.221 200.884 314.373 199.876 314.859 198.76V196.6ZM23.6911 220.68C23.6911 217.656 25.9411 216.144 27.9931 216.144C31.3231 216.144 32.5471 218.862 32.0071 221.31H25.1311C25.3111 223.128 26.9491 223.884 28.6951 223.884C29.7571 223.884 30.8011 223.596 31.5391 223.182V224.586C30.7471 225 29.6131 225.216 28.4791 225.216C25.9231 225.216 23.6911 223.758 23.6911 220.68ZM30.7291 220.05C30.8551 219.132 30.2791 217.476 28.0831 217.476C26.6071 217.476 25.2391 218.358 25.1311 220.05H30.7291ZM39.4063 216.36H41.0623L37.8943 220.554L41.2423 225H39.5863L37.0663 221.58L34.5283 225H32.8723L36.2383 220.554L33.0523 216.36H34.7083L37.0663 219.546L39.4063 216.36ZM44.0909 217.8C44.8649 216.918 45.9269 216.144 47.5829 216.144C50.0489 216.144 51.9029 218.088 51.9029 220.68C51.9029 223.272 50.0489 225.216 47.5829 225.216C45.9269 225.216 44.8649 224.442 44.2349 223.704V228.96H42.7949V216.36H44.0909V217.8ZM50.4629 220.68C50.4629 218.7 49.0949 217.476 47.4209 217.476C45.8729 217.476 44.7209 218.484 44.2349 219.6V221.76C44.7209 222.876 45.8729 223.884 47.4209 223.884C49.0949 223.884 50.4629 222.66 50.4629 220.68ZM54.0106 211.86H55.4506V225H54.0106V211.86ZM65.1782 223.2C65.1782 223.722 65.4662 223.866 65.8442 223.866C66.0602 223.866 66.2942 223.812 66.5102 223.74V224.91C66.1682 225.036 65.7902 225.108 65.4302 225.108C64.7282 225.108 64.0982 224.82 63.8462 224.064C62.9822 224.784 61.8842 225.216 60.4802 225.216C58.9502 225.216 57.4382 224.406 57.4382 222.588C57.4382 220.356 59.4902 219.672 61.3442 219.672C62.1002 219.672 63.0182 219.78 63.7382 219.942V219.636C63.7382 218.34 62.8562 217.476 61.2722 217.476C59.9402 217.476 58.8782 217.8 58.1222 218.124V216.72C58.8062 216.486 59.9942 216.144 61.4162 216.144C63.7202 216.144 65.1782 217.404 65.1782 219.816V223.2ZM58.9142 222.516C58.9142 223.524 59.8322 223.974 60.7862 223.974C61.8842 223.974 62.9822 223.524 63.7382 222.714V221.13C63.1262 221.004 62.2442 220.878 61.5422 220.878C60.2822 220.878 58.9142 221.256 58.9142 222.516ZM69.2452 217.638C69.8212 216.882 70.9732 216.144 72.3592 216.144C74.4292 216.144 75.9592 217.566 75.9592 219.672V225H74.5192V219.852C74.5192 218.232 73.5292 217.476 72.1972 217.476C70.9192 217.476 69.9652 218.34 69.3892 219.204V225H67.9492V216.36H69.2452V217.638ZM85.5336 223.2C85.5336 223.722 85.8216 223.866 86.1996 223.866C86.4156 223.866 86.6496 223.812 86.8656 223.74V224.91C86.5236 225.036 86.1456 225.108 85.7856 225.108C85.0836 225.108 84.4536 224.82 84.2016 224.064C83.3376 224.784 82.2396 225.216 80.8356 225.216C79.3056 225.216 77.7936 224.406 77.7936 222.588C77.7936 220.356 79.8456 219.672 81.6996 219.672C82.4556 219.672 83.3736 219.78 84.0936 219.942V219.636C84.0936 218.34 83.2116 217.476 81.6276 217.476C80.2956 217.476 79.2336 217.8 78.4776 218.124V216.72C79.1616 216.486 80.3496 216.144 81.7716 216.144C84.0756 216.144 85.5336 217.404 85.5336 219.816V223.2ZM79.2696 222.516C79.2696 223.524 80.1876 223.974 81.1416 223.974C82.2396 223.974 83.3376 223.524 84.0936 222.714V221.13C83.4816 221.004 82.5996 220.878 81.8976 220.878C80.6376 220.878 79.2696 221.256 79.2696 222.516ZM88.8103 213.678L90.2323 213.318V216.36H93.6883V217.692H90.2323V222.156C90.2323 223.47 90.8263 223.866 92.0863 223.866C92.7703 223.866 93.4183 223.704 93.9943 223.47V224.802C93.3463 225.036 92.5003 225.198 91.6723 225.198C89.9983 225.198 88.8103 224.298 88.8103 222.408V217.692H87.1903V216.36H88.8103V213.678ZM97.0932 225H95.6532V216.36H97.0932V225ZM97.3092 213.606C97.3092 214.218 96.8772 214.524 96.3732 214.524C95.8692 214.524 95.4372 214.218 95.4372 213.606C95.4372 213.012 95.8692 212.688 96.3732 212.688C96.8772 212.688 97.3092 213.012 97.3092 213.606ZM99.2068 220.68C99.2068 217.728 101.475 216.144 103.815 216.144C106.173 216.144 108.423 217.728 108.423 220.68C108.423 223.632 106.173 225.216 103.815 225.216C101.475 225.216 99.2068 223.632 99.2068 220.68ZM106.983 220.68C106.983 218.682 105.579 217.512 103.815 217.512C102.051 217.512 100.647 218.682 100.647 220.68C100.647 222.678 102.051 223.848 103.815 223.848C105.579 223.848 106.983 222.678 106.983 220.68ZM111.784 217.638C112.36 216.882 113.512 216.144 114.898 216.144C116.968 216.144 118.498 217.566 118.498 219.672V225H117.058V219.852C117.058 218.232 116.068 217.476 114.736 217.476C113.458 217.476 112.504 218.34 111.928 219.204V225H110.488V216.36H111.784V217.638ZM120.549 218.628C120.549 216.846 122.223 216.144 123.843 216.144C124.995 216.144 126.093 216.45 126.903 216.882V218.25C126.183 217.782 124.977 217.44 123.933 217.44C122.997 217.44 122.007 217.746 122.007 218.592C122.007 220.464 127.497 219.672 127.497 222.786C127.497 224.586 125.805 225.216 123.933 225.216C122.709 225.216 121.395 224.892 120.585 224.37V222.966C121.467 223.56 122.781 223.884 123.861 223.884C125.085 223.884 126.057 223.686 126.057 222.822C126.057 221.004 120.549 221.724 120.549 218.628ZM133.326 220.68C133.326 217.728 135.594 216.144 137.934 216.144C140.292 216.144 142.542 217.728 142.542 220.68C142.542 223.632 140.292 225.216 137.934 225.216C135.594 225.216 133.326 223.632 133.326 220.68ZM141.102 220.68C141.102 218.682 139.698 217.512 137.934 217.512C136.17 217.512 134.766 218.682 134.766 220.68C134.766 222.678 136.17 223.848 137.934 223.848C139.698 223.848 141.102 222.678 141.102 220.68ZM146.555 225H145.115V217.692H143.495V216.36H145.115V215.316C145.115 212.904 146.663 212.184 148.175 212.184C148.967 212.184 149.741 212.346 150.335 212.58V213.912C149.849 213.678 149.165 213.516 148.517 213.516C147.473 213.516 146.555 213.786 146.555 215.37V216.36H149.795V217.692H146.555V225ZM154.771 220.68C154.771 217.656 157.021 216.144 159.073 216.144C162.403 216.144 163.627 218.862 163.087 221.31H156.211C156.391 223.128 158.029 223.884 159.775 223.884C160.837 223.884 161.881 223.596 162.619 223.182V224.586C161.827 225 160.693 225.216 159.559 225.216C157.003 225.216 154.771 223.758 154.771 220.68ZM161.809 220.05C161.935 219.132 161.359 217.476 159.163 217.476C157.687 217.476 156.319 218.358 156.211 220.05H161.809ZM172.247 223.2C172.247 223.722 172.535 223.866 172.913 223.866C173.129 223.866 173.363 223.812 173.579 223.74V224.91C173.237 225.036 172.859 225.108 172.499 225.108C171.797 225.108 171.167 224.82 170.915 224.064C170.051 224.784 168.953 225.216 167.549 225.216C166.019 225.216 164.507 224.406 164.507 222.588C164.507 220.356 166.559 219.672 168.413 219.672C169.169 219.672 170.087 219.78 170.807 219.942V219.636C170.807 218.34 169.925 217.476 168.341 217.476C167.009 217.476 165.947 217.8 165.191 218.124V216.72C165.875 216.486 167.063 216.144 168.485 216.144C170.789 216.144 172.247 217.404 172.247 219.816V223.2ZM165.983 222.516C165.983 223.524 166.901 223.974 167.855 223.974C168.953 223.974 170.051 223.524 170.807 222.714V221.13C170.195 221.004 169.313 220.878 168.611 220.878C167.351 220.878 165.983 221.256 165.983 222.516ZM174.424 220.716C174.424 217.566 176.854 216.144 179.104 216.144C180.076 216.144 181.03 216.36 181.768 216.846V218.25C181.12 217.746 180.202 217.476 179.284 217.476C177.61 217.476 175.864 218.412 175.864 220.68C175.864 222.894 177.556 223.884 179.248 223.884C180.184 223.884 181.138 223.614 181.858 223.182V224.622C181.048 225.018 180.13 225.216 179.05 225.216C176.782 225.216 174.424 223.794 174.424 220.716ZM183.895 212.4H185.335V217.458C185.947 216.774 187.027 216.144 188.305 216.144C190.375 216.144 191.905 217.566 191.905 219.672V225H190.465V219.852C190.465 218.232 189.475 217.476 188.143 217.476C186.865 217.476 185.911 218.34 185.335 219.204V225H183.895V212.4ZM200.381 225H198.941V216.36H200.237V217.512C200.705 217.008 201.731 216.144 203.189 216.144C204.485 216.144 205.439 216.702 205.961 217.602C206.735 216.81 207.797 216.144 209.111 216.144C211.253 216.144 212.405 217.656 212.405 219.672V225H210.965V219.636C210.965 218.322 210.209 217.476 208.949 217.476C207.779 217.476 206.915 218.286 206.429 218.898C206.465 219.15 206.483 219.402 206.483 219.672V225H205.043V219.636C205.043 218.322 204.287 217.476 203.027 217.476C201.749 217.476 200.849 218.43 200.381 219.042V225ZM214.361 220.68C214.361 217.656 216.611 216.144 218.663 216.144C221.993 216.144 223.217 218.862 222.677 221.31H215.801C215.981 223.128 217.619 223.884 219.365 223.884C220.427 223.884 221.471 223.596 222.209 223.182V224.586C221.417 225 220.283 225.216 219.149 225.216C216.593 225.216 214.361 223.758 214.361 220.68ZM221.399 220.05C221.525 219.132 220.949 217.476 218.753 217.476C217.277 217.476 215.909 218.358 215.801 220.05H221.399ZM225.304 213.678L226.726 213.318V216.36H230.182V217.692H226.726V222.156C226.726 223.47 227.32 223.866 228.58 223.866C229.264 223.866 229.912 223.704 230.488 223.47V224.802C229.84 225.036 228.994 225.198 228.166 225.198C226.492 225.198 225.304 224.298 225.304 222.408V217.692H223.684V216.36H225.304V213.678ZM233.407 217.89C234.091 216.756 235.621 216.054 237.133 216.18V217.62C235.441 217.422 234.073 218.232 233.551 219.618V225H232.111V216.36H233.407V217.89ZM240.179 225H238.739V216.36H240.179V225ZM240.395 213.606C240.395 214.218 239.963 214.524 239.459 214.524C238.955 214.524 238.523 214.218 238.523 213.606C238.523 213.012 238.955 212.688 239.459 212.688C239.963 212.688 240.395 213.012 240.395 213.606ZM242.293 220.716C242.293 217.566 244.723 216.144 246.973 216.144C247.945 216.144 248.899 216.36 249.637 216.846V218.25C248.989 217.746 248.071 217.476 247.153 217.476C245.479 217.476 243.733 218.412 243.733 220.68C243.733 222.894 245.425 223.884 247.117 223.884C248.053 223.884 249.007 223.614 249.727 223.182V224.622C248.917 225.018 247.999 225.216 246.919 225.216C244.651 225.216 242.293 223.794 242.293 220.716ZM253.312 224.244C253.312 224.856 252.88 225.162 252.376 225.162C251.872 225.162 251.422 224.856 251.422 224.244C251.422 223.65 251.872 223.344 252.376 223.344C252.88 223.344 253.312 223.65 253.312 224.244Z" fill="#98C2FA"/>
</svg>
