<svg width="576" height="62" viewBox="0 0 576 62" fill="none" xmlns="http://www.w3.org/2000/svg">
<rect x="1" y="1" width="574" height="60" rx="9" fill="#11183C"/>
<rect x="1" y="1" width="574" height="60" rx="9" stroke="#4395FF" stroke-width="2"/>
<path fill-rule="evenodd" clip-rule="evenodd" d="M31 31C31 23.2683 37.2683 17 45 17C52.7317 17 59 23.2683 59 31C59 38.7317 52.7317 45 45 45C37.2683 45 31 38.7317 31 31ZM45 19C38.3729 19 33 24.3729 33 31C33 37.6271 38.3729 43 45 43C51.6271 43 57 37.6271 57 31C57 24.3729 51.6271 19 45 19Z" fill="#98C2FA"/>
<path fill-rule="evenodd" clip-rule="evenodd" d="M39.2437 21.3221C40.6113 18.8602 42.634 17 44.9999 17C47.3658 17 49.3885 18.8602 50.756 21.3221C52.1557 23.8419 53.0418 27.263 53.0418 31C53.0418 34.737 52.1557 38.1581 50.756 40.6779C49.3885 43.1398 47.3658 45 44.9999 45C42.634 45 40.6113 43.1398 39.2437 40.6779C37.8441 38.1581 36.958 34.737 36.958 31C36.958 27.263 37.8441 23.8419 39.2437 21.3221ZM40.9921 22.2933C39.7782 24.4788 38.958 27.5576 38.958 31C38.958 34.4424 39.7782 37.5212 40.9921 39.7067C42.2382 41.9499 43.7364 43 44.9999 43C46.2634 43 47.7616 41.9499 49.0076 39.7067C50.2216 37.5212 51.0418 34.4424 51.0418 31C51.0418 27.5576 50.2216 24.4788 49.0076 22.2933C47.7616 20.0501 46.2634 19 44.9999 19C43.7364 19 42.2382 20.0501 40.9921 22.2933Z" fill="#98C2FA"/>
<path fill-rule="evenodd" clip-rule="evenodd" d="M35.5177 21.7542C35.8374 21.3038 36.4617 21.198 36.912 21.5177C39.1326 23.0943 41.939 24.0418 45 24.0418C48.0609 24.0418 50.8673 23.0943 53.0879 21.5177C53.5382 21.198 54.1625 21.3038 54.4822 21.7542C54.802 22.2045 54.6961 22.8287 54.2458 23.1485C51.6864 24.9656 48.4752 26.0418 45 26.0418C41.5247 26.0418 38.3136 24.9656 35.7542 23.1485C35.3038 22.8287 35.198 22.2045 35.5177 21.7542Z" fill="#98C2FA"/>
<path fill-rule="evenodd" clip-rule="evenodd" d="M35.7542 38.8514C38.3136 37.0342 41.5247 35.958 45 35.958C48.4752 35.958 51.6864 37.0342 54.2458 38.8514C54.6961 39.1711 54.802 39.7954 54.4822 40.2457C54.1625 40.696 53.5382 40.8019 53.0879 40.4821C50.8673 38.9055 48.0609 37.958 45 37.958C41.939 37.958 39.1326 38.9055 36.912 40.4821C36.4617 40.8019 35.8374 40.696 35.5177 40.2457C35.198 39.7954 35.3038 39.1711 35.7542 38.8514Z" fill="#98C2FA"/>
<path fill-rule="evenodd" clip-rule="evenodd" d="M44 44V18H46V44H44Z" fill="#98C2FA"/>
<path fill-rule="evenodd" clip-rule="evenodd" d="M32 30H58V32H32V30Z" fill="#98C2FA"/>
<path d="M73.4683 22.7H80.5723C84.0763 22.7 86.3323 24.092 86.3323 26.948C86.3323 28.988 85.1083 30.188 83.6923 30.644C85.2043 31.076 87.0043 32.228 87.0043 34.844C87.0043 38.66 83.2843 39.5 80.6203 39.5H73.4683V22.7ZM84.2203 34.556C84.2203 32.324 82.2523 31.988 80.7403 31.988H76.2043V37.1H80.3563C82.2283 37.1 84.2203 36.884 84.2203 34.556ZM83.5483 27.38C83.5483 25.7 82.3003 25.076 80.2843 25.076H76.2043V29.66L80.6683 29.684C82.2523 29.684 83.5483 29.012 83.5483 27.38ZM88.4786 31.1C88.4786 26.66 91.3826 22.388 97.3106 22.388C103.215 22.388 106.143 26.66 106.143 31.1C106.143 35.54 103.215 39.812 97.3106 39.812C91.3826 39.812 88.4786 35.54 88.4786 31.1ZM103.359 31.1C103.359 27.884 101.391 24.956 97.3106 24.956C93.2546 24.956 91.2626 27.884 91.2626 31.1C91.2626 34.316 93.2546 37.244 97.3106 37.244C101.391 37.244 103.359 34.316 103.359 31.1ZM106.289 22.7H120.137V25.22H114.593V39.5H111.857V25.22H106.289V22.7ZM122.044 22.7H133.636V25.22H124.78V30.14H132.94V32.684H124.78V39.5H122.044V22.7ZM135.767 39.5H132.863L139.967 22.7H142.967L150.047 39.5H147.167L145.679 35.876H137.255L135.767 39.5ZM141.143 26.3L138.191 33.476H144.719L141.767 26.3C141.671 26.036 141.575 25.772 141.455 25.364C141.335 25.772 141.239 26.036 141.143 26.3ZM167.598 39.236L165.798 40.964L163.494 38.636C162.222 39.38 160.638 39.812 158.766 39.812C152.838 39.812 149.934 35.54 149.934 31.1C149.934 26.66 152.838 22.388 158.766 22.388C164.67 22.388 167.598 26.66 167.598 31.1C167.598 33.308 166.878 35.468 165.414 37.076L167.598 39.236ZM152.718 31.1C152.718 34.316 154.71 37.244 158.766 37.244C159.822 37.244 160.734 37.004 161.502 36.644L158.982 34.124L160.758 32.396L163.47 35.108C164.382 34.028 164.814 32.588 164.814 31.1C164.814 27.884 162.846 24.932 158.766 24.932C154.71 24.932 152.718 27.884 152.718 31.1ZM167.744 22.7H181.592V25.22H176.048V39.5H173.312V25.22H167.744V22.7ZM181.739 31.1C181.739 26.66 184.643 22.388 190.571 22.388C196.475 22.388 199.403 26.66 199.403 31.1C199.403 35.54 196.475 39.812 190.571 39.812C184.643 39.812 181.739 35.54 181.739 31.1ZM196.619 31.1C196.619 27.884 194.651 24.956 190.571 24.956C186.515 24.956 184.523 27.884 184.523 31.1C184.523 34.316 186.515 37.244 190.571 37.244C194.651 37.244 196.619 34.316 196.619 31.1ZM204.669 39.5H201.933V22.7H208.653C211.797 22.7 215.109 23.948 215.109 27.956C215.109 30.956 213.237 32.396 211.029 32.924L216.405 39.5H213.117L208.077 33.212H204.669V39.5ZM204.669 25.196V30.788H208.773C210.573 30.788 212.325 30.14 212.325 28.004C212.325 25.844 210.573 25.196 208.773 25.196H204.669ZM223.473 22.7H229.473C233.457 22.7 236.649 23.948 236.649 28.22C236.649 32.492 233.457 33.74 229.473 33.74H226.209V39.5H223.473V22.7ZM233.865 28.22C233.865 25.772 231.945 25.196 229.617 25.196H226.209V31.244H229.617C231.921 31.244 233.865 30.668 233.865 28.22ZM241.643 39.5H238.907V22.7H245.627C248.771 22.7 252.083 23.948 252.083 27.956C252.083 30.956 250.211 32.396 248.003 32.924L253.379 39.5H250.091L245.051 33.212H241.643V39.5ZM241.643 25.196V30.788H245.747C247.547 30.788 249.299 30.14 249.299 28.004C249.299 25.844 247.547 25.196 245.747 25.196H241.643ZM253.964 31.1C253.964 26.66 256.868 22.388 262.796 22.388C268.7 22.388 271.628 26.66 271.628 31.1C271.628 35.54 268.7 39.812 262.796 39.812C256.868 39.812 253.964 35.54 253.964 31.1ZM268.844 31.1C268.844 27.884 266.876 24.956 262.796 24.956C258.74 24.956 256.748 27.884 256.748 31.1C256.748 34.316 258.74 37.244 262.796 37.244C266.876 37.244 268.844 34.316 268.844 31.1ZM274.158 22.7H280.038C285.99 22.7 288.87 26.228 288.87 31.1C288.87 35.972 285.99 39.5 280.038 39.5H274.158V22.7ZM286.086 31.1C286.086 27.332 283.998 25.196 280.014 25.196H276.894V37.004H280.014C283.998 37.004 286.086 34.868 286.086 31.1ZM302.915 22.7H305.651V33.284C305.651 38.156 302.219 39.812 298.499 39.812C294.755 39.812 291.299 38.156 291.299 33.284V22.7H294.035V33.14C294.035 36.188 295.883 37.268 298.499 37.268C301.067 37.268 302.915 36.188 302.915 33.14V22.7ZM308.049 31.244C308.049 25.268 312.537 22.388 316.953 22.388C318.633 22.388 320.289 22.772 321.729 23.492V26.156C320.553 25.34 318.993 24.908 317.409 24.908C314.193 24.908 310.857 26.804 310.833 31.244C310.833 35.372 314.241 37.292 317.457 37.292C319.185 37.292 320.745 36.836 321.849 35.996V38.708C320.433 39.404 318.753 39.812 316.977 39.812C312.633 39.812 308.025 36.98 308.049 31.244ZM322.623 22.7H336.471V25.22H330.927V39.5H328.191V25.22H322.623V22.7ZM345.58 39.5H342.844V22.7H349.564C352.708 22.7 356.02 23.948 356.02 27.956C356.02 30.956 354.148 32.396 351.94 32.924L357.316 39.5H354.028L348.988 33.212H345.58V39.5ZM345.58 25.196V30.788H349.684C351.484 30.788 353.236 30.14 353.236 28.004C353.236 25.844 351.484 25.196 349.684 25.196H345.58ZM359.192 22.7H370.76V25.196H361.928V29.78H370.04V32.276H361.928V37.004H370.904V39.5H359.192V22.7ZM373.595 22.7H379.595C383.579 22.7 386.771 23.948 386.771 28.22C386.771 32.492 383.579 33.74 379.595 33.74H376.331V39.5H373.595V22.7ZM383.987 28.22C383.987 25.772 382.067 25.196 379.739 25.196H376.331V31.244H379.739C382.043 31.244 383.987 30.668 383.987 28.22ZM391.765 39.5H389.029V22.7H395.749C398.893 22.7 402.205 23.948 402.205 27.956C402.205 30.956 400.333 32.396 398.125 32.924L403.501 39.5H400.213L395.173 33.212H391.765V39.5ZM391.765 25.196V30.788H395.869C397.669 30.788 399.421 30.14 399.421 28.004C399.421 25.844 397.669 25.196 395.869 25.196H391.765ZM405.377 22.7H416.945V25.196H408.113V29.78H416.225V32.276H408.113V37.004H417.089V39.5H405.377V22.7ZM418.892 26.972C418.892 23.876 421.628 22.388 424.796 22.388C426.716 22.388 428.684 22.868 430.052 23.66V26.276C428.684 25.364 426.812 24.86 425.012 24.884C422.972 24.884 421.676 25.484 421.676 26.924C421.676 30.548 431.276 29.084 431.276 35.084C431.276 38.612 428.276 39.836 424.916 39.812C422.66 39.812 420.62 39.284 418.964 38.348V35.66C420.788 36.836 422.804 37.316 424.724 37.316C426.884 37.316 428.492 36.812 428.492 35.228C428.492 31.34 418.892 32.924 418.892 26.972ZM433.55 22.7H445.118V25.196H436.286V29.78H444.398V32.276H436.286V37.004H445.262V39.5H433.55V22.7ZM450.689 39.5H447.953V22.7H450.521L459.569 34.988C459.545 34.412 459.545 33.764 459.545 33.14V22.7H462.281V39.5H459.713L450.665 27.212C450.689 27.788 450.689 28.436 450.689 29.036V39.5ZM464.167 22.7H478.015V25.22H472.471V39.5H469.735V25.22H464.167V22.7ZM478.985 39.5H476.081L483.185 22.7H486.185L493.265 39.5H490.385L488.897 35.876H480.473L478.985 39.5ZM484.361 26.3L481.409 33.476H487.937L484.985 26.3C484.889 26.036 484.793 25.772 484.673 25.364C484.553 25.772 484.457 26.036 484.361 26.3ZM491.309 22.7H505.157V25.22H499.613V39.5H496.877V25.22H491.309V22.7ZM507.064 22.7H509.8V39.5H507.064V22.7ZM521.18 39.5H518.348L511.58 22.7H514.532L519.764 36.332L524.996 22.7H527.948L521.18 39.5ZM529.729 22.7H541.297V25.196H532.465V29.78H540.577V32.276H532.465V37.004H541.441V39.5H529.729V22.7Z" fill="#98C2FA"/>
</svg>
