<svg width="330" height="56" viewBox="0 0 330 56" fill="none" xmlns="http://www.w3.org/2000/svg">
<rect x="1" y="1" width="328" height="54" rx="9" fill="#11183C"/>
<rect x="1" y="1" width="328" height="54" rx="9" stroke="#4395FF" stroke-width="2"/>
<path fill-rule="evenodd" clip-rule="evenodd" d="M70.75 28C70.75 21.2348 76.2348 15.75 83 15.75C89.7652 15.75 95.25 21.2348 95.25 28C95.25 34.7652 89.7652 40.25 83 40.25C76.2348 40.25 70.75 34.7652 70.75 28ZM83 17.5C77.2013 17.5 72.5 22.2013 72.5 28C72.5 33.7987 77.2013 38.5 83 38.5C88.7987 38.5 93.5 33.7987 93.5 28C93.5 22.2013 88.7987 17.5 83 17.5Z" fill="#98C2FA"/>
<path fill-rule="evenodd" clip-rule="evenodd" d="M77.9629 19.5319C79.1595 17.3777 80.9294 15.75 82.9995 15.75C85.0697 15.75 86.8396 17.3777 88.0362 19.5319C89.2608 21.7366 90.0362 24.7301 90.0362 28C90.0362 31.2699 89.2608 34.2634 88.0362 36.4681C86.8396 38.6223 85.0697 40.25 82.9995 40.25C80.9294 40.25 79.1595 38.6223 77.9629 36.4681C76.7382 34.2634 75.9629 31.2699 75.9629 28C75.9629 24.7301 76.7382 21.7366 77.9629 19.5319ZM79.4927 20.3817C78.4305 22.2939 77.7129 24.9879 77.7129 28C77.7129 31.0121 78.4305 33.7061 79.4927 35.6183C80.583 37.5812 81.894 38.5 82.9995 38.5C84.1051 38.5 85.416 37.5812 86.5063 35.6183C87.5685 33.7061 88.2862 31.0121 88.2862 28C88.2862 24.9879 87.5685 22.2939 86.5063 20.3817C85.416 18.4188 84.1051 17.5 82.9995 17.5C81.894 17.5 80.583 18.4188 79.4927 20.3817Z" fill="#98C2FA"/>
<path fill-rule="evenodd" clip-rule="evenodd" d="M74.7026 19.9095C74.9824 19.5155 75.5286 19.4229 75.9226 19.7026C77.8657 21.0822 80.3213 21.9112 82.9996 21.9112C85.6779 21.9112 88.1335 21.0822 90.0766 19.7026C90.4706 19.4229 91.0168 19.5155 91.2966 19.9095C91.5763 20.3036 91.4837 20.8498 91.0897 21.1295C88.8502 22.7195 86.0405 23.6612 82.9996 23.6612C79.9587 23.6612 77.149 22.7195 74.9095 21.1295C74.5155 20.8498 74.4229 20.3036 74.7026 19.9095Z" fill="#98C2FA"/>
<path fill-rule="evenodd" clip-rule="evenodd" d="M74.9095 34.8696C77.149 33.2796 79.9587 32.3379 82.9996 32.3379C86.0405 32.3379 88.8502 33.2796 91.0897 34.8696C91.4837 35.1493 91.5763 35.6956 91.2966 36.0896C91.0168 36.4836 90.4706 36.5763 90.0766 36.2965C88.1335 34.917 85.6779 34.0879 82.9996 34.0879C80.3213 34.0879 77.8657 34.917 75.9226 36.2965C75.5286 36.5763 74.9824 36.4836 74.7026 36.0896C74.4229 35.6956 74.5155 35.1493 74.9095 34.8696Z" fill="#98C2FA"/>
<path fill-rule="evenodd" clip-rule="evenodd" d="M82.125 39.375V16.625H83.875V39.375H82.125Z" fill="#98C2FA"/>
<path fill-rule="evenodd" clip-rule="evenodd" d="M71.625 27.125H94.375V28.875H71.625V27.125Z" fill="#98C2FA"/>
<path d="M105.19 13.2H109.334C111.378 13.2 112.694 14.012 112.694 15.678C112.694 16.868 111.98 17.568 111.154 17.834C112.036 18.086 113.086 18.758 113.086 20.284C113.086 22.51 110.916 23 109.362 23H105.19V13.2ZM111.462 20.116C111.462 18.814 110.314 18.618 109.432 18.618H106.786V21.6H109.208C110.3 21.6 111.462 21.474 111.462 20.116ZM111.07 15.93C111.07 14.95 110.342 14.586 109.166 14.586H106.786V17.26L109.39 17.274C110.314 17.274 111.07 16.882 111.07 15.93ZM113.946 18.1C113.946 15.51 115.64 13.018 119.098 13.018C122.542 13.018 124.25 15.51 124.25 18.1C124.25 20.69 122.542 23.182 119.098 23.182C115.64 23.182 113.946 20.69 113.946 18.1ZM122.626 18.1C122.626 16.224 121.478 14.516 119.098 14.516C116.732 14.516 115.57 16.224 115.57 18.1C115.57 19.976 116.732 21.684 119.098 21.684C121.478 21.684 122.626 19.976 122.626 18.1ZM124.335 13.2H132.413V14.67H129.179V23H127.583V14.67H124.335V13.2ZM133.526 13.2H140.288V14.67H135.122V17.54H139.882V19.024H135.122V23H133.526V13.2ZM141.531 23H139.837L143.981 13.2H145.731L149.861 23H148.181L147.313 20.886H142.399L141.531 23ZM144.667 15.3L142.945 19.486H146.753L145.031 15.3C144.975 15.146 144.919 14.992 144.849 14.754C144.779 14.992 144.723 15.146 144.667 15.3ZM160.099 22.846L159.049 23.854L157.705 22.496C156.963 22.93 156.039 23.182 154.947 23.182C151.489 23.182 149.795 20.69 149.795 18.1C149.795 15.51 151.489 13.018 154.947 13.018C158.391 13.018 160.099 15.51 160.099 18.1C160.099 19.388 159.679 20.648 158.825 21.586L160.099 22.846ZM151.419 18.1C151.419 19.976 152.581 21.684 154.947 21.684C155.563 21.684 156.095 21.544 156.543 21.334L155.073 19.864L156.109 18.856L157.691 20.438C158.223 19.808 158.475 18.968 158.475 18.1C158.475 16.224 157.327 14.502 154.947 14.502C152.581 14.502 151.419 16.224 151.419 18.1ZM160.184 13.2H168.262V14.67H165.028V23H163.432V14.67H160.184V13.2ZM168.348 18.1C168.348 15.51 170.042 13.018 173.5 13.018C176.944 13.018 178.652 15.51 178.652 18.1C178.652 20.69 176.944 23.182 173.5 23.182C170.042 23.182 168.348 20.69 168.348 18.1ZM177.028 18.1C177.028 16.224 175.88 14.516 173.5 14.516C171.134 14.516 169.972 16.224 169.972 18.1C169.972 19.976 171.134 21.684 173.5 21.684C175.88 21.684 177.028 19.976 177.028 18.1ZM181.724 23H180.128V13.2H184.048C185.882 13.2 187.814 13.928 187.814 16.266C187.814 18.016 186.722 18.856 185.434 19.164L188.57 23H186.652L183.712 19.332H181.724V23ZM181.724 14.656V17.918H184.118C185.168 17.918 186.19 17.54 186.19 16.294C186.19 15.034 185.168 14.656 184.118 14.656H181.724ZM192.693 13.2H196.193C198.517 13.2 200.379 13.928 200.379 16.42C200.379 18.912 198.517 19.64 196.193 19.64H194.289V23H192.693V13.2ZM198.755 16.42C198.755 14.992 197.635 14.656 196.277 14.656H194.289V18.184H196.277C197.621 18.184 198.755 17.848 198.755 16.42ZM203.292 23H201.696V13.2H205.616C207.45 13.2 209.382 13.928 209.382 16.266C209.382 18.016 208.29 18.856 207.002 19.164L210.138 23H208.22L205.28 19.332H203.292V23ZM203.292 14.656V17.918H205.686C206.736 17.918 207.758 17.54 207.758 16.294C207.758 15.034 206.736 14.656 205.686 14.656H203.292ZM210.479 18.1C210.479 15.51 212.173 13.018 215.631 13.018C219.075 13.018 220.783 15.51 220.783 18.1C220.783 20.69 219.075 23.182 215.631 23.182C212.173 23.182 210.479 20.69 210.479 18.1ZM219.159 18.1C219.159 16.224 218.011 14.516 215.631 14.516C213.265 14.516 212.103 16.224 212.103 18.1C212.103 19.976 213.265 21.684 215.631 21.684C218.011 21.684 219.159 19.976 219.159 18.1ZM222.259 13.2H225.689C229.161 13.2 230.841 15.258 230.841 18.1C230.841 20.942 229.161 23 225.689 23H222.259V13.2ZM229.217 18.1C229.217 15.902 227.999 14.656 225.675 14.656H223.855V21.544H225.675C227.999 21.544 229.217 20.298 229.217 18.1ZM239.034 13.2H240.63V19.374C240.63 22.216 238.628 23.182 236.458 23.182C234.274 23.182 232.258 22.216 232.258 19.374V13.2H233.854V19.29C233.854 21.068 234.932 21.698 236.458 21.698C237.956 21.698 239.034 21.068 239.034 19.29V13.2ZM242.029 18.184C242.029 14.698 244.647 13.018 247.223 13.018C248.203 13.018 249.169 13.242 250.009 13.662V15.216C249.323 14.74 248.413 14.488 247.489 14.488C245.613 14.488 243.667 15.594 243.653 18.184C243.653 20.592 245.641 21.712 247.517 21.712C248.525 21.712 249.435 21.446 250.079 20.956V22.538C249.253 22.944 248.273 23.182 247.237 23.182C244.703 23.182 242.015 21.53 242.029 18.184ZM250.53 13.2H258.608V14.67H255.374V23H253.778V14.67H250.53V13.2ZM106.786 41H105.19V31.2H109.11C110.944 31.2 112.876 31.928 112.876 34.266C112.876 36.016 111.784 36.856 110.496 37.164L113.632 41H111.714L108.774 37.332H106.786V41ZM106.786 32.656V35.918H109.18C110.23 35.918 111.252 35.54 111.252 34.294C111.252 33.034 110.23 32.656 109.18 32.656H106.786ZM114.726 31.2H121.474V32.656H116.322V35.33H121.054V36.786H116.322V39.544H121.558V41H114.726V31.2ZM123.128 31.2H126.628C128.952 31.2 130.814 31.928 130.814 34.42C130.814 36.912 128.952 37.64 126.628 37.64H124.724V41H123.128V31.2ZM129.19 34.42C129.19 32.992 128.07 32.656 126.712 32.656H124.724V36.184H126.712C128.056 36.184 129.19 35.848 129.19 34.42ZM133.727 41H132.131V31.2H136.051C137.885 31.2 139.817 31.928 139.817 34.266C139.817 36.016 138.725 36.856 137.437 37.164L140.573 41H138.655L135.715 37.332H133.727V41ZM133.727 32.656V35.918H136.121C137.171 35.918 138.193 35.54 138.193 34.294C138.193 33.034 137.171 32.656 136.121 32.656H133.727ZM141.668 31.2H148.416V32.656H143.264V35.33H147.996V36.786H143.264V39.544H148.5V41H141.668V31.2ZM149.551 33.692C149.551 31.886 151.147 31.018 152.995 31.018C154.115 31.018 155.263 31.298 156.061 31.76V33.286C155.263 32.754 154.171 32.46 153.121 32.474C151.931 32.474 151.175 32.824 151.175 33.664C151.175 35.778 156.775 34.924 156.775 38.424C156.775 40.482 155.025 41.196 153.065 41.182C151.749 41.182 150.559 40.874 149.593 40.328V38.76C150.657 39.446 151.833 39.726 152.953 39.726C154.213 39.726 155.151 39.432 155.151 38.508C155.151 36.24 149.551 37.164 149.551 33.692ZM158.102 31.2H164.85V32.656H159.698V35.33H164.43V36.786H159.698V39.544H164.934V41H158.102V31.2ZM168.099 41H166.503V31.2H168.001L173.279 38.368C173.265 38.032 173.265 37.654 173.265 37.29V31.2H174.861V41H173.363L168.085 33.832C168.099 34.168 168.099 34.546 168.099 34.896V41ZM175.962 31.2H184.04V32.67H180.806V41H179.21V32.67H175.962V31.2ZM184.606 41H182.912L187.056 31.2H188.806L192.936 41H191.256L190.388 38.886H185.474L184.606 41ZM187.742 33.3L186.02 37.486H189.828L188.106 33.3C188.05 33.146 187.994 32.992 187.924 32.754C187.854 32.992 187.798 33.146 187.742 33.3ZM191.794 31.2H199.872V32.67H196.638V41H195.042V32.67H191.794V31.2ZM200.985 31.2H202.581V41H200.985V31.2ZM209.22 41H207.568L203.62 31.2H205.342L208.394 39.152L211.446 31.2H213.168L209.22 41ZM214.206 31.2H220.954V32.656H215.802V35.33H220.534V36.786H215.802V39.544H221.038V41H214.206V31.2Z" fill="#98C2FA"/>
</svg>
