<svg width="695" height="583" viewBox="0 0 695 583" fill="none" xmlns="http://www.w3.org/2000/svg">
<path d="M255.611 192.829H6.63086C3.42654 192.829 0.829102 195.427 0.829102 198.631V341.369C0.829102 344.573 3.42654 347.171 6.63086 347.171H255.611C258.816 347.171 261.413 344.573 261.413 341.369V285.865C261.413 283.707 262.347 281.655 263.975 280.238L270.71 274.376C273.366 272.063 273.366 267.937 270.71 265.624L263.975 259.762C262.347 258.345 261.413 256.293 261.413 254.135V198.631C261.413 195.427 258.816 192.829 255.611 192.829Z" fill="#11183C" stroke="white" stroke-width="1.65769"/>
<rect x="15" y="210" width="42" height="42" rx="4.46809" fill="#563234"/>
<path d="M41.864 227.649H41.0262V223.46C41.0262 222.127 40.4966 220.849 39.5539 219.906C38.6113 218.963 37.3327 218.434 35.9996 218.434C34.6665 218.434 33.3879 218.963 32.4453 219.906C31.5026 220.849 30.973 222.127 30.973 223.46V227.649H30.1352C29.2468 227.65 28.395 228.003 27.7668 228.632C27.1385 229.26 26.7851 230.112 26.7842 231V240.216C26.7851 241.104 27.1385 241.956 27.7668 242.584C28.395 243.212 29.2468 243.566 30.1352 243.567H41.864C42.7524 243.566 43.6042 243.212 44.2325 242.584C44.8607 241.956 45.2141 241.104 45.215 240.216V231C45.2141 230.112 44.8607 229.26 44.2325 228.632C43.6042 228.003 42.7524 227.65 41.864 227.649ZM39.3507 227.649H32.6485V223.46C32.6485 222.571 33.0016 221.719 33.63 221.091C34.2585 220.462 35.1108 220.109 35.9996 220.109C36.8884 220.109 37.7407 220.462 38.3692 221.091C38.9976 221.719 39.3507 222.571 39.3507 223.46V227.649Z" fill="#FF7221"/>
<path d="M67.96 214.56C67.96 211.98 70.24 210.74 72.88 210.74C74.48 210.74 76.12 211.14 77.26 211.8V213.98C76.12 213.22 74.56 212.8 73.06 212.82C71.36 212.82 70.28 213.32 70.28 214.52C70.28 217.54 78.28 216.32 78.28 221.32C78.28 224.26 75.78 225.28 72.98 225.26C71.1 225.26 69.4 224.82 68.02 224.04V221.8C69.54 222.78 71.22 223.18 72.82 223.18C74.62 223.18 75.96 222.76 75.96 221.44C75.96 218.2 67.96 219.52 67.96 214.56ZM88.395 222.78C88.395 223.32 88.715 223.48 89.095 223.48C89.315 223.48 89.535 223.42 89.735 223.36V224.9C89.335 225.06 88.855 225.14 88.375 225.14C87.495 225.14 86.795 224.8 86.455 224.02C85.515 224.78 84.335 225.26 82.835 225.26C81.095 225.26 79.475 224.3 79.475 222.32C79.475 219.86 81.755 219.1 83.755 219.1C84.575 219.1 85.495 219.22 86.255 219.38V219.04C86.255 217.84 85.375 217 83.735 217C82.315 217 81.135 217.36 80.275 217.74V215.78C81.035 215.52 82.415 215.14 83.955 215.14C86.675 215.14 88.395 216.44 88.395 219.34V222.78ZM84.175 220.6C82.955 220.6 81.675 220.98 81.675 222.18C81.675 223.12 82.515 223.6 83.475 223.6C84.495 223.6 85.495 223.22 86.255 222.46V220.84C85.675 220.72 84.855 220.6 84.175 220.6ZM94.113 225H91.973V217.28H90.233V215.4H91.973V214.34C91.973 211.56 93.793 210.74 95.553 210.74C96.433 210.74 97.273 210.92 97.933 211.16V213.04C97.453 212.8 96.753 212.62 96.073 212.62C95.033 212.62 94.113 212.92 94.113 214.42V215.4H97.393V217.28H94.113V225ZM98.1306 220.2C98.1306 216.72 100.771 215.14 102.991 215.14C106.811 215.14 108.131 218.22 107.511 221H100.291C100.531 222.72 102.211 223.44 103.971 223.44C105.131 223.44 106.191 223.16 107.011 222.76V224.6C106.131 225.02 104.911 225.26 103.571 225.26C100.631 225.26 98.1306 223.58 98.1306 220.2ZM105.591 219.4C105.711 218.56 105.191 216.92 103.091 216.92C101.651 216.92 100.351 217.78 100.271 219.4H105.591ZM122.594 222.78C122.594 223.32 122.914 223.48 123.294 223.48C123.514 223.48 123.734 223.42 123.934 223.36V224.9C123.534 225.06 123.054 225.14 122.574 225.14C121.694 225.14 120.994 224.8 120.654 224.02C119.714 224.78 118.534 225.26 117.034 225.26C115.294 225.26 113.674 224.3 113.674 222.32C113.674 219.86 115.954 219.1 117.954 219.1C118.774 219.1 119.694 219.22 120.454 219.38V219.04C120.454 217.84 119.574 217 117.934 217C116.514 217 115.334 217.36 114.474 217.74V215.78C115.234 215.52 116.614 215.14 118.154 215.14C120.874 215.14 122.594 216.44 122.594 219.34V222.78ZM118.374 220.6C117.154 220.6 115.874 220.98 115.874 222.18C115.874 223.12 116.714 223.6 117.674 223.6C118.694 223.6 119.694 223.22 120.454 222.46V220.84C119.874 220.72 119.054 220.6 118.374 220.6ZM127.31 216.72C128.01 215.88 129.19 215.14 130.65 215.14C133.07 215.14 134.61 216.78 134.61 219.06V225H132.47V219.34C132.47 217.78 131.51 217.04 130.23 217.04C129.01 217.04 128.09 217.86 127.55 218.64V225H125.41V215.4H127.31V216.72ZM144.788 211H146.928V225H145.008V223.48C144.268 224.42 143.128 225.26 141.328 225.26C138.428 225.26 136.568 222.96 136.568 220.2C136.568 217.44 138.428 215.14 141.328 215.14C143.008 215.14 144.128 215.88 144.788 216.64V211ZM144.768 219.02C144.308 217.98 143.208 217.02 141.708 217.02C139.988 217.02 138.728 218.32 138.728 220.2C138.728 222.08 139.988 223.38 141.708 223.38C143.208 223.38 144.308 222.42 144.768 221.36V219.02ZM67.74 244.28C67.74 240.7 70.48 239.14 73.04 239.14C74.12 239.14 75.16 239.38 76 239.88V241.84C75.3 241.34 74.32 241.04 73.34 241.04C71.64 241.04 69.92 241.94 69.92 244.2C69.92 246.38 71.58 247.36 73.3 247.36C74.32 247.36 75.34 247.06 76.1 246.62V248.6C75.18 249.04 74.14 249.26 72.92 249.26C70.36 249.26 67.74 247.7 67.74 244.28ZM77.4861 244.2C77.4861 240.88 80.0061 239.14 82.6861 239.14C85.3861 239.14 87.8861 240.88 87.8861 244.2C87.8861 247.52 85.3861 249.26 82.6861 249.26C80.0061 249.26 77.4861 247.52 77.4861 244.2ZM85.7061 244.2C85.7061 242.32 84.4661 241.1 82.6861 241.1C80.8861 241.1 79.6461 242.32 79.6461 244.2C79.6461 246.08 80.8861 247.3 82.6861 247.3C84.4661 247.3 85.7061 246.08 85.7061 244.2ZM91.8611 240.72C92.5611 239.88 93.7411 239.14 95.2011 239.14C97.6211 239.14 99.1611 240.78 99.1611 243.06V249H97.0211V243.34C97.0211 241.78 96.0611 241.04 94.7811 241.04C93.5611 241.04 92.6411 241.86 92.1011 242.64V249H89.9611V239.4H91.8611V240.72ZM104.582 249H102.442V241.28H100.702V239.4H102.442V238.34C102.442 235.56 104.262 234.74 106.022 234.74C106.902 234.74 107.742 234.92 108.402 235.16V237.04C107.922 236.8 107.222 236.62 106.542 236.62C105.502 236.62 104.582 236.92 104.582 238.42V239.4H107.862V241.28H104.582V249ZM111.594 249H109.454V239.4H111.594V249ZM111.834 236.28C111.834 237.16 111.234 237.56 110.534 237.56C109.834 237.56 109.214 237.16 109.214 236.28C109.214 235.44 109.834 235.02 110.534 235.02C111.234 235.02 111.834 235.44 111.834 236.28ZM121.937 235H124.077V249H122.157V247.48C121.417 248.42 120.277 249.26 118.477 249.26C115.577 249.26 113.717 246.96 113.717 244.2C113.717 241.44 115.577 239.14 118.477 239.14C120.157 239.14 121.277 239.88 121.937 240.64V235ZM121.917 243.02C121.457 241.98 120.357 241.02 118.857 241.02C117.137 241.02 115.877 242.32 115.877 244.2C115.877 246.08 117.137 247.38 118.857 247.38C120.357 247.38 121.457 246.42 121.917 245.36V243.02ZM126.158 244.2C126.158 240.72 128.798 239.14 131.018 239.14C134.838 239.14 136.158 242.22 135.538 245H128.318C128.558 246.72 130.238 247.44 131.998 247.44C133.158 247.44 134.218 247.16 135.038 246.76V248.6C134.158 249.02 132.938 249.26 131.598 249.26C128.658 249.26 126.158 247.58 126.158 244.2ZM133.618 243.4C133.738 242.56 133.218 240.92 131.118 240.92C129.678 240.92 128.378 241.78 128.298 243.4H133.618ZM139.615 240.72C140.315 239.88 141.495 239.14 142.955 239.14C145.375 239.14 146.915 240.78 146.915 243.06V249H144.775V243.34C144.775 241.78 143.815 241.04 142.535 241.04C141.315 241.04 140.395 241.86 139.855 242.64V249H137.715V239.4H139.615V240.72ZM150.095 236.5L152.215 235.98V239.4H155.695V241.28H152.215V245.68C152.215 246.94 152.795 247.36 154.035 247.36C154.735 247.36 155.375 247.22 155.975 246.98V248.82C155.255 249.08 154.335 249.24 153.395 249.24C151.535 249.24 150.095 248.32 150.095 246.08V241.28H148.375V239.4H150.095V236.5ZM159.895 249H157.755V239.4H159.895V249ZM160.135 236.28C160.135 237.16 159.535 237.56 158.835 237.56C158.135 237.56 157.515 237.16 157.515 236.28C157.515 235.44 158.135 235.02 158.835 235.02C159.535 235.02 160.135 235.44 160.135 236.28ZM170.797 246.78C170.797 247.32 171.117 247.48 171.497 247.48C171.717 247.48 171.937 247.42 172.137 247.36V248.9C171.737 249.06 171.257 249.14 170.777 249.14C169.897 249.14 169.197 248.8 168.857 248.02C167.917 248.78 166.737 249.26 165.237 249.26C163.497 249.26 161.877 248.3 161.877 246.32C161.877 243.86 164.157 243.1 166.157 243.1C166.977 243.1 167.897 243.22 168.657 243.38V243.04C168.657 241.84 167.777 241 166.137 241C164.717 241 163.537 241.36 162.677 241.74V239.78C163.437 239.52 164.817 239.14 166.357 239.14C169.077 239.14 170.797 240.44 170.797 243.34V246.78ZM166.577 244.6C165.357 244.6 164.077 244.98 164.077 246.18C164.077 247.12 164.917 247.6 165.877 247.6C166.897 247.6 167.897 247.22 168.657 246.46V244.84C168.077 244.72 167.257 244.6 166.577 244.6ZM173.653 234.4H175.793V249H173.653V234.4Z" fill="white"/>
<path d="M27.572 264.2H28.86L25.78 274H24.464L21.986 266.16L19.508 274H18.206L15.126 264.2H16.414L18.864 272.572L21.468 264.2H22.518L25.122 272.572L27.572 264.2ZM29.0271 270.64C29.0271 268.288 30.7771 267.112 32.3731 267.112C34.9631 267.112 35.9151 269.226 35.4951 271.13H30.1471C30.2871 272.544 31.5611 273.132 32.9191 273.132C33.7451 273.132 34.5571 272.908 35.1311 272.586V273.678C34.5151 274 33.6331 274.168 32.7511 274.168C30.7631 274.168 29.0271 273.034 29.0271 270.64ZM34.5011 270.15C34.5991 269.436 34.1511 268.148 32.4431 268.148C31.2951 268.148 30.2311 268.834 30.1471 270.15H34.5011ZM46.1474 264.2H47.2674V274H46.2594V272.88C45.6574 273.566 44.8314 274.168 43.5434 274.168C41.6254 274.168 40.1834 272.656 40.1834 270.64C40.1834 268.624 41.6254 267.112 43.5434 267.112C44.8314 267.112 45.6574 267.714 46.1474 268.288V264.2ZM46.1474 269.8C45.7694 268.932 44.8734 268.148 43.6694 268.148C42.3674 268.148 41.3034 269.1 41.3034 270.64C41.3034 272.18 42.3674 273.132 43.6694 273.132C44.8734 273.132 45.7694 272.348 46.1474 271.48V269.8ZM48.8787 270.64C48.8787 268.344 50.6427 267.112 52.4627 267.112C54.2967 267.112 56.0467 268.344 56.0467 270.64C56.0467 272.936 54.2967 274.168 52.4627 274.168C50.6427 274.168 48.8787 272.936 48.8787 270.64ZM54.9267 270.64C54.9267 269.086 53.8347 268.176 52.4627 268.176C51.0907 268.176 49.9987 269.086 49.9987 270.64C49.9987 272.194 51.0907 273.104 52.4627 273.104C53.8347 273.104 54.9267 272.194 54.9267 270.64ZM62.1475 268.274C62.5955 267.686 63.4915 267.112 64.5695 267.112C66.1795 267.112 67.3695 268.218 67.3695 269.856V274H66.2495V269.996C66.2495 268.736 65.4795 268.148 64.4435 268.148C63.4495 268.148 62.7075 268.82 62.2595 269.492V274H61.1395V267.28H62.1475V268.274ZM68.8943 270.64C68.8943 268.344 70.6583 267.112 72.4783 267.112C74.3123 267.112 76.0623 268.344 76.0623 270.64C76.0623 272.936 74.3123 274.168 72.4783 274.168C70.6583 274.168 68.8943 272.936 68.8943 270.64ZM74.9423 270.64C74.9423 269.086 73.8503 268.176 72.4783 268.176C71.1063 268.176 70.0143 269.086 70.0143 270.64C70.0143 272.194 71.1063 273.104 72.4783 273.104C73.8503 273.104 74.9423 272.194 74.9423 270.64ZM78.0074 265.194L79.1134 264.914V267.28H81.8014V268.316H79.1134V271.788C79.1134 272.81 79.5754 273.118 80.5554 273.118C81.0874 273.118 81.5914 272.992 82.0394 272.81V273.846C81.5354 274.028 80.8774 274.154 80.2334 274.154C78.9314 274.154 78.0074 273.454 78.0074 271.984V268.316H76.7474V267.28H78.0074V265.194ZM86.326 270.668C86.326 268.218 88.216 267.112 89.966 267.112C90.722 267.112 91.464 267.28 92.038 267.658V268.75C91.534 268.358 90.82 268.148 90.106 268.148C88.804 268.148 87.446 268.876 87.446 270.64C87.446 272.362 88.762 273.132 90.078 273.132C90.806 273.132 91.548 272.922 92.108 272.586V273.706C91.478 274.014 90.764 274.168 89.924 274.168C88.16 274.168 86.326 273.062 86.326 270.668ZM93.1482 270.64C93.1482 268.344 94.9122 267.112 96.7322 267.112C98.5662 267.112 100.316 268.344 100.316 270.64C100.316 272.936 98.5662 274.168 96.7322 274.168C94.9122 274.168 93.1482 272.936 93.1482 270.64ZM99.1962 270.64C99.1962 269.086 98.1042 268.176 96.7322 268.176C95.3602 268.176 94.2682 269.086 94.2682 270.64C94.2682 272.194 95.3602 273.104 96.7322 273.104C98.1042 273.104 99.1962 272.194 99.1962 270.64ZM101.951 263.78H103.071V274H101.951V263.78ZM105.205 263.78H106.325V274H105.205V263.78ZM107.969 270.64C107.969 268.288 109.719 267.112 111.315 267.112C113.905 267.112 114.857 269.226 114.437 271.13H109.089C109.229 272.544 110.503 273.132 111.861 273.132C112.687 273.132 113.499 272.908 114.073 272.586V273.678C113.457 274 112.575 274.168 111.693 274.168C109.705 274.168 107.969 273.034 107.969 270.64ZM113.443 270.15C113.541 269.436 113.093 268.148 111.385 268.148C110.237 268.148 109.173 268.834 109.089 270.15H113.443ZM115.638 270.668C115.638 268.218 117.528 267.112 119.278 267.112C120.034 267.112 120.776 267.28 121.35 267.658V268.75C120.846 268.358 120.132 268.148 119.418 268.148C118.116 268.148 116.758 268.876 116.758 270.64C116.758 272.362 118.074 273.132 119.39 273.132C120.118 273.132 120.86 272.922 121.42 272.586V273.706C120.79 274.014 120.076 274.168 119.236 274.168C117.472 274.168 115.638 273.062 115.638 270.668ZM123.453 265.194L124.559 264.914V267.28H127.247V268.316H124.559V271.788C124.559 272.81 125.021 273.118 126.001 273.118C126.533 273.118 127.037 272.992 127.485 272.81V273.846C126.981 274.028 126.323 274.154 125.679 274.154C124.377 274.154 123.453 273.454 123.453 271.984V268.316H122.193V267.28H123.453V265.194ZM133.241 268.4C133.843 267.714 134.669 267.112 135.957 267.112C137.875 267.112 139.317 268.624 139.317 270.64C139.317 272.656 137.875 274.168 135.957 274.168C134.669 274.168 133.843 273.566 133.353 272.992V277.08H132.233V267.28H133.241V268.4ZM138.197 270.64C138.197 269.1 137.133 268.148 135.831 268.148C134.627 268.148 133.731 268.932 133.353 269.8V271.48C133.731 272.348 134.627 273.132 135.831 273.132C137.133 273.132 138.197 272.18 138.197 270.64ZM140.467 270.64C140.467 268.288 142.217 267.112 143.813 267.112C146.403 267.112 147.355 269.226 146.935 271.13H141.587C141.727 272.544 143.001 273.132 144.359 273.132C145.185 273.132 145.997 272.908 146.571 272.586V273.678C145.955 274 145.073 274.168 144.191 274.168C142.203 274.168 140.467 273.034 140.467 270.64ZM145.941 270.15C146.039 269.436 145.591 268.148 143.883 268.148C142.735 268.148 141.671 268.834 141.587 270.15H145.941ZM149.607 268.47C150.139 267.588 151.329 267.042 152.505 267.14V268.26C151.189 268.106 150.125 268.736 149.719 269.814V274H148.599V267.28H149.607V268.47ZM153.333 269.044C153.333 267.658 154.635 267.112 155.895 267.112C156.791 267.112 157.645 267.35 158.275 267.686V268.75C157.715 268.386 156.777 268.12 155.965 268.12C155.237 268.12 154.467 268.358 154.467 269.016C154.467 270.472 158.737 269.856 158.737 272.278C158.737 273.678 157.421 274.168 155.965 274.168C155.013 274.168 153.991 273.916 153.361 273.51V272.418C154.047 272.88 155.069 273.132 155.909 273.132C156.861 273.132 157.617 272.978 157.617 272.306C157.617 270.892 153.333 271.452 153.333 269.044ZM159.785 270.64C159.785 268.344 161.549 267.112 163.369 267.112C165.203 267.112 166.953 268.344 166.953 270.64C166.953 272.936 165.203 274.168 163.369 274.168C161.549 274.168 159.785 272.936 159.785 270.64ZM165.833 270.64C165.833 269.086 164.741 268.176 163.369 268.176C161.997 268.176 160.905 269.086 160.905 270.64C160.905 272.194 161.997 273.104 163.369 273.104C164.741 273.104 165.833 272.194 165.833 270.64ZM169.567 268.274C170.015 267.686 170.911 267.112 171.989 267.112C173.599 267.112 174.789 268.218 174.789 269.856V274H173.669V269.996C173.669 268.736 172.899 268.148 171.863 268.148C170.869 268.148 170.127 268.82 169.679 269.492V274H168.559V267.28H169.567V268.274ZM182.236 272.6C182.236 273.006 182.46 273.118 182.754 273.118C182.922 273.118 183.104 273.076 183.272 273.02V273.93C183.006 274.028 182.712 274.084 182.432 274.084C181.886 274.084 181.396 273.86 181.2 273.272C180.528 273.832 179.674 274.168 178.582 274.168C177.392 274.168 176.216 273.538 176.216 272.124C176.216 270.388 177.812 269.856 179.254 269.856C179.842 269.856 180.556 269.94 181.116 270.066V269.828C181.116 268.82 180.43 268.148 179.198 268.148C178.162 268.148 177.336 268.4 176.748 268.652V267.56C177.28 267.378 178.204 267.112 179.31 267.112C181.102 267.112 182.236 268.092 182.236 269.968V272.6ZM177.364 272.068C177.364 272.852 178.078 273.202 178.82 273.202C179.674 273.202 180.528 272.852 181.116 272.222V270.99C180.64 270.892 179.954 270.794 179.408 270.794C178.428 270.794 177.364 271.088 177.364 272.068ZM184.419 263.78H185.539V274H184.419V263.78ZM196.634 264.2H197.754V274H196.746V272.88C196.144 273.566 195.318 274.168 194.03 274.168C192.112 274.168 190.67 272.656 190.67 270.64C190.67 268.624 192.112 267.112 194.03 267.112C195.318 267.112 196.144 267.714 196.634 268.288V264.2ZM196.634 269.8C196.256 268.932 195.36 268.148 194.156 268.148C192.854 268.148 191.79 269.1 191.79 270.64C191.79 272.18 192.854 273.132 194.156 273.132C195.36 273.132 196.256 272.348 196.634 271.48V269.8ZM205.287 272.6C205.287 273.006 205.511 273.118 205.805 273.118C205.973 273.118 206.155 273.076 206.323 273.02V273.93C206.057 274.028 205.763 274.084 205.483 274.084C204.937 274.084 204.447 273.86 204.251 273.272C203.579 273.832 202.725 274.168 201.633 274.168C200.443 274.168 199.267 273.538 199.267 272.124C199.267 270.388 200.863 269.856 202.305 269.856C202.893 269.856 203.607 269.94 204.167 270.066V269.828C204.167 268.82 203.481 268.148 202.249 268.148C201.213 268.148 200.387 268.4 199.799 268.652V267.56C200.331 267.378 201.255 267.112 202.361 267.112C204.153 267.112 205.287 268.092 205.287 269.968V272.6ZM200.415 272.068C200.415 272.852 201.129 273.202 201.871 273.202C202.725 273.202 203.579 272.852 204.167 272.222V270.99C203.691 270.892 203.005 270.794 202.459 270.794C201.479 270.794 200.415 271.088 200.415 272.068ZM207.836 265.194L208.942 264.914V267.28H211.63V268.316H208.942V271.788C208.942 272.81 209.404 273.118 210.384 273.118C210.916 273.118 211.42 272.992 211.868 272.81V273.846C211.364 274.028 210.706 274.154 210.062 274.154C208.76 274.154 207.836 273.454 207.836 271.984V268.316H206.576V267.28H207.836V265.194ZM218.59 272.6C218.59 273.006 218.814 273.118 219.108 273.118C219.276 273.118 219.458 273.076 219.626 273.02V273.93C219.36 274.028 219.066 274.084 218.786 274.084C218.24 274.084 217.75 273.86 217.554 273.272C216.882 273.832 216.028 274.168 214.936 274.168C213.746 274.168 212.57 273.538 212.57 272.124C212.57 270.388 214.166 269.856 215.608 269.856C216.196 269.856 216.91 269.94 217.47 270.066V269.828C217.47 268.82 216.784 268.148 215.552 268.148C214.516 268.148 213.69 268.4 213.102 268.652V267.56C213.634 267.378 214.558 267.112 215.664 267.112C217.456 267.112 218.59 268.092 218.59 269.968V272.6ZM213.718 272.068C213.718 272.852 214.432 273.202 215.174 273.202C216.028 273.202 216.882 272.852 217.47 272.222V270.99C216.994 270.892 216.308 270.794 215.762 270.794C214.782 270.794 213.718 271.088 213.718 272.068ZM15.574 288.64C15.574 286.344 17.338 285.112 19.158 285.112C20.992 285.112 22.742 286.344 22.742 288.64C22.742 290.936 20.992 292.168 19.158 292.168C17.338 292.168 15.574 290.936 15.574 288.64ZM21.622 288.64C21.622 287.086 20.53 286.176 19.158 286.176C17.786 286.176 16.694 287.086 16.694 288.64C16.694 290.194 17.786 291.104 19.158 291.104C20.53 291.104 21.622 290.194 21.622 288.64ZM25.3565 286.47C25.8885 285.588 27.0785 285.042 28.2545 285.14V286.26C26.9385 286.106 25.8745 286.736 25.4685 287.814V292H24.3485V285.28H25.3565V286.47ZM33.7953 292H32.6753V285.28H33.7953V292ZM33.9633 283.138C33.9633 283.614 33.6273 283.852 33.2353 283.852C32.8433 283.852 32.5073 283.614 32.5073 283.138C32.5073 282.676 32.8433 282.424 33.2353 282.424C33.6273 282.424 33.9633 282.676 33.9633 283.138ZM36.9092 286.274C37.3572 285.686 38.2532 285.112 39.3312 285.112C40.9412 285.112 42.1312 286.218 42.1312 287.856V292H41.0112V287.996C41.0112 286.736 40.2412 286.148 39.2052 286.148C38.2112 286.148 37.4692 286.82 37.0212 287.492V292H35.9012V285.28H36.9092V286.274ZM44.484 283.194L45.59 282.914V285.28H48.278V286.316H45.59V289.788C45.59 290.81 46.052 291.118 47.032 291.118C47.564 291.118 48.068 290.992 48.516 290.81V291.846C48.012 292.028 47.354 292.154 46.71 292.154C45.408 292.154 44.484 291.454 44.484 289.984V286.316H43.224V285.28H44.484V283.194ZM49.3162 288.64C49.3162 286.288 51.0662 285.112 52.6622 285.112C55.2522 285.112 56.2042 287.226 55.7842 289.13H50.4362C50.5762 290.544 51.8502 291.132 53.2082 291.132C54.0342 291.132 54.8462 290.908 55.4202 290.586V291.678C54.8042 292 53.9222 292.168 53.0402 292.168C51.0522 292.168 49.3162 291.034 49.3162 288.64ZM54.7902 288.15C54.8882 287.436 54.4402 286.148 52.7322 286.148C51.5842 286.148 50.5202 286.834 50.4362 288.15H54.7902ZM58.4561 286.47C58.9881 285.588 60.1781 285.042 61.3541 285.14V286.26C60.0381 286.106 58.9741 286.736 58.5681 287.814V292H57.4481V285.28H58.4561V286.47ZM64.2131 292H63.0931V286.316H61.8331V285.28H63.0931V284.468C63.0931 282.592 64.2971 282.032 65.4731 282.032C66.0891 282.032 66.6911 282.158 67.1531 282.34V283.376C66.7751 283.194 66.2431 283.068 65.7391 283.068C64.9271 283.068 64.2131 283.278 64.2131 284.51V285.28H66.7331V286.316H64.2131V292ZM67.2537 288.64C67.2537 286.288 69.0037 285.112 70.5997 285.112C73.1897 285.112 74.1417 287.226 73.7217 289.13H68.3737C68.5137 290.544 69.7877 291.132 71.1457 291.132C71.9717 291.132 72.7837 290.908 73.3577 290.586V291.678C72.7417 292 71.8597 292.168 70.9777 292.168C68.9897 292.168 67.2537 291.034 67.2537 288.64ZM72.7277 288.15C72.8257 287.436 72.3777 286.148 70.6697 286.148C69.5217 286.148 68.4577 286.834 68.3737 288.15H72.7277ZM76.3936 286.47C76.9256 285.588 78.1156 285.042 79.2916 285.14V286.26C77.9756 286.106 76.9116 286.736 76.5056 287.814V292H75.3856V285.28H76.3936V286.47ZM79.8045 288.64C79.8045 286.288 81.5545 285.112 83.1505 285.112C85.7405 285.112 86.6925 287.226 86.2725 289.13H80.9245C81.0645 290.544 82.3385 291.132 83.6965 291.132C84.5225 291.132 85.3345 290.908 85.9085 290.586V291.678C85.2925 292 84.4105 292.168 83.5285 292.168C81.5405 292.168 79.8045 291.034 79.8045 288.64ZM85.2785 288.15C85.3765 287.436 84.9285 286.148 83.2205 286.148C82.0725 286.148 81.0085 286.834 80.9245 288.15H85.2785ZM99.8163 285.28H100.992L98.6963 292H97.4783L95.6583 286.806L93.8383 292H92.6203L90.3243 285.28H91.5003L93.2363 290.768L95.1543 285.28H96.1623L98.0803 290.768L99.8163 285.28ZM103.426 292H102.306V285.28H103.426V292ZM103.594 283.138C103.594 283.614 103.258 283.852 102.866 283.852C102.474 283.852 102.138 283.614 102.138 283.138C102.138 282.676 102.474 282.424 102.866 282.424C103.258 282.424 103.594 282.676 103.594 283.138ZM105.98 283.194L107.086 282.914V285.28H109.774V286.316H107.086V289.788C107.086 290.81 107.548 291.118 108.528 291.118C109.06 291.118 109.564 290.992 110.012 290.81V291.846C109.508 292.028 108.85 292.154 108.206 292.154C106.904 292.154 105.98 291.454 105.98 289.984V286.316H104.72V285.28H105.98V283.194ZM111.274 282.2H112.394V286.134C112.87 285.602 113.71 285.112 114.704 285.112C116.314 285.112 117.504 286.218 117.504 287.856V292H116.384V287.996C116.384 286.736 115.614 286.148 114.578 286.148C113.584 286.148 112.842 286.82 112.394 287.492V292H111.274V282.2ZM125.423 290.726L127.691 285.28H128.881L125.577 293.008C124.877 294.632 124.023 295.248 123.043 295.248C122.805 295.248 122.567 295.22 122.315 295.15V294.184C122.511 294.24 122.707 294.268 122.903 294.268C123.659 294.268 124.205 293.722 124.639 292.63L124.891 292.014L121.699 285.28H122.889L125.423 290.726ZM129.42 288.64C129.42 286.344 131.184 285.112 133.004 285.112C134.838 285.112 136.588 286.344 136.588 288.64C136.588 290.936 134.838 292.168 133.004 292.168C131.184 292.168 129.42 290.936 129.42 288.64ZM135.468 288.64C135.468 287.086 134.376 286.176 133.004 286.176C131.632 286.176 130.54 287.086 130.54 288.64C130.54 290.194 131.632 291.104 133.004 291.104C134.376 291.104 135.468 290.194 135.468 288.64ZM143.22 285.28H144.34V292H143.332V291.006C142.884 291.594 141.988 292.168 140.91 292.168C139.16 292.168 138.11 291.062 138.11 289.424V285.28H139.23V289.284C139.23 290.544 139.86 291.132 141.036 291.132C142.03 291.132 142.772 290.46 143.22 289.788V285.28ZM147.419 286.47C147.951 285.588 149.141 285.042 150.317 285.14V286.26C149.001 286.106 147.937 286.736 147.531 287.814V292H146.411V285.28H147.419V286.47ZM163.103 285.28H164.279L161.983 292H160.765L158.945 286.806L157.125 292H155.907L153.611 285.28H154.787L156.523 290.768L158.441 285.28H159.449L161.367 290.768L163.103 285.28ZM164.967 288.64C164.967 286.288 166.717 285.112 168.313 285.112C170.903 285.112 171.855 287.226 171.435 289.13H166.087C166.227 290.544 167.501 291.132 168.859 291.132C169.685 291.132 170.497 290.908 171.071 290.586V291.678C170.455 292 169.573 292.168 168.691 292.168C166.703 292.168 164.967 291.034 164.967 288.64ZM170.441 288.15C170.539 287.436 170.091 286.148 168.383 286.148C167.235 286.148 166.171 286.834 166.087 288.15H170.441ZM173.099 282.2H174.219V286.288C174.709 285.714 175.535 285.112 176.823 285.112C178.741 285.112 180.183 286.624 180.183 288.64C180.183 290.656 178.741 292.168 176.823 292.168C175.535 292.168 174.709 291.566 174.107 290.88V292H173.099V282.2ZM179.062 288.64C179.062 287.1 177.999 286.148 176.697 286.148C175.493 286.148 174.597 286.932 174.219 287.8V289.48C174.597 290.348 175.493 291.132 176.697 291.132C177.999 291.132 179.062 290.18 179.062 288.64ZM181.402 287.044C181.402 285.658 182.704 285.112 183.964 285.112C184.86 285.112 185.714 285.35 186.344 285.686V286.75C185.784 286.386 184.846 286.12 184.034 286.12C183.306 286.12 182.536 286.358 182.536 287.016C182.536 288.472 186.806 287.856 186.806 290.278C186.806 291.678 185.49 292.168 184.034 292.168C183.082 292.168 182.06 291.916 181.43 291.51V290.418C182.116 290.88 183.138 291.132 183.978 291.132C184.93 291.132 185.686 290.978 185.686 290.306C185.686 288.892 181.402 289.452 181.402 287.044ZM189.463 292H188.343V285.28H189.463V292ZM189.631 283.138C189.631 283.614 189.295 283.852 188.903 283.852C188.511 283.852 188.175 283.614 188.175 283.138C188.175 282.676 188.511 282.424 188.903 282.424C189.295 282.424 189.631 282.676 189.631 283.138ZM192.017 283.194L193.123 282.914V285.28H195.811V286.316H193.123V289.788C193.123 290.81 193.585 291.118 194.565 291.118C195.097 291.118 195.601 290.992 196.049 290.81V291.846C195.545 292.028 194.887 292.154 194.243 292.154C192.941 292.154 192.017 291.454 192.017 289.984V286.316H190.757V285.28H192.017V283.194ZM196.849 288.64C196.849 286.288 198.599 285.112 200.195 285.112C202.785 285.112 203.737 287.226 203.317 289.13H197.969C198.109 290.544 199.383 291.132 200.741 291.132C201.567 291.132 202.379 290.908 202.953 290.586V291.678C202.337 292 201.455 292.168 200.573 292.168C198.585 292.168 196.849 291.034 196.849 288.64ZM202.323 288.15C202.421 287.436 201.973 286.148 200.265 286.148C199.117 286.148 198.053 286.834 197.969 288.15H202.323ZM205.282 285.42H204.372L205.142 282.2H206.332L205.282 285.42ZM207.037 287.044C207.037 285.658 208.339 285.112 209.599 285.112C210.495 285.112 211.349 285.35 211.979 285.686V286.75C211.419 286.386 210.481 286.12 209.669 286.12C208.941 286.12 208.171 286.358 208.171 287.016C208.171 288.472 212.441 287.856 212.441 290.278C212.441 291.678 211.125 292.168 209.669 292.168C208.717 292.168 207.695 291.916 207.065 291.51V290.418C207.751 290.88 208.773 291.132 209.613 291.132C210.565 291.132 211.321 290.978 211.321 290.306C211.321 288.892 207.037 289.452 207.037 287.044ZM15.574 306.64C15.574 304.344 17.338 303.112 19.158 303.112C20.992 303.112 22.742 304.344 22.742 306.64C22.742 308.936 20.992 310.168 19.158 310.168C17.338 310.168 15.574 308.936 15.574 306.64ZM21.622 306.64C21.622 305.086 20.53 304.176 19.158 304.176C17.786 304.176 16.694 305.086 16.694 306.64C16.694 308.194 17.786 309.104 19.158 309.104C20.53 309.104 21.622 308.194 21.622 306.64ZM25.3565 304.4C25.9585 303.714 26.7845 303.112 28.0725 303.112C29.9905 303.112 31.4325 304.624 31.4325 306.64C31.4325 308.656 29.9905 310.168 28.0725 310.168C26.7845 310.168 25.9585 309.566 25.4685 308.992V313.08H24.3485V303.28H25.3565V304.4ZM30.3125 306.64C30.3125 305.1 29.2485 304.148 27.9465 304.148C26.7425 304.148 25.8465 304.932 25.4685 305.8V307.48C25.8465 308.348 26.7425 309.132 27.9465 309.132C29.2485 309.132 30.3125 308.18 30.3125 306.64ZM32.5818 306.64C32.5818 304.288 34.3318 303.112 35.9278 303.112C38.5178 303.112 39.4698 305.226 39.0498 307.13H33.7018C33.8418 308.544 35.1158 309.132 36.4738 309.132C37.2998 309.132 38.1118 308.908 38.6858 308.586V309.678C38.0698 310 37.1878 310.168 36.3058 310.168C34.3178 310.168 32.5818 309.034 32.5818 306.64ZM38.0558 306.15C38.1538 305.436 37.7058 304.148 35.9978 304.148C34.8498 304.148 33.7858 304.834 33.7018 306.15H38.0558ZM41.7217 304.47C42.2537 303.588 43.4437 303.042 44.6197 303.14V304.26C43.3037 304.106 42.2397 304.736 41.8337 305.814V310H40.7137V303.28H41.7217V304.47ZM51.2187 308.6C51.2187 309.006 51.4427 309.118 51.7367 309.118C51.9047 309.118 52.0867 309.076 52.2547 309.02V309.93C51.9887 310.028 51.6947 310.084 51.4147 310.084C50.8687 310.084 50.3787 309.86 50.1827 309.272C49.5107 309.832 48.6567 310.168 47.5647 310.168C46.3747 310.168 45.1987 309.538 45.1987 308.124C45.1987 306.388 46.7947 305.856 48.2367 305.856C48.8247 305.856 49.5387 305.94 50.0987 306.066V305.828C50.0987 304.82 49.4127 304.148 48.1807 304.148C47.1447 304.148 46.3187 304.4 45.7307 304.652V303.56C46.2627 303.378 47.1867 303.112 48.2927 303.112C50.0847 303.112 51.2187 304.092 51.2187 305.968V308.6ZM46.3467 308.068C46.3467 308.852 47.0607 309.202 47.8027 309.202C48.6567 309.202 49.5107 308.852 50.0987 308.222V306.99C49.6227 306.892 48.9367 306.794 48.3907 306.794C47.4107 306.794 46.3467 307.088 46.3467 308.068ZM53.7672 301.194L54.8732 300.914V303.28H57.5612V304.316H54.8732V307.788C54.8732 308.81 55.3352 309.118 56.3152 309.118C56.8472 309.118 57.3512 308.992 57.7992 308.81V309.846C57.2952 310.028 56.6372 310.154 55.9932 310.154C54.6912 310.154 53.7672 309.454 53.7672 307.984V304.316H52.5072V303.28H53.7672V301.194ZM60.2094 310H59.0894V303.28H60.2094V310ZM60.3774 301.138C60.3774 301.614 60.0414 301.852 59.6494 301.852C59.2574 301.852 58.9214 301.614 58.9214 301.138C58.9214 300.676 59.2574 300.424 59.6494 300.424C60.0414 300.424 60.3774 300.676 60.3774 301.138ZM61.8533 306.64C61.8533 304.344 63.6173 303.112 65.4373 303.112C67.2713 303.112 69.0213 304.344 69.0213 306.64C69.0213 308.936 67.2713 310.168 65.4373 310.168C63.6173 310.168 61.8533 308.936 61.8533 306.64ZM67.9013 306.64C67.9013 305.086 66.8093 304.176 65.4373 304.176C64.0653 304.176 62.9733 305.086 62.9733 306.64C62.9733 308.194 64.0653 309.104 65.4373 309.104C66.8093 309.104 67.9013 308.194 67.9013 306.64ZM71.6358 304.274C72.0838 303.686 72.9798 303.112 74.0578 303.112C75.6678 303.112 76.8578 304.218 76.8578 305.856V310H75.7378V305.996C75.7378 304.736 74.9678 304.148 73.9318 304.148C72.9378 304.148 72.1958 304.82 71.7478 305.492V310H70.6278V303.28H71.6358V304.274ZM78.4526 305.044C78.4526 303.658 79.7546 303.112 81.0146 303.112C81.9106 303.112 82.7646 303.35 83.3946 303.686V304.75C82.8346 304.386 81.8966 304.12 81.0846 304.12C80.3566 304.12 79.5866 304.358 79.5866 305.016C79.5866 306.472 83.8566 305.856 83.8566 308.278C83.8566 309.678 82.5406 310.168 81.0846 310.168C80.1326 310.168 79.1106 309.916 78.4806 309.51V308.418C79.1666 308.88 80.1886 309.132 81.0286 309.132C81.9806 309.132 82.7366 308.978 82.7366 308.306C82.7366 306.892 78.4526 307.452 78.4526 305.044ZM86.5701 309.412C86.5701 309.888 86.2341 310.126 85.8421 310.126C85.4501 310.126 85.1001 309.888 85.1001 309.412C85.1001 308.95 85.4501 308.712 85.8421 308.712C86.2341 308.712 86.5701 308.95 86.5701 309.412ZM92.1122 300.2H93.2882V310H92.1122V300.2ZM96.6143 304.274C97.0623 303.686 97.9583 303.112 99.0363 303.112C100.646 303.112 101.836 304.218 101.836 305.856V310H100.716V305.996C100.716 304.736 99.9463 304.148 98.9103 304.148C97.9163 304.148 97.1743 304.82 96.7263 305.492V310H95.6063V303.28H96.6143V304.274ZM104.189 301.194L105.295 300.914V303.28H107.983V304.316H105.295V307.788C105.295 308.81 105.757 309.118 106.737 309.118C107.269 309.118 107.773 308.992 108.221 308.81V309.846C107.717 310.028 107.059 310.154 106.415 310.154C105.113 310.154 104.189 309.454 104.189 307.984V304.316H102.929V303.28H104.189V301.194ZM109.021 306.64C109.021 304.288 110.771 303.112 112.367 303.112C114.957 303.112 115.909 305.226 115.489 307.13H110.141C110.281 308.544 111.555 309.132 112.913 309.132C113.739 309.132 114.551 308.908 115.125 308.586V309.678C114.509 310 113.627 310.168 112.745 310.168C110.757 310.168 109.021 309.034 109.021 306.64ZM114.495 306.15C114.593 305.436 114.145 304.148 112.437 304.148C111.289 304.148 110.225 304.834 110.141 306.15H114.495ZM116.691 306.64C116.691 304.624 118.133 303.112 120.051 303.112C121.339 303.112 122.165 303.714 122.767 304.4V303.28H123.775V310C123.775 312.31 121.969 313.248 120.107 313.248C119.113 313.248 118.175 313.024 117.377 312.618V311.526C118.175 311.974 119.043 312.212 119.967 312.212C121.395 312.212 122.669 311.666 122.655 310V308.964C122.165 309.566 121.339 310.168 120.051 310.168C118.133 310.168 116.691 308.656 116.691 306.64ZM122.655 305.8C122.277 304.932 121.381 304.148 120.177 304.148C118.875 304.148 117.811 305.1 117.811 306.64C117.811 308.18 118.875 309.132 120.177 309.132C121.381 309.132 122.277 308.404 122.655 307.62V305.8ZM126.857 304.47C127.389 303.588 128.579 303.042 129.755 303.14V304.26C128.439 304.106 127.375 304.736 126.969 305.814V310H125.849V303.28H126.857V304.47ZM136.353 308.6C136.353 309.006 136.577 309.118 136.871 309.118C137.039 309.118 137.221 309.076 137.389 309.02V309.93C137.123 310.028 136.829 310.084 136.549 310.084C136.003 310.084 135.513 309.86 135.317 309.272C134.645 309.832 133.791 310.168 132.699 310.168C131.509 310.168 130.333 309.538 130.333 308.124C130.333 306.388 131.929 305.856 133.371 305.856C133.959 305.856 134.673 305.94 135.233 306.066V305.828C135.233 304.82 134.547 304.148 133.315 304.148C132.279 304.148 131.453 304.4 130.865 304.652V303.56C131.397 303.378 132.321 303.112 133.427 303.112C135.219 303.112 136.353 304.092 136.353 305.968V308.6ZM131.481 308.068C131.481 308.852 132.195 309.202 132.937 309.202C133.791 309.202 134.645 308.852 135.233 308.222V306.99C134.757 306.892 134.071 306.794 133.525 306.794C132.545 306.794 131.481 307.088 131.481 308.068ZM138.902 301.194L140.008 300.914V303.28H142.696V304.316H140.008V307.788C140.008 308.81 140.47 309.118 141.45 309.118C141.982 309.118 142.486 308.992 142.934 308.81V309.846C142.43 310.028 141.772 310.154 141.128 310.154C139.826 310.154 138.902 309.454 138.902 307.984V304.316H137.642V303.28H138.902V301.194ZM145.344 310H144.224V303.28H145.344V310ZM145.512 301.138C145.512 301.614 145.176 301.852 144.784 301.852C144.392 301.852 144.056 301.614 144.056 301.138C144.056 300.676 144.392 300.424 144.784 300.424C145.176 300.424 145.512 300.676 145.512 301.138ZM146.988 306.64C146.988 304.344 148.752 303.112 150.572 303.112C152.406 303.112 154.156 304.344 154.156 306.64C154.156 308.936 152.406 310.168 150.572 310.168C148.752 310.168 146.988 308.936 146.988 306.64ZM153.036 306.64C153.036 305.086 151.944 304.176 150.572 304.176C149.2 304.176 148.108 305.086 148.108 306.64C148.108 308.194 149.2 309.104 150.572 309.104C151.944 309.104 153.036 308.194 153.036 306.64ZM156.771 304.274C157.219 303.686 158.115 303.112 159.193 303.112C160.803 303.112 161.993 304.218 161.993 305.856V310H160.873V305.996C160.873 304.736 160.103 304.148 159.067 304.148C158.073 304.148 157.331 304.82 156.883 305.492V310H155.763V303.28H156.771V304.274ZM167.64 301.194L168.746 300.914V303.28H171.434V304.316H168.746V307.788C168.746 308.81 169.208 309.118 170.188 309.118C170.72 309.118 171.224 308.992 171.672 308.81V309.846C171.168 310.028 170.51 310.154 169.866 310.154C168.564 310.154 167.64 309.454 167.64 307.984V304.316H166.38V303.28H167.64V301.194ZM178.394 308.6C178.394 309.006 178.618 309.118 178.912 309.118C179.08 309.118 179.262 309.076 179.43 309.02V309.93C179.164 310.028 178.87 310.084 178.59 310.084C178.044 310.084 177.554 309.86 177.358 309.272C176.686 309.832 175.832 310.168 174.74 310.168C173.55 310.168 172.374 309.538 172.374 308.124C172.374 306.388 173.97 305.856 175.412 305.856C176 305.856 176.714 305.94 177.274 306.066V305.828C177.274 304.82 176.588 304.148 175.356 304.148C174.32 304.148 173.494 304.4 172.906 304.652V303.56C173.438 303.378 174.362 303.112 175.468 303.112C177.26 303.112 178.394 304.092 178.394 305.968V308.6ZM173.522 308.068C173.522 308.852 174.236 309.202 174.978 309.202C175.832 309.202 176.686 308.852 177.274 308.222V306.99C176.798 306.892 176.112 306.794 175.566 306.794C174.586 306.794 173.522 307.088 173.522 308.068ZM186.766 310H185.45L182.986 307.116H181.67V310H180.55V300.2H181.67V306.08H183.028L185.156 303.28H186.458L183.91 306.626L186.766 310ZM187.074 306.64C187.074 304.288 188.824 303.112 190.42 303.112C193.01 303.112 193.962 305.226 193.542 307.13H188.194C188.334 308.544 189.608 309.132 190.966 309.132C191.792 309.132 192.604 308.908 193.178 308.586V309.678C192.562 310 191.68 310.168 190.798 310.168C188.81 310.168 187.074 309.034 187.074 306.64ZM192.548 306.15C192.646 305.436 192.198 304.148 190.49 304.148C189.342 304.148 188.278 304.834 188.194 306.15H192.548ZM194.814 305.044C194.814 303.658 196.116 303.112 197.376 303.112C198.272 303.112 199.126 303.35 199.756 303.686V304.75C199.196 304.386 198.258 304.12 197.446 304.12C196.718 304.12 195.948 304.358 195.948 305.016C195.948 306.472 200.218 305.856 200.218 308.278C200.218 309.678 198.902 310.168 197.446 310.168C196.494 310.168 195.472 309.916 194.842 309.51V308.418C195.528 308.88 196.55 309.132 197.39 309.132C198.342 309.132 199.098 308.978 199.098 308.306C199.098 306.892 194.814 307.452 194.814 305.044ZM206.362 311.246C206.362 312.828 205.34 313.248 204.43 313.248C204.024 313.248 203.674 313.178 203.394 313.066V312.03C203.618 312.142 203.87 312.184 204.122 312.184C204.71 312.184 205.242 311.96 205.242 311.078V303.28H206.362V311.246ZM206.53 301.138C206.53 301.614 206.194 301.852 205.802 301.852C205.41 301.852 205.06 301.614 205.06 301.138C205.06 300.676 205.41 300.424 205.802 300.424C206.194 300.424 206.53 300.676 206.53 301.138ZM213.494 303.28H214.614V310H213.606V309.006C213.158 309.594 212.262 310.168 211.184 310.168C209.434 310.168 208.384 309.062 208.384 307.424V303.28H209.504V307.284C209.504 308.544 210.134 309.132 211.31 309.132C212.304 309.132 213.046 308.46 213.494 307.788V303.28ZM216.292 305.044C216.292 303.658 217.594 303.112 218.854 303.112C219.75 303.112 220.604 303.35 221.234 303.686V304.75C220.674 304.386 219.736 304.12 218.924 304.12C218.196 304.12 217.426 304.358 217.426 305.016C217.426 306.472 221.696 305.856 221.696 308.278C221.696 309.678 220.38 310.168 218.924 310.168C217.972 310.168 216.95 309.916 216.32 309.51V308.418C217.006 308.88 218.028 309.132 218.868 309.132C219.82 309.132 220.576 308.978 220.576 308.306C220.576 306.892 216.292 307.452 216.292 305.044ZM223.654 301.194L224.76 300.914V303.28H227.448V304.316H224.76V307.788C224.76 308.81 225.222 309.118 226.202 309.118C226.734 309.118 227.238 308.992 227.686 308.81V309.846C227.182 310.028 226.524 310.154 225.88 310.154C224.578 310.154 223.654 309.454 223.654 307.984V304.316H222.394V303.28H223.654V301.194ZM18.052 318.48H18.92V326.88H20.698V328H15.742V326.88H17.744V319.726L15.742 320.482V319.362L18.052 318.48ZM26.658 328H25.538V321.28H26.546V322.176C26.91 321.784 27.708 321.112 28.842 321.112C29.85 321.112 30.592 321.546 30.998 322.246C31.6 321.63 32.426 321.112 33.448 321.112C35.114 321.112 36.01 322.288 36.01 323.856V328H34.89V323.828C34.89 322.806 34.302 322.148 33.322 322.148C32.412 322.148 31.74 322.778 31.362 323.254C31.39 323.45 31.404 323.646 31.404 323.856V328H30.284V323.828C30.284 322.806 29.696 322.148 28.716 322.148C27.722 322.148 27.022 322.89 26.658 323.366V328ZM39.141 328H38.021V321.28H39.141V328ZM39.309 319.138C39.309 319.614 38.973 319.852 38.581 319.852C38.189 319.852 37.853 319.614 37.853 319.138C37.853 318.676 38.189 318.424 38.581 318.424C38.973 318.424 39.309 318.676 39.309 319.138ZM42.2549 322.274C42.7029 321.686 43.5989 321.112 44.6769 321.112C46.2869 321.112 47.4769 322.218 47.4769 323.856V328H46.3569V323.996C46.3569 322.736 45.5869 322.148 44.5509 322.148C43.5569 322.148 42.8149 322.82 42.3669 323.492V328H41.2469V321.28H42.2549V322.274ZM54.4897 321.28H55.6097V328H54.6017V327.006C54.1537 327.594 53.2577 328.168 52.1797 328.168C50.4297 328.168 49.3797 327.062 49.3797 325.424V321.28H50.4997V325.284C50.4997 326.544 51.1297 327.132 52.3057 327.132C53.2997 327.132 54.0417 326.46 54.4897 325.788V321.28ZM58.1285 319.194L59.2345 318.914V321.28H61.9225V322.316H59.2345V325.788C59.2345 326.81 59.6965 327.118 60.6765 327.118C61.2085 327.118 61.7125 326.992 62.1605 326.81V327.846C61.6565 328.028 60.9985 328.154 60.3545 328.154C59.0525 328.154 58.1285 327.454 58.1285 325.984V322.316H56.8685V321.28H58.1285V319.194ZM62.9607 324.64C62.9607 322.288 64.7107 321.112 66.3067 321.112C68.8967 321.112 69.8487 323.226 69.4287 325.13H64.0807C64.2207 326.544 65.4947 327.132 66.8527 327.132C67.6787 327.132 68.4907 326.908 69.0647 326.586V327.678C68.4487 328 67.5667 328.168 66.6847 328.168C64.6967 328.168 62.9607 327.034 62.9607 324.64ZM68.4347 324.15C68.5327 323.436 68.0847 322.148 66.3767 322.148C65.2287 322.148 64.1647 322.834 64.0807 324.15H68.4347ZM72.2966 327.412C72.2966 327.888 71.9606 328.126 71.5686 328.126C71.1766 328.126 70.8266 327.888 70.8266 327.412C70.8266 326.95 71.1766 326.712 71.5686 326.712C71.9606 326.712 72.2966 326.95 72.2966 327.412Z" fill="#98C2FA"/>
<circle cx="292" cy="270" r="5" fill="#FF7221"/>
<g filter="url(#filter0_d_516_326)">
<circle cx="292" cy="270" r="9.375" stroke="#FF7221" stroke-width="1.25" shape-rendering="crispEdges"/>
</g>
<defs>
<filter id="filter0_d_516_326" x="259.378" y="237.378" width="65.2436" height="65.2436" filterUnits="userSpaceOnUse" color-interpolation-filters="sRGB">
<feFlood flood-opacity="0" result="BackgroundImageFix"/>
<feColorMatrix in="SourceAlpha" type="matrix" values="0 0 0 0 0 0 0 0 0 0 0 0 0 0 0 0 0 0 127 0" result="hardAlpha"/>
<feOffset/>
<feGaussianBlur stdDeviation="11.3109"/>
<feComposite in2="hardAlpha" operator="out"/>
<feColorMatrix type="matrix" values="0 0 0 0 1 0 0 0 0 0.447059 0 0 0 0 0.129412 0 0 0 1 0"/>
<feBlend mode="normal" in2="BackgroundImageFix" result="effect1_dropShadow_516_326"/>
<feBlend mode="normal" in="SourceGraphic" in2="effect1_dropShadow_516_326" result="shape"/>
</filter>
</defs>
</svg>
