<svg width="1024" height="562" viewBox="0 0 1024 562" fill="none" xmlns="http://www.w3.org/2000/svg">
<path d="M635.829 299.565L635.829 151.631C635.829 148.427 638.427 145.829 641.631 145.829L1017.37 145.829C1020.57 145.829 1023.17 148.427 1023.17 151.631L1023.17 299.565C1023.17 302.77 1020.57 305.368 1017.37 305.368L850.784 305.368C848.864 305.368 847.018 306.108 845.63 307.435L833.509 319.021C831.266 321.165 827.734 321.165 825.491 319.021L813.37 307.435C811.982 306.108 810.136 305.368 808.216 305.368L641.631 305.368C638.427 305.368 635.829 302.77 635.829 299.565Z" fill="#11183C" stroke="white" stroke-width="1.65769"/>
<rect x="657.953" y="162" width="47" height="47" rx="5" fill="#563234"/>
<path d="M688.016 181.75H687.078V177.062C687.078 175.571 686.485 174.14 685.431 173.085C684.376 172.03 682.945 171.438 681.453 171.438C679.961 171.438 678.531 172.03 677.476 173.085C676.421 174.14 675.828 175.571 675.828 177.062V181.75H674.891C673.896 181.751 672.943 182.147 672.24 182.85C671.537 183.553 671.142 184.506 671.141 185.5V195.812C671.142 196.807 671.537 197.76 672.24 198.463C672.943 199.166 673.896 199.561 674.891 199.562H688.016C689.01 199.561 689.963 199.166 690.666 198.463C691.369 197.76 691.765 196.807 691.766 195.812V185.5C691.765 184.506 691.369 183.553 690.666 182.85C689.963 182.147 689.01 181.751 688.016 181.75ZM685.203 181.75H677.703V177.062C677.703 176.068 678.098 175.114 678.801 174.411C679.505 173.708 680.459 173.312 681.453 173.312C682.448 173.312 683.402 173.708 684.105 174.411C684.808 175.114 685.203 176.068 685.203 177.062V181.75Z" fill="#FF7221"/>
<path d="M720.105 179.472C720.105 176.376 722.841 174.888 726.009 174.888C727.929 174.888 729.897 175.368 731.265 176.16V178.776C729.897 177.864 728.025 177.36 726.225 177.384C724.185 177.384 722.889 177.984 722.889 179.424C722.889 183.048 732.489 181.584 732.489 187.584C732.489 191.112 729.489 192.336 726.129 192.312C723.873 192.312 721.833 191.784 720.177 190.848V188.16C722.001 189.336 724.017 189.816 725.937 189.816C728.097 189.816 729.705 189.312 729.705 187.728C729.705 183.84 720.105 185.424 720.105 179.472ZM744.627 189.336C744.627 189.984 745.011 190.176 745.467 190.176C745.731 190.176 745.995 190.104 746.235 190.032V191.88C745.755 192.072 745.179 192.168 744.603 192.168C743.547 192.168 742.707 191.76 742.299 190.824C741.171 191.736 739.755 192.312 737.955 192.312C735.867 192.312 733.923 191.16 733.923 188.784C733.923 185.832 736.659 184.92 739.059 184.92C740.043 184.92 741.147 185.064 742.059 185.256V184.848C742.059 183.408 741.003 182.4 739.035 182.4C737.331 182.4 735.915 182.832 734.883 183.288V180.936C735.795 180.624 737.451 180.168 739.299 180.168C742.563 180.168 744.627 181.728 744.627 185.208V189.336ZM739.563 186.72C738.099 186.72 736.563 187.176 736.563 188.616C736.563 189.744 737.571 190.32 738.723 190.32C739.947 190.32 741.147 189.864 742.059 188.952V187.008C741.363 186.864 740.379 186.72 739.563 186.72ZM751.489 192H748.921V182.736H746.833V180.48H748.921V179.208C748.921 175.872 751.105 174.888 753.217 174.888C754.273 174.888 755.281 175.104 756.073 175.392V177.648C755.497 177.36 754.657 177.144 753.841 177.144C752.593 177.144 751.489 177.504 751.489 179.304V180.48H755.425V182.736H751.489V192ZM756.31 186.24C756.31 182.064 759.478 180.168 762.142 180.168C766.726 180.168 768.31 183.864 767.566 187.2H758.902C759.19 189.264 761.206 190.128 763.318 190.128C764.71 190.128 765.982 189.792 766.966 189.312V191.52C765.91 192.024 764.446 192.312 762.838 192.312C759.31 192.312 756.31 190.296 756.31 186.24ZM765.262 185.28C765.406 184.272 764.782 182.304 762.262 182.304C760.534 182.304 758.974 183.336 758.878 185.28H765.262ZM785.666 189.336C785.666 189.984 786.05 190.176 786.506 190.176C786.77 190.176 787.034 190.104 787.274 190.032V191.88C786.794 192.072 786.218 192.168 785.642 192.168C784.586 192.168 783.746 191.76 783.338 190.824C782.21 191.736 780.794 192.312 778.994 192.312C776.906 192.312 774.962 191.16 774.962 188.784C774.962 185.832 777.698 184.92 780.098 184.92C781.082 184.92 782.186 185.064 783.098 185.256V184.848C783.098 183.408 782.042 182.4 780.074 182.4C778.37 182.4 776.954 182.832 775.922 183.288V180.936C776.834 180.624 778.49 180.168 780.338 180.168C783.602 180.168 785.666 181.728 785.666 185.208V189.336ZM780.602 186.72C779.138 186.72 777.602 187.176 777.602 188.616C777.602 189.744 778.61 190.32 779.762 190.32C780.986 190.32 782.186 189.864 783.098 188.952V187.008C782.402 186.864 781.418 186.72 780.602 186.72ZM791.326 182.064C792.166 181.056 793.582 180.168 795.334 180.168C798.238 180.168 800.086 182.136 800.086 184.872V192H797.518V185.208C797.518 183.336 796.366 182.448 794.83 182.448C793.366 182.448 792.262 183.432 791.614 184.368V192H789.046V180.48H791.326V182.064ZM812.299 175.2H814.867V192H812.563V190.176C811.675 191.304 810.307 192.312 808.147 192.312C804.667 192.312 802.435 189.552 802.435 186.24C802.435 182.928 804.667 180.168 808.147 180.168C810.163 180.168 811.507 181.056 812.299 181.968V175.2ZM812.275 184.824C811.723 183.576 810.403 182.424 808.603 182.424C806.539 182.424 805.027 183.984 805.027 186.24C805.027 188.496 806.539 190.056 808.603 190.056C810.403 190.056 811.723 188.904 812.275 187.632V184.824ZM823.036 186.336C823.036 182.04 826.324 180.168 829.396 180.168C830.692 180.168 831.94 180.456 832.948 181.056V183.408C832.108 182.808 830.932 182.448 829.756 182.448C827.716 182.448 825.652 183.528 825.652 186.24C825.652 188.856 827.644 190.032 829.708 190.032C830.932 190.032 832.156 189.672 833.068 189.144V191.52C831.964 192.048 830.716 192.312 829.252 192.312C826.18 192.312 823.036 190.44 823.036 186.336ZM834.732 186.24C834.732 182.256 837.756 180.168 840.972 180.168C844.212 180.168 847.212 182.256 847.212 186.24C847.212 190.224 844.212 192.312 840.972 192.312C837.756 192.312 834.732 190.224 834.732 186.24ZM844.596 186.24C844.596 183.984 843.108 182.52 840.972 182.52C838.812 182.52 837.324 183.984 837.324 186.24C837.324 188.496 838.812 189.96 840.972 189.96C843.108 189.96 844.596 188.496 844.596 186.24ZM851.982 182.064C852.822 181.056 854.238 180.168 855.99 180.168C858.894 180.168 860.742 182.136 860.742 184.872V192H858.174V185.208C858.174 183.336 857.022 182.448 855.486 182.448C854.022 182.448 852.918 183.432 852.27 184.368V192H849.702V180.48H851.982V182.064ZM867.247 192H864.679V182.736H862.591V180.48H864.679V179.208C864.679 175.872 866.863 174.888 868.975 174.888C870.031 174.888 871.039 175.104 871.831 175.392V177.648C871.255 177.36 870.415 177.144 869.599 177.144C868.351 177.144 867.247 177.504 867.247 179.304V180.48H871.183V182.736H867.247V192ZM875.662 192H873.094V180.48H875.662V192ZM875.95 176.736C875.95 177.792 875.23 178.272 874.39 178.272C873.55 178.272 872.806 177.792 872.806 176.736C872.806 175.728 873.55 175.224 874.39 175.224C875.23 175.224 875.95 175.728 875.95 176.736ZM888.072 175.2H890.64V192H888.336V190.176C887.448 191.304 886.08 192.312 883.92 192.312C880.44 192.312 878.208 189.552 878.208 186.24C878.208 182.928 880.44 180.168 883.92 180.168C885.936 180.168 887.28 181.056 888.072 181.968V175.2ZM888.048 184.824C887.496 183.576 886.176 182.424 884.376 182.424C882.312 182.424 880.8 183.984 880.8 186.24C880.8 188.496 882.312 190.056 884.376 190.056C886.176 190.056 887.496 188.904 888.048 187.632V184.824ZM893.138 186.24C893.138 182.064 896.306 180.168 898.97 180.168C903.554 180.168 905.138 183.864 904.394 187.2H895.73C896.018 189.264 898.034 190.128 900.146 190.128C901.538 190.128 902.81 189.792 903.794 189.312V191.52C902.738 192.024 901.274 192.312 899.666 192.312C896.138 192.312 893.138 190.296 893.138 186.24ZM902.09 185.28C902.234 184.272 901.61 182.304 899.09 182.304C897.362 182.304 895.802 183.336 895.706 185.28H902.09ZM909.286 182.064C910.126 181.056 911.542 180.168 913.294 180.168C916.198 180.168 918.046 182.136 918.046 184.872V192H915.478V185.208C915.478 183.336 914.326 182.448 912.79 182.448C911.326 182.448 910.222 183.432 909.574 184.368V192H907.006V180.48H909.286V182.064ZM921.862 177L924.406 176.376V180.48H928.582V182.736H924.406V188.016C924.406 189.528 925.102 190.032 926.59 190.032C927.43 190.032 928.198 189.864 928.918 189.576V191.784C928.054 192.096 926.95 192.288 925.822 192.288C923.59 192.288 921.862 191.184 921.862 188.496V182.736H919.798V180.48H921.862V177ZM933.622 192H931.054V180.48H933.622V192ZM933.91 176.736C933.91 177.792 933.19 178.272 932.35 178.272C931.51 178.272 930.766 177.792 930.766 176.736C930.766 175.728 931.51 175.224 932.35 175.224C933.19 175.224 933.91 175.728 933.91 176.736ZM946.705 189.336C946.705 189.984 947.089 190.176 947.545 190.176C947.809 190.176 948.073 190.104 948.313 190.032V191.88C947.833 192.072 947.257 192.168 946.681 192.168C945.625 192.168 944.785 191.76 944.377 190.824C943.249 191.736 941.833 192.312 940.033 192.312C937.945 192.312 936.001 191.16 936.001 188.784C936.001 185.832 938.737 184.92 941.137 184.92C942.121 184.92 943.225 185.064 944.137 185.256V184.848C944.137 183.408 943.081 182.4 941.113 182.4C939.409 182.4 937.993 182.832 936.961 183.288V180.936C937.873 180.624 939.529 180.168 941.377 180.168C944.641 180.168 946.705 181.728 946.705 185.208V189.336ZM941.641 186.72C940.177 186.72 938.641 187.176 938.641 188.616C938.641 189.744 939.649 190.32 940.801 190.32C942.025 190.32 943.225 189.864 944.137 188.952V187.008C943.441 186.864 942.457 186.72 941.641 186.72ZM950.133 174.48H952.701V192H950.133V174.48Z" fill="white"/>
<path d="M674.117 219.4H675.773L671.813 232H670.121L666.935 221.92L663.749 232H662.075L658.115 219.4H659.771L662.921 230.164L666.269 219.4H667.619L670.967 230.164L674.117 219.4ZM675.988 227.68C675.988 224.656 678.238 223.144 680.29 223.144C683.62 223.144 684.844 225.862 684.304 228.31H677.428C677.608 230.128 679.246 230.884 680.992 230.884C682.054 230.884 683.098 230.596 683.836 230.182V231.586C683.044 232 681.91 232.216 680.776 232.216C678.22 232.216 675.988 230.758 675.988 227.68ZM683.026 227.05C683.152 226.132 682.576 224.476 680.38 224.476C678.904 224.476 677.536 225.358 677.428 227.05H683.026ZM698 219.4H699.44V232H698.144V230.56C697.37 231.442 696.308 232.216 694.652 232.216C692.186 232.216 690.332 230.272 690.332 227.68C690.332 225.088 692.186 223.144 694.652 223.144C696.308 223.144 697.37 223.918 698 224.656V219.4ZM698 226.6C697.514 225.484 696.362 224.476 694.814 224.476C693.14 224.476 691.772 225.7 691.772 227.68C691.772 229.66 693.14 230.884 694.814 230.884C696.362 230.884 697.514 229.876 698 228.76V226.6ZM701.511 227.68C701.511 224.728 703.779 223.144 706.119 223.144C708.477 223.144 710.727 224.728 710.727 227.68C710.727 230.632 708.477 232.216 706.119 232.216C703.779 232.216 701.511 230.632 701.511 227.68ZM709.287 227.68C709.287 225.682 707.883 224.512 706.119 224.512C704.355 224.512 702.951 225.682 702.951 227.68C702.951 229.678 704.355 230.848 706.119 230.848C707.883 230.848 709.287 229.678 709.287 227.68ZM718.571 224.638C719.147 223.882 720.299 223.144 721.685 223.144C723.755 223.144 725.285 224.566 725.285 226.672V232H723.845V226.852C723.845 225.232 722.855 224.476 721.523 224.476C720.245 224.476 719.291 225.34 718.715 226.204V232H717.275V223.36H718.571V224.638ZM727.246 227.68C727.246 224.728 729.514 223.144 731.854 223.144C734.212 223.144 736.462 224.728 736.462 227.68C736.462 230.632 734.212 232.216 731.854 232.216C729.514 232.216 727.246 230.632 727.246 227.68ZM735.022 227.68C735.022 225.682 733.618 224.512 731.854 224.512C730.09 224.512 728.686 225.682 728.686 227.68C728.686 229.678 730.09 230.848 731.854 230.848C733.618 230.848 735.022 229.678 735.022 227.68ZM738.963 220.678L740.385 220.318V223.36H743.841V224.692H740.385V229.156C740.385 230.47 740.979 230.866 742.239 230.866C742.923 230.866 743.571 230.704 744.147 230.47V231.802C743.499 232.036 742.653 232.198 741.825 232.198C740.151 232.198 738.963 231.298 738.963 229.408V224.692H737.343V223.36H738.963V220.678ZM749.658 227.716C749.658 224.566 752.088 223.144 754.338 223.144C755.31 223.144 756.264 223.36 757.002 223.846V225.25C756.354 224.746 755.436 224.476 754.518 224.476C752.844 224.476 751.098 225.412 751.098 227.68C751.098 229.894 752.79 230.884 754.482 230.884C755.418 230.884 756.372 230.614 757.092 230.182V231.622C756.282 232.018 755.364 232.216 754.284 232.216C752.016 232.216 749.658 230.794 749.658 227.716ZM758.429 227.68C758.429 224.728 760.697 223.144 763.037 223.144C765.395 223.144 767.645 224.728 767.645 227.68C767.645 230.632 765.395 232.216 763.037 232.216C760.697 232.216 758.429 230.632 758.429 227.68ZM766.205 227.68C766.205 225.682 764.801 224.512 763.037 224.512C761.273 224.512 759.869 225.682 759.869 227.68C759.869 229.678 761.273 230.848 763.037 230.848C764.801 230.848 766.205 229.678 766.205 227.68ZM769.747 218.86H771.187V232H769.747V218.86ZM773.931 218.86H775.371V232H773.931V218.86ZM777.484 227.68C777.484 224.656 779.734 223.144 781.786 223.144C785.116 223.144 786.34 225.862 785.8 228.31H778.924C779.104 230.128 780.742 230.884 782.488 230.884C783.55 230.884 784.594 230.596 785.332 230.182V231.586C784.54 232 783.406 232.216 782.272 232.216C779.716 232.216 777.484 230.758 777.484 227.68ZM784.522 227.05C784.648 226.132 784.072 224.476 781.876 224.476C780.4 224.476 779.032 225.358 778.924 227.05H784.522ZM787.345 227.716C787.345 224.566 789.775 223.144 792.025 223.144C792.997 223.144 793.951 223.36 794.689 223.846V225.25C794.041 224.746 793.123 224.476 792.205 224.476C790.531 224.476 788.785 225.412 788.785 227.68C788.785 229.894 790.477 230.884 792.169 230.884C793.105 230.884 794.059 230.614 794.779 230.182V231.622C793.969 232.018 793.051 232.216 791.971 232.216C789.703 232.216 787.345 230.794 787.345 227.716ZM797.392 220.678L798.814 220.318V223.36H802.27V224.692H798.814V229.156C798.814 230.47 799.408 230.866 800.668 230.866C801.352 230.866 802 230.704 802.576 230.47V231.802C801.928 232.036 801.082 232.198 800.254 232.198C798.58 232.198 797.392 231.298 797.392 229.408V224.692H795.772V223.36H797.392V220.678ZM809.978 224.8C810.752 223.918 811.814 223.144 813.47 223.144C815.936 223.144 817.79 225.088 817.79 227.68C817.79 230.272 815.936 232.216 813.47 232.216C811.814 232.216 810.752 231.442 810.122 230.704V235.96H808.682V223.36H809.978V224.8ZM816.35 227.68C816.35 225.7 814.982 224.476 813.308 224.476C811.76 224.476 810.608 225.484 810.122 226.6V228.76C810.608 229.876 811.76 230.884 813.308 230.884C814.982 230.884 816.35 229.66 816.35 227.68ZM819.267 227.68C819.267 224.656 821.517 223.144 823.569 223.144C826.899 223.144 828.123 225.862 827.583 228.31H820.707C820.887 230.128 822.525 230.884 824.271 230.884C825.333 230.884 826.377 230.596 827.115 230.182V231.586C826.323 232 825.189 232.216 824.055 232.216C821.499 232.216 819.267 230.758 819.267 227.68ZM826.305 227.05C826.431 226.132 825.855 224.476 823.659 224.476C822.183 224.476 820.815 225.358 820.707 227.05H826.305ZM831.019 224.89C831.703 223.756 833.233 223.054 834.745 223.18V224.62C833.053 224.422 831.685 225.232 831.163 226.618V232H829.723V223.36H831.019V224.89ZM835.81 225.628C835.81 223.846 837.484 223.144 839.104 223.144C840.256 223.144 841.354 223.45 842.164 223.882V225.25C841.444 224.782 840.238 224.44 839.194 224.44C838.258 224.44 837.268 224.746 837.268 225.592C837.268 227.464 842.758 226.672 842.758 229.786C842.758 231.586 841.066 232.216 839.194 232.216C837.97 232.216 836.656 231.892 835.846 231.37V229.966C836.728 230.56 838.042 230.884 839.122 230.884C840.346 230.884 841.318 230.686 841.318 229.822C841.318 228.004 835.81 228.724 835.81 225.628ZM844.105 227.68C844.105 224.728 846.373 223.144 848.713 223.144C851.071 223.144 853.321 224.728 853.321 227.68C853.321 230.632 851.071 232.216 848.713 232.216C846.373 232.216 844.105 230.632 844.105 227.68ZM851.881 227.68C851.881 225.682 850.477 224.512 848.713 224.512C846.949 224.512 845.545 225.682 845.545 227.68C845.545 229.678 846.949 230.848 848.713 230.848C850.477 230.848 851.881 229.678 851.881 227.68ZM856.683 224.638C857.259 223.882 858.411 223.144 859.797 223.144C861.867 223.144 863.397 224.566 863.397 226.672V232H861.957V226.852C861.957 225.232 860.967 224.476 859.635 224.476C858.357 224.476 857.403 225.34 856.827 226.204V232H855.387V223.36H856.683V224.638ZM872.971 230.2C872.971 230.722 873.259 230.866 873.637 230.866C873.853 230.866 874.087 230.812 874.303 230.74V231.91C873.961 232.036 873.583 232.108 873.223 232.108C872.521 232.108 871.891 231.82 871.639 231.064C870.775 231.784 869.677 232.216 868.273 232.216C866.743 232.216 865.231 231.406 865.231 229.588C865.231 227.356 867.283 226.672 869.137 226.672C869.893 226.672 870.811 226.78 871.531 226.942V226.636C871.531 225.34 870.649 224.476 869.065 224.476C867.733 224.476 866.671 224.8 865.915 225.124V223.72C866.599 223.486 867.787 223.144 869.209 223.144C871.513 223.144 872.971 224.404 872.971 226.816V230.2ZM866.707 229.516C866.707 230.524 867.625 230.974 868.579 230.974C869.677 230.974 870.775 230.524 871.531 229.714V228.13C870.919 228.004 870.037 227.878 869.335 227.878C868.075 227.878 866.707 228.256 866.707 229.516ZM875.778 218.86H877.218V232H875.778V218.86ZM891.482 219.4H892.922V232H891.626V230.56C890.852 231.442 889.79 232.216 888.134 232.216C885.668 232.216 883.814 230.272 883.814 227.68C883.814 225.088 885.668 223.144 888.134 223.144C889.79 223.144 890.852 223.918 891.482 224.656V219.4ZM891.482 226.6C890.996 225.484 889.844 224.476 888.296 224.476C886.622 224.476 885.254 225.7 885.254 227.68C885.254 229.66 886.622 230.884 888.296 230.884C889.844 230.884 890.996 229.876 891.482 228.76V226.6ZM902.608 230.2C902.608 230.722 902.896 230.866 903.274 230.866C903.49 230.866 903.724 230.812 903.94 230.74V231.91C903.598 232.036 903.22 232.108 902.86 232.108C902.158 232.108 901.528 231.82 901.276 231.064C900.412 231.784 899.314 232.216 897.91 232.216C896.38 232.216 894.868 231.406 894.868 229.588C894.868 227.356 896.92 226.672 898.774 226.672C899.53 226.672 900.448 226.78 901.168 226.942V226.636C901.168 225.34 900.286 224.476 898.702 224.476C897.37 224.476 896.308 224.8 895.552 225.124V223.72C896.236 223.486 897.424 223.144 898.846 223.144C901.15 223.144 902.608 224.404 902.608 226.816V230.2ZM896.344 229.516C896.344 230.524 897.262 230.974 898.216 230.974C899.314 230.974 900.412 230.524 901.168 229.714V228.13C900.556 228.004 899.674 227.878 898.972 227.878C897.712 227.878 896.344 228.256 896.344 229.516ZM905.885 220.678L907.307 220.318V223.36H910.763V224.692H907.307V229.156C907.307 230.47 907.901 230.866 909.161 230.866C909.845 230.866 910.493 230.704 911.069 230.47V231.802C910.421 232.036 909.575 232.198 908.747 232.198C907.073 232.198 905.885 231.298 905.885 229.408V224.692H904.265V223.36H905.885V220.678ZM919.711 230.2C919.711 230.722 919.999 230.866 920.377 230.866C920.593 230.866 920.827 230.812 921.043 230.74V231.91C920.701 232.036 920.323 232.108 919.963 232.108C919.261 232.108 918.631 231.82 918.379 231.064C917.515 231.784 916.417 232.216 915.013 232.216C913.483 232.216 911.971 231.406 911.971 229.588C911.971 227.356 914.023 226.672 915.877 226.672C916.633 226.672 917.551 226.78 918.271 226.942V226.636C918.271 225.34 917.389 224.476 915.805 224.476C914.473 224.476 913.411 224.8 912.655 225.124V223.72C913.339 223.486 914.527 223.144 915.949 223.144C918.253 223.144 919.711 224.404 919.711 226.816V230.2ZM913.447 229.516C913.447 230.524 914.365 230.974 915.319 230.974C916.417 230.974 917.515 230.524 918.271 229.714V228.13C917.659 228.004 916.777 227.878 916.075 227.878C914.815 227.878 913.447 228.256 913.447 229.516ZM925.949 227.68C925.949 224.728 928.217 223.144 930.557 223.144C932.915 223.144 935.165 224.728 935.165 227.68C935.165 230.632 932.915 232.216 930.557 232.216C928.217 232.216 925.949 230.632 925.949 227.68ZM933.725 227.68C933.725 225.682 932.321 224.512 930.557 224.512C928.793 224.512 927.389 225.682 927.389 227.68C927.389 229.678 928.793 230.848 930.557 230.848C932.321 230.848 933.725 229.678 933.725 227.68ZM938.526 224.89C939.21 223.756 940.74 223.054 942.252 223.18V224.62C940.56 224.422 939.192 225.232 938.67 226.618V232H937.23V223.36H938.526V224.89ZM660.761 255H659.321V246.36H660.761V255ZM660.977 243.606C660.977 244.218 660.545 244.524 660.041 244.524C659.537 244.524 659.105 244.218 659.105 243.606C659.105 243.012 659.537 242.688 660.041 242.688C660.545 242.688 660.977 243.012 660.977 243.606ZM664.765 247.638C665.341 246.882 666.493 246.144 667.879 246.144C669.949 246.144 671.479 247.566 671.479 249.672V255H670.039V249.852C670.039 248.232 669.049 247.476 667.717 247.476C666.439 247.476 665.485 248.34 664.909 249.204V255H663.469V246.36H664.765V247.638ZM674.504 243.678L675.926 243.318V246.36H679.382V247.692H675.926V252.156C675.926 253.47 676.52 253.866 677.78 253.866C678.464 253.866 679.112 253.704 679.688 253.47V254.802C679.04 255.036 678.194 255.198 677.366 255.198C675.692 255.198 674.504 254.298 674.504 252.408V247.692H672.884V246.36H674.504V243.678ZM680.717 250.68C680.717 247.656 682.967 246.144 685.019 246.144C688.349 246.144 689.573 248.862 689.033 251.31H682.157C682.337 253.128 683.975 253.884 685.721 253.884C686.783 253.884 687.827 253.596 688.565 253.182V254.586C687.773 255 686.639 255.216 685.505 255.216C682.949 255.216 680.717 253.758 680.717 250.68ZM687.755 250.05C687.881 249.132 687.305 247.476 685.109 247.476C683.633 247.476 682.265 248.358 682.157 250.05H687.755ZM692.468 247.89C693.152 246.756 694.682 246.054 696.194 246.18V247.62C694.502 247.422 693.134 248.232 692.612 249.618V255H691.172V246.36H692.468V247.89ZM699.87 255H698.43V247.692H696.81V246.36H698.43V245.316C698.43 242.904 699.978 242.184 701.49 242.184C702.282 242.184 703.056 242.346 703.65 242.58V243.912C703.164 243.678 702.48 243.516 701.832 243.516C700.788 243.516 699.87 243.786 699.87 245.37V246.36H703.11V247.692H699.87V255ZM703.779 250.68C703.779 247.656 706.029 246.144 708.081 246.144C711.411 246.144 712.635 248.862 712.095 251.31H705.219C705.399 253.128 707.037 253.884 708.783 253.884C709.845 253.884 710.889 253.596 711.627 253.182V254.586C710.835 255 709.701 255.216 708.567 255.216C706.011 255.216 703.779 253.758 703.779 250.68ZM710.817 250.05C710.943 249.132 710.367 247.476 708.171 247.476C706.695 247.476 705.327 248.358 705.219 250.05H710.817ZM715.53 247.89C716.214 246.756 717.744 246.054 719.256 246.18V247.62C717.564 247.422 716.196 248.232 715.674 249.618V255H714.234V246.36H715.53V247.89ZM719.916 250.68C719.916 247.656 722.166 246.144 724.218 246.144C727.548 246.144 728.772 248.862 728.232 251.31H721.356C721.536 253.128 723.174 253.884 724.92 253.884C725.982 253.884 727.026 253.596 727.764 253.182V254.586C726.972 255 725.838 255.216 724.704 255.216C722.148 255.216 719.916 253.758 719.916 250.68ZM726.954 250.05C727.08 249.132 726.504 247.476 724.308 247.476C722.832 247.476 721.464 248.358 721.356 250.05H726.954ZM745.645 246.36H747.157L744.205 255H742.639L740.299 248.322L737.959 255H736.393L733.441 246.36H734.953L737.185 253.416L739.651 246.36H740.947L743.413 253.416L745.645 246.36ZM750.287 255H748.847V246.36H750.287V255ZM750.503 243.606C750.503 244.218 750.071 244.524 749.567 244.524C749.063 244.524 748.631 244.218 748.631 243.606C748.631 243.012 749.063 242.688 749.567 242.688C750.071 242.688 750.503 243.012 750.503 243.606ZM753.57 243.678L754.992 243.318V246.36H758.448V247.692H754.992V252.156C754.992 253.47 755.586 253.866 756.846 253.866C757.53 253.866 758.178 253.704 758.754 253.47V254.802C758.106 255.036 757.26 255.198 756.432 255.198C754.758 255.198 753.57 254.298 753.57 252.408V247.692H751.95V246.36H753.57V243.678ZM760.377 242.4H761.817V247.458C762.429 246.774 763.509 246.144 764.787 246.144C766.857 246.144 768.387 247.566 768.387 249.672V255H766.947V249.852C766.947 248.232 765.957 247.476 764.625 247.476C763.347 247.476 762.393 248.34 761.817 249.204V255H760.377V242.4ZM778.568 253.362L781.484 246.36H783.014L778.766 256.296C777.866 258.384 776.768 259.176 775.508 259.176C775.202 259.176 774.896 259.14 774.572 259.05V257.808C774.824 257.88 775.076 257.916 775.328 257.916C776.3 257.916 777.002 257.214 777.56 255.81L777.884 255.018L773.78 246.36H775.31L778.568 253.362ZM783.707 250.68C783.707 247.728 785.975 246.144 788.315 246.144C790.673 246.144 792.923 247.728 792.923 250.68C792.923 253.632 790.673 255.216 788.315 255.216C785.975 255.216 783.707 253.632 783.707 250.68ZM791.483 250.68C791.483 248.682 790.079 247.512 788.315 247.512C786.551 247.512 785.147 248.682 785.147 250.68C785.147 252.678 786.551 253.848 788.315 253.848C790.079 253.848 791.483 252.678 791.483 250.68ZM801.45 246.36H802.89V255H801.594V253.722C801.018 254.478 799.866 255.216 798.48 255.216C796.23 255.216 794.88 253.794 794.88 251.688V246.36H796.32V251.508C796.32 253.128 797.13 253.884 798.642 253.884C799.92 253.884 800.874 253.02 801.45 252.156V246.36ZM806.849 247.89C807.533 246.756 809.063 246.054 810.575 246.18V247.62C808.883 247.422 807.515 248.232 806.993 249.618V255H805.553V246.36H806.849V247.89ZM827.014 246.36H828.526L825.574 255H824.008L821.668 248.322L819.328 255H817.762L814.81 246.36H816.322L818.554 253.416L821.02 246.36H822.316L824.782 253.416L827.014 246.36ZM829.41 250.68C829.41 247.656 831.66 246.144 833.712 246.144C837.042 246.144 838.266 248.862 837.726 251.31H830.85C831.03 253.128 832.668 253.884 834.414 253.884C835.476 253.884 836.52 253.596 837.258 253.182V254.586C836.466 255 835.332 255.216 834.198 255.216C831.642 255.216 829.41 253.758 829.41 250.68ZM836.448 250.05C836.574 249.132 835.998 247.476 833.802 247.476C832.326 247.476 830.958 248.358 830.85 250.05H836.448ZM839.865 242.4H841.305V247.656C841.935 246.918 842.997 246.144 844.653 246.144C847.119 246.144 848.973 248.088 848.973 250.68C848.973 253.272 847.119 255.216 844.653 255.216C842.997 255.216 841.935 254.442 841.161 253.56V255H839.865V242.4ZM847.533 250.68C847.533 248.7 846.165 247.476 844.491 247.476C842.943 247.476 841.791 248.484 841.305 249.6V251.76C841.791 252.876 842.943 253.884 844.491 253.884C846.165 253.884 847.533 252.66 847.533 250.68ZM850.541 248.628C850.541 246.846 852.215 246.144 853.835 246.144C854.987 246.144 856.085 246.45 856.895 246.882V248.25C856.175 247.782 854.969 247.44 853.925 247.44C852.989 247.44 851.999 247.746 851.999 248.592C851.999 250.464 857.489 249.672 857.489 252.786C857.489 254.586 855.797 255.216 853.925 255.216C852.701 255.216 851.387 254.892 850.577 254.37V252.966C851.459 253.56 852.773 253.884 853.853 253.884C855.077 253.884 856.049 253.686 856.049 252.822C856.049 251.004 850.541 251.724 850.541 248.628ZM860.906 255H859.466V246.36H860.906V255ZM861.122 243.606C861.122 244.218 860.69 244.524 860.186 244.524C859.682 244.524 859.25 244.218 859.25 243.606C859.25 243.012 859.682 242.688 860.186 242.688C860.69 242.688 861.122 243.012 861.122 243.606ZM864.189 243.678L865.611 243.318V246.36H869.067V247.692H865.611V252.156C865.611 253.47 866.205 253.866 867.465 253.866C868.149 253.866 868.797 253.704 869.373 253.47V254.802C868.725 255.036 867.879 255.198 867.051 255.198C865.377 255.198 864.189 254.298 864.189 252.408V247.692H862.569V246.36H864.189V243.678ZM870.402 250.68C870.402 247.656 872.652 246.144 874.704 246.144C878.034 246.144 879.258 248.862 878.718 251.31H871.842C872.022 253.128 873.66 253.884 875.406 253.884C876.468 253.884 877.512 253.596 878.25 253.182V254.586C877.458 255 876.324 255.216 875.19 255.216C872.634 255.216 870.402 253.758 870.402 250.68ZM877.44 250.05C877.566 249.132 876.99 247.476 874.794 247.476C873.318 247.476 871.95 248.358 871.842 250.05H877.44ZM881.243 246.54H880.073L881.063 242.4H882.593L881.243 246.54ZM883.5 248.628C883.5 246.846 885.174 246.144 886.794 246.144C887.946 246.144 889.044 246.45 889.854 246.882V248.25C889.134 247.782 887.928 247.44 886.884 247.44C885.948 247.44 884.958 247.746 884.958 248.592C884.958 250.464 890.448 249.672 890.448 252.786C890.448 254.586 888.756 255.216 886.884 255.216C885.66 255.216 884.346 254.892 883.536 254.37V252.966C884.418 253.56 885.732 253.884 886.812 253.884C888.036 253.884 889.008 253.686 889.008 252.822C889.008 251.004 883.5 251.724 883.5 248.628ZM896.277 250.68C896.277 247.728 898.545 246.144 900.885 246.144C903.243 246.144 905.493 247.728 905.493 250.68C905.493 253.632 903.243 255.216 900.885 255.216C898.545 255.216 896.277 253.632 896.277 250.68ZM904.053 250.68C904.053 248.682 902.649 247.512 900.885 247.512C899.121 247.512 897.717 248.682 897.717 250.68C897.717 252.678 899.121 253.848 900.885 253.848C902.649 253.848 904.053 252.678 904.053 250.68ZM908.855 247.8C909.629 246.918 910.691 246.144 912.347 246.144C914.813 246.144 916.667 248.088 916.667 250.68C916.667 253.272 914.813 255.216 912.347 255.216C910.691 255.216 909.629 254.442 908.999 253.704V258.96H907.559V246.36H908.855V247.8ZM915.227 250.68C915.227 248.7 913.859 247.476 912.185 247.476C910.637 247.476 909.485 248.484 908.999 249.6V251.76C909.485 252.876 910.637 253.884 912.185 253.884C913.859 253.884 915.227 252.66 915.227 250.68ZM918.144 250.68C918.144 247.656 920.394 246.144 922.446 246.144C925.776 246.144 927 248.862 926.46 251.31H919.584C919.764 253.128 921.402 253.884 923.148 253.884C924.21 253.884 925.254 253.596 925.992 253.182V254.586C925.2 255 924.066 255.216 922.932 255.216C920.376 255.216 918.144 253.758 918.144 250.68ZM925.182 250.05C925.308 249.132 924.732 247.476 922.536 247.476C921.06 247.476 919.692 248.358 919.584 250.05H925.182ZM929.896 247.89C930.58 246.756 932.11 246.054 933.622 246.18V247.62C931.93 247.422 930.562 248.232 930.04 249.618V255H928.6V246.36H929.896V247.89ZM942.106 253.2C942.106 253.722 942.394 253.866 942.772 253.866C942.988 253.866 943.222 253.812 943.438 253.74V254.91C943.096 255.036 942.718 255.108 942.358 255.108C941.656 255.108 941.026 254.82 940.774 254.064C939.91 254.784 938.812 255.216 937.408 255.216C935.878 255.216 934.366 254.406 934.366 252.588C934.366 250.356 936.418 249.672 938.272 249.672C939.028 249.672 939.946 249.78 940.666 249.942V249.636C940.666 248.34 939.784 247.476 938.2 247.476C936.868 247.476 935.806 247.8 935.05 248.124V246.72C935.734 246.486 936.922 246.144 938.344 246.144C940.648 246.144 942.106 247.404 942.106 249.816V253.2ZM935.842 252.516C935.842 253.524 936.76 253.974 937.714 253.974C938.812 253.974 939.91 253.524 940.666 252.714V251.13C940.054 251.004 939.172 250.878 938.47 250.878C937.21 250.878 935.842 251.256 935.842 252.516ZM945.383 243.678L946.805 243.318V246.36H950.261V247.692H946.805V252.156C946.805 253.47 947.399 253.866 948.659 253.866C949.343 253.866 949.991 253.704 950.567 253.47V254.802C949.919 255.036 949.073 255.198 948.245 255.198C946.571 255.198 945.383 254.298 945.383 252.408V247.692H943.763V246.36H945.383V243.678ZM953.665 255H952.225V246.36H953.665V255ZM953.881 243.606C953.881 244.218 953.449 244.524 952.945 244.524C952.441 244.524 952.009 244.218 952.009 243.606C952.009 243.012 952.441 242.688 952.945 242.688C953.449 242.688 953.881 243.012 953.881 243.606ZM955.779 250.68C955.779 247.728 958.047 246.144 960.387 246.144C962.745 246.144 964.995 247.728 964.995 250.68C964.995 253.632 962.745 255.216 960.387 255.216C958.047 255.216 955.779 253.632 955.779 250.68ZM963.555 250.68C963.555 248.682 962.151 247.512 960.387 247.512C958.623 247.512 957.219 248.682 957.219 250.68C957.219 252.678 958.623 253.848 960.387 253.848C962.151 253.848 963.555 252.678 963.555 250.68ZM968.357 247.638C968.933 246.882 970.085 246.144 971.471 246.144C973.541 246.144 975.071 247.566 975.071 249.672V255H973.631V249.852C973.631 248.232 972.641 247.476 971.309 247.476C970.031 247.476 969.077 248.34 968.501 249.204V255H967.061V246.36H968.357V247.638ZM977.121 248.628C977.121 246.846 978.795 246.144 980.415 246.144C981.567 246.144 982.665 246.45 983.475 246.882V248.25C982.755 247.782 981.549 247.44 980.505 247.44C979.569 247.44 978.579 247.746 978.579 248.592C978.579 250.464 984.069 249.672 984.069 252.786C984.069 254.586 982.377 255.216 980.505 255.216C979.281 255.216 977.967 254.892 977.157 254.37V252.966C978.039 253.56 979.353 253.884 980.433 253.884C981.657 253.884 982.629 253.686 982.629 252.822C982.629 251.004 977.121 251.724 977.121 248.628ZM987.558 254.244C987.558 254.856 987.126 255.162 986.622 255.162C986.118 255.162 985.668 254.856 985.668 254.244C985.668 253.65 986.118 253.344 986.622 253.344C987.126 253.344 987.558 253.65 987.558 254.244ZM659.609 265.4H661.121V278H659.609V265.4ZM665.398 270.638C665.974 269.882 667.126 269.144 668.512 269.144C670.582 269.144 672.112 270.566 672.112 272.672V278H670.672V272.852C670.672 271.232 669.682 270.476 668.35 270.476C667.072 270.476 666.118 271.34 665.542 272.204V278H664.102V269.36H665.398V270.638ZM675.137 266.678L676.559 266.318V269.36H680.015V270.692H676.559V275.156C676.559 276.47 677.153 276.866 678.413 276.866C679.097 276.866 679.745 276.704 680.321 276.47V277.802C679.673 278.036 678.827 278.198 677.999 278.198C676.325 278.198 675.137 277.298 675.137 275.408V270.692H673.517V269.36H675.137V266.678ZM681.349 273.68C681.349 270.656 683.599 269.144 685.651 269.144C688.981 269.144 690.205 271.862 689.665 274.31H682.789C682.969 276.128 684.607 276.884 686.353 276.884C687.415 276.884 688.459 276.596 689.197 276.182V277.586C688.405 278 687.271 278.216 686.137 278.216C683.581 278.216 681.349 276.758 681.349 273.68ZM688.387 273.05C688.513 272.132 687.937 270.476 685.741 270.476C684.265 270.476 682.897 271.358 682.789 273.05H688.387ZM691.211 273.68C691.211 271.088 693.065 269.144 695.531 269.144C697.187 269.144 698.249 269.918 699.023 270.8V269.36H700.319V278C700.319 280.97 697.997 282.176 695.603 282.176C694.325 282.176 693.119 281.888 692.093 281.366V279.962C693.119 280.538 694.235 280.844 695.423 280.844C697.259 280.844 698.897 280.142 698.879 278V276.668C698.249 277.442 697.187 278.216 695.531 278.216C693.065 278.216 691.211 276.272 691.211 273.68ZM698.879 272.6C698.393 271.484 697.241 270.476 695.693 270.476C694.019 270.476 692.651 271.7 692.651 273.68C692.651 275.66 694.019 276.884 695.693 276.884C697.241 276.884 698.393 275.948 698.879 274.94V272.6ZM704.28 270.89C704.964 269.756 706.494 269.054 708.006 269.18V270.62C706.314 270.422 704.946 271.232 704.424 272.618V278H702.984V269.36H704.28V270.89ZM716.491 276.2C716.491 276.722 716.779 276.866 717.157 276.866C717.373 276.866 717.607 276.812 717.823 276.74V277.91C717.481 278.036 717.103 278.108 716.743 278.108C716.041 278.108 715.411 277.82 715.159 277.064C714.295 277.784 713.197 278.216 711.793 278.216C710.263 278.216 708.751 277.406 708.751 275.588C708.751 273.356 710.803 272.672 712.657 272.672C713.413 272.672 714.331 272.78 715.051 272.942V272.636C715.051 271.34 714.169 270.476 712.585 270.476C711.253 270.476 710.191 270.8 709.435 271.124V269.72C710.119 269.486 711.307 269.144 712.729 269.144C715.033 269.144 716.491 270.404 716.491 272.816V276.2ZM710.227 275.516C710.227 276.524 711.145 276.974 712.099 276.974C713.197 276.974 714.295 276.524 715.051 275.714V274.13C714.439 274.004 713.557 273.878 712.855 273.878C711.595 273.878 710.227 274.256 710.227 275.516ZM719.767 266.678L721.189 266.318V269.36H724.645V270.692H721.189V275.156C721.189 276.47 721.783 276.866 723.043 276.866C723.727 276.866 724.375 276.704 724.951 276.47V277.802C724.303 278.036 723.457 278.198 722.629 278.198C720.955 278.198 719.767 277.298 719.767 275.408V270.692H718.147V269.36H719.767V266.678ZM728.05 278H726.61V269.36H728.05V278ZM728.266 266.606C728.266 267.218 727.834 267.524 727.33 267.524C726.826 267.524 726.394 267.218 726.394 266.606C726.394 266.012 726.826 265.688 727.33 265.688C727.834 265.688 728.266 266.012 728.266 266.606ZM730.164 273.68C730.164 270.728 732.432 269.144 734.772 269.144C737.13 269.144 739.38 270.728 739.38 273.68C739.38 276.632 737.13 278.216 734.772 278.216C732.432 278.216 730.164 276.632 730.164 273.68ZM737.94 273.68C737.94 271.682 736.536 270.512 734.772 270.512C733.008 270.512 731.604 271.682 731.604 273.68C731.604 275.678 733.008 276.848 734.772 276.848C736.536 276.848 737.94 275.678 737.94 273.68ZM742.741 270.638C743.317 269.882 744.469 269.144 745.855 269.144C747.925 269.144 749.455 270.566 749.455 272.672V278H748.015V272.852C748.015 271.232 747.025 270.476 745.693 270.476C744.415 270.476 743.461 271.34 742.885 272.204V278H741.445V269.36H742.741V270.638ZM756.717 266.678L758.139 266.318V269.36H761.595V270.692H758.139V275.156C758.139 276.47 758.733 276.866 759.993 276.866C760.677 276.866 761.325 276.704 761.901 276.47V277.802C761.253 278.036 760.407 278.198 759.579 278.198C757.905 278.198 756.717 277.298 756.717 275.408V270.692H755.097V269.36H756.717V266.678ZM770.543 276.2C770.543 276.722 770.831 276.866 771.209 276.866C771.425 276.866 771.659 276.812 771.875 276.74V277.91C771.533 278.036 771.155 278.108 770.795 278.108C770.093 278.108 769.463 277.82 769.211 277.064C768.347 277.784 767.249 278.216 765.845 278.216C764.315 278.216 762.803 277.406 762.803 275.588C762.803 273.356 764.855 272.672 766.709 272.672C767.465 272.672 768.383 272.78 769.103 272.942V272.636C769.103 271.34 768.221 270.476 766.637 270.476C765.305 270.476 764.243 270.8 763.487 271.124V269.72C764.171 269.486 765.359 269.144 766.781 269.144C769.085 269.144 770.543 270.404 770.543 272.816V276.2ZM764.279 275.516C764.279 276.524 765.197 276.974 766.151 276.974C767.249 276.974 768.347 276.524 769.103 275.714V274.13C768.491 274.004 767.609 273.878 766.907 273.878C765.647 273.878 764.279 274.256 764.279 275.516ZM781.306 278H779.614L776.446 274.292H774.754V278H773.314V265.4H774.754V272.96H776.5L779.236 269.36H780.91L777.634 273.662L781.306 278ZM781.703 273.68C781.703 270.656 783.953 269.144 786.005 269.144C789.335 269.144 790.559 271.862 790.019 274.31H783.143C783.323 276.128 784.961 276.884 786.707 276.884C787.769 276.884 788.813 276.596 789.551 276.182V277.586C788.759 278 787.625 278.216 786.491 278.216C783.935 278.216 781.703 276.758 781.703 273.68ZM788.741 273.05C788.867 272.132 788.291 270.476 786.095 270.476C784.619 270.476 783.251 271.358 783.143 273.05H788.741ZM791.654 271.628C791.654 269.846 793.328 269.144 794.948 269.144C796.1 269.144 797.198 269.45 798.008 269.882V271.25C797.288 270.782 796.082 270.44 795.038 270.44C794.102 270.44 793.112 270.746 793.112 271.592C793.112 273.464 798.602 272.672 798.602 275.786C798.602 277.586 796.91 278.216 795.038 278.216C793.814 278.216 792.5 277.892 791.69 277.37V275.966C792.572 276.56 793.886 276.884 794.966 276.884C796.19 276.884 797.162 276.686 797.162 275.822C797.162 274.004 791.654 274.724 791.654 271.628ZM806.501 279.602C806.501 281.636 805.187 282.176 804.017 282.176C803.495 282.176 803.045 282.086 802.685 281.942V280.61C802.973 280.754 803.297 280.808 803.621 280.808C804.377 280.808 805.061 280.52 805.061 279.386V269.36H806.501V279.602ZM806.717 266.606C806.717 267.218 806.285 267.524 805.781 267.524C805.277 267.524 804.827 267.218 804.827 266.606C804.827 266.012 805.277 265.688 805.781 265.688C806.285 265.688 806.717 266.012 806.717 266.606ZM815.671 269.36H817.111V278H815.815V276.722C815.239 277.478 814.087 278.216 812.701 278.216C810.451 278.216 809.101 276.794 809.101 274.688V269.36H810.541V274.508C810.541 276.128 811.351 276.884 812.863 276.884C814.141 276.884 815.095 276.02 815.671 275.156V269.36ZM819.269 271.628C819.269 269.846 820.943 269.144 822.563 269.144C823.715 269.144 824.813 269.45 825.623 269.882V271.25C824.903 270.782 823.697 270.44 822.653 270.44C821.717 270.44 820.727 270.746 820.727 271.592C820.727 273.464 826.217 272.672 826.217 275.786C826.217 277.586 824.525 278.216 822.653 278.216C821.429 278.216 820.115 277.892 819.305 277.37V275.966C820.187 276.56 821.501 276.884 822.581 276.884C823.805 276.884 824.777 276.686 824.777 275.822C824.777 274.004 819.269 274.724 819.269 271.628ZM828.734 266.678L830.156 266.318V269.36H833.612V270.692H830.156V275.156C830.156 276.47 830.75 276.866 832.01 276.866C832.694 276.866 833.342 276.704 833.918 276.47V277.802C833.27 278.036 832.424 278.198 831.596 278.198C829.922 278.198 828.734 277.298 828.734 275.408V270.692H827.114V269.36H828.734V266.678ZM842.615 265.76H843.731V276.56H846.017V278H839.645V276.56H842.219V267.362L839.645 268.334V266.894L842.615 265.76ZM853.68 278H852.24V269.36H853.536V270.512C854.004 270.008 855.03 269.144 856.488 269.144C857.784 269.144 858.738 269.702 859.26 270.602C860.034 269.81 861.096 269.144 862.41 269.144C864.552 269.144 865.704 270.656 865.704 272.672V278H864.264V272.636C864.264 271.322 863.508 270.476 862.248 270.476C861.078 270.476 860.214 271.286 859.728 271.898C859.764 272.15 859.782 272.402 859.782 272.672V278H858.342V272.636C858.342 271.322 857.586 270.476 856.326 270.476C855.048 270.476 854.148 271.43 853.68 272.042V278ZM869.73 278H868.29V269.36H869.73V278ZM869.946 266.606C869.946 267.218 869.514 267.524 869.01 267.524C868.506 267.524 868.074 267.218 868.074 266.606C868.074 266.012 868.506 265.688 869.01 265.688C869.514 265.688 869.946 266.012 869.946 266.606ZM873.733 270.638C874.309 269.882 875.461 269.144 876.847 269.144C878.917 269.144 880.447 270.566 880.447 272.672V278H879.007V272.852C879.007 271.232 878.017 270.476 876.685 270.476C875.407 270.476 874.453 271.34 873.877 272.204V278H872.437V269.36H873.733V270.638ZM889.464 269.36H890.904V278H889.608V276.722C889.032 277.478 887.88 278.216 886.494 278.216C884.244 278.216 882.894 276.794 882.894 274.688V269.36H884.334V274.508C884.334 276.128 885.144 276.884 886.656 276.884C887.934 276.884 888.888 276.02 889.464 275.156V269.36ZM894.142 266.678L895.564 266.318V269.36H899.02V270.692H895.564V275.156C895.564 276.47 896.158 276.866 897.418 276.866C898.102 276.866 898.75 276.704 899.326 276.47V277.802C898.678 278.036 897.832 278.198 897.004 278.198C895.33 278.198 894.142 277.298 894.142 275.408V270.692H892.522V269.36H894.142V266.678ZM900.355 273.68C900.355 270.656 902.605 269.144 904.657 269.144C907.987 269.144 909.211 271.862 908.671 274.31H901.795C901.975 276.128 903.613 276.884 905.359 276.884C906.421 276.884 907.465 276.596 908.203 276.182V277.586C907.411 278 906.277 278.216 905.143 278.216C902.587 278.216 900.355 276.758 900.355 273.68ZM907.393 273.05C907.519 272.132 906.943 270.476 904.747 270.476C903.271 270.476 901.903 271.358 901.795 273.05H907.393ZM912.359 277.244C912.359 277.856 911.927 278.162 911.423 278.162C910.919 278.162 910.469 277.856 910.469 277.244C910.469 276.65 910.919 276.344 911.423 276.344C911.927 276.344 912.359 276.65 912.359 277.244Z" fill="#98C2FA"/>
</svg>
