<svg width="695" height="583" viewBox="0 0 695 583" fill="none" xmlns="http://www.w3.org/2000/svg">
<circle cx="179" cy="407" r="5" fill="#4395FF"/>
<g filter="url(#filter0_d_516_386)">
<circle cx="179" cy="407" r="9.375" stroke="#4395FF" stroke-width="1.25" shape-rendering="crispEdges"/>
</g>
<path d="M39.8291 444.644L39.8291 576.369C39.8291 579.573 42.4265 582.171 45.6309 582.171L312.369 582.171C315.573 582.171 318.171 579.573 318.171 576.369L318.171 444.644C318.171 441.439 315.573 438.842 312.369 438.842L194.188 438.842C191.823 438.842 189.599 437.72 188.192 435.818L183.664 429.698C181.345 426.564 176.655 426.564 174.336 429.698L169.808 435.818C168.401 437.72 166.177 438.842 163.812 438.842L45.6309 438.842C42.4266 438.842 39.8293 441.439 39.8291 444.644Z" fill="#11183C" stroke="white" stroke-width="1.65769"/>
<rect x="54" y="458.523" width="42" height="42" rx="4.46809" fill="#1A2D5D"/>
<path d="M85.8675 480.368H82.54V477.844C82.54 477.693 82.5353 477.545 82.5259 477.4C84.0742 475.941 84.2145 474.016 84.2156 472.007C84.2156 471.557 83.8679 471.17 83.4171 471.148C83.304 471.143 83.191 471.16 83.085 471.2C82.979 471.24 82.882 471.3 82.8001 471.378C82.7181 471.456 82.6528 471.55 82.6081 471.654C82.5634 471.758 82.5403 471.87 82.54 471.983C82.54 473.449 82.4426 474.504 82.0217 475.326C81.0153 473.171 78.5774 471.98 75.0001 471.98C72.9162 471.98 71.1155 472.458 69.7939 473.361C69.0138 473.895 68.4221 474.561 68.0294 475.336C67.565 474.531 67.4602 473.502 67.4602 472.007C67.4602 471.557 67.1147 471.17 66.6644 471.147C66.551 471.141 66.4376 471.158 66.3311 471.198C66.2247 471.237 66.1274 471.298 66.0451 471.376C65.9628 471.455 65.8973 471.549 65.8525 471.653C65.8078 471.757 65.7847 471.87 65.7847 471.983C65.7847 473.954 65.9214 475.844 67.4833 477.305C67.4683 477.481 67.4606 477.661 67.4602 477.844V480.368H64.1327C63.6819 480.368 63.295 480.714 63.2725 481.165C63.267 481.279 63.2846 481.392 63.3243 481.498C63.3639 481.605 63.4248 481.702 63.5031 481.784C63.5815 481.866 63.6757 481.931 63.78 481.976C63.8844 482.02 63.9967 482.043 64.1102 482.043H67.4613V482.874C67.4605 483.838 67.6452 484.792 68.0053 485.685C66.6612 486.887 65.7941 488.215 65.7847 490.38C65.7847 490.837 66.1313 491.233 66.589 491.251C66.7017 491.256 66.8142 491.238 66.9197 491.198C67.0252 491.157 67.1216 491.097 67.2029 491.018C67.2843 490.94 67.3491 490.846 67.3933 490.743C67.4375 490.639 67.4603 490.527 67.4602 490.414C67.4602 488.966 67.9367 488.073 68.8305 487.203C69.8612 488.67 71.3798 489.723 73.1152 490.174C73.2389 490.206 73.3684 490.209 73.4936 490.184C73.6188 490.158 73.7365 490.104 73.8376 490.025C73.9387 489.947 74.0205 489.847 74.0768 489.732C74.1331 489.617 74.1623 489.491 74.1624 489.363V476.196C74.1624 475.745 74.509 475.358 74.9598 475.335C75.0731 475.33 75.1863 475.348 75.2926 475.387C75.3988 475.427 75.496 475.487 75.5781 475.566C75.6602 475.644 75.7255 475.738 75.7702 475.842C75.8149 475.946 75.8379 476.059 75.8379 476.172V489.363C75.8379 489.491 75.8672 489.617 75.9235 489.732C75.9798 489.847 76.0616 489.947 76.1627 490.025C76.2638 490.104 76.3814 490.158 76.5066 490.184C76.6319 490.209 76.7613 490.206 76.8851 490.174C78.6202 489.723 80.1386 488.67 81.1692 487.203C82.0594 488.069 82.5353 488.959 82.5395 490.395C82.5376 490.611 82.6183 490.821 82.7652 490.98C82.9121 491.139 83.1141 491.236 83.3301 491.252C83.4441 491.258 83.5582 491.242 83.6654 491.202C83.7726 491.163 83.8707 491.102 83.9536 491.024C84.0365 490.946 84.1025 490.851 84.1475 490.746C84.1926 490.641 84.2157 490.528 84.2156 490.414C84.2156 488.232 83.3464 486.894 81.996 485.685C82.3561 484.792 82.5408 483.838 82.54 482.874V482.043H85.8911C86.0046 482.043 86.1169 482.02 86.2213 481.976C86.3256 481.931 86.4199 481.866 86.4982 481.784C86.5765 481.702 86.6374 481.605 86.677 481.498C86.7167 481.392 86.7343 481.279 86.7289 481.165C86.7069 480.714 86.3183 480.368 85.8675 480.368Z" fill="#4395FF"/>
<path d="M78.4234 471.565L78.4402 471.57C79.1507 471.769 79.7529 471.017 79.3931 470.373C78.9584 469.592 78.323 468.941 77.5525 468.488C76.782 468.035 75.9045 467.795 75.0106 467.795H74.9886C74.0857 467.796 73.1996 468.04 72.4238 468.502C71.648 468.964 71.0112 469.626 70.5804 470.42C70.2222 471.078 70.8495 471.833 71.5668 471.617C72.5989 471.303 73.755 471.142 74.9996 471.142C76.2609 471.142 77.4129 471.285 78.4234 471.565Z" fill="#4395FF"/>
<path d="M107.7 459.523H117.36V461.623H109.98V465.723H116.78V467.843H109.98V473.523H107.7V459.523ZM118.361 468.723C118.361 465.403 120.881 463.663 123.561 463.663C126.261 463.663 128.761 465.403 128.761 468.723C128.761 472.043 126.261 473.783 123.561 473.783C120.881 473.783 118.361 472.043 118.361 468.723ZM126.581 468.723C126.581 466.843 125.341 465.623 123.561 465.623C121.761 465.623 120.521 466.843 120.521 468.723C120.521 470.603 121.761 471.823 123.561 471.823C125.341 471.823 126.581 470.603 126.581 468.723ZM130.236 468.803C130.236 465.223 132.976 463.663 135.536 463.663C136.616 463.663 137.656 463.903 138.496 464.403V466.363C137.796 465.863 136.816 465.563 135.836 465.563C134.136 465.563 132.416 466.463 132.416 468.723C132.416 470.903 134.076 471.883 135.796 471.883C136.816 471.883 137.836 471.583 138.596 471.143V473.123C137.676 473.563 136.636 473.783 135.416 473.783C132.856 473.783 130.236 472.223 130.236 468.803ZM147.64 463.923H149.78V473.523H147.88V472.203C147.18 473.043 146 473.783 144.54 473.783C142 473.783 140.58 472.143 140.58 469.863V463.923H142.72V469.583C142.72 471.143 143.54 471.883 144.96 471.883C146.18 471.883 147.1 471.063 147.64 470.283V463.923ZM151.957 466.523C151.957 464.423 153.877 463.663 155.777 463.663C157.097 463.663 158.297 464.003 159.237 464.483V466.363C158.437 465.823 157.057 465.423 155.917 465.423C155.057 465.423 154.137 465.683 154.137 466.463C154.137 468.323 159.917 467.463 159.917 470.963C159.917 473.083 157.957 473.783 155.777 473.783C154.377 473.783 152.957 473.443 152.017 472.863V470.963C153.017 471.623 154.477 471.983 155.677 471.983C156.877 471.983 157.757 471.783 157.757 471.003C157.757 469.223 151.957 469.963 151.957 466.523ZM161.252 468.723C161.252 465.243 163.892 463.663 166.112 463.663C169.932 463.663 171.252 466.743 170.632 469.523H163.412C163.652 471.243 165.332 471.963 167.092 471.963C168.252 471.963 169.312 471.683 170.132 471.283V473.123C169.252 473.543 168.032 473.783 166.692 473.783C163.752 473.783 161.252 472.103 161.252 468.723ZM168.712 467.923C168.832 467.083 168.312 465.443 166.212 465.443C164.772 465.443 163.472 466.303 163.392 467.923H168.712ZM180.429 459.523H182.569V473.523H180.649V472.003C179.909 472.943 178.769 473.783 176.969 473.783C174.069 473.783 172.209 471.483 172.209 468.723C172.209 465.963 174.069 463.663 176.969 463.663C178.649 463.663 179.769 464.403 180.429 465.163V459.523ZM180.409 467.543C179.949 466.503 178.849 465.543 177.349 465.543C175.629 465.543 174.369 466.843 174.369 468.723C174.369 470.603 175.629 471.903 177.349 471.903C178.849 471.903 179.949 470.943 180.409 469.883V467.543ZM189.377 468.723C189.377 465.403 191.897 463.663 194.577 463.663C197.277 463.663 199.777 465.403 199.777 468.723C199.777 472.043 197.277 473.783 194.577 473.783C191.897 473.783 189.377 472.043 189.377 468.723ZM197.597 468.723C197.597 466.843 196.357 465.623 194.577 465.623C192.777 465.623 191.537 466.843 191.537 468.723C191.537 470.603 192.777 471.823 194.577 471.823C196.357 471.823 197.597 470.603 197.597 468.723ZM203.752 465.243C204.452 464.403 205.632 463.663 207.092 463.663C209.512 463.663 211.052 465.303 211.052 467.583V473.523H208.912V467.863C208.912 466.303 207.952 465.563 206.672 465.563C205.452 465.563 204.532 466.383 203.992 467.163V473.523H201.852V463.923H203.752V465.243ZM218.336 459.523H220.476V465.163C221.136 464.423 222.256 463.663 223.936 463.663C226.816 463.663 228.696 465.963 228.696 468.723C228.696 471.483 226.816 473.783 223.936 473.783C222.136 473.783 220.996 472.943 220.236 472.003V473.523H218.336V459.523ZM226.516 468.723C226.516 466.843 225.276 465.543 223.536 465.543C222.056 465.543 220.936 466.503 220.476 467.543V469.883C220.936 470.943 222.056 471.903 223.536 471.903C225.276 471.903 226.516 470.603 226.516 468.723ZM230.178 468.723C230.178 465.403 232.698 463.663 235.378 463.663C238.078 463.663 240.578 465.403 240.578 468.723C240.578 472.043 238.078 473.783 235.378 473.783C232.698 473.783 230.178 472.043 230.178 468.723ZM238.398 468.723C238.398 466.843 237.158 465.623 235.378 465.623C233.578 465.623 232.338 466.843 232.338 468.723C232.338 470.603 233.578 471.823 235.378 471.823C237.158 471.823 238.398 470.603 238.398 468.723ZM243.216 461.023L245.336 460.503V463.923H248.816V465.803H245.336V470.203C245.336 471.463 245.916 471.883 247.156 471.883C247.856 471.883 248.496 471.743 249.096 471.503V473.343C248.376 473.603 247.456 473.763 246.516 473.763C244.656 473.763 243.216 472.843 243.216 470.603V465.803H241.496V463.923H243.216V461.023ZM250.336 466.523C250.336 464.423 252.256 463.663 254.156 463.663C255.476 463.663 256.676 464.003 257.616 464.483V466.363C256.816 465.823 255.436 465.423 254.296 465.423C253.436 465.423 252.516 465.683 252.516 466.463C252.516 468.323 258.296 467.463 258.296 470.963C258.296 473.083 256.336 473.783 254.156 473.783C252.756 473.783 251.336 473.443 250.396 472.863V470.963C251.396 471.623 252.856 471.983 254.056 471.983C255.256 471.983 256.136 471.783 256.136 471.003C256.136 469.223 250.336 469.963 250.336 466.523ZM260.851 476.483H259.111L260.291 471.523H262.551L260.851 476.483ZM109.24 489.243C109.94 488.403 111.12 487.663 112.58 487.663C115 487.663 116.54 489.303 116.54 491.583V497.523H114.4V491.863C114.4 490.303 113.44 489.563 112.16 489.563C110.94 489.563 110.02 490.383 109.48 491.163V497.523H107.34V487.923H109.24V489.243ZM118.498 492.723C118.498 489.403 121.018 487.663 123.698 487.663C126.398 487.663 128.898 489.403 128.898 492.723C128.898 496.043 126.398 497.783 123.698 497.783C121.018 497.783 118.498 496.043 118.498 492.723ZM126.718 492.723C126.718 490.843 125.478 489.623 123.698 489.623C121.898 489.623 120.658 490.843 120.658 492.723C120.658 494.603 121.898 495.823 123.698 495.823C125.478 495.823 126.718 494.603 126.718 492.723ZM131.536 485.023L133.656 484.503V487.923H137.136V489.803H133.656V494.203C133.656 495.463 134.236 495.883 135.476 495.883C136.176 495.883 136.816 495.743 137.416 495.503V497.343C136.696 497.603 135.776 497.763 134.836 497.763C132.976 497.763 131.536 496.843 131.536 494.603V489.803H129.816V487.923H131.536V485.023ZM152.063 495.303C152.063 495.843 152.383 496.003 152.763 496.003C152.983 496.003 153.203 495.943 153.403 495.883V497.423C153.003 497.583 152.523 497.663 152.043 497.663C151.163 497.663 150.463 497.323 150.123 496.543C149.183 497.303 148.003 497.783 146.503 497.783C144.763 497.783 143.143 496.823 143.143 494.843C143.143 492.383 145.423 491.623 147.423 491.623C148.243 491.623 149.163 491.743 149.923 491.903V491.563C149.923 490.363 149.043 489.523 147.403 489.523C145.983 489.523 144.803 489.883 143.943 490.263V488.303C144.703 488.043 146.083 487.663 147.623 487.663C150.343 487.663 152.063 488.963 152.063 491.863V495.303ZM147.843 493.123C146.623 493.123 145.343 493.503 145.343 494.703C145.343 495.643 146.183 496.123 147.143 496.123C148.163 496.123 149.163 495.743 149.923 494.983V493.363C149.343 493.243 148.523 493.123 147.843 493.123ZM154.379 490.523C154.379 488.423 156.299 487.663 158.199 487.663C159.519 487.663 160.719 488.003 161.659 488.483V490.363C160.859 489.823 159.479 489.423 158.339 489.423C157.479 489.423 156.559 489.683 156.559 490.463C156.559 492.323 162.339 491.463 162.339 494.963C162.339 497.083 160.379 497.783 158.199 497.783C156.799 497.783 155.379 497.443 154.439 496.863V494.963C155.439 495.623 156.899 495.983 158.099 495.983C159.299 495.983 160.179 495.783 160.179 495.003C160.179 493.223 154.379 493.963 154.379 490.523ZM163.774 490.523C163.774 488.423 165.694 487.663 167.594 487.663C168.914 487.663 170.114 488.003 171.054 488.483V490.363C170.254 489.823 168.874 489.423 167.734 489.423C166.874 489.423 165.954 489.683 165.954 490.463C165.954 492.323 171.734 491.463 171.734 494.963C171.734 497.083 169.774 497.783 167.594 497.783C166.194 497.783 164.774 497.443 163.834 496.863V494.963C164.834 495.623 166.294 495.983 167.494 495.983C168.694 495.983 169.574 495.783 169.574 495.003C169.574 493.223 163.774 493.963 163.774 490.523ZM180.628 487.923H182.768V497.523H180.868V496.203C180.168 497.043 178.988 497.783 177.528 497.783C174.988 497.783 173.568 496.143 173.568 493.863V487.923H175.708V493.583C175.708 495.143 176.528 495.883 177.948 495.883C179.168 495.883 180.088 495.063 180.628 494.283V487.923ZM187.585 497.523H185.445V487.923H187.345V489.123C187.865 488.543 188.985 487.663 190.545 487.663C191.985 487.663 192.985 488.263 193.545 489.203C194.385 488.363 195.505 487.663 196.905 487.663C199.445 487.663 200.545 489.543 200.545 491.523V497.523H198.405V491.583C198.405 490.343 197.665 489.563 196.505 489.563C195.445 489.563 194.625 490.263 194.125 490.863C194.145 491.083 194.165 491.303 194.165 491.523V497.523H192.025V491.583C192.025 490.343 191.285 489.563 190.125 489.563C188.965 489.563 188.085 490.403 187.585 491.043V497.523ZM205.021 489.423C205.781 488.503 206.921 487.663 208.721 487.663C211.601 487.663 213.481 489.963 213.481 492.723C213.481 495.483 211.601 497.783 208.721 497.783C207.041 497.783 205.921 497.043 205.261 496.283V501.923H203.121V487.923H205.021V489.423ZM211.301 492.723C211.301 490.843 210.061 489.543 208.321 489.543C206.841 489.543 205.721 490.503 205.261 491.543V493.883C205.721 494.943 206.841 495.903 208.321 495.903C210.061 495.903 211.301 494.603 211.301 492.723ZM216.126 485.023L218.246 484.503V487.923H221.726V489.803H218.246V494.203C218.246 495.463 218.826 495.883 220.066 495.883C220.766 495.883 221.406 495.743 222.006 495.503V497.343C221.286 497.603 220.366 497.763 219.426 497.763C217.566 497.763 216.126 496.843 216.126 494.603V489.803H214.406V487.923H216.126V485.023ZM225.926 497.523H223.786V487.923H225.926V497.523ZM226.166 484.803C226.166 485.683 225.566 486.083 224.866 486.083C224.166 486.083 223.546 485.683 223.546 484.803C223.546 483.963 224.166 483.543 224.866 483.543C225.566 483.543 226.166 483.963 226.166 484.803ZM228.049 492.723C228.049 489.403 230.569 487.663 233.249 487.663C235.949 487.663 238.449 489.403 238.449 492.723C238.449 496.043 235.949 497.783 233.249 497.783C230.569 497.783 228.049 496.043 228.049 492.723ZM236.269 492.723C236.269 490.843 235.029 489.623 233.249 489.623C231.449 489.623 230.209 490.843 230.209 492.723C230.209 494.603 231.449 495.823 233.249 495.823C235.029 495.823 236.269 494.603 236.269 492.723ZM242.424 489.243C243.124 488.403 244.304 487.663 245.764 487.663C248.184 487.663 249.724 489.303 249.724 491.583V497.523H247.584V491.863C247.584 490.303 246.624 489.563 245.344 489.563C244.124 489.563 243.204 490.383 242.664 491.163V497.523H240.524V487.923H242.424V489.243ZM251.781 490.523C251.781 488.423 253.701 487.663 255.601 487.663C256.921 487.663 258.121 488.003 259.061 488.483V490.363C258.261 489.823 256.881 489.423 255.741 489.423C254.881 489.423 253.961 489.683 253.961 490.463C253.961 492.323 259.741 491.463 259.741 494.963C259.741 497.083 257.781 497.783 255.601 497.783C254.201 497.783 252.781 497.443 251.841 496.863V494.963C252.841 495.623 254.301 495.983 255.501 495.983C256.701 495.983 257.581 495.783 257.581 495.003C257.581 493.223 251.781 493.963 251.781 490.523Z" fill="white"/>
<path d="M66.572 512.723H67.86L64.78 522.523H63.464L60.986 514.683L58.508 522.523H57.206L54.126 512.723H55.414L57.864 521.095L60.468 512.723H61.518L64.122 521.095L66.572 512.723ZM68.0271 519.163C68.0271 516.811 69.7771 515.635 71.3731 515.635C73.9631 515.635 74.9151 517.749 74.4951 519.653H69.1471C69.2871 521.067 70.5611 521.655 71.9191 521.655C72.7451 521.655 73.5571 521.431 74.1311 521.109V522.201C73.5151 522.523 72.6331 522.691 71.7511 522.691C69.7631 522.691 68.0271 521.557 68.0271 519.163ZM73.5011 518.673C73.5991 517.959 73.1511 516.671 71.4431 516.671C70.2951 516.671 69.2311 517.357 69.1471 518.673H73.5011ZM85.1054 521.123C85.1054 521.529 85.3294 521.641 85.6234 521.641C85.7914 521.641 85.9734 521.599 86.1414 521.543V522.453C85.8754 522.551 85.5814 522.607 85.3014 522.607C84.7554 522.607 84.2654 522.383 84.0694 521.795C83.3974 522.355 82.5434 522.691 81.4514 522.691C80.2614 522.691 79.0854 522.061 79.0854 520.647C79.0854 518.911 80.6814 518.379 82.1234 518.379C82.7114 518.379 83.4254 518.463 83.9854 518.589V518.351C83.9854 517.343 83.2994 516.671 82.0674 516.671C81.0314 516.671 80.2054 516.923 79.6174 517.175V516.083C80.1494 515.901 81.0734 515.635 82.1794 515.635C83.9714 515.635 85.1054 516.615 85.1054 518.491V521.123ZM80.2334 520.591C80.2334 521.375 80.9474 521.725 81.6894 521.725C82.5434 521.725 83.3974 521.375 83.9854 520.745V519.513C83.5094 519.415 82.8234 519.317 82.2774 519.317C81.2974 519.317 80.2334 519.611 80.2334 520.591ZM88.2686 516.797C88.7166 516.209 89.6126 515.635 90.6906 515.635C92.3006 515.635 93.4906 516.741 93.4906 518.379V522.523H92.3706V518.519C92.3706 517.259 91.6006 516.671 90.5646 516.671C89.5706 516.671 88.8286 517.343 88.3806 518.015V522.523H87.2606V515.803H88.2686V516.797ZM100.937 521.123C100.937 521.529 101.161 521.641 101.455 521.641C101.623 521.641 101.805 521.599 101.973 521.543V522.453C101.707 522.551 101.413 522.607 101.133 522.607C100.587 522.607 100.097 522.383 99.9014 521.795C99.2294 522.355 98.3754 522.691 97.2834 522.691C96.0934 522.691 94.9174 522.061 94.9174 520.647C94.9174 518.911 96.5134 518.379 97.9554 518.379C98.5434 518.379 99.2574 518.463 99.8174 518.589V518.351C99.8174 517.343 99.1314 516.671 97.8994 516.671C96.8634 516.671 96.0374 516.923 95.4494 517.175V516.083C95.9814 515.901 96.9054 515.635 98.0114 515.635C99.8034 515.635 100.937 516.615 100.937 518.491V521.123ZM96.0654 520.591C96.0654 521.375 96.7794 521.725 97.5214 521.725C98.3754 521.725 99.2294 521.375 99.8174 520.745V519.513C99.3414 519.415 98.6554 519.317 98.1094 519.317C97.1294 519.317 96.0654 519.611 96.0654 520.591ZM103.121 512.303H104.241V522.523H103.121V512.303ZM109.175 521.249L111.443 515.803H112.633L109.329 523.531C108.629 525.155 107.775 525.771 106.795 525.771C106.557 525.771 106.319 525.743 106.067 525.673V524.707C106.263 524.763 106.459 524.791 106.655 524.791C107.411 524.791 107.957 524.245 108.391 523.153L108.643 522.537L105.451 515.803H106.641L109.175 521.249ZM113.516 515.803H118.612V516.797L114.664 521.543H118.878V522.523H113.348V521.529L117.296 516.783H113.516V515.803ZM119.803 519.163C119.803 516.811 121.553 515.635 123.149 515.635C125.739 515.635 126.691 517.749 126.271 519.653H120.923C121.063 521.067 122.337 521.655 123.695 521.655C124.521 521.655 125.333 521.431 125.907 521.109V522.201C125.291 522.523 124.409 522.691 123.527 522.691C121.539 522.691 119.803 521.557 119.803 519.163ZM125.277 518.673C125.375 517.959 124.927 516.671 123.219 516.671C122.071 516.671 121.007 517.357 120.923 518.673H125.277ZM130.959 519.163C130.959 516.867 132.723 515.635 134.543 515.635C136.377 515.635 138.127 516.867 138.127 519.163C138.127 521.459 136.377 522.691 134.543 522.691C132.723 522.691 130.959 521.459 130.959 519.163ZM137.007 519.163C137.007 517.609 135.915 516.699 134.543 516.699C133.171 516.699 132.079 517.609 132.079 519.163C132.079 520.717 133.171 521.627 134.543 521.627C135.915 521.627 137.007 520.717 137.007 519.163ZM144.513 515.803H145.759L142.791 522.523H141.615L138.647 515.803H139.893L142.203 521.263L144.513 515.803ZM146.285 519.163C146.285 516.811 148.035 515.635 149.631 515.635C152.221 515.635 153.173 517.749 152.753 519.653H147.405C147.545 521.067 148.819 521.655 150.177 521.655C151.003 521.655 151.815 521.431 152.389 521.109V522.201C151.773 522.523 150.891 522.691 150.009 522.691C148.021 522.691 146.285 521.557 146.285 519.163ZM151.759 518.673C151.857 517.959 151.409 516.671 149.701 516.671C148.553 516.671 147.489 517.357 147.405 518.673H151.759ZM155.425 516.993C155.957 516.111 157.147 515.565 158.323 515.663V516.783C157.007 516.629 155.943 517.259 155.537 518.337V522.523H154.417V515.803H155.425V516.993ZM164.732 513.003H165.6V521.403H167.378V522.523H162.422V521.403H164.424V514.249L162.422 515.005V513.885L164.732 513.003ZM168.409 517.763C168.409 514.949 169.725 512.835 172.609 512.835C175.507 512.835 176.823 514.949 176.823 517.763C176.823 520.577 175.507 522.691 172.609 522.691C169.725 522.691 168.409 520.577 168.409 517.763ZM175.633 517.763C175.633 515.383 174.695 513.955 172.609 513.955C170.537 513.955 169.599 515.383 169.599 517.763C169.599 520.143 170.537 521.571 172.609 521.571C174.695 521.571 175.633 520.143 175.633 517.763ZM178.253 517.763C178.253 514.949 179.569 512.835 182.453 512.835C185.351 512.835 186.667 514.949 186.667 517.763C186.667 520.577 185.351 522.691 182.453 522.691C179.569 522.691 178.253 520.577 178.253 517.763ZM185.477 517.763C185.477 515.383 184.539 513.955 182.453 513.955C180.381 513.955 179.443 515.383 179.443 517.763C179.443 520.143 180.381 521.571 182.453 521.571C184.539 521.571 185.477 520.143 185.477 517.763ZM192.08 513.717L193.186 513.437V515.803H195.874V516.839H193.186V520.311C193.186 521.333 193.648 521.641 194.628 521.641C195.16 521.641 195.664 521.515 196.112 521.333V522.369C195.608 522.551 194.95 522.677 194.306 522.677C193.004 522.677 192.08 521.977 192.08 520.507V516.839H190.82V515.803H192.08V513.717ZM196.912 519.163C196.912 516.811 198.662 515.635 200.258 515.635C202.848 515.635 203.8 517.749 203.38 519.653H198.032C198.172 521.067 199.446 521.655 200.804 521.655C201.63 521.655 202.442 521.431 203.016 521.109V522.201C202.4 522.523 201.518 522.691 200.636 522.691C198.648 522.691 196.912 521.557 196.912 519.163ZM202.386 518.673C202.484 517.959 202.036 516.671 200.328 516.671C199.18 516.671 198.116 517.357 198.032 518.673H202.386ZM204.582 519.191C204.582 516.741 206.472 515.635 208.222 515.635C208.978 515.635 209.72 515.803 210.294 516.181V517.273C209.79 516.881 209.076 516.671 208.362 516.671C207.06 516.671 205.702 517.399 205.702 519.163C205.702 520.885 207.018 521.655 208.334 521.655C209.062 521.655 209.804 521.445 210.364 521.109V522.229C209.734 522.537 209.02 522.691 208.18 522.691C206.416 522.691 204.582 521.585 204.582 519.191ZM211.948 512.723H213.068V516.657C213.544 516.125 214.384 515.635 215.378 515.635C216.988 515.635 218.178 516.741 218.178 518.379V522.523H217.058V518.519C217.058 517.259 216.288 516.671 215.252 516.671C214.258 516.671 213.516 517.343 213.068 518.015V522.523H211.948V512.723ZM221.173 516.797C221.621 516.209 222.517 515.635 223.595 515.635C225.205 515.635 226.395 516.741 226.395 518.379V522.523H225.275V518.519C225.275 517.259 224.505 516.671 223.469 516.671C222.475 516.671 221.733 517.343 221.285 518.015V522.523H220.165V515.803H221.173V516.797ZM229.53 522.523H228.41V515.803H229.53V522.523ZM229.698 513.661C229.698 514.137 229.362 514.375 228.97 514.375C228.578 514.375 228.242 514.137 228.242 513.661C228.242 513.199 228.578 512.947 228.97 512.947C229.362 512.947 229.698 513.199 229.698 513.661ZM231.174 519.191C231.174 516.741 233.064 515.635 234.814 515.635C235.57 515.635 236.312 515.803 236.886 516.181V517.273C236.382 516.881 235.668 516.671 234.954 516.671C233.652 516.671 232.294 517.399 232.294 519.163C232.294 520.885 233.61 521.655 234.926 521.655C235.654 521.655 236.396 521.445 236.956 521.109V522.229C236.326 522.537 235.612 522.691 234.772 522.691C233.008 522.691 231.174 521.585 231.174 519.191ZM244 521.123C244 521.529 244.224 521.641 244.518 521.641C244.686 521.641 244.868 521.599 245.036 521.543V522.453C244.77 522.551 244.476 522.607 244.196 522.607C243.65 522.607 243.16 522.383 242.964 521.795C242.292 522.355 241.438 522.691 240.346 522.691C239.156 522.691 237.98 522.061 237.98 520.647C237.98 518.911 239.576 518.379 241.018 518.379C241.606 518.379 242.32 518.463 242.88 518.589V518.351C242.88 517.343 242.194 516.671 240.962 516.671C239.926 516.671 239.1 516.923 238.512 517.175V516.083C239.044 515.901 239.968 515.635 241.074 515.635C242.866 515.635 244 516.615 244 518.491V521.123ZM239.128 520.591C239.128 521.375 239.842 521.725 240.584 521.725C241.438 521.725 242.292 521.375 242.88 520.745V519.513C242.404 519.415 241.718 519.317 241.172 519.317C240.192 519.317 239.128 519.611 239.128 520.591ZM246.183 512.303H247.303V522.523H246.183V512.303ZM258.355 521.123C258.355 521.529 258.579 521.641 258.873 521.641C259.041 521.641 259.223 521.599 259.391 521.543V522.453C259.125 522.551 258.831 522.607 258.551 522.607C258.005 522.607 257.515 522.383 257.319 521.795C256.647 522.355 255.793 522.691 254.701 522.691C253.511 522.691 252.335 522.061 252.335 520.647C252.335 518.911 253.931 518.379 255.373 518.379C255.961 518.379 256.675 518.463 257.235 518.589V518.351C257.235 517.343 256.549 516.671 255.317 516.671C254.281 516.671 253.455 516.923 252.867 517.175V516.083C253.399 515.901 254.323 515.635 255.429 515.635C257.221 515.635 258.355 516.615 258.355 518.491V521.123ZM253.483 520.591C253.483 521.375 254.197 521.725 254.939 521.725C255.793 521.725 256.647 521.375 257.235 520.745V519.513C256.759 519.415 256.073 519.317 255.527 519.317C254.547 519.317 253.483 519.611 253.483 520.591ZM261.519 516.797C261.967 516.209 262.863 515.635 263.941 515.635C265.551 515.635 266.741 516.741 266.741 518.379V522.523H265.621V518.519C265.621 517.259 264.851 516.671 263.815 516.671C262.821 516.671 262.079 517.343 261.631 518.015V522.523H260.511V515.803H261.519V516.797ZM274.229 512.723H275.349V522.523H274.341V521.403C273.739 522.089 272.913 522.691 271.625 522.691C269.707 522.691 268.265 521.179 268.265 519.163C268.265 517.147 269.707 515.635 271.625 515.635C272.913 515.635 273.739 516.237 274.229 516.811V512.723ZM274.229 518.323C273.851 517.455 272.955 516.671 271.751 516.671C270.449 516.671 269.385 517.623 269.385 519.163C269.385 520.703 270.449 521.655 271.751 521.655C272.955 521.655 273.851 520.871 274.229 520.003V518.323ZM55.036 530.723H56.156V534.811C56.646 534.237 57.472 533.635 58.76 533.635C60.678 533.635 62.12 535.147 62.12 537.163C62.12 539.179 60.678 540.691 58.76 540.691C57.472 540.691 56.646 540.089 56.044 539.403V540.523H55.036V530.723ZM61 537.163C61 535.623 59.936 534.671 58.634 534.671C57.43 534.671 56.534 535.455 56.156 536.323V538.003C56.534 538.871 57.43 539.655 58.634 539.655C59.936 539.655 61 538.703 61 537.163ZM63.2693 537.163C63.2693 534.811 65.0193 533.635 66.6153 533.635C69.2053 533.635 70.1573 535.749 69.7373 537.653H64.3893C64.5293 539.067 65.8033 539.655 67.1613 539.655C67.9873 539.655 68.7993 539.431 69.3733 539.109V540.201C68.7573 540.523 67.8753 540.691 66.9933 540.691C65.0053 540.691 63.2693 539.557 63.2693 537.163ZM68.7433 536.673C68.8413 535.959 68.3933 534.671 66.6853 534.671C65.5373 534.671 64.4733 535.357 64.3893 536.673H68.7433ZM71.4012 530.723H72.5212V534.657C72.9972 534.125 73.8372 533.635 74.8312 533.635C76.4412 533.635 77.6312 534.741 77.6312 536.379V540.523H76.5112V536.519C76.5112 535.259 75.7412 534.671 74.7052 534.671C73.7112 534.671 72.9692 535.343 72.5212 536.015V540.523H71.4012V530.723ZM85.078 539.123C85.078 539.529 85.302 539.641 85.596 539.641C85.764 539.641 85.946 539.599 86.114 539.543V540.453C85.848 540.551 85.554 540.607 85.274 540.607C84.728 540.607 84.238 540.383 84.042 539.795C83.37 540.355 82.516 540.691 81.424 540.691C80.234 540.691 79.058 540.061 79.058 538.647C79.058 536.911 80.654 536.379 82.096 536.379C82.684 536.379 83.398 536.463 83.958 536.589V536.351C83.958 535.343 83.272 534.671 82.04 534.671C81.004 534.671 80.178 534.923 79.59 535.175V534.083C80.122 533.901 81.046 533.635 82.152 533.635C83.944 533.635 85.078 534.615 85.078 536.491V539.123ZM80.206 538.591C80.206 539.375 80.92 539.725 81.662 539.725C82.516 539.725 83.37 539.375 83.958 538.745V537.513C83.482 537.415 82.796 537.317 82.25 537.317C81.27 537.317 80.206 537.611 80.206 538.591ZM91.9448 533.803H93.1908L90.2228 540.523H89.0468L86.0788 533.803H87.3248L89.6348 539.263L91.9448 533.803ZM95.5727 540.523H94.4527V533.803H95.5727V540.523ZM95.7407 531.661C95.7407 532.137 95.4047 532.375 95.0127 532.375C94.6207 532.375 94.2847 532.137 94.2847 531.661C94.2847 531.199 94.6207 530.947 95.0127 530.947C95.4047 530.947 95.7407 531.199 95.7407 531.661ZM97.2166 537.163C97.2166 534.867 98.9806 533.635 100.801 533.635C102.635 533.635 104.385 534.867 104.385 537.163C104.385 539.459 102.635 540.691 100.801 540.691C98.9806 540.691 97.2166 539.459 97.2166 537.163ZM103.265 537.163C103.265 535.609 102.173 534.699 100.801 534.699C99.4286 534.699 98.3366 535.609 98.3366 537.163C98.3366 538.717 99.4286 539.627 100.801 539.627C102.173 539.627 103.265 538.717 103.265 537.163ZM106.999 534.993C107.531 534.111 108.721 533.565 109.897 533.663V534.783C108.581 534.629 107.517 535.259 107.111 536.337V540.523H105.991V533.803H106.999V534.993ZM116.496 539.123C116.496 539.529 116.72 539.641 117.014 539.641C117.182 539.641 117.364 539.599 117.532 539.543V540.453C117.266 540.551 116.972 540.607 116.692 540.607C116.146 540.607 115.656 540.383 115.46 539.795C114.788 540.355 113.934 540.691 112.842 540.691C111.652 540.691 110.476 540.061 110.476 538.647C110.476 536.911 112.072 536.379 113.514 536.379C114.102 536.379 114.816 536.463 115.376 536.589V536.351C115.376 535.343 114.69 534.671 113.458 534.671C112.422 534.671 111.596 534.923 111.008 535.175V534.083C111.54 533.901 112.464 533.635 113.57 533.635C115.362 533.635 116.496 534.615 116.496 536.491V539.123ZM111.624 538.591C111.624 539.375 112.338 539.725 113.08 539.725C113.934 539.725 114.788 539.375 115.376 538.745V537.513C114.9 537.415 114.214 537.317 113.668 537.317C112.688 537.317 111.624 537.611 111.624 538.591ZM118.679 530.303H119.799V540.523H118.679V530.303ZM126.399 534.923C127.001 534.237 127.827 533.635 129.115 533.635C131.033 533.635 132.475 535.147 132.475 537.163C132.475 539.179 131.033 540.691 129.115 540.691C127.827 540.691 127.001 540.089 126.511 539.515V543.603H125.391V533.803H126.399V534.923ZM131.355 537.163C131.355 535.623 130.291 534.671 128.989 534.671C127.785 534.671 126.889 535.455 126.511 536.323V538.003C126.889 538.871 127.785 539.655 128.989 539.655C130.291 539.655 131.355 538.703 131.355 537.163ZM139.547 539.123C139.547 539.529 139.771 539.641 140.065 539.641C140.233 539.641 140.415 539.599 140.583 539.543V540.453C140.317 540.551 140.023 540.607 139.743 540.607C139.197 540.607 138.707 540.383 138.511 539.795C137.839 540.355 136.985 540.691 135.893 540.691C134.703 540.691 133.527 540.061 133.527 538.647C133.527 536.911 135.123 536.379 136.565 536.379C137.153 536.379 137.867 536.463 138.427 536.589V536.351C138.427 535.343 137.741 534.671 136.509 534.671C135.473 534.671 134.647 534.923 134.059 535.175V534.083C134.591 533.901 135.515 533.635 136.621 533.635C138.413 533.635 139.547 534.615 139.547 536.491V539.123ZM134.675 538.591C134.675 539.375 135.389 539.725 136.131 539.725C136.985 539.725 137.839 539.375 138.427 538.745V537.513C137.951 537.415 137.265 537.317 136.719 537.317C135.739 537.317 134.675 537.611 134.675 538.591ZM142.71 534.993C143.242 534.111 144.432 533.565 145.608 533.663V534.783C144.292 534.629 143.228 535.259 142.822 536.337V540.523H141.702V533.803H142.71V534.993ZM152.207 539.123C152.207 539.529 152.431 539.641 152.725 539.641C152.893 539.641 153.075 539.599 153.243 539.543V540.453C152.977 540.551 152.683 540.607 152.403 540.607C151.857 540.607 151.367 540.383 151.171 539.795C150.499 540.355 149.645 540.691 148.553 540.691C147.363 540.691 146.187 540.061 146.187 538.647C146.187 536.911 147.783 536.379 149.225 536.379C149.813 536.379 150.527 536.463 151.087 536.589V536.351C151.087 535.343 150.401 534.671 149.169 534.671C148.133 534.671 147.307 534.923 146.719 535.175V534.083C147.251 533.901 148.175 533.635 149.281 533.635C151.073 533.635 152.207 534.615 152.207 536.491V539.123ZM147.335 538.591C147.335 539.375 148.049 539.725 148.791 539.725C149.645 539.725 150.499 539.375 151.087 538.745V537.513C150.611 537.415 149.925 537.317 149.379 537.317C148.399 537.317 147.335 537.611 147.335 538.591ZM155.482 540.523H154.362V533.803H155.37V534.699C155.734 534.307 156.532 533.635 157.666 533.635C158.674 533.635 159.416 534.069 159.822 534.769C160.424 534.153 161.25 533.635 162.272 533.635C163.938 533.635 164.834 534.811 164.834 536.379V540.523H163.714V536.351C163.714 535.329 163.126 534.671 162.146 534.671C161.236 534.671 160.564 535.301 160.186 535.777C160.214 535.973 160.228 536.169 160.228 536.379V540.523H159.108V536.351C159.108 535.329 158.52 534.671 157.54 534.671C156.546 534.671 155.846 535.413 155.482 535.889V540.523ZM166.355 537.163C166.355 534.811 168.105 533.635 169.701 533.635C172.291 533.635 173.243 535.749 172.823 537.653H167.475C167.615 539.067 168.889 539.655 170.247 539.655C171.073 539.655 171.885 539.431 172.459 539.109V540.201C171.843 540.523 170.961 540.691 170.079 540.691C168.091 540.691 166.355 539.557 166.355 537.163ZM171.829 536.673C171.927 535.959 171.479 534.671 169.771 534.671C168.623 534.671 167.559 535.357 167.475 536.673H171.829ZM174.867 531.717L175.973 531.437V533.803H178.661V534.839H175.973V538.311C175.973 539.333 176.435 539.641 177.415 539.641C177.947 539.641 178.451 539.515 178.899 539.333V540.369C178.395 540.551 177.737 540.677 177.093 540.677C175.791 540.677 174.867 539.977 174.867 538.507V534.839H173.607V533.803H174.867V531.717ZM179.699 537.163C179.699 534.811 181.449 533.635 183.045 533.635C185.635 533.635 186.587 535.749 186.167 537.653H180.819C180.959 539.067 182.233 539.655 183.591 539.655C184.417 539.655 185.229 539.431 185.803 539.109V540.201C185.187 540.523 184.305 540.691 183.423 540.691C181.435 540.691 179.699 539.557 179.699 537.163ZM185.173 536.673C185.271 535.959 184.823 534.671 183.115 534.671C181.967 534.671 180.903 535.357 180.819 536.673H185.173ZM188.839 534.993C189.371 534.111 190.561 533.565 191.737 533.663V534.783C190.421 534.629 189.357 535.259 188.951 536.337V540.523H187.831V533.803H188.839V534.993ZM192.566 535.567C192.566 534.181 193.868 533.635 195.128 533.635C196.024 533.635 196.878 533.873 197.508 534.209V535.273C196.948 534.909 196.01 534.643 195.198 534.643C194.47 534.643 193.7 534.881 193.7 535.539C193.7 536.995 197.97 536.379 197.97 538.801C197.97 540.201 196.654 540.691 195.198 540.691C194.246 540.691 193.224 540.439 192.594 540.033V538.941C193.28 539.403 194.302 539.655 195.142 539.655C196.094 539.655 196.85 539.501 196.85 538.829C196.85 537.415 192.566 537.975 192.566 535.567ZM204.604 540.523H203.484V534.839H202.224V533.803H203.484V532.991C203.484 531.115 204.688 530.555 205.864 530.555C206.48 530.555 207.082 530.681 207.544 530.863V531.899C207.166 531.717 206.634 531.591 206.13 531.591C205.318 531.591 204.604 531.801 204.604 533.033V533.803H207.124V534.839H204.604V540.523ZM207.644 537.163C207.644 534.867 209.408 533.635 211.228 533.635C213.062 533.635 214.812 534.867 214.812 537.163C214.812 539.459 213.062 540.691 211.228 540.691C209.408 540.691 207.644 539.459 207.644 537.163ZM213.692 537.163C213.692 535.609 212.6 534.699 211.228 534.699C209.856 534.699 208.764 535.609 208.764 537.163C208.764 538.717 209.856 539.627 211.228 539.627C212.6 539.627 213.692 538.717 213.692 537.163ZM217.427 534.993C217.959 534.111 219.149 533.565 220.325 533.663V534.783C219.009 534.629 217.945 535.259 217.539 536.337V540.523H216.419V533.803H217.427V534.993ZM224.256 537.163C224.256 534.811 226.006 533.635 227.602 533.635C230.192 533.635 231.144 535.749 230.724 537.653H225.376C225.516 539.067 226.79 539.655 228.148 539.655C228.974 539.655 229.786 539.431 230.36 539.109V540.201C229.744 540.523 228.862 540.691 227.98 540.691C225.992 540.691 224.256 539.557 224.256 537.163ZM229.73 536.673C229.828 535.959 229.38 534.671 227.672 534.671C226.524 534.671 225.46 535.357 225.376 536.673H229.73ZM237.848 539.123C237.848 539.529 238.072 539.641 238.366 539.641C238.534 539.641 238.716 539.599 238.884 539.543V540.453C238.618 540.551 238.324 540.607 238.044 540.607C237.498 540.607 237.008 540.383 236.812 539.795C236.14 540.355 235.286 540.691 234.194 540.691C233.004 540.691 231.828 540.061 231.828 538.647C231.828 536.911 233.424 536.379 234.866 536.379C235.454 536.379 236.168 536.463 236.728 536.589V536.351C236.728 535.343 236.042 534.671 234.81 534.671C233.774 534.671 232.948 534.923 232.36 535.175V534.083C232.892 533.901 233.816 533.635 234.922 533.635C236.714 533.635 237.848 534.615 237.848 536.491V539.123ZM232.976 538.591C232.976 539.375 233.69 539.725 234.432 539.725C235.286 539.725 236.14 539.375 236.728 538.745V537.513C236.252 537.415 235.566 537.317 235.02 537.317C234.04 537.317 232.976 537.611 232.976 538.591ZM239.541 537.191C239.541 534.741 241.431 533.635 243.181 533.635C243.937 533.635 244.679 533.803 245.253 534.181V535.273C244.749 534.881 244.035 534.671 243.321 534.671C242.019 534.671 240.661 535.399 240.661 537.163C240.661 538.885 241.977 539.655 243.293 539.655C244.021 539.655 244.763 539.445 245.323 539.109V540.229C244.693 540.537 243.979 540.691 243.139 540.691C241.375 540.691 239.541 539.585 239.541 537.191ZM246.907 530.723H248.027V534.657C248.503 534.125 249.343 533.635 250.337 533.635C251.947 533.635 253.137 534.741 253.137 536.379V540.523H252.017V536.519C252.017 535.259 251.247 534.671 250.211 534.671C249.217 534.671 248.475 535.343 248.027 536.015V540.523H246.907V530.723ZM263.253 533.803H264.499L261.531 540.523H260.355L257.387 533.803H258.633L260.943 539.263L263.253 533.803ZM266.881 540.523H265.761V533.803H266.881V540.523ZM267.049 531.661C267.049 532.137 266.713 532.375 266.321 532.375C265.929 532.375 265.593 532.137 265.593 531.661C265.593 531.199 265.929 530.947 266.321 530.947C266.713 530.947 267.049 531.199 267.049 531.661ZM268.595 535.567C268.595 534.181 269.897 533.635 271.157 533.635C272.053 533.635 272.907 533.873 273.537 534.209V535.273C272.977 534.909 272.039 534.643 271.227 534.643C270.499 534.643 269.729 534.881 269.729 535.539C269.729 536.995 273.999 536.379 273.999 538.801C273.999 540.201 272.683 540.691 271.227 540.691C270.275 540.691 269.253 540.439 268.623 540.033V538.941C269.309 539.403 270.331 539.655 271.171 539.655C272.123 539.655 272.879 539.501 272.879 538.829C272.879 537.415 268.595 537.975 268.595 535.567ZM276.657 540.523H275.537V533.803H276.657V540.523ZM276.825 531.661C276.825 532.137 276.489 532.375 276.097 532.375C275.705 532.375 275.369 532.137 275.369 531.661C275.369 531.199 275.705 530.947 276.097 530.947C276.489 530.947 276.825 531.199 276.825 531.661ZM279.211 531.717L280.317 531.437V533.803H283.005V534.839H280.317V538.311C280.317 539.333 280.779 539.641 281.759 539.641C282.291 539.641 282.795 539.515 283.243 539.333V540.369C282.739 540.551 282.081 540.677 281.437 540.677C280.135 540.677 279.211 539.977 279.211 538.507V534.839H277.951V533.803H279.211V531.717ZM63.772 555.583H54.896V554.519H63.772V555.583ZM70.1944 552.797C70.6424 552.209 71.5384 551.635 72.6164 551.635C74.2264 551.635 75.4164 552.741 75.4164 554.379V558.523H74.2964V554.519C74.2964 553.259 73.5264 552.671 72.4904 552.671C71.4964 552.671 70.7544 553.343 70.3064 554.015V558.523H69.1864V551.803H70.1944V552.797ZM76.9412 555.163C76.9412 552.867 78.7052 551.635 80.5252 551.635C82.3592 551.635 84.1092 552.867 84.1092 555.163C84.1092 557.459 82.3592 558.691 80.5252 558.691C78.7052 558.691 76.9412 557.459 76.9412 555.163ZM82.9892 555.163C82.9892 553.609 81.8972 552.699 80.5252 552.699C79.1532 552.699 78.0612 553.609 78.0612 555.163C78.0612 556.717 79.1532 557.627 80.5252 557.627C81.8972 557.627 82.9892 556.717 82.9892 555.163ZM88.74 555.163C88.74 553.147 90.182 551.635 92.1 551.635C93.388 551.635 94.214 552.237 94.816 552.923V551.803H95.824V558.523C95.824 560.833 94.018 561.771 92.156 561.771C91.162 561.771 90.224 561.547 89.426 561.141V560.049C90.224 560.497 91.092 560.735 92.016 560.735C93.444 560.735 94.718 560.189 94.704 558.523V557.487C94.214 558.089 93.388 558.691 92.1 558.691C90.182 558.691 88.74 557.179 88.74 555.163ZM94.704 554.323C94.326 553.455 93.43 552.671 92.226 552.671C90.924 552.671 89.86 553.623 89.86 555.163C89.86 556.703 90.924 557.655 92.226 557.655C93.43 557.655 94.326 556.927 94.704 556.143V554.323ZM102.923 551.803H104.043V558.523H103.035V557.529C102.587 558.117 101.691 558.691 100.613 558.691C98.8633 558.691 97.8133 557.585 97.8133 555.947V551.803H98.9333V555.807C98.9333 557.067 99.5633 557.655 100.739 557.655C101.733 557.655 102.475 556.983 102.923 556.311V551.803ZM105.652 555.163C105.652 552.811 107.402 551.635 108.998 551.635C111.588 551.635 112.54 553.749 112.12 555.653H106.772C106.912 557.067 108.186 557.655 109.544 557.655C110.37 557.655 111.182 557.431 111.756 557.109V558.201C111.14 558.523 110.258 558.691 109.376 558.691C107.388 558.691 105.652 557.557 105.652 555.163ZM111.126 554.673C111.224 553.959 110.776 552.671 109.068 552.671C107.92 552.671 106.856 553.357 106.772 554.673H111.126ZM113.392 553.567C113.392 552.181 114.694 551.635 115.954 551.635C116.85 551.635 117.704 551.873 118.334 552.209V553.273C117.774 552.909 116.836 552.643 116.024 552.643C115.296 552.643 114.526 552.881 114.526 553.539C114.526 554.995 118.796 554.379 118.796 556.801C118.796 558.201 117.48 558.691 116.024 558.691C115.072 558.691 114.05 558.439 113.42 558.033V556.941C114.106 557.403 115.128 557.655 115.968 557.655C116.92 557.655 117.676 557.501 117.676 556.829C117.676 555.415 113.392 555.975 113.392 553.567ZM119.914 553.567C119.914 552.181 121.216 551.635 122.476 551.635C123.372 551.635 124.226 551.873 124.856 552.209V553.273C124.296 552.909 123.358 552.643 122.546 552.643C121.818 552.643 121.048 552.881 121.048 553.539C121.048 554.995 125.318 554.379 125.318 556.801C125.318 558.201 124.002 558.691 122.546 558.691C121.594 558.691 120.572 558.439 119.942 558.033V556.941C120.628 557.403 121.65 557.655 122.49 557.655C123.442 557.655 124.198 557.501 124.198 556.829C124.198 555.415 119.914 555.975 119.914 553.567ZM135.426 551.803H136.602L134.306 558.523H133.088L131.268 553.329L129.448 558.523H128.23L125.934 551.803H127.11L128.846 557.291L130.764 551.803H131.772L133.69 557.291L135.426 551.803ZM137.289 555.163C137.289 552.867 139.053 551.635 140.873 551.635C142.707 551.635 144.457 552.867 144.457 555.163C144.457 557.459 142.707 558.691 140.873 558.691C139.053 558.691 137.289 557.459 137.289 555.163ZM143.337 555.163C143.337 553.609 142.245 552.699 140.873 552.699C139.501 552.699 138.409 553.609 138.409 555.163C138.409 556.717 139.501 557.627 140.873 557.627C142.245 557.627 143.337 556.717 143.337 555.163ZM147.071 552.993C147.603 552.111 148.793 551.565 149.969 551.663V552.783C148.653 552.629 147.589 553.259 147.183 554.337V558.523H146.063V551.803H147.071V552.993ZM157.406 558.523H156.09L153.626 555.639H152.31V558.523H151.19V548.723H152.31V554.603H153.668L155.796 551.803H157.098L154.55 555.149L157.406 558.523ZM158.659 560.623H157.749L158.519 557.403H159.709L158.659 560.623ZM166.256 559.769C166.256 561.351 165.234 561.771 164.324 561.771C163.918 561.771 163.568 561.701 163.288 561.589V560.553C163.512 560.665 163.764 560.707 164.016 560.707C164.604 560.707 165.136 560.483 165.136 559.601V551.803H166.256V559.769ZM166.424 549.661C166.424 550.137 166.088 550.375 165.696 550.375C165.304 550.375 164.954 550.137 164.954 549.661C164.954 549.199 165.304 548.947 165.696 548.947C166.088 548.947 166.424 549.199 166.424 549.661ZM173.388 551.803H174.508V558.523H173.5V557.529C173.052 558.117 172.156 558.691 171.078 558.691C169.328 558.691 168.278 557.585 168.278 555.947V551.803H169.398V555.807C169.398 557.067 170.028 557.655 171.204 557.655C172.198 557.655 172.94 556.983 173.388 556.311V551.803ZM176.187 553.567C176.187 552.181 177.489 551.635 178.749 551.635C179.645 551.635 180.499 551.873 181.129 552.209V553.273C180.569 552.909 179.631 552.643 178.819 552.643C178.091 552.643 177.321 552.881 177.321 553.539C177.321 554.995 181.591 554.379 181.591 556.801C181.591 558.201 180.275 558.691 178.819 558.691C177.867 558.691 176.845 558.439 176.215 558.033V556.941C176.901 557.403 177.923 557.655 178.763 557.655C179.715 557.655 180.471 557.501 180.471 556.829C180.471 555.415 176.187 555.975 176.187 553.567ZM183.548 549.717L184.654 549.437V551.803H187.342V552.839H184.654V556.311C184.654 557.333 185.116 557.641 186.096 557.641C186.628 557.641 187.132 557.515 187.58 557.333V558.369C187.076 558.551 186.418 558.677 185.774 558.677C184.472 558.677 183.548 557.977 183.548 556.507V552.839H182.288V551.803H183.548V549.717ZM197.831 548.723H198.951V558.523H197.943V557.403C197.341 558.089 196.515 558.691 195.227 558.691C193.309 558.691 191.867 557.179 191.867 555.163C191.867 553.147 193.309 551.635 195.227 551.635C196.515 551.635 197.341 552.237 197.831 552.811V548.723ZM197.831 554.323C197.453 553.455 196.557 552.671 195.353 552.671C194.051 552.671 192.987 553.623 192.987 555.163C192.987 556.703 194.051 557.655 195.353 557.655C196.557 557.655 197.453 556.871 197.831 556.003V554.323ZM206.484 557.123C206.484 557.529 206.708 557.641 207.002 557.641C207.17 557.641 207.352 557.599 207.52 557.543V558.453C207.254 558.551 206.96 558.607 206.68 558.607C206.134 558.607 205.644 558.383 205.448 557.795C204.776 558.355 203.922 558.691 202.83 558.691C201.64 558.691 200.464 558.061 200.464 556.647C200.464 554.911 202.06 554.379 203.502 554.379C204.09 554.379 204.804 554.463 205.364 554.589V554.351C205.364 553.343 204.678 552.671 203.446 552.671C202.41 552.671 201.584 552.923 200.996 553.175V552.083C201.528 551.901 202.452 551.635 203.558 551.635C205.35 551.635 206.484 552.615 206.484 554.491V557.123ZM201.612 556.591C201.612 557.375 202.326 557.725 203.068 557.725C203.922 557.725 204.776 557.375 205.364 556.745V555.513C204.888 555.415 204.202 555.317 203.656 555.317C202.676 555.317 201.612 555.611 201.612 556.591ZM209.033 549.717L210.139 549.437V551.803H212.827V552.839H210.139V556.311C210.139 557.333 210.601 557.641 211.581 557.641C212.113 557.641 212.617 557.515 213.065 557.333V558.369C212.561 558.551 211.903 558.677 211.259 558.677C209.957 558.677 209.033 557.977 209.033 556.507V552.839H207.773V551.803H209.033V549.717ZM219.787 557.123C219.787 557.529 220.011 557.641 220.305 557.641C220.473 557.641 220.655 557.599 220.823 557.543V558.453C220.557 558.551 220.263 558.607 219.983 558.607C219.437 558.607 218.947 558.383 218.751 557.795C218.079 558.355 217.225 558.691 216.133 558.691C214.943 558.691 213.767 558.061 213.767 556.647C213.767 554.911 215.363 554.379 216.805 554.379C217.393 554.379 218.107 554.463 218.667 554.589V554.351C218.667 553.343 217.981 552.671 216.749 552.671C215.713 552.671 214.887 552.923 214.299 553.175V552.083C214.831 551.901 215.755 551.635 216.861 551.635C218.653 551.635 219.787 552.615 219.787 554.491V557.123ZM214.915 556.591C214.915 557.375 215.629 557.725 216.371 557.725C217.225 557.725 218.079 557.375 218.667 556.745V555.513C218.191 555.415 217.505 555.317 216.959 555.317C215.979 555.317 214.915 555.611 214.915 556.591ZM230.56 557.123C230.56 557.529 230.784 557.641 231.078 557.641C231.246 557.641 231.428 557.599 231.596 557.543V558.453C231.33 558.551 231.036 558.607 230.756 558.607C230.21 558.607 229.72 558.383 229.524 557.795C228.852 558.355 227.998 558.691 226.906 558.691C225.716 558.691 224.54 558.061 224.54 556.647C224.54 554.911 226.136 554.379 227.578 554.379C228.166 554.379 228.88 554.463 229.44 554.589V554.351C229.44 553.343 228.754 552.671 227.522 552.671C226.486 552.671 225.66 552.923 225.072 553.175V552.083C225.604 551.901 226.528 551.635 227.634 551.635C229.426 551.635 230.56 552.615 230.56 554.491V557.123ZM225.688 556.591C225.688 557.375 226.402 557.725 227.144 557.725C227.998 557.725 228.852 557.375 229.44 556.745V555.513C228.964 555.415 228.278 555.317 227.732 555.317C226.752 555.317 225.688 555.611 225.688 556.591ZM233.724 552.797C234.172 552.209 235.068 551.635 236.146 551.635C237.756 551.635 238.946 552.741 238.946 554.379V558.523H237.826V554.519C237.826 553.259 237.056 552.671 236.02 552.671C235.026 552.671 234.284 553.343 233.836 554.015V558.523H232.716V551.803H233.724V552.797ZM246.434 548.723H247.554V558.523H246.546V557.403C245.944 558.089 245.118 558.691 243.83 558.691C241.912 558.691 240.47 557.179 240.47 555.163C240.47 553.147 241.912 551.635 243.83 551.635C245.118 551.635 245.944 552.237 246.434 552.811V548.723ZM246.434 554.323C246.056 553.455 245.16 552.671 243.956 552.671C242.654 552.671 241.59 553.623 241.59 555.163C241.59 556.703 242.654 557.655 243.956 557.655C245.16 557.655 246.056 556.871 246.434 556.003V554.323ZM254.752 558.523H253.632V552.839H252.372V551.803H253.632V550.991C253.632 549.115 254.836 548.555 256.012 548.555C256.628 548.555 257.23 548.681 257.692 548.863V549.899C257.314 549.717 256.782 549.591 256.278 549.591C255.466 549.591 254.752 549.801 254.752 551.033V551.803H257.272V552.839H254.752V558.523ZM263.838 557.123C263.838 557.529 264.062 557.641 264.356 557.641C264.524 557.641 264.706 557.599 264.874 557.543V558.453C264.608 558.551 264.314 558.607 264.034 558.607C263.488 558.607 262.998 558.383 262.802 557.795C262.13 558.355 261.276 558.691 260.184 558.691C258.994 558.691 257.818 558.061 257.818 556.647C257.818 554.911 259.414 554.379 260.856 554.379C261.444 554.379 262.158 554.463 262.718 554.589V554.351C262.718 553.343 262.032 552.671 260.8 552.671C259.764 552.671 258.938 552.923 258.35 553.175V552.083C258.882 551.901 259.806 551.635 260.912 551.635C262.704 551.635 263.838 552.615 263.838 554.491V557.123ZM258.966 556.591C258.966 557.375 259.68 557.725 260.422 557.725C261.276 557.725 262.13 557.375 262.718 556.745V555.513C262.242 555.415 261.556 555.317 261.01 555.317C260.03 555.317 258.966 555.611 258.966 556.591ZM265.531 555.191C265.531 552.741 267.421 551.635 269.171 551.635C269.927 551.635 270.669 551.803 271.243 552.181V553.273C270.739 552.881 270.025 552.671 269.311 552.671C268.009 552.671 266.651 553.399 266.651 555.163C266.651 556.885 267.967 557.655 269.283 557.655C270.011 557.655 270.753 557.445 271.313 557.109V558.229C270.683 558.537 269.969 558.691 269.129 558.691C267.365 558.691 265.531 557.585 265.531 555.191ZM273.345 549.717L274.451 549.437V551.803H277.139V552.839H274.451V556.311C274.451 557.333 274.913 557.641 275.893 557.641C276.425 557.641 276.929 557.515 277.377 557.333V558.369C276.873 558.551 276.215 558.677 275.571 558.677C274.269 558.677 273.345 557.977 273.345 556.507V552.839H272.085V551.803H273.345V549.717ZM278.248 553.567C278.248 552.181 279.55 551.635 280.81 551.635C281.706 551.635 282.56 551.873 283.19 552.209V553.273C282.63 552.909 281.692 552.643 280.88 552.643C280.152 552.643 279.382 552.881 279.382 553.539C279.382 554.995 283.652 554.379 283.652 556.801C283.652 558.201 282.336 558.691 280.88 558.691C279.928 558.691 278.906 558.439 278.276 558.033V556.941C278.962 557.403 279.984 557.655 280.824 557.655C281.776 557.655 282.532 557.501 282.532 556.829C282.532 555.415 278.248 555.975 278.248 553.567ZM286.365 557.935C286.365 558.411 286.029 558.649 285.637 558.649C285.245 558.649 284.895 558.411 284.895 557.935C284.895 557.473 285.245 557.235 285.637 557.235C286.029 557.235 286.365 557.473 286.365 557.935Z" fill="#98C2FA"/>
<defs>
<filter id="filter0_d_516_386" x="164" y="392" width="30" height="30" filterUnits="userSpaceOnUse" color-interpolation-filters="sRGB">
<feFlood flood-opacity="0" result="BackgroundImageFix"/>
<feColorMatrix in="SourceAlpha" type="matrix" values="0 0 0 0 0 0 0 0 0 0 0 0 0 0 0 0 0 0 127 0" result="hardAlpha"/>
<feOffset/>
<feGaussianBlur stdDeviation="2.5"/>
<feComposite in2="hardAlpha" operator="out"/>
<feColorMatrix type="matrix" values="0 0 0 0 0.980392 0 0 0 0 0.619608 0 0 0 0 0.278431 0 0 0 0.25 0"/>
<feBlend mode="normal" in2="BackgroundImageFix" result="effect1_dropShadow_516_386"/>
<feBlend mode="normal" in="SourceGraphic" in2="effect1_dropShadow_516_386" result="shape"/>
</filter>
</defs>
</svg>
