<svg width="695" height="583" viewBox="0 0 695 583" fill="none" xmlns="http://www.w3.org/2000/svg">
<rect x="14.6813" y="89.3464" width="664.649" height="425.749" rx="38.7045" stroke="white" stroke-width="2.66927"/>
<rect x="1.33464" y="77.3346" width="691.342" height="449.772" rx="46.7123" stroke="white" stroke-opacity="0.19" stroke-width="2.66927"/>
<path d="M13.3477 133.39H680.666" stroke="white" stroke-width="2.66927"/>
<circle cx="52.05" cy="110.7" r="6.67308" fill="white"/>
<circle cx="78.7424" cy="110.7" r="6.67308" fill="white"/>
<circle cx="105.435" cy="110.7" r="6.67308" fill="white"/>
<rect x="30.696" y="154.744" width="186.849" height="340.332" rx="25.3581" stroke="white" stroke-width="2.66927"/>
<rect x="233.56" y="154.744" width="429.753" height="56.0547" rx="16.0156" stroke="white" stroke-opacity="0.8" stroke-width="2.66927"/>
<rect x="233.56" y="226.814" width="429.753" height="268.262" rx="16.0156" stroke="#2D2545" stroke-width="2.66927"/>
<rect x="254.915" y="246.834" width="388.378" height="21.3541" rx="10.6771" stroke="#2D2545" stroke-width="2.66927"/>
<rect x="254.915" y="293.546" width="388.378" height="24.0234" rx="12.0117" stroke="white" stroke-width="2.66927"/>
<rect x="254.915" y="342.927" width="388.378" height="22.6888" rx="11.3444" stroke="#2D2545" stroke-width="2.66927"/>
<rect x="254.915" y="390.974" width="388.378" height="34.7005" rx="17.3502" stroke="white" stroke-width="2.66927"/>
<path d="M639.289 449.698H253.58" stroke="#2D2545" stroke-width="2.66927" stroke-linecap="round"/>
<path d="M639.289 472.387H253.58" stroke="#2D2545" stroke-width="2.66927" stroke-linecap="round"/>
</svg>
